<?xml version="1.0" encoding="utf-8"?>
<!-- Generator: Adobe Illustrator 16.0.0, SVG Export Plug-In . SVG Version: 6.00 Build 0)  -->
<!DOCTYPE svg PUBLIC "-//W3C//DTD SVG 1.1//EN" "http://www.w3.org/Graphics/SVG/1.1/DTD/svg11.dtd">
<svg version="1.1" id="Layer_1" xmlns="http://www.w3.org/2000/svg" xmlns:xlink="http://www.w3.org/1999/xlink" x="0px" y="0px"
	 width="73.701px" height="73.701px" viewBox="0 0 73.701 73.701" enable-background="new 0 0 73.701 73.701" xml:space="preserve">
<path id="Bug_Fixing_1_" fill-rule="evenodd" clip-rule="evenodd" fill="#404041" d="M36.85,8.504
	c15.657,0,28.346,12.691,28.346,28.347S52.507,65.197,36.85,65.197c-15.655,0-28.346-12.691-28.346-28.347S21.195,8.504,36.85,8.504
	L36.85,8.504z M36.85,22.396c-0.639,0-1.258,0.085-1.847,0.243c-1.128-1.976-3.474-2.949-5.68-2.326
	c1.71,0.229,3.253,1.341,3.956,3.044c-2.057,1.195-3.459,3.391-3.541,5.921c2.093-1.209,4.521-1.902,7.111-1.902
	c2.59,0,5.02,0.693,7.112,1.902c-0.082-2.53-1.484-4.726-3.541-5.921c0.703-1.703,2.244-2.814,3.955-3.044
	c-2.205-0.623-4.551,0.35-5.68,2.326C38.108,22.481,37.489,22.396,36.85,22.396L36.85,22.396z M20.309,40.36
	c-0.686,0-1.244,0.56-1.244,1.245l0,0c0,0.685,0.559,1.245,1.244,1.245h4.51c0.128,1.244,0.444,2.433,0.92,3.537
	c-1.406,1-2.673,2.184-3.764,3.517l0.004,0.003c-0.215,0.224-0.348,0.528-0.348,0.863c0,0.688,0.558,1.244,1.246,1.244
	c0.353,0,0.672-0.146,0.897-0.382l0.082-0.094c0.903-1.116,1.948-2.113,3.108-2.964c1.873,2.652,4.786,4.517,8.146,5l1.738-11.97
	l1.739,11.97c3.361-0.484,6.273-2.349,8.146-5.001c1.16,0.852,2.205,1.849,3.109,2.965l0.082,0.094
	c0.227,0.236,0.545,0.382,0.896,0.382c0.689,0,1.246-0.557,1.246-1.244c0-0.335-0.133-0.64-0.348-0.863l0.004-0.003
	c-1.09-1.333-2.357-2.517-3.764-3.517c0.477-1.104,0.793-2.293,0.92-3.537h4.51c0.686,0,1.244-0.561,1.244-1.245l0,0
	c0-0.686-0.559-1.245-1.244-1.245h-4.51c-0.127-1.245-0.443-2.434-0.92-3.538c1.406-0.999,2.674-2.184,3.764-3.517l-0.004-0.003
	c0.215-0.224,0.348-0.527,0.348-0.863c0-0.688-0.557-1.245-1.246-1.245c-0.352,0-0.67,0.146-0.896,0.382l-0.082,0.095
	c-0.904,1.116-1.949,2.112-3.109,2.965c-2.189-3.101-5.801-5.125-9.885-5.125c-4.084,0-7.695,2.023-9.885,5.124
	c-1.174-0.862-2.209-1.857-3.127-2.987l-0.063-0.071c-0.226-0.235-0.545-0.382-0.897-0.382c-0.688,0-1.246,0.558-1.246,1.245
	c0,0.336,0.133,0.64,0.348,0.863l-0.004,0.003c1.091,1.333,2.357,2.518,3.764,3.517c-0.476,1.104-0.792,2.293-0.92,3.538H20.309z"/>
</svg>
