<?xml version="1.0" encoding="utf-8"?>
<!-- Generator: Adobe Illustrator 16.0.0, SVG Export Plug-In . SVG Version: 6.00 Build 0)  -->
<!DOCTYPE svg PUBLIC "-//W3C//DTD SVG 1.1//EN" "http://www.w3.org/Graphics/SVG/1.1/DTD/svg11.dtd">
<svg version="1.1" id="Layer_1" xmlns="http://www.w3.org/2000/svg" xmlns:xlink="http://www.w3.org/1999/xlink" x="0px" y="0px"
	 width="73.701px" height="73.701px" viewBox="0 0 73.701 73.701" enable-background="new 0 0 73.701 73.701" xml:space="preserve">
<path id="Business_Solutions_1_" fill-rule="evenodd" clip-rule="evenodd" fill="#404041" d="M36.851,8.504
	c15.656,0,28.345,12.691,28.345,28.347S52.507,65.197,36.851,65.197c-15.655,0-28.347-12.691-28.347-28.347
	S21.196,8.504,36.851,8.504L36.851,8.504z M50.161,22.671c-3.197-0.692-6.482-1.144-9.842-1.33c-0.168,0.34-0.264,0.72-0.264,1.124
	c0,0.342,0.068,0.668,0.191,0.967l0.004,0.007l0.002,0.008l0.008,0.016l0.008,0.017l0.006,0.016l0.008,0.016l0.006,0.013
	l0.002,0.004l0.014,0.03l0.014,0.037l0.004,0.012v0.002l0.004,0.011l0.006,0.012l0.004,0.012l0.004,0.012l0.006,0.013l0.004,0.012
	l0.006,0.013v0.002l0.023,0.058l0.027,0.091l0.002,0.008l0.002,0.007l0.004,0.008v0.002l0.002,0.006
	c0.107,0.349,0.164,0.719,0.164,1.103c0,2.06-1.668,3.729-3.727,3.729c-2.059,0-3.729-1.669-3.729-3.729
	c0-0.384,0.059-0.754,0.166-1.103h-0.006c0.014-0.04,0.025-0.081,0.037-0.121c0.026-0.063,0.052-0.129,0.074-0.193
	c0.16-0.331,0.248-0.7,0.248-1.092c0-0.404-0.095-0.785-0.264-1.124c-3.357,0.186-6.644,0.638-9.84,1.33
	c-0.297,0.046-0.526,0.303-0.531,0.611c0.713,3.279,1.176,6.653,1.363,10.1c-0.338,0.169-0.721,0.266-1.125,0.266
	c-0.338,0-0.658-0.065-0.951-0.185l-0.016-0.008l-0.008-0.004l-0.071-0.03l-0.013-0.006l-0.003-0.001l-0.005-0.002l-0.026-0.013
	l-0.024-0.009l-0.012-0.005l-0.012-0.005l-0.002-0.001l-0.012-0.004l-0.012-0.004l-0.012-0.005l-0.012-0.005l-0.013-0.005
	l-0.012-0.005l-0.013-0.004h-0.002l-0.057-0.024l-0.092-0.027l-0.008-0.003l-0.008-0.002l-0.007-0.002h-0.002l-0.006-0.002
	c-0.349-0.108-0.718-0.166-1.103-0.166c-2.06,0-3.729,1.669-3.729,3.729s1.669,3.729,3.729,3.729c0.385,0,0.754-0.059,1.103-0.166
	v0.005c0.04-0.012,0.081-0.024,0.122-0.035c0.063-0.027,0.128-0.053,0.193-0.075c0.33-0.159,0.699-0.248,1.092-0.248
	c0.404,0,0.787,0.095,1.125,0.265c-0.187,3.445-0.65,6.817-1.363,10.096c0.005,0.309,0.234,0.564,0.531,0.61
	c3.196,0.692,6.482,1.145,9.84,1.33c0.169-0.338,0.264-0.72,0.264-1.123c0-0.392-0.088-0.762-0.248-1.092
	c-0.022-0.065-0.048-0.131-0.074-0.194c-0.012-0.04-0.023-0.081-0.037-0.121h0.006c-0.107-0.349-0.166-0.719-0.166-1.103
	c0-2.06,1.67-3.729,3.729-3.729c2.059,0,3.727,1.669,3.727,3.729c0,0.384-0.057,0.754-0.164,1.103l-0.002,0.006v0.002l-0.004,0.008
	l-0.002,0.007l-0.002,0.008l-0.027,0.091l-0.023,0.058v0.002l-0.006,0.013l-0.004,0.012l-0.006,0.013l-0.004,0.012l-0.004,0.013
	l-0.006,0.012l-0.004,0.011v0.001l-0.004,0.012l-0.014,0.037l-0.014,0.03l-0.002,0.004l-0.006,0.012l-0.008,0.017l-0.006,0.016
	l-0.008,0.016l-0.008,0.017l-0.002,0.008l-0.004,0.008c-0.123,0.298-0.191,0.624-0.191,0.967c0,0.403,0.096,0.784,0.264,1.123
	c3.359-0.186,6.645-0.637,9.842-1.33l0.016-0.002c0.291-0.052,0.514-0.305,0.518-0.608c-0.715-3.278-1.178-6.651-1.365-10.096
	c0.34-0.17,0.723-0.265,1.127-0.265c0.391,0,0.762,0.089,1.092,0.248c0.064,0.022,0.129,0.048,0.193,0.075
	c0.039,0.011,0.08,0.023,0.121,0.035v-0.005c0.348,0.107,0.717,0.166,1.102,0.166c2.061,0,3.729-1.669,3.729-3.729
	s-1.668-3.729-3.729-3.729c-0.385,0-0.754,0.058-1.102,0.166l-0.006,0.002h-0.002l-0.008,0.002l-0.008,0.002l-0.008,0.003
	l-0.09,0.027l-0.059,0.024h-0.002l-0.012,0.004l-0.012,0.005l-0.014,0.006l-0.012,0.004l-0.012,0.005l-0.012,0.004l-0.012,0.004
	v0.001l-0.012,0.005l-0.014,0.005l-0.023,0.009l-0.025,0.013l-0.006,0.002l-0.004,0.001l-0.012,0.006l-0.07,0.03l-0.01,0.004
	l-0.016,0.008c-0.293,0.119-0.613,0.185-0.949,0.185c-0.404,0-0.787-0.097-1.127-0.266c0.188-3.446,0.65-6.819,1.365-10.1
	c-0.004-0.305-0.227-0.558-0.518-0.609L50.161,22.671z"/>
</svg>
