<?xml version="1.0" encoding="utf-8"?>
<!-- Generator: Adobe Illustrator 16.0.0, SVG Export Plug-In . SVG Version: 6.00 Build 0)  -->
<!DOCTYPE svg PUBLIC "-//W3C//DTD SVG 1.1//EN" "http://www.w3.org/Graphics/SVG/1.1/DTD/svg11.dtd">
<svg version="1.1" id="Layer_1" xmlns="http://www.w3.org/2000/svg" xmlns:xlink="http://www.w3.org/1999/xlink" x="0px" y="0px"
	 width="73.701px" height="73.701px" viewBox="0 0 73.701 73.701" enable-background="new 0 0 73.701 73.701" xml:space="preserve">
<path id="Business_Strategy_1_" fill-rule="evenodd" clip-rule="evenodd" fill="#404041" d="M36.851,8.504
	c15.656,0,28.345,12.69,28.345,28.346c0,15.657-12.689,28.346-28.345,28.346c-15.655,0-28.347-12.689-28.347-28.346
	C8.504,21.195,21.196,8.504,36.851,8.504L36.851,8.504z M24.691,48.206c-0.45,0-0.743,0.375-0.818,0.818l-0.684,4.016
	c-0.076,0.443,0.372,0.818,0.818,0.818h25.687c0.447,0,0.893-0.375,0.818-0.818l-0.684-4.016c-0.074-0.439-0.369-0.818-0.818-0.818
	h-12.16l9.337-2.4l-1.916-11.289l3.209-3.746V19.842h-3.912v3.23h-3.785v-3.23h-5.783v3.23h-3.87v-3.23h-3.912
	c0,3.644,0,7.285,0,10.929l3.21,3.746l-2.322,13.689H24.691z"/>
</svg>
