<?xml version="1.0" encoding="utf-8"?>
<!-- Generator: Adobe Illustrator 16.0.0, SVG Export Plug-In . SVG Version: 6.00 Build 0)  -->
<!DOCTYPE svg PUBLIC "-//W3C//DTD SVG 1.1//EN" "http://www.w3.org/Graphics/SVG/1.1/DTD/svg11.dtd">
<svg version="1.1" id="Layer_1" xmlns="http://www.w3.org/2000/svg" xmlns:xlink="http://www.w3.org/1999/xlink" x="0px" y="0px"
	 width="73.701px" height="73.701px" viewBox="0 0 73.701 73.701" enable-background="new 0 0 73.701 73.701" xml:space="preserve">
<path id="Affliliate_Marketing_1_" fill-rule="evenodd" clip-rule="evenodd" fill="none" stroke="#404041" stroke-width="2" stroke-miterlimit="22.9256" d="
	M56.273,61.005c0.499-0.608,6.402-7.497,6.405-7.551c1.021-14.544-9.201-24.49-18.784-28.168c5.555-0.158,4.755-2.773-0.725-3.809
	c2.879-5.805,12.321-14.631-0.496-11.405 M39.316,16.783l0.33-7.13C36.1,6.72,15.545-1.733,29.268,20.991
	c-3.864,0.631-5.116,4.292,0.804,4.297c-9.55,3.797-19.834,14.048-19.029,28.502 M13.186,58.384l-3.137-1.292
	c-2.054,1.354-3.387,3.108-3.933,4.312c-0.547,1.2,1.63,4.427,3.641,4.954c17.151,2.232,37.035,2.232,54.188,0
	c2.01-0.527,4.188-3.754,3.641-4.954c-0.519-1.144-1.679-2.734-3.552-4.051 M37.188,31.737v3.2 M32.516,49.843h-2.293v5.245
	c7.269,2.204,14.12,1.328,13.929-5.245c-0.179-6.216-13.613-3.813-13.766-9.014c-0.154-5.199,4.849-7.568,13.276-4.589l-0.164,4.917
	h-1.967 M37.188,56.171v3.198"/>
</svg>
