<?xml version="1.0" encoding="utf-8"?>
<!-- Generator: Adobe Illustrator 16.0.0, SVG Export Plug-In . SVG Version: 6.00 Build 0)  -->
<!DOCTYPE svg PUBLIC "-//W3C//DTD SVG 1.1//EN" "http://www.w3.org/Graphics/SVG/1.1/DTD/svg11.dtd">
<svg version="1.1" id="Layer_1" xmlns="http://www.w3.org/2000/svg" xmlns:xlink="http://www.w3.org/1999/xlink" x="0px" y="0px"
	 width="73.701px" height="73.701px" viewBox="0 0 73.701 73.701" enable-background="new 0 0 73.701 73.701" xml:space="preserve">
<path id="Backlinks_Building_1_" fill-rule="evenodd" clip-rule="evenodd" fill="none" stroke="#404041" stroke-width="2" stroke-miterlimit="22.9256" d="
	M53.065,45.118v17.797c0,1.449,1.172,2.621,2.618,2.621h9.695 M15.648,50.104l4.988-4.986l4.989,4.986 M20.637,45.118v17.797
	c0,1.449-1.172,2.621-2.619,2.621H8.323 M5.67,20.636h62.361 M36.858,35.763v27.152c0,1.449-1.174,2.621-2.62,2.621h-8.455
	 M41.22,65.536h7.483 M29.374,43.247l7.484-7.484l7.481,7.484 M65.379,65.536c1.46,0,2.652-1.193,2.652-2.652
	c0-19.018,0-33.047,0-52.065c0-1.461-1.192-2.655-2.652-2.655c-19.02,0-38.038,0-57.056,0c-1.459,0-2.653,1.194-2.653,2.655
	c-0.001,19.019,0,33.047,0,52.065c0,1.457,1.194,2.652,2.653,2.652 M58.055,50.104l-4.989-4.986l-4.99,4.986 M20.637,11.905
	c1.378,0,2.495,1.117,2.495,2.494c0,1.377-1.117,2.495-2.495,2.495c-1.377,0-2.494-1.117-2.494-2.495
	C18.143,13.022,19.259,11.905,20.637,11.905L20.637,11.905z M11.906,11.905c1.377,0,2.495,1.117,2.495,2.494
	c0,1.377-1.117,2.495-2.495,2.495c-1.377,0-2.494-1.117-2.494-2.495C9.412,13.022,10.529,11.905,11.906,11.905L11.906,11.905z
	 M29.368,11.905c1.377,0,2.494,1.117,2.494,2.494c0,1.377-1.117,2.495-2.494,2.495c-1.377,0-2.495-1.117-2.495-2.495
	C26.873,13.022,27.99,11.905,29.368,11.905z"/>
</svg>
