<?xml version="1.0" encoding="utf-8"?>
<!-- Generator: Adobe Illustrator 16.0.0, SVG Export Plug-In . SVG Version: 6.00 Build 0)  -->
<!DOCTYPE svg PUBLIC "-//W3C//DTD SVG 1.1//EN" "http://www.w3.org/Graphics/SVG/1.1/DTD/svg11.dtd">
<svg version="1.1" id="Layer_1" xmlns="http://www.w3.org/2000/svg" xmlns:xlink="http://www.w3.org/1999/xlink" x="0px" y="0px"
	 width="73.701px" height="73.701px" viewBox="0 0 73.701 73.701" enable-background="new 0 0 73.701 73.701" xml:space="preserve">
<path id="Branding_Services_1_" fill-rule="evenodd" clip-rule="evenodd" fill="none" stroke="#404041" stroke-width="2" stroke-miterlimit="22.9256" d="
	M55.37,26.542l-5.391,39.52l0.005,0.057c0,1.056-5.876,1.912-13.126,1.912S23.73,67.175,23.73,66.119L17.673,21.73h-2.111
	c-0.865,0-1.76-0.729-1.576-1.579l1.021-4.732c0.184-0.848,0.708-1.575,1.575-1.575h1.682l1.788-6.262
	c0-1.056,7.521-1.912,16.8-1.912c9.275,0,16.794,0.855,16.8,1.911l1.789,6.264h1.677c0.868,0,1.396,0.73,1.577,1.575l1.02,4.732
	c0.183,0.833-0.685,1.556-1.536,1.579H36.851 M36.855,55.781c-4.995,0-9.043-4.878-9.043-10.899s4.048-10.9,9.043-10.9
	c4.996,0,9.042,4.879,9.042,10.9"/>
</svg>
