<?xml version="1.0" encoding="utf-8"?>
<!-- Generator: Adobe Illustrator 16.0.0, SVG Export Plug-In . SVG Version: 6.00 Build 0)  -->
<!DOCTYPE svg PUBLIC "-//W3C//DTD SVG 1.1//EN" "http://www.w3.org/Graphics/SVG/1.1/DTD/svg11.dtd">
<svg version="1.1" id="Layer_1" xmlns="http://www.w3.org/2000/svg" xmlns:xlink="http://www.w3.org/1999/xlink" x="0px" y="0px"
	 width="73.701px" height="73.701px" viewBox="0 0 73.701 73.701" enable-background="new 0 0 73.701 73.701" xml:space="preserve">
<path id="Bug_Fixing_1_" fill-rule="evenodd" clip-rule="evenodd" fill="none" stroke="#404041" stroke-width="2" stroke-miterlimit="22.9256" d="
	M24.385,23.564c0.143-4.436,2.6-8.283,6.205-10.379 M23.656,7.85c3.867-1.093,7.979,0.613,9.957,4.076
	c1.033-0.276,2.118-0.425,3.238-0.425s2.204,0.149,3.237,0.425c1.978-3.464,6.088-5.169,9.957-4.076 M43.112,13.185
	c3.604,2.097,6.062,5.944,6.205,10.379 M38.21,55.684l-1.525-10.499l-3.043,20.952c-10.188-1.549-17.994-10.343-17.994-20.962
	c0-11.71,9.492-21.204,21.203-21.204c11.71,0,21.203,9.493,21.203,21.204c0,10.73-7.972,19.6-18.318,21.006 M11.897,62.202
	c1.849-2.476,4.055-4.668,6.541-6.507 M55.432,55.393c2.655,1.896,5.004,4.196,6.956,6.81 M5.67,45.175h9.979 M68.031,45.175h-9.979
	 M11.903,28.141c1.849,2.475,4.054,4.669,6.539,6.507 M55.432,34.957c2.658-1.899,5.009-4.2,6.962-6.816"/>
</svg>
