<?xml version="1.0" encoding="utf-8"?>
<!-- Generator: Adobe Illustrator 16.0.0, SVG Export Plug-In . SVG Version: 6.00 Build 0)  -->
<!DOCTYPE svg PUBLIC "-//W3C//DTD SVG 1.1//EN" "http://www.w3.org/Graphics/SVG/1.1/DTD/svg11.dtd">
<svg version="1.1" id="Layer_1" xmlns="http://www.w3.org/2000/svg" xmlns:xlink="http://www.w3.org/1999/xlink" x="0px" y="0px"
	 width="73.701px" height="73.701px" viewBox="0 0 73.701 73.701" enable-background="new 0 0 73.701 73.701" xml:space="preserve">
<path id="Business_Solutions_1_" fill-rule="evenodd" clip-rule="evenodd" fill="none" stroke="#404041" stroke-width="2" stroke-miterlimit="22.9256" d="
	M58.604,58.174c-0.008,0.478-0.357,0.875-0.813,0.956l-0.025,0.002c-5.023,1.091-10.188,1.8-15.466,2.09
	c-0.265-0.532-0.415-1.131-0.415-1.765c0-0.606,0.14-1.187,0.391-1.716c0.061-0.167,0.121-0.317,0.175-0.494
	c0.168-0.548,0.259-1.128,0.259-1.732c0-3.235-2.622-5.859-5.858-5.859c-3.234,0-5.858,2.624-5.858,5.859
	c0,0.604,0.092,1.185,0.261,1.732c0.054,0.164,0.145,0.44,0.166,0.494c0.25,0.519,0.39,1.101,0.39,1.716
	c0,0.634-0.15,1.232-0.415,1.765c-5.276-0.29-10.44-0.999-15.462-2.09c-0.467-0.072-0.828-0.475-0.835-0.958
	c1.12-5.151,1.85-10.449,2.143-15.863c-0.532-0.267-1.133-0.417-1.769-0.417c-0.616,0-1.197,0.14-1.715,0.39
	c-0.034,0.011-0.332,0.124-0.496,0.167c-0.547,0.169-1.128,0.26-1.732,0.26c-3.236,0-5.859-2.623-5.859-5.857
	c0-3.237,2.623-5.86,5.859-5.86c0.604,0,1.185,0.09,1.732,0.259c0.242,0.083,0.484,0.169,0.718,0.275
	c0.46,0.188,0.963,0.292,1.493,0.292c0.635,0,1.237-0.152,1.769-0.417c-0.294-5.416-1.021-10.718-2.143-15.87
	c0.007-0.486,0.368-0.889,0.835-0.96c5.022-1.09,10.186-1.799,15.462-2.09c0.265,0.53,0.415,1.14,0.415,1.764
	c0,0.626-0.14,1.198-0.39,1.716c-0.041,0.113-0.112,0.296-0.166,0.495c-0.169,0.547-0.261,1.128-0.261,1.732
	c0,3.236,2.624,5.858,5.858,5.858c3.236,0,5.858-2.623,5.858-5.858c0-0.604-0.091-1.186-0.259-1.732
	c-0.089-0.236-0.162-0.452-0.264-0.691c-0.194-0.469-0.302-0.981-0.302-1.52c0-0.634,0.15-1.231,0.415-1.764
	c5.277,0.292,10.442,1,15.466,2.09l0.025,0.003c0.455,0.082,0.805,0.478,0.813,0.958c-1.122,5.153-1.851,10.455-2.145,15.87
	c0.532,0.266,1.132,0.417,1.769,0.417c0.529,0,1.032-0.104,1.493-0.292c0.233-0.101,0.474-0.201,0.717-0.275
	c0.548-0.169,1.128-0.259,1.732-0.259c3.236,0,5.861,2.623,5.861,5.86c0,3.234-2.625,5.857-5.861,5.857
	c-0.604,0-1.185-0.091-1.732-0.26c-0.204-0.067-1.932-0.557-2.21-0.557c-0.637,0-1.236,0.15-1.769,0.417
	c0.146,2.68,0.397,5.33,0.751,7.951"/>
</svg>
