<?xml version="1.0" encoding="utf-8"?>
<!-- Generator: Adobe Illustrator 16.0.0, SVG Export Plug-In . SVG Version: 6.00 Build 0)  -->
<!DOCTYPE svg PUBLIC "-//W3C//DTD SVG 1.1//EN" "http://www.w3.org/Graphics/SVG/1.1/DTD/svg11.dtd">
<svg version="1.1" id="Layer_1" xmlns="http://www.w3.org/2000/svg" xmlns:xlink="http://www.w3.org/1999/xlink" x="0px" y="0px"
	 width="73.701px" height="73.701px" viewBox="0 0 73.701 73.701" enable-background="new 0 0 73.701 73.701" xml:space="preserve">
<path id="Business_Strategy_1_" fill-rule="evenodd" clip-rule="evenodd" fill="none" stroke="#404041" stroke-width="2" stroke-miterlimit="22.9256" d="
	M36.922,57.669h22.224c0.825,0,1.368,0.729,1.5,1.502l1.252,7.359c0.139,0.814-0.677,1.502-1.5,1.502H13.305
	c-0.82,0-1.64-0.686-1.5-1.502l1.254-7.359c0.138-0.814,0.675-1.502,1.5-1.502h4.429l4.256-25.095l-5.884-6.869
	c0-6.68,0.001-13.356,0.001-20.035h7.171v5.923h7.094V5.67h10.602v5.923h6.939V5.67h7.173v20.035l-5.884,6.869l3.388,19.954"/>
</svg>
