<?xml version="1.0" encoding="utf-8"?>
<!-- Generator: Adobe Illustrator 16.0.0, SVG Export Plug-In . SVG Version: 6.00 Build 0)  -->
<!DOCTYPE svg PUBLIC "-//W3C//DTD SVG 1.1//EN" "http://www.w3.org/Graphics/SVG/1.1/DTD/svg11.dtd">
<svg version="1.1" id="Layer_1" xmlns="http://www.w3.org/2000/svg" xmlns:xlink="http://www.w3.org/1999/xlink" x="0px" y="0px"
	 width="73.701px" height="73.701px" viewBox="0 0 73.701 73.701" enable-background="new 0 0 73.701 73.701" xml:space="preserve">
<path id="Campaign_Tweaks_1_" fill-rule="evenodd" clip-rule="evenodd" fill="none" stroke="#404041" stroke-width="2" stroke-miterlimit="22.9256" d="
	M59.197,46.586v19.045 M59.197,8.07v20.327 M36.85,19.302l0-11.232 M36.85,37.491l0,28.14 M14.502,54.383v11.248 M14.502,8.07
	v28.124 M54.781,37.492h8.833 M53.52,28.397h11.357c1.735,0,3.154,1.406,3.154,3.118v11.953c0,1.713-1.421,3.118-3.154,3.118H53.52
	c-1.733,0-3.155-1.402-3.155-3.118V31.515C50.364,29.801,51.783,28.397,53.52,28.397L53.52,28.397z M32.435,28.397h8.834
	 M31.171,19.302h11.358c1.735,0,3.154,1.407,3.154,3.118v11.953c0,1.713-1.422,3.118-3.154,3.118H31.171
	c-1.732,0-3.154-1.402-3.154-3.118V22.42C28.017,20.706,29.436,19.302,31.171,19.302L31.171,19.302z M10.087,45.29h8.833
	 M8.825,36.194h11.357c1.735,0,3.155,1.405,3.155,3.118v11.952c0,1.712-1.421,3.118-3.155,3.118H8.825
	c-1.733,0-3.155-1.403-3.155-3.118V39.313C5.67,37.597,7.09,36.194,8.825,36.194z"/>
</svg>
