<?xml version="1.0" encoding="utf-8"?>
<!-- Generator: Adobe Illustrator 16.0.0, SVG Export Plug-In . SVG Version: 6.00 Build 0)  -->
<!DOCTYPE svg PUBLIC "-//W3C//DTD SVG 1.1//EN" "http://www.w3.org/Graphics/SVG/1.1/DTD/svg11.dtd">
<svg version="1.1" id="Layer_1" xmlns="http://www.w3.org/2000/svg" xmlns:xlink="http://www.w3.org/1999/xlink" x="0px" y="0px"
	 width="73.701px" height="73.701px" viewBox="0 0 73.701 73.701" enable-background="new 0 0 73.701 73.701" xml:space="preserve">
<path id="Campaign_Launch_1_" fill-rule="evenodd" clip-rule="evenodd" fill="none" stroke="#404041" stroke-width="2" stroke-miterlimit="22.9256" d="
	M45.159,53.983l-2.269,4.329c-0.172,0.273-0.477,0.459-0.823,0.467H31.634c-0.346-0.008-0.651-0.193-0.824-0.467l-2.269-4.329
	c-2.709,2.336-4.426,5.794-4.426,9.654c0,0.614,0.08,1.145,0.112,1.738c0,0.344-0.229,0.631-0.543,0.718l-3.079,0.823
	c-0.254,0.049-0.506-0.028-0.686-0.219c-3.949-5.066-6.304-11.434-6.304-18.351c0-1.286,0.083-2.55,0.24-3.791
	c2.264-2.723,5.002-5.039,8.087-6.821c-0.284-1.678-0.433-3.401-0.433-5.157c0-11.284,6.112-21.205,15.341-26.909
	c9.229,5.704,15.342,15.625,15.342,26.907c0,1.756-0.149,3.479-0.435,5.159c3.087,1.782,5.824,4.099,8.089,6.821
	c0.155,1.241,0.238,2.505,0.238,3.791c0,6.917-2.354,13.284-6.303,18.351c-0.18,0.19-0.432,0.268-0.687,0.219l-3.063-0.82
	c-0.369-0.092-0.575-0.42-0.556-0.789c0.072-0.546,0.109-1.104,0.109-1.67 M36.851,27.386c-2.851,0-5.163-2.319-5.163-5.179
	c0-2.861,2.312-5.18,5.163-5.18c2.851,0,5.163,2.319,5.163,5.18 M36.849,62.273v5.758"/>
</svg>
