<?xml version="1.0" encoding="utf-8"?>
<!-- Generator: Adobe Illustrator 16.0.0, SVG Export Plug-In . SVG Version: 6.00 Build 0)  -->
<!DOCTYPE svg PUBLIC "-//W3C//DTD SVG 1.1//EN" "http://www.w3.org/Graphics/SVG/1.1/DTD/svg11.dtd">
<svg version="1.1" id="Layer_1" xmlns="http://www.w3.org/2000/svg" xmlns:xlink="http://www.w3.org/1999/xlink" x="0px" y="0px"
	 width="73.701px" height="73.701px" viewBox="0 0 73.701 73.701" enable-background="new 0 0 73.701 73.701" xml:space="preserve">
<path id="Campaign_Timing_1_" fill-rule="evenodd" clip-rule="evenodd" fill="none" stroke="#404041" stroke-width="2" stroke-miterlimit="22.9256" d="
	M36.851,33.02c2.891,0,5.234,2.343,5.234,5.231c0,2.894-2.344,5.236-5.234,5.236c-2.889,0-5.234-2.343-5.234-5.236
	C31.617,35.363,33.961,33.02,36.851,33.02L36.851,33.02z M30.444,22.786l4.406,10.63 M48.339,44.886l-6.952-4.02 M36.851,11.431
	c14.815,0,26.824,12.008,26.824,26.82c0,14.815-12.009,26.824-26.824,26.824c-14.814,0-26.823-12.009-26.823-26.824
	C10.028,23.439,22.036,11.431,36.851,11.431L36.851,11.431z M54.995,68.031l-4.189-6.866 M18.706,68.031l4.191-6.866 M36.851,15.355
	v3.886 M36.851,57.267v3.884 M13.954,38.251h3.886 M55.862,38.251h3.886 M12.158,15.307c4.264-4.586,9.79-7.982,16.024-9.637
	 M61.545,15.307c-4.266-4.586-9.79-7.982-16.024-9.637"/>
</svg>
