<?xml version="1.0" encoding="utf-8"?>
<!-- Generator: Adobe Illustrator 16.0.0, SVG Export Plug-In . SVG Version: 6.00 Build 0)  -->
<!DOCTYPE svg PUBLIC "-//W3C//DTD SVG 1.1//EN" "http://www.w3.org/Graphics/SVG/1.1/DTD/svg11.dtd">
<svg version="1.1" id="Layer_1" xmlns="http://www.w3.org/2000/svg" xmlns:xlink="http://www.w3.org/1999/xlink" x="0px" y="0px"
	 width="73.701px" height="73.701px" viewBox="0 0 73.701 73.701" enable-background="new 0 0 73.701 73.701" xml:space="preserve">
<path id="Case_Study_1_" fill-rule="evenodd" clip-rule="evenodd" fill="none" stroke="#404041" stroke-width="2" stroke-miterlimit="22.9256" d="
	M31.899,19.238L16.195,34.941 M16.195,42.174L31.64,57.618 M58.356,68.031c0-2.941-2.408-5.348-5.35-5.348h-9.128
	c-0.006-3.956-3.214-7.162-7.172-7.162c-3.957,0-7.167,3.206-7.171,7.162h-9.129c-2.94,0-5.35,2.406-5.35,5.348 M34.79,22.127
	c-2.825,6.687-1.514,14.706,3.936,20.154c0.099,0.101,1.189,1.135,1.215,1.11c0.676,0.567,1.68,0.543,2.328-0.076l23.482-23.482
	c0.617-0.648,0.645-1.652,0.076-2.33c-0.146-0.182-0.955-1.06-1.108-1.214c-5.448-5.449-13.467-6.758-20.153-3.935l-5.919-5.918
	c-1.022-1.022-2.691-1.022-3.714,0l-6.06,6.059c-1.022,1.022-1.022,2.692,0,3.715C32.353,19.69,31.131,18.469,34.79,22.127
	L34.79,22.127z M62.767,29.436c1.606,3.046,1.13,6.902-1.431,9.464c-2.564,2.562-6.42,3.037-9.467,1.432 M12.581,33.444
	c2.824,0,5.113,2.287,5.113,5.113c0,2.824-2.289,5.113-5.113,5.113c-2.825,0-5.113-2.289-5.113-5.113
	C7.467,35.731,9.756,33.444,12.581,33.444z"/>
</svg>
