<?xml version="1.0" encoding="utf-8"?>
<!-- Generator: Adobe Illustrator 16.0.0, SVG Export Plug-In . SVG Version: 6.00 Build 0)  -->
<!DOCTYPE svg PUBLIC "-//W3C//DTD SVG 1.1//EN" "http://www.w3.org/Graphics/SVG/1.1/DTD/svg11.dtd">
<svg version="1.1" id="Layer_1" xmlns="http://www.w3.org/2000/svg" xmlns:xlink="http://www.w3.org/1999/xlink" x="0px" y="0px"
	 width="73.701px" height="73.701px" viewBox="0 0 73.701 73.701" enable-background="new 0 0 73.701 73.701" xml:space="preserve">
<path id="Communities__x26__Networks_1_" fill-rule="evenodd" clip-rule="evenodd" fill="none" stroke="#404041" stroke-width="2" stroke-miterlimit="22.9256" d="
	M36.85,30.259c3.808,0,6.89,3.081,6.89,6.89c0,3.803-3.082,6.889-6.89,6.889c-3.805,0-6.89-3.086-6.89-6.889
	C29.96,33.34,33.045,30.259,36.85,30.259L36.85,30.259z M18.103,55.21c3.459,0,6.262,2.805,6.262,6.262
	c0,3.461-2.803,6.262-6.262,6.262s-6.262-2.801-6.262-6.262C11.841,58.015,14.644,55.21,18.103,55.21L18.103,55.21z M36.851,49.091
	c4.672,0,8.453,3.779,8.453,8.451c0,4.67-3.781,8.453-8.453,8.453c-4.671,0-8.453-3.783-8.453-8.453
	C28.397,52.87,32.18,49.091,36.851,49.091L36.851,49.091z M14.229,28.588c4.728,0,8.56,3.832,8.56,8.561
	c0,4.725-3.832,8.559-8.56,8.559c-4.728,0-8.561-3.834-8.561-8.559C5.669,32.42,9.502,28.588,14.229,28.588L14.229,28.588z
	 M36.851,5.968c3.807,0,6.89,3.082,6.89,6.889c0,3.804-3.083,6.889-6.89,6.889s-6.889-3.085-6.889-6.889
	C29.961,9.05,33.044,5.968,36.851,5.968L36.851,5.968z M58.338,14.874c5.354,0,9.693,4.34,9.693,9.693
	c0,5.354-4.34,9.693-9.693,9.693c-5.354,0-9.693-4.339-9.693-9.693C48.645,19.214,52.983,14.874,58.338,14.874L58.338,14.874z
	 M42.901,16.157l6.923,3.771 M32.154,17.899L20.063,30.884 M49.975,29.472l-7.173,4.205 M20.586,42.882l9.906,8.928 M28.575,59.278
	l-4.343,0.91"/>
</svg>
