<?xml version="1.0" encoding="utf-8"?>
<!-- Generator: Adobe Illustrator 16.0.0, SVG Export Plug-In . SVG Version: 6.00 Build 0)  -->
<!DOCTYPE svg PUBLIC "-//W3C//DTD SVG 1.1//EN" "http://www.w3.org/Graphics/SVG/1.1/DTD/svg11.dtd">
<svg version="1.1" id="Layer_1" xmlns="http://www.w3.org/2000/svg" xmlns:xlink="http://www.w3.org/1999/xlink" x="0px" y="0px"
	 width="73.701px" height="73.701px" viewBox="0 0 73.701 73.701" enable-background="new 0 0 73.701 73.701" xml:space="preserve">
<g id="Content_Delivery_1_">
	<path fill-rule="evenodd" clip-rule="evenodd" fill="none" stroke="#404041" stroke-width="2" stroke-miterlimit="22.9256" d="
		M41.32,23.202H14.05c-1.447,0-2.62,1.173-2.62,2.62v30.564h20.059l0,0c0,0.66,0.539,1.2,1.199,1.2h7.796
		c0.66,0,1.199-0.54,1.199-1.2l0,0l20.562-0.108V30.956 M65.15,56.386h2.881c0,2.318-1.879,4.199-4.197,4.199H9.867
		c-2.318,0-4.198-1.881-4.198-4.199H8.55"/>
	
		<path fill-rule="evenodd" clip-rule="evenodd" fill="none" stroke="#404041" stroke-width="2" stroke-miterlimit="22.9256" stroke-dasharray="1.325,1.325" d="
		M29.826,45.057c-18.194,11.444-25.922-8.302-16.542-9.378c9.236-1.061,6.793,17.368-7.528,10.149"/>
	<path fill-rule="evenodd" clip-rule="evenodd" fill="none" stroke="#404041" stroke-width="2" stroke-miterlimit="22.9256" d="
		M39.283,35.983l19.848,4.856l8.9-27.724L20.062,31.23l10.345,2.547l6.773-3.717 M41.392,27.747l26.64-14.631 M46.024,37.635
		l-9.346,10.773l-6.271-14.631 M36.678,48.407l2.605-12.424l28.748-22.868"/>
</g>
</svg>
