<?xml version="1.0" encoding="utf-8"?>
<!-- Generator: Adobe Illustrator 16.0.0, SVG Export Plug-In . SVG Version: 6.00 Build 0)  -->
<!DOCTYPE svg PUBLIC "-//W3C//DTD SVG 1.1//EN" "http://www.w3.org/Graphics/SVG/1.1/DTD/svg11.dtd">
<svg version="1.1" id="Layer_1" xmlns="http://www.w3.org/2000/svg" xmlns:xlink="http://www.w3.org/1999/xlink" x="0px" y="0px"
	 width="73.701px" height="73.701px" viewBox="0 0 73.701 73.701" enable-background="new 0 0 73.701 73.701" xml:space="preserve">
<path id="Content_Management_1_" fill-rule="evenodd" clip-rule="evenodd" fill="none" stroke="#404041" stroke-width="2" stroke-miterlimit="22.9256" d="
	M48.288,65.535c0.124-0.685,0.191-1.391,0.191-2.111c0-6.422-5.207-11.629-11.627-11.629c-6.421,0-11.628,5.207-11.628,11.629
	c0,0.721,0.067,1.427,0.192,2.111H8.324c-1.46,0-2.654-1.193-2.654-2.652c0-19.019,0.001-33.047,0.001-52.065
	c0-1.452,1.193-2.652,2.652-2.652H65.38c1.458,0,2.652,1.194,2.652,2.652c0,19.017-0.001,33.05-0.001,52.065
	c0,1.458-1.193,2.652-2.653,2.652H48.288L48.288,65.535z M10.784,59.431l6.255-2.074c0.388-1.265,0.892-2.479,1.501-3.629
	l-2.749-5.456c1.711-2.352,3.685-4.307,5.898-5.896l5.446,2.75c1.148-0.613,2.361-1.117,3.625-1.507l1.913-5.801
	c2.873-0.452,5.651-0.441,8.341,0l1.907,5.792c1.264,0.389,2.478,0.893,3.626,1.501l5.455-2.747
	c2.354,1.711,4.309,3.683,5.898,5.896l-2.75,5.447c0.611,1.148,1.117,2.361,1.507,3.625l6.261,2.121 M11.534,13.154h8.229
	c0.481,0,0.875,0.404,0.875,0.874v13.217c0,0.47-0.405,0.875-0.875,0.875h-8.229c-0.47,0-0.875-0.394-0.875-0.875V14.028
	C10.66,13.547,11.053,13.154,11.534,13.154L11.534,13.154z M49.944,28.122h7.112 M40.761,23.132H35.37 M25.627,18.144h17.308
	 M59.184,18.144h-6.271 M10.66,33.111h1.996 M25.627,23.132h5.751 M22.634,33.111h7.584 M44.752,23.132h10.791 M25.627,28.122
	h11.149 M40.769,28.122h5.185 M48.922,18.144h-1.996 M16.646,33.111h1.996 M61.049,28.122h1.995"/>
</svg>
