<?xml version="1.0" encoding="utf-8"?>
<!-- Generator: Adobe Illustrator 16.0.0, SVG Export Plug-In . SVG Version: 6.00 Build 0)  -->
<!DOCTYPE svg PUBLIC "-//W3C//DTD SVG 1.1//EN" "http://www.w3.org/Graphics/SVG/1.1/DTD/svg11.dtd">
<svg version="1.1" id="Layer_1" xmlns="http://www.w3.org/2000/svg" xmlns:xlink="http://www.w3.org/1999/xlink" x="0px" y="0px"
	 width="73.701px" height="73.701px" viewBox="0 0 73.701 73.701" enable-background="new 0 0 73.701 73.701" xml:space="preserve">
<path id="Conversion_Optimization_1_" fill-rule="evenodd" clip-rule="evenodd" fill="none" stroke="#404041" stroke-width="2" stroke-miterlimit="22.9256" d="
	M36.85,12.817c2.303,0,4.17,1.867,4.17,4.171s-1.867,4.169-4.17,4.169c-2.302,0-4.17-1.866-4.17-4.169S34.548,12.817,36.85,12.817
	L36.85,12.817z M24.627,20.194c-7.004,1.006-11.698,2.857-11.698,4.972c0,0.356,0.134,0.705,0.387,1.042l18.163,20.648l0.892,4.807
	c-2.585,1.53-4.32,3.532-4.32,7.573c0,4.04,3.938,8.795,8.795,8.795c4.858,0,8.796-4.755,8.796-8.795
	c0-4.041-1.734-6.042-4.318-7.573l0.894-4.802l18.159-20.644c0.258-0.34,0.396-0.692,0.396-1.051c0-1.78-3.328-3.374-8.561-4.435
	c0.024-0.153,0.039-0.309,0.039-0.469c0-1.546-1.254-2.799-2.799-2.799c-1.548,0-2.802,1.253-2.802,2.799c0,1.547,1.254,2.8,2.8,2.8
	 M26.161,5.669c1.088,0,1.967,0.882,1.967,1.967s-0.879,1.967-1.967,1.967c-1.085,0-1.964-0.882-1.964-1.967
	S25.076,5.669,26.161,5.669L26.161,5.669z M55.581,7.639c2.303,0,4.169,1.866,4.169,4.169c0,2.303-1.866,4.171-4.169,4.171
	s-4.171-1.868-4.171-4.171C51.41,9.506,53.278,7.639,55.581,7.639L55.581,7.639z M18.214,9.691c2.303,0,4.169,1.868,4.169,4.171
	c0,2.302-1.867,4.169-4.169,4.169c-2.302,0-4.17-1.867-4.17-4.169C14.044,11.56,15.912,9.691,18.214,9.691L18.214,9.691z
	 M53.383,27.201c-3.624,0.843-9.674,1.396-16.527,1.396c-6.855,0-12.907-0.555-16.53-1.398"/>
</svg>
