<?xml version="1.0" encoding="utf-8"?>
<!-- Generator: Adobe Illustrator 16.0.0, SVG Export Plug-In . SVG Version: 6.00 Build 0)  -->
<!DOCTYPE svg PUBLIC "-//W3C//DTD SVG 1.1//EN" "http://www.w3.org/Graphics/SVG/1.1/DTD/svg11.dtd">
<svg version="1.1" id="Layer_1" xmlns="http://www.w3.org/2000/svg" xmlns:xlink="http://www.w3.org/1999/xlink" x="0px" y="0px"
	 width="73.701px" height="73.701px" viewBox="0 0 73.701 73.701" enable-background="new 0 0 73.701 73.701" xml:space="preserve">
<path id="Creative_Campaigns_1_" fill-rule="evenodd" clip-rule="evenodd" fill="none" stroke="#404041" stroke-width="2" stroke-miterlimit="22.9256" d="
	M36.872,5.669c11.182,0,20.249,9.066,20.249,20.249c0,5.09-1.879,9.742-4.979,13.296c-3.141,3.605-4.859,7.176-6.164,11.739
	c-0.244,0.898-1.055,1.559-2.025,1.578H29.791c-0.984-0.022-1.806-0.703-2.038-1.621h-0.001c-1.123-4.386-3.257-8.367-6.142-11.681
	c-3.237-3.825-4.989-8.272-4.989-13.312C16.621,14.735,25.688,5.669,36.872,5.669L36.872,5.669z M36.872,14.347
	c-6.393,0-11.574,5.18-11.574,11.571 M44.47,57.081c0.696,0,1.266,0.571,1.266,1.268c0,2.104,0,2.733,0,4.836
	c0,1.776-2.438,2.896-5.504,3.354c-0.007,0.824-0.682,1.493-1.506,1.493H35.01c-0.822,0-1.495-0.671-1.502-1.493
	C30.441,66.081,28,64.961,28,63.185c0-2.103,0-2.732,0-4.836c0-0.696,0.572-1.268,1.266-1.268h7.601 M15.934,37.936l-5.401,3.117
	 M63.194,11.638l-5.402,3.118 M15.934,14.758l-5.401-3.118 M63.194,41.056l-5.402-3.118 M12.941,25.919H6.705 M67.021,26.774h-6.236
	"/>
</svg>
