<?xml version="1.0" encoding="utf-8"?>
<!-- Generator: Adobe Illustrator 16.0.0, SVG Export Plug-In . SVG Version: 6.00 Build 0)  -->
<!DOCTYPE svg PUBLIC "-//W3C//DTD SVG 1.1//EN" "http://www.w3.org/Graphics/SVG/1.1/DTD/svg11.dtd">
<svg version="1.1" id="Layer_1" xmlns="http://www.w3.org/2000/svg" xmlns:xlink="http://www.w3.org/1999/xlink" x="0px" y="0px"
	 width="73.701px" height="73.701px" viewBox="0 0 73.701 73.701" enable-background="new 0 0 73.701 73.701" xml:space="preserve">
<path id="Custom_Coding_1_" fill-rule="evenodd" clip-rule="evenodd" fill="none" stroke="#404041" stroke-width="2" stroke-miterlimit="22.9256" d="
	M26.875,64.29c1.712-1.287,3.083-3.002,3.95-4.988 M46.831,64.29c-3.031-2.275-4.99-5.896-4.99-9.977 M38.996,39.346h1.871
	 M25.188,39.346h1.871 M7.547,9.411h58.61c1.032,0,1.874,0.855,1.874,1.878v41.144c0,1.022-0.856,1.881-1.874,1.881H7.547
	c-1.021,0-1.878-0.844-1.878-1.881V11.289C5.669,10.251,6.513,9.411,7.547,9.411L7.547,9.411z M21.852,64.29h29.934 M63.043,44.334
	H10.658 M47.246,29.367h15.798 M36.02,29.367h1.872 M41.633,29.367h1.871 M15.648,29.367h16.63 M15.648,34.355h13.051
	 M15.646,24.378l4.984-4.984l-5.038-4.993 M20.634,24.378h5.655 M32.44,34.355h5.872 M53.339,39.346h-8.729 M35.255,39.346h-4.456"
	/>
</svg>
