<?xml version="1.0" encoding="utf-8"?>
<!-- Generator: Adobe Illustrator 16.0.0, SVG Export Plug-In . SVG Version: 6.00 Build 0)  -->
<!DOCTYPE svg PUBLIC "-//W3C//DTD SVG 1.1//EN" "http://www.w3.org/Graphics/SVG/1.1/DTD/svg11.dtd">
<svg version="1.1" id="Layer_1" xmlns="http://www.w3.org/2000/svg" xmlns:xlink="http://www.w3.org/1999/xlink" x="0px" y="0px"
	 width="73.701px" height="73.701px" viewBox="0 0 73.701 73.701" enable-background="new 0 0 73.701 73.701" xml:space="preserve">
<path id="E-Commerce_Solutions_1_" fill-rule="evenodd" clip-rule="evenodd" fill="none" stroke="#404041" stroke-width="2" stroke-miterlimit="22.9256" d="
	M36.169,56.564c0,3.452-2.792,6.252-6.25,6.252c-3.454,0-6.253-2.8-6.253-6.252s2.799-6.25,6.253-6.25
	C33.376,50.314,36.169,53.112,36.169,56.564L36.169,56.564z M48.458,56.542c0,3.451,2.799,6.252,6.25,6.252
	c3.45,0,6.251-2.801,6.251-6.252c0-3.454-2.801-6.251-6.251-6.251C51.257,50.291,48.458,53.088,48.458,56.542L48.458,56.542z
	 M62.371,45.33H21.594l-0.869-5.054l36.046,0.019c3.993,0,7.76-3.197,8.421-7.131l2.84-17.062H16.568l-0.897-5.218H9.283
	c-2,0-3.613,1.622-3.613,3.614v1.583 M17.362,20.706l2.571,14.967"/>
</svg>
