<?xml version="1.0" encoding="utf-8"?>
<!-- Generator: Adobe Illustrator 16.0.0, SVG Export Plug-In . SVG Version: 6.00 Build 0)  -->
<!DOCTYPE svg PUBLIC "-//W3C//DTD SVG 1.1//EN" "http://www.w3.org/Graphics/SVG/1.1/DTD/svg11.dtd">
<svg version="1.1" id="Layer_1" xmlns="http://www.w3.org/2000/svg" xmlns:xlink="http://www.w3.org/1999/xlink" x="0px" y="0px"
	 width="73.701px" height="73.701px" viewBox="0 0 73.701 73.701" enable-background="new 0 0 73.701 73.701" xml:space="preserve">
<path id="E-Mail_Marketing_1_" fill-rule="evenodd" clip-rule="evenodd" fill="none" stroke="#404041" stroke-width="2" stroke-miterlimit="22.9256" d="
	M16.895,17.759h1.996 M22.634,17.759h8.486 M34.523,27.737h-5.391 M16.895,22.748h19.802 M51.699,22.748h-5.023 M16.895,27.737
	h8.247 M38.515,27.737h18.292 M16.895,32.727H30.54 M34.531,32.727h5.184 M11.906,34.699V8.165c0-1.372,1.123-2.495,2.495-2.495
	h35.306v12.09h12.089v17.001 M53.881,8.596l4.99,4.989 M42.685,22.748h-1.995 M36.836,49.55L5.669,31.065v36.966h62.363V31.064
	L36.836,49.55L36.836,49.55z M55.247,55.247L44.818,44.82 M18.448,55.247l5.881-5.88"/>
</svg>
