<?xml version="1.0" encoding="utf-8"?>
<!-- Generator: Adobe Illustrator 16.0.0, SVG Export Plug-In . SVG Version: 6.00 Build 0)  -->
<!DOCTYPE svg PUBLIC "-//W3C//DTD SVG 1.1//EN" "http://www.w3.org/Graphics/SVG/1.1/DTD/svg11.dtd">
<svg version="1.1" id="Layer_1" xmlns="http://www.w3.org/2000/svg" xmlns:xlink="http://www.w3.org/1999/xlink" x="0px" y="0px"
	 width="73.701px" height="73.701px" viewBox="0 0 73.701 73.701" enable-background="new 0 0 73.701 73.701" xml:space="preserve">
<path id="Events_Calendar_1_" fill-rule="evenodd" clip-rule="evenodd" fill="none" stroke="#404041" stroke-width="2" stroke-miterlimit="22.9256" d="
	M5.67,25.511h62.361 M8.103,14.224h57.325c1.385,0,2.604,0.826,2.604,2.154v46.3c0,1.329-1.191,2.52-2.518,2.52H8.188
	c-1.327,0-2.519-1.135-2.519-2.52v-46.3C5.67,14.993,6.717,14.224,8.103,14.224L8.103,14.224z M14.263,8.504v11.338 M59.595,8.556
	v11.338 M36.765,8.556v11.338 M25.513,31.182c1.566,0,2.834,1.269,2.834,2.833c0,1.567-1.269,2.836-2.834,2.836
	c-1.565,0-2.835-1.269-2.835-2.836C22.677,32.451,23.947,31.182,25.513,31.182L25.513,31.182z M36.851,31.182
	c1.566,0,2.835,1.269,2.835,2.833c0,1.567-1.27,2.836-2.835,2.836c-1.567,0-2.835-1.269-2.835-2.836
	C34.016,32.451,35.284,31.182,36.851,31.182L36.851,31.182z M48.188,31.182c1.566,0,2.836,1.269,2.836,2.833
	c0,1.567-1.27,2.836-2.836,2.836c-1.565,0-2.833-1.269-2.833-2.836C45.355,32.451,46.623,31.182,48.188,31.182L48.188,31.182z
	 M59.529,31.182c1.563,0,2.833,1.269,2.833,2.833c0,1.567-1.27,2.836-2.833,2.836c-1.567,0-2.836-1.269-2.836-2.836
	C56.693,32.451,57.962,31.182,59.529,31.182L59.529,31.182z M25.513,42.52c1.566,0,2.834,1.269,2.834,2.835
	s-1.269,2.834-2.834,2.834c-1.565,0-2.835-1.268-2.835-2.834S23.947,42.52,25.513,42.52L25.513,42.52z M36.851,42.52
	c1.566,0,2.835,1.269,2.835,2.835s-1.27,2.834-2.835,2.834c-1.567,0-2.835-1.268-2.835-2.834S35.284,42.52,36.851,42.52
	L36.851,42.52z M48.188,42.52c1.566,0,2.836,1.269,2.836,2.835s-1.27,2.834-2.836,2.834c-1.565,0-2.833-1.268-2.833-2.834
	S46.623,42.52,48.188,42.52L48.188,42.52z M59.529,42.52c1.563,0,2.833,1.269,2.833,2.835s-1.27,2.834-2.833,2.834
	c-1.567,0-2.836-1.268-2.836-2.834S57.962,42.52,59.529,42.52L59.529,42.52z M14.174,42.52c1.566,0,2.834,1.269,2.834,2.835
	s-1.268,2.834-2.834,2.834c-1.565,0-2.835-1.268-2.835-2.834S12.608,42.52,14.174,42.52L14.174,42.52z M25.513,53.857
	c1.566,0,2.834,1.271,2.834,2.836s-1.269,2.835-2.834,2.835c-1.565,0-2.835-1.27-2.835-2.835S23.947,53.857,25.513,53.857
	L25.513,53.857z M36.851,53.857c1.566,0,2.835,1.271,2.835,2.836s-1.27,2.835-2.835,2.835c-1.567,0-2.835-1.27-2.835-2.835
	S35.284,53.857,36.851,53.857L36.851,53.857z M14.174,53.857c1.566,0,2.834,1.271,2.834,2.836s-1.268,2.835-2.834,2.835
	c-1.565,0-2.835-1.27-2.835-2.835S12.608,53.857,14.174,53.857z"/>
</svg>
