<?xml version="1.0" encoding="utf-8"?>
<!-- Generator: Adobe Illustrator 16.0.0, SVG Export Plug-In . SVG Version: 6.00 Build 0)  -->
<!DOCTYPE svg PUBLIC "-//W3C//DTD SVG 1.1//EN" "http://www.w3.org/Graphics/SVG/1.1/DTD/svg11.dtd">
<svg version="1.1" id="Layer_1" xmlns="http://www.w3.org/2000/svg" xmlns:xlink="http://www.w3.org/1999/xlink" x="0px" y="0px"
	 width="73.701px" height="73.701px" viewBox="0 0 73.701 73.701" enable-background="new 0 0 73.701 73.701" xml:space="preserve">
<path id="Games_Development_1_" fill-rule="evenodd" clip-rule="evenodd" fill="none" stroke="#404041" stroke-width="2" stroke-miterlimit="22.9256" d="
	M44.223,45.021H29.48L17.519,59.278l-0.014,0.019l-0.042,0.06l-0.05,0.066l-0.006,0.011l-0.059,0.075l-0.03,0.039l-0.028,0.037
	l-0.062,0.073L17.22,59.67l-0.053,0.063L17.12,59.79l-0.015,0.015l-0.064,0.072l-0.025,0.03l-0.038,0.04l-0.066,0.07l-0.004,0.003
	l-0.062,0.066L16.8,60.132l-0.021,0.021l-0.069,0.067l-0.023,0.021l-0.047,0.043l-0.067,0.063l-0.003,0.003l-0.071,0.064
	l-0.043,0.036l-0.102,0.087l-0.016,0.015l-0.059,0.047l-0.064,0.05l-0.012,0.009l-0.076,0.059l-0.037,0.029l-0.039,0.029
	l-0.077,0.057l-0.01,0.007l-0.069,0.047l-0.06,0.042l-0.019,0.012l-0.08,0.054l-0.033,0.021l-0.049,0.03l-0.082,0.05l-0.003,0.002
	l-0.08,0.047l-0.056,0.035l-0.027,0.014l-0.083,0.048l-0.027,0.014l-0.138,0.072l-0.001,0.001l-0.006,0.003l-0.086,0.044
	l-0.05,0.024l-0.038,0.018l-0.088,0.04l-0.018,0.009l-0.07,0.031l-0.076,0.031l-0.013,0.008l-0.133,0.053l-0.049,0.019l-0.09,0.036
	l-0.01,0.003l-0.083,0.028l-0.067,0.024l-0.024,0.009l-0.092,0.03l-0.037,0.011l-0.059,0.018l-0.093,0.027l-0.001,0.001
	l-0.093,0.024l-0.063,0.018l-0.033,0.009l-0.096,0.022l-0.027,0.007l-0.069,0.016l-0.09,0.02l-0.007,0.001l-0.098,0.019l-0.054,0.01
	L13.3,61.947l-0.099,0.017l-0.019,0.003l-0.08,0.012l-0.082,0.012l-0.018,0.001l-0.102,0.012l-0.046,0.006l-0.053,0.004
	l-0.102,0.009l-0.01,0.001l-0.092,0.008l-0.074,0.003l-0.027,0.001l-0.102,0.005l-0.038,0.001h-0.065l-0.104,0.001
	c-3.601,0-6.52-2.917-6.52-6.518v-0.027v-0.025v-0.024l0.001-0.027v-0.026v-0.025l0.001-0.013v-0.013l0.001-0.026V55.29l0.001-0.027
	l0.001-0.024l0.001-0.025v-0.026l0,0l0.001-0.025l0.001-0.026l0.002-0.025l0.001-0.025l0.001-0.024l0.001-0.027v-0.011l0.001-0.014
	l0.003-0.026l0.003-0.025l0.003-0.024L5.7,54.906l0.001-0.026l0.002-0.022l0.001-0.003l0.003-0.026l0.001-0.023l0.003-0.024
	l0.004-0.027l0.001-0.024l0.003-0.024l0.001-0.012l0.002-0.015l0.003-0.023l0.004-0.026l0.003-0.025l0.003-0.024l0.004-0.026
	l0.003-0.022l0.001-0.002l0.003-0.025l0.006-0.024l0.003-0.024l0.004-0.025l0.004-0.023l0.004-0.025l0.001-0.01l0.003-0.015
	l0.004-0.025l0.006-0.024l0.004-0.026l0.004-0.022l0.02-0.099l0.006-0.024l0.004-0.024l0.007-0.024l0.004-0.024l0.001-0.009
	l0.004-0.016l0.006-0.024l0.006-0.024l0.005-0.024l0.006-0.024l0.007-0.024H5.871l4.905-24.938l0.001,0.001
	c1.16-6.08,6.504-10.673,12.92-10.673c3.247,0,6.219,1.176,8.512,3.126h9.282c2.293-1.951,5.266-3.126,8.512-3.126
	c6.417,0,11.761,4.593,12.921,10.673l0.001-0.001l4.906,24.938H67.83c0.131,0.516,0.202,1.055,0.202,1.61
	c0,3.601-2.919,6.518-6.52,6.518c-2.201,0-4.149-1.091-5.33-2.763l-5.98-7.128 M36.851,17.894v-6.235 M23.699,23.35l-0.004,16.215
	 M15.591,31.457l16.213,0.001 M50.004,23.35c1.264,0,2.288,1.026,2.288,2.288c0,1.263-1.024,2.287-2.288,2.287
	c-1.265,0-2.288-1.024-2.288-2.287C47.716,24.376,48.739,23.35,50.004,23.35L50.004,23.35z M44.185,29.169
	c1.265,0,2.289,1.024,2.289,2.289c0,1.263-1.024,2.287-2.289,2.287c-1.262,0-2.287-1.024-2.287-2.287
	C41.897,30.194,42.923,29.169,44.185,29.169L44.185,29.169z M50.004,34.99c1.264,0,2.288,1.024,2.288,2.288
	c0,1.261-1.024,2.288-2.288,2.288c-1.265,0-2.288-1.026-2.288-2.288C47.716,36.014,48.739,34.99,50.004,34.99L50.004,34.99z
	 M55.825,29.169c1.262,0,2.286,1.024,2.286,2.288c0,1.265-1.024,2.289-2.286,2.289c-1.264,0-2.287-1.024-2.287-2.289
	C53.538,30.194,54.562,29.169,55.825,29.169z"/>
</svg>
