<?xml version="1.0" encoding="utf-8"?>
<!-- Generator: Adobe Illustrator 16.0.0, SVG Export Plug-In . SVG Version: 6.00 Build 0)  -->
<!DOCTYPE svg PUBLIC "-//W3C//DTD SVG 1.1//EN" "http://www.w3.org/Graphics/SVG/1.1/DTD/svg11.dtd">
<svg version="1.1" id="Layer_1" xmlns="http://www.w3.org/2000/svg" xmlns:xlink="http://www.w3.org/1999/xlink" x="0px" y="0px"
	 width="73.701px" height="73.701px" viewBox="0 0 73.701 73.701" enable-background="new 0 0 73.701 73.701" xml:space="preserve">
<path id="Hosting_Services_1_" fill-rule="evenodd" clip-rule="evenodd" fill="none" stroke="#404041" stroke-width="2" stroke-miterlimit="22.9256" d="
	M11.906,27.495h49.89c3.429,0,6.236,2.808,6.236,6.236v4.989c0,3.429-2.808,6.236-6.236,6.236h-49.89
	c-3.43,0-6.236-2.808-6.236-6.236v-4.989C5.669,30.302,8.476,27.495,11.906,27.495L11.906,27.495z M15.023,39.343
	c1.721,0,3.118-1.396,3.118-3.118s-1.397-3.118-3.118-3.118c-1.721,0-3.118,1.396-3.118,3.118S13.303,39.343,15.023,39.343
	L15.023,39.343z M11.906,5.669h49.89c3.429,0,6.236,2.808,6.236,6.235v4.99c0,3.428-2.808,6.236-6.236,6.236h-49.89
	c-3.43,0-6.236-2.809-6.236-6.236v-4.99C5.669,8.477,8.476,5.669,11.906,5.669L11.906,5.669z M15.023,17.516
	c1.721,0,3.118-1.396,3.118-3.118s-1.397-3.118-3.118-3.118c-1.721,0-3.118,1.396-3.118,3.118S13.303,17.516,15.023,17.516
	L15.023,17.516z M36.852,54.935c3.617,0,6.548,2.933,6.548,6.549c0,3.617-2.931,6.549-6.548,6.549c-3.617,0-6.548-2.932-6.548-6.549
	C30.304,57.867,33.235,54.935,36.852,54.935L36.852,54.935z M43.399,61.483l24.633-0.003 M30.305,61.483L5.669,61.48 M36.852,54.937
	l-0.001-5.615 M61.796,14.4H36.85 M61.796,36.228H36.85"/>
</svg>
