<?xml version="1.0" encoding="utf-8"?>
<!-- Generator: Adobe Illustrator 16.0.0, SVG Export Plug-In . SVG Version: 6.00 Build 0)  -->
<!DOCTYPE svg PUBLIC "-//W3C//DTD SVG 1.1//EN" "http://www.w3.org/Graphics/SVG/1.1/DTD/svg11.dtd">
<svg version="1.1" id="Layer_1" xmlns="http://www.w3.org/2000/svg" xmlns:xlink="http://www.w3.org/1999/xlink" x="0px" y="0px"
	 width="73.701px" height="73.701px" viewBox="0 0 73.701 73.701" enable-background="new 0 0 73.701 73.701" xml:space="preserve">
<path id="In-Store_Promotions_1_" fill-rule="evenodd" clip-rule="evenodd" fill="none" stroke="#404041" stroke-width="2" stroke-miterlimit="22.9256" d="
	M66.465,29.791l1.564-7.691l-8.575-11.771H14.245L5.669,22.099l1.566,7.681c0.222,2.966,2.699,5.304,5.721,5.304
	c3.169,0,5.738-2.569,5.738-5.739h0.5c0.021,3.146,2.571,5.688,5.718,5.688c3.15,0,5.701-2.542,5.719-5.688h0.502
	c0.018,3.146,2.569,5.688,5.716,5.688c3.149,0,5.701-2.542,5.718-5.688h0.502c0.018,3.146,2.569,5.688,5.718,5.688
	s5.698-2.542,5.72-5.688h0.5c0,3.169,2.568,5.739,5.736,5.739 M32.682,40.664l-9.591,9.591 M33.361,47.521l-3.415,3.415
	 M47.301,46.363v6.627 M5.67,63.373h62.361 M12.971,42.17v21.203 M60.704,42.17v21.203 M42.812,38.429v24.944 M12.971,56.563h29.841
	"/>
</svg>
