<?xml version="1.0" encoding="utf-8"?>
<!-- Generator: Adobe Illustrator 16.0.0, SVG Export Plug-In . SVG Version: 6.00 Build 0)  -->
<!DOCTYPE svg PUBLIC "-//W3C//DTD SVG 1.1//EN" "http://www.w3.org/Graphics/SVG/1.1/DTD/svg11.dtd">
<svg version="1.1" id="Layer_1" xmlns="http://www.w3.org/2000/svg" xmlns:xlink="http://www.w3.org/1999/xlink" x="0px" y="0px"
	 width="73.701px" height="73.701px" viewBox="0 0 73.701 73.701" enable-background="new 0 0 73.701 73.701" xml:space="preserve">
<path id="Keywords__x26__Rankings_1_" fill="none" stroke="#404041" stroke-width="2" stroke-miterlimit="22.9256" d="M10.562,57.45
	V28.519c0-1.12,0.917-2.037,2.037-2.037h9.646c1.123,0,2.036,0.919,2.036,2.037V57.45h5.708V13.358c0-1.12,0.917-2.037,2.036-2.037
	h9.646c1.119,0,2.035,0.918,2.035,2.037V57.45h5.711V37.413c0-1.12,0.916-2.036,2.035-2.036h9.647c1.119,0,2.037,0.92,2.037,2.036
	V57.45 M68.032,62.381c-20.787,0-41.575,0-62.362,0"/>
</svg>
