<?xml version="1.0" encoding="utf-8"?>
<!-- Generator: Adobe Illustrator 16.0.0, SVG Export Plug-In . SVG Version: 6.00 Build 0)  -->
<!DOCTYPE svg PUBLIC "-//W3C//DTD SVG 1.1//EN" "http://www.w3.org/Graphics/SVG/1.1/DTD/svg11.dtd">
<svg version="1.1" id="Layer_1" xmlns="http://www.w3.org/2000/svg" xmlns:xlink="http://www.w3.org/1999/xlink" x="0px" y="0px"
	 width="73.701px" height="73.701px" viewBox="0 0 73.701 73.701" enable-background="new 0 0 73.701 73.701" xml:space="preserve">
<path id="Keyword_Density_1_" fill-rule="evenodd" clip-rule="evenodd" fill="none" stroke="#404041" stroke-width="2" stroke-miterlimit="22.9256" d="
	M26.874,64.29c1.713-1.287,3.084-3.002,3.952-4.988 M46.83,64.29c-3.028-2.275-4.988-5.896-4.988-9.979 M7.546,9.411h58.61
	c1.033,0,1.876,0.854,1.876,1.876v41.145c0,1.023-0.856,1.879-1.876,1.879H7.546c-1.019,0-1.876-0.842-1.876-1.879V11.288
	C5.67,10.251,6.514,9.411,7.546,9.411L7.546,9.411z M21.852,64.29h29.934 M63.044,44.333H10.659 M11.906,34.357h5.562
	 M11.906,28.121h17.548 M33.197,28.121h8.569 M45.509,28.121h16.288 M39.114,21.884h12.561 M35.372,21.884h-6.547 M11.906,15.647
	h15.798 M56.025,15.647h-7.661 M42.44,13.465c1.205,0,2.183,0.978,2.183,2.183c0,1.205-0.978,2.182-2.183,2.182
	s-2.184-0.978-2.184-2.182C40.257,14.442,41.235,13.465,42.44,13.465L42.44,13.465z M31.447,15.647h8.812 M32.694,18.142v-2.495
	 M36.436,18.142v-2.495 M22.899,19.701c1.205,0,2.183,0.978,2.183,2.183c0,1.205-0.979,2.182-2.183,2.182s-2.183-0.978-2.183-2.182
	C20.716,20.679,21.694,19.701,22.899,19.701L22.899,19.701z M11.906,21.884h8.812 M13.154,24.378v-2.494 M16.895,24.378v-2.494
	 M32.203,32.175c1.206,0,2.183,0.978,2.183,2.183s-0.977,2.184-2.183,2.184c-1.205,0-2.183-0.979-2.183-2.184
	S30.999,32.175,32.203,32.175L32.203,32.175z M21.21,34.357h8.812 M22.458,36.851v-2.493 M26.199,36.851v-2.493"/>
</svg>
