<?xml version="1.0" encoding="utf-8"?>
<!-- Generator: Adobe Illustrator 16.0.0, SVG Export Plug-In . SVG Version: 6.00 Build 0)  -->
<!DOCTYPE svg PUBLIC "-//W3C//DTD SVG 1.1//EN" "http://www.w3.org/Graphics/SVG/1.1/DTD/svg11.dtd">
<svg version="1.1" id="Layer_1" xmlns="http://www.w3.org/2000/svg" xmlns:xlink="http://www.w3.org/1999/xlink" x="0px" y="0px"
	 width="73.701px" height="73.701px" viewBox="0 0 73.701 73.701" enable-background="new 0 0 73.701 73.701" xml:space="preserve">
<path id="Keyword_Analysis_2_" fill-rule="evenodd" clip-rule="evenodd" fill="none" stroke="#404041" stroke-width="2" stroke-miterlimit="22.9256" d="
	M36.849,48.299v4.466 M36.849,8.225c11.066,0,20.037,8.97,20.037,20.036s-8.971,20.038-20.037,20.038
	c-11.066,0-20.038-8.972-20.038-20.038S25.783,8.225,36.849,8.225L36.849,8.225z M36.848,52.765h0.003
	c2.36,0,4.291,1.932,4.291,4.295v4.122c0,2.363-1.931,4.294-4.291,4.294h-0.003c-2.36,0-4.292-1.931-4.292-4.294V57.06
	C32.555,54.696,34.487,52.765,36.848,52.765L36.848,52.765z M33.472,26.137l6.756,4.306 M46.018,30.264l10.202-7.143 M17.49,33.452
	l10.268-7.192 M65.664,14.036c1.559,0.275,2.597,1.76,2.323,3.316c-0.273,1.558-1.759,2.597-3.317,2.322
	c-1.557-0.273-2.597-1.757-2.321-3.314C62.623,14.802,64.108,13.761,65.664,14.036L65.664,14.036z M9.029,36.905
	c1.557,0.275,2.597,1.761,2.321,3.315c-0.273,1.558-1.759,2.597-3.315,2.322c-1.558-0.273-2.597-1.759-2.322-3.316
	C5.988,37.672,7.473,36.63,9.029,36.905L9.029,36.905z M43.723,28.904c1.868,0.331,3.117,2.113,2.786,3.98
	C46.181,34.752,44.397,36,42.53,35.67c-1.869-0.329-3.115-2.111-2.786-3.979C40.073,29.823,41.854,28.577,43.723,28.904
	L43.723,28.904z M31.169,20.908c1.869,0.33,3.115,2.113,2.787,3.979c-0.33,1.869-2.111,3.115-3.979,2.788
	c-1.868-0.33-3.115-2.111-2.786-3.98C27.52,21.826,29.303,20.579,31.169,20.908L31.169,20.908z M11.125,37.908l2.541-1.779
	 M60.281,20.278l2.541-1.78"/>
</svg>
