<?xml version="1.0" encoding="utf-8"?>
<!-- Generator: Adobe Illustrator 16.0.0, SVG Export Plug-In . SVG Version: 6.00 Build 0)  -->
<!DOCTYPE svg PUBLIC "-//W3C//DTD SVG 1.1//EN" "http://www.w3.org/Graphics/SVG/1.1/DTD/svg11.dtd">
<svg version="1.1" id="Layer_1" xmlns="http://www.w3.org/2000/svg" xmlns:xlink="http://www.w3.org/1999/xlink" x="0px" y="0px"
	 width="73.701px" height="73.701px" viewBox="0 0 73.701 73.701" enable-background="new 0 0 73.701 73.701" xml:space="preserve">
<path id="Landing_Page_Optimization_1_" fill-rule="evenodd" clip-rule="evenodd" fill="none" stroke="#404041" stroke-width="2" stroke-miterlimit="22.9256" d="
	M34.353,50.569h28.69 M10.659,50.569h4.989 M15.648,47.655l3.76-3.76l4.254,4.254l7.63-7.629l3.061,3.059 M23.662,38.022
	c1.034,0,1.871,0.836,1.871,1.869c0,1.035-0.836,1.871-1.871,1.871s-1.871-0.836-1.871-1.871
	C21.791,38.858,22.627,38.022,23.662,38.022L23.662,38.022z M54.937,55.56h6.86c0.687,0,1.246,0.578,1.246,1.246V59.3
	c0,0.668-0.578,1.248-1.246,1.248h-6.86c-0.668,0-1.248-0.561-1.248-1.248v-2.494C53.688,56.12,54.25,55.56,54.937,55.56
	L54.937,55.56z M40.593,55.56h6.859c0.687,0,1.248,0.574,1.248,1.246V59.3c0,0.674-0.574,1.248-1.248,1.248h-6.859
	c-0.672,0-1.247-0.561-1.247-1.248v-2.494C39.346,56.12,39.907,55.56,40.593,55.56L40.593,55.56z M16.894,25.625h16.212
	c0.686,0,1.246,0.571,1.246,1.246v32.431c0,0.674-0.57,1.246-1.246,1.246H16.894c-0.675,0-1.246-0.561-1.246-1.246V26.871
	C15.648,26.185,16.208,25.625,16.894,25.625L16.894,25.625z M11.907,11.905c1.376,0,2.494,1.117,2.494,2.495
	c0,1.377-1.117,2.494-2.494,2.494c-1.378,0-2.495-1.117-2.495-2.494C9.412,13.022,10.529,11.905,11.907,11.905L11.907,11.905z
	 M29.368,11.905c1.376,0,2.494,1.117,2.494,2.495c0,1.377-1.117,2.494-2.494,2.494c-1.378,0-2.495-1.117-2.495-2.494
	C26.873,13.022,27.99,11.905,29.368,11.905L29.368,11.905z M20.637,11.905c1.379,0,2.495,1.117,2.495,2.495
	c0,1.377-1.116,2.494-2.495,2.494c-1.378,0-2.494-1.117-2.494-2.494C18.143,13.022,19.259,11.905,20.637,11.905L20.637,11.905z
	 M68.032,10.818c0-1.46-1.193-2.655-2.653-2.655c-19.018,0-38.036,0-57.056,0c-1.459,0-2.652,1.194-2.652,2.655
	c-0.001,19.02,0,33.048,0,52.066c0,1.459,1.193,2.652,2.652,2.652h57.056c1.46,0,2.653-1.193,2.653-2.652
	C68.032,43.866,68.032,29.836,68.032,10.818L68.032,10.818z M5.67,20.636h62.362 M45.333,35.603h1.995 M54.488,40.591h5.185
	 M39.346,40.591h11.15 M51.319,35.603h11.724 M39.346,35.603h1.995"/>
</svg>
