<?xml version="1.0" encoding="utf-8"?>
<!-- Generator: Adobe Illustrator 16.0.0, SVG Export Plug-In . SVG Version: 6.00 Build 0)  -->
<!DOCTYPE svg PUBLIC "-//W3C//DTD SVG 1.1//EN" "http://www.w3.org/Graphics/SVG/1.1/DTD/svg11.dtd">
<svg version="1.1" id="Layer_1" xmlns="http://www.w3.org/2000/svg" xmlns:xlink="http://www.w3.org/1999/xlink" x="0px" y="0px"
	 width="73.701px" height="73.701px" viewBox="0 0 73.701 73.701" enable-background="new 0 0 73.701 73.701" xml:space="preserve">
<path id="Link_Building_1_" fill-rule="evenodd" clip-rule="evenodd" fill="none" stroke="#404041" stroke-width="2" stroke-miterlimit="22.9256" d="
	M35.63,61.733l-1.396,1.396c-6.533,6.535-17.129,6.535-23.663,0.003C4.02,56.579,4.078,46.171,10.479,39.57
	c1.375-1.385,9.343-9.349,10.532-10.535c6.603-6.399,17.013-6.458,23.562,0.093 M38.072,11.967l1.396-1.396
	c6.534-6.534,17.13-6.534,23.663-0.001c6.552,6.55,6.492,16.96,0.093,23.562c-2.606,2.609-9.346,9.349-10.533,10.534
	c-6.603,6.4-17.013,6.459-23.563-0.092"/>
</svg>
