<?xml version="1.0" encoding="utf-8"?>
<!-- Generator: Adobe Illustrator 16.0.0, SVG Export Plug-In . SVG Version: 6.00 Build 0)  -->
<!DOCTYPE svg PUBLIC "-//W3C//DTD SVG 1.1//EN" "http://www.w3.org/Graphics/SVG/1.1/DTD/svg11.dtd">
<svg version="1.1" id="Layer_1" xmlns="http://www.w3.org/2000/svg" xmlns:xlink="http://www.w3.org/1999/xlink" x="0px" y="0px"
	 width="73.701px" height="73.701px" viewBox="0 0 73.701 73.701" enable-background="new 0 0 73.701 73.701" xml:space="preserve">
<path id="Local_SEO_1_" fill-rule="evenodd" clip-rule="evenodd" fill="none" stroke="#404041" stroke-width="2" stroke-miterlimit="22.9256" d="
	M49.006,49.005l5.029,5.028 M13.105,13.105c9.915-9.915,25.988-9.915,35.901,0c9.914,9.913,9.914,25.986,0,35.899
	c-9.913,9.915-25.986,9.915-35.901,0C3.191,39.092,3.191,23.019,13.105,13.105L13.105,13.105z M54.033,54.035l0.002-0.003
	c2.114-2.116,5.576-2.113,7.692,0.001l4.717,4.719c2.116,2.116,2.116,5.58,0.004,7.689l-0.004,0.005
	c-2.112,2.111-5.576,2.114-7.692-0.001l-4.717-4.718C51.916,59.608,51.919,56.149,54.033,54.035L54.033,54.035z M11.48,33.799
	l2.374-0.217v-3.666h6.003v9.917h3.748l-0.001-14.708l8.98-2.772v10.225l4.244-2.034l2.412,1.177v-3.92h5.027v8.225l3.878-0.809
	v-5.299h2.506"/>
</svg>
