<?xml version="1.0" encoding="utf-8"?>
<!-- Generator: Adobe Illustrator 16.0.0, SVG Export Plug-In . SVG Version: 6.00 Build 0)  -->
<!DOCTYPE svg PUBLIC "-//W3C//DTD SVG 1.1//EN" "http://www.w3.org/Graphics/SVG/1.1/DTD/svg11.dtd">
<svg version="1.1" id="Layer_1" xmlns="http://www.w3.org/2000/svg" xmlns:xlink="http://www.w3.org/1999/xlink" x="0px" y="0px"
	 width="73.701px" height="73.701px" viewBox="0 0 73.701 73.701" enable-background="new 0 0 73.701 73.701" xml:space="preserve">
<path id="Management_Tools_1_" fill-rule="evenodd" clip-rule="evenodd" fill="none" stroke="#404041" stroke-width="2" stroke-miterlimit="22.9256" d="
	M39.07,46.806c0.902,0.422,1.963,1.184,2.971,2.188c2.031,2.033,3.071,4.288,2.32,5.038L55.949,65.62c1.349,1.35,3.555,1.35,4.904,0
	l4.767-4.767c1.35-1.348,1.35-3.554,0-4.906L54.032,44.36c-0.75,0.75-3.005-0.289-5.035-2.32c-1.006-1.007-1.768-2.067-2.191-2.971
	 M46.825,33.217L33.216,46.825c-1.705,1.755-2.402,4.13-2.09,6.388h-0.004c0.62,3.916-0.579,8.055-3.592,11.069
	c-3.475,3.475-8.448,4.535-12.838,3.18l7.948-7.949l-1.782-6.667l-6.668-1.785L6.241,59.01c-1.357-4.39-0.296-9.361,3.177-12.836
	c3.015-3.014,7.154-4.21,11.064-3.594l0.003-0.005c2.297,0.314,4.709-0.409,6.476-2.174l13.441-13.439
	c1.765-1.768,2.487-4.18,2.175-6.476l0.003-0.004c-0.616-3.91,0.578-8.051,3.592-11.063c3.475-3.476,8.448-4.535,12.84-3.178
	l-7.949,7.949l1.784,6.666l6.666,1.783l7.949-7.949c1.353,4.393,0.295,9.367-3.18,12.839c-3.014,3.016-7.153,4.212-11.066,3.592
	v0.002C50.956,30.815,48.581,31.511,46.825,33.217L46.825,33.217z M21.845,21.843l-2.8-8.397l-7.182-4.375l-2.79,2.792l4.374,7.182
	L21.845,21.843z M21.845,21.843l8.919,8.919 M49.197,49.197l11.587,11.586"/>
</svg>
