<?xml version="1.0" encoding="utf-8"?>
<!-- Generator: Adobe Illustrator 16.0.0, SVG Export Plug-In . SVG Version: 6.00 Build 0)  -->
<!DOCTYPE svg PUBLIC "-//W3C//DTD SVG 1.1//EN" "http://www.w3.org/Graphics/SVG/1.1/DTD/svg11.dtd">
<svg version="1.1" id="Layer_1" xmlns="http://www.w3.org/2000/svg" xmlns:xlink="http://www.w3.org/1999/xlink" x="0px" y="0px"
	 width="73.701px" height="73.701px" viewBox="0 0 73.701 73.701" enable-background="new 0 0 73.701 73.701" xml:space="preserve">
<path id="Market_Watch_1_" fill-rule="evenodd" clip-rule="evenodd" fill="none" stroke="#404041" stroke-width="2" stroke-miterlimit="22.9256" d="
	M54.312,33.109c7.578,0,13.72,6.142,13.72,13.72c0,7.576-6.142,13.719-13.72,13.719c-7.576,0-13.719-6.143-13.719-13.719
	l0.004-0.375c-0.914-1.039-2.254-1.693-3.746-1.693c-1.492,0-2.831,0.654-3.746,1.693l0.004,0.375
	c0,7.576-6.143,13.719-13.719,13.719c-7.578,0-13.72-6.143-13.72-13.719c0-7.578,6.143-13.72,13.72-13.72 M7.856,39.396
	L18.693,18.25c0.996-2.962,3.795-5.097,7.094-5.097c3.442,0,6.341,2.323,7.214,5.488c1.229-0.327,2.519-0.5,3.849-0.5
	c1.33,0,2.621,0.173,3.85,0.5 M47.914,13.153c3.297,0,6.096,2.132,7.093,5.091l10.845,21.16 M36.851,34.783
	c1.723,0,3.118,1.396,3.118,3.116c0,1.723-1.396,3.119-3.118,3.119c-1.722,0-3.118-1.396-3.118-3.119
	C33.732,36.179,35.128,34.783,36.851,34.783L36.851,34.783z M7.867,54.2l6.227-6.227l4.152,4.15l6.227-6.227 M24.471,49.569v-3.674
	h-3.671 M19.39,56.806c5.511,0,9.977-4.465,9.977-9.977s-4.466-9.979-9.977-9.979c-5.512,0-9.979,4.467-9.979,9.979 M42.79,54.2
	l6.227-6.227l4.15,4.15l6.228-6.227 M59.394,49.569v-3.674h-3.671 M54.312,56.806c5.513,0,9.979-4.465,9.979-9.977
	s-4.466-9.979-9.979-9.979c-5.512,0-9.977,4.467-9.977,9.979 M26.567,35.133c2.682-2.537,6.301-4.094,10.284-4.094
	s7.602,1.557,10.284,4.094"/>
</svg>
