<?xml version="1.0" encoding="utf-8"?>
<!-- Generator: Adobe Illustrator 16.0.0, SVG Export Plug-In . SVG Version: 6.00 Build 0)  -->
<!DOCTYPE svg PUBLIC "-//W3C//DTD SVG 1.1//EN" "http://www.w3.org/Graphics/SVG/1.1/DTD/svg11.dtd">
<svg version="1.1" id="Layer_1" xmlns="http://www.w3.org/2000/svg" xmlns:xlink="http://www.w3.org/1999/xlink" x="0px" y="0px"
	 width="73.701px" height="73.701px" viewBox="0 0 73.701 73.701" enable-background="new 0 0 73.701 73.701" xml:space="preserve">
<path id="Market_Research_1_" fill-rule="evenodd" clip-rule="evenodd" fill="none" stroke="#404041" stroke-width="2" stroke-miterlimit="22.9256" d="
	M53.206,23.182h-3.833c-1.304,0-2.362,1.057-2.362,2.363v10.36c0,1.491,0.432,2.94,1.249,4.192L61.822,59.86
	c0.516,0.834,0.789,1.782,0.789,2.76c0,2.979-2.499,5.395-5.589,5.409l-40.313,0.002c-3.101,0-5.619-2.423-5.619-5.411
	c0-1.008,0.291-1.949,0.79-2.76l13.562-19.763c0.804-1.19,1.235-2.686,1.249-4.119V25.544c0-1.306-1.057-2.363-2.36-2.363h-3.834
	 M45.617,5.669c3.219,0,5.827,2.61,5.827,5.828c0,3.217-2.608,5.827-5.827,5.827c-3.215,0-5.826-2.61-5.826-5.827
	C39.791,8.279,42.402,5.669,45.617,5.669L45.617,5.669z M37.595,19.147c1.523,0,2.759,1.234,2.759,2.758
	c0,1.527-1.235,2.76-2.759,2.76s-2.761-1.233-2.761-2.76C34.833,20.382,36.071,19.147,37.595,19.147L37.595,19.147z M29.899,10.667
	c2.202,0,3.985,1.784,3.985,3.987c0,2.202-1.783,3.986-3.985,3.986c-2.203,0-3.987-1.784-3.987-3.986
	C25.912,12.451,27.697,10.667,29.899,10.667L29.899,10.667z M23.835,49.98c9.204-9.205,18.437,7.596,26.032,0 M26.691,29.285h4.989
	 M26.691,34.274h4.989"/>
</svg>
