<?xml version="1.0" encoding="utf-8"?>
<!-- Generator: Adobe Illustrator 16.0.0, SVG Export Plug-In . SVG Version: 6.00 Build 0)  -->
<!DOCTYPE svg PUBLIC "-//W3C//DTD SVG 1.1//EN" "http://www.w3.org/Graphics/SVG/1.1/DTD/svg11.dtd">
<svg version="1.1" id="Layer_1" xmlns="http://www.w3.org/2000/svg" xmlns:xlink="http://www.w3.org/1999/xlink" x="0px" y="0px"
	 width="73.701px" height="73.701px" viewBox="0 0 73.701 73.701" enable-background="new 0 0 73.701 73.701" xml:space="preserve">
<path id="Mobile_Marketing_1_" fill-rule="evenodd" clip-rule="evenodd" fill="none" stroke="#404041" stroke-width="2" stroke-miterlimit="22.9256" d="
	M23.312,5.669h27.079c2.018,0,3.669,1.657,3.669,3.669v11.559H27.585c-0.623,0-1.133,0.51-1.133,1.133v17.577
	c0,0.623,0.559,1.133,1.133,1.133h5.771v2.725c0,0.754,0.614,1.369,1.369,1.369c0.24,0,0.465-0.064,0.662-0.172l0.13-0.082
	l4.829-3.84H54.06v23.625c0,2.012-1.654,3.666-3.669,3.666H23.312c-2.014,0-3.668-1.648-3.668-3.666V9.338
	C19.644,7.322,21.295,5.669,23.312,5.669L23.312,5.669z M36.851,59.912c1.379,0,2.496,1.115,2.496,2.496
	c0,1.379-1.117,2.496-2.496,2.496s-2.493-1.117-2.493-2.496C34.357,61.027,35.472,59.912,36.851,59.912L36.851,59.912z
	 M28.744,11.056H39.97 M42.465,11.056h2.495 M27.585,20.897h39.314c0.623,0,1.133,0.568,1.133,1.133v17.577
	c0,0.568-0.563,1.133-1.133,1.133H40.347l-4.829,3.84l-0.13,0.082c-0.197,0.107-0.422,0.172-0.662,0.172
	c-0.755,0-1.369-0.615-1.369-1.369V40.74h-5.771c-0.574,0-1.133-0.51-1.133-1.133V22.03C26.453,21.407,26.962,20.897,27.585,20.897
	L27.585,20.897z M60.101,13.225c1.032,0,1.87,0.838,1.87,1.871s-0.838,1.871-1.87,1.871s-1.87-0.838-1.87-1.871
	S59.068,13.225,60.101,13.225L60.101,13.225z M14.46,35.908c0.688,0,1.248,0.559,1.248,1.246c0,0.689-0.56,1.248-1.248,1.248
	c-0.689,0-1.248-0.559-1.248-1.248C13.212,36.467,13.771,35.908,14.46,35.908L14.46,35.908z M62.795,48.057l-4.989,4.988
	 M57.806,48.061l4.986,4.984 M14.401,16.356l-8.73,8.73 M5.67,16.36l8.726,8.727 M39.659,32.463c0.779,0,1.41,0.632,1.41,1.41
	c0,0.777-0.631,1.409-1.41,1.409c-0.777,0-1.41-0.632-1.41-1.409C38.249,33.095,38.882,32.463,39.659,32.463L39.659,32.463z
	 M45.429,29.412c0-0.806,0.216-1.438,0.651-1.896c0.434-0.457,0.994-0.685,1.682-0.685c0.451,0,0.856,0.107,1.217,0.323
	c0.361,0.213,0.635,0.513,0.827,0.898c0.188,0.385,0.284,0.819,0.284,1.306c0,0.494-0.1,0.938-0.299,1.324
	c-0.199,0.393-0.482,0.686-0.847,0.885c-0.368,0.201-0.762,0.301-1.186,0.301c-0.459,0-0.868-0.109-1.23-0.332
	c-0.361-0.223-0.636-0.523-0.822-0.906C45.521,30.246,45.429,29.841,45.429,29.412L45.429,29.412z M34.021,26.831
	c0.778,0,1.41,0.632,1.41,1.411c0,0.778-0.632,1.408-1.41,1.408c-0.779,0-1.409-0.63-1.409-1.408
	C32.611,27.463,33.241,26.831,34.021,26.831L34.021,26.831z M58.587,32.333v-5.42h3.287 M58.587,29.623h2.933 M52.929,32.33v-5.417
	h3.286 M52.929,29.623h2.931 M45.429,35.276h16.445 M41.069,26.831l-8.458,8.454"/>
</svg>
