<?xml version="1.0" encoding="utf-8"?>
<!-- Generator: Adobe Illustrator 16.0.0, SVG Export Plug-In . SVG Version: 6.00 Build 0)  -->
<!DOCTYPE svg PUBLIC "-//W3C//DTD SVG 1.1//EN" "http://www.w3.org/Graphics/SVG/1.1/DTD/svg11.dtd">
<svg version="1.1" id="Layer_1" xmlns="http://www.w3.org/2000/svg" xmlns:xlink="http://www.w3.org/1999/xlink" x="0px" y="0px"
	 width="73.701px" height="73.701px" viewBox="0 0 73.701 73.701" enable-background="new 0 0 73.701 73.701" xml:space="preserve">
<path id="Online_Presence_1_" fill-rule="evenodd" clip-rule="evenodd" fill="none" stroke="#404041" stroke-width="2" stroke-miterlimit="22.9256" d="
	M36.851,5.669c17.221,0,31.181,13.96,31.181,31.181s-13.96,31.181-31.181,31.181c-17.221,0-31.181-13.96-31.181-31.181
	S19.629,5.669,36.851,5.669L36.851,5.669z M19.681,18.283c0,2.471-0.282,2.847-0.618,4.627c-0.344,1.825,0.385,1.991,0.387,1.998
	c0.281,1.94-0.831,4.711-0.831,10.076c1.502,1.74,0.953-0.427,3.077,3.975c0.448,0.805,0.826,1.648,1.226,2.478
	c1.81-0.197,0.338-0.209,2.315-0.925c0.051,2.296,0.05,2.06,1.771,2.861c2.704,1.259,2.41,0.533,4.46,1.096l1.955,0.824
	c2.519,1.296,1.448,1.701,4.781,1.701v0.925c-0.311,0.115-1.762-0.329-1.853,3.707c1.212,0.438,0.814,0.611,1.994,2.175
	c1.567,2.073,1.517,0.971,1.739,2.944c0.328,2.9-0.669,3.549-1.267,5.752c-0.015,0.058-0.031,0.117-0.046,0.178
	c0.071-0.007,0.145-0.021,0.213-0.034c1.14-0.246,1.908-0.727,2.816-1.369l3.528-2.985c2.132-2.022,3.041-2.061,3.884-3.061
	l0.739-1.114c1.768-2.872,2.089-2.22,2.292-3.544l-0.063-0.529c-0.229-2.547-4.212-0.166-3.325-3.971
	c-4.964-0.412-2.554-1.071-5.193-1.756c-1.102-0.288-2.889-0.768-3.779-0.233c-1.131,0.676-1.197-0.132-1.68,1.064l-2.193-0.363
	l-1.544-1.947c0.919-2.384,1.08-2.664-2.092-2.304l-0.654,1.835h-1.39c-0.438-1.878-0.125-1.394-1.389-1.852
	c0.054-2.433,0.476-1.77,0.925-3.705h5.33c0.12,0.517,0.19,0.682,0.264,0.934l0.761-0.245l0.128-2.541
	c2.022-0.733,1.729-1.548,2.484-3.072c0.048-0.096,0.104-0.219,0.155-0.309c0.569-0.715,1.158-1.32,1.648-2.077
	c1.219-1.885,0.238-1.504,2.289-1.685c1.947-0.173,0.414-0.001,0.066-3.079c2.04-0.093,1.758-0.647,1.716,0.803
	c0.349,0.817,1.548,1.003,2.293,1.084c0.397-1.877,0.535-0.456-0.016-1.863c-0.202-0.51-1.305-2.317-1.737-2.866
	c-1.979-2.498,0.777-3.226-2.933-2.788c-0.952,0.111-0.997,0.289-0.597-0.733c0.348-0.882,0.739-1.275,1.047-1.821
	c0.943-1.667-0.271-2.022-1.936-3.67c-1.602-1.583-1.658-0.615-1.688-2.117c0.656,0.058,1.306,0.139,1.947,0.243
	c1.23,0.492,1.678,0.446,3.2,3.251c0.934,1.72,1.703,4.088,4.1,4.956c0-4.847,1.079-4.443,0.312-5.721c1,0.509,1.71,0.91,2.63,1.537
	c-0.146,0.304-0.31,0.632-0.831,0.945c0.739,1.103,0.696,1.253,1.063,2.624c2.847,0,1.941-2.056,2.984-1.147
	c0.813,0.709,1.358,1.379,2.289,2.478c0.12,1.654-1.722,2.034,1.252,4.865c0.584,0.835,1.262,2.045,1.878,2.755
	c-0.678,1.679-0.601-0.099-1.39,1.852c0.196,0.309,0.643,1.631,0.786,2.045c0.607,1.725,0.315,2.352-0.476,3.807
	c-3.569,7.102-2.163,2.215-2.163,11.745c2.656,0,4.452-0.527,2.973,1.939l-0.944,1.47c-0.046,0.094-0.074,0.694-0.531,1.59
	c-0.581,0.819-1.209,1.604-1.878,2.349l-2.063,2.054 M33.368,18.221l2.058-1.327c2.827,0.756,2.778,1.074,2.778,3.706
	c0,3.155-2.234,0.065-4.898-0.227L33.368,18.221z"/>
</svg>
