<?xml version="1.0" encoding="utf-8"?>
<!-- Generator: Adobe Illustrator 16.0.0, SVG Export Plug-In . SVG Version: 6.00 Build 0)  -->
<!DOCTYPE svg PUBLIC "-//W3C//DTD SVG 1.1//EN" "http://www.w3.org/Graphics/SVG/1.1/DTD/svg11.dtd">
<svg version="1.1" id="Layer_1" xmlns="http://www.w3.org/2000/svg" xmlns:xlink="http://www.w3.org/1999/xlink" x="0px" y="0px"
	 width="73.701px" height="73.701px" viewBox="0 0 73.701 73.701" enable-background="new 0 0 73.701 73.701" xml:space="preserve">
<path id="Page_Speed_1_" fill-rule="evenodd" clip-rule="evenodd" fill="none" stroke="#404041" stroke-width="2" stroke-miterlimit="22.9256" d="
	M48.789,49.858l-7.532,7.53 M39.235,56.04c3.18,1.316,4.69,4.962,3.373,8.143s-4.965,4.689-8.144,3.373
	c-3.18-1.317-4.691-4.965-3.373-8.144C32.408,56.231,36.055,54.723,39.235,56.04L39.235,56.04z M63.842,46.216l-4.035,2.331
	 M9.861,46.216l4.036,2.331 M52.435,34.808l-2.33,4.036 M21.268,34.808l2.332,4.036 M36.851,30.631l0.001,4.661 M5.685,61.798
	c0-17.211,13.955-31.167,31.166-31.167c17.211,0,31.166,13.956,31.166,31.167 M68.017,46.067V8.324c0-1.46-1.194-2.654-2.651-2.654
	c-19.011,0-38.019,0-57.029,0c-1.458,0-2.651,1.194-2.651,2.654v37.738 M11.918,9.41c1.375,0,2.493,1.117,2.493,2.493
	c0,1.377-1.118,2.494-2.493,2.494c-1.376,0-2.494-1.117-2.494-2.494C9.424,10.527,10.542,9.41,11.918,9.41L11.918,9.41z
	 M29.371,9.41c1.376,0,2.493,1.117,2.493,2.493c0,1.377-1.117,2.494-2.493,2.494s-2.493-1.117-2.493-2.494
	C26.877,10.527,27.994,9.41,29.371,9.41L29.371,9.41z M20.644,9.41c1.378,0,2.493,1.117,2.493,2.493
	c0,1.377-1.115,2.494-2.493,2.494c-1.377,0-2.493-1.117-2.493-2.494C18.151,10.527,19.267,9.41,20.644,9.41L20.644,9.41z
	 M5.685,18.136h62.332"/>
</svg>
