<?xml version="1.0" encoding="utf-8"?>
<!-- Generator: Adobe Illustrator 16.0.0, SVG Export Plug-In . SVG Version: 6.00 Build 0)  -->
<!DOCTYPE svg PUBLIC "-//W3C//DTD SVG 1.1//EN" "http://www.w3.org/Graphics/SVG/1.1/DTD/svg11.dtd">
<svg version="1.1" id="Layer_1" xmlns="http://www.w3.org/2000/svg" xmlns:xlink="http://www.w3.org/1999/xlink" x="0px" y="0px"
	 width="73.701px" height="73.701px" viewBox="0 0 73.701 73.701" enable-background="new 0 0 73.701 73.701" xml:space="preserve">
<path id="Page_Quality_1_" fill-rule="evenodd" clip-rule="evenodd" fill="none" stroke="#404041" stroke-width="2" stroke-miterlimit="22.9256" d="
	M36.851,28.801l3.664,11.348l11.928-0.021l-9.663,6.989l3.707,11.337l-9.635-7.028l-9.635,7.028l3.707-11.337l-9.663-6.989
	l11.928,0.021 M68.031,10.82c0-1.461-1.192-2.655-2.652-2.655c-19.019,0-38.037,0-57.056,0c-1.459,0-2.653,1.194-2.653,2.655
	c-0.001,19.02,0,33.046,0,52.066c0,1.456,1.193,2.651,2.653,2.651h57.056c1.46,0,2.652-1.193,2.652-2.651
	C68.031,43.867,68.031,29.838,68.031,10.82L68.031,10.82z M5.67,20.637h62.361 M20.637,11.906c1.378,0,2.495,1.117,2.495,2.495
	c0,1.376-1.117,2.494-2.495,2.494c-1.378,0-2.495-1.117-2.495-2.494C18.142,13.023,19.259,11.906,20.637,11.906L20.637,11.906z
	 M29.367,11.906c1.377,0,2.495,1.117,2.495,2.495c0,1.376-1.118,2.494-2.495,2.494c-1.376,0-2.494-1.117-2.494-2.494
	C26.873,13.023,27.991,11.906,29.367,11.906L29.367,11.906z M11.907,11.906c1.376,0,2.494,1.117,2.494,2.495
	c0,1.376-1.118,2.494-2.494,2.494c-1.377,0-2.495-1.117-2.495-2.494C9.412,13.023,10.53,11.906,11.907,11.906z"/>
</svg>
