<?xml version="1.0" encoding="utf-8"?>
<!-- Generator: Adobe Illustrator 16.0.0, SVG Export Plug-In . SVG Version: 6.00 Build 0)  -->
<!DOCTYPE svg PUBLIC "-//W3C//DTD SVG 1.1//EN" "http://www.w3.org/Graphics/SVG/1.1/DTD/svg11.dtd">
<svg version="1.1" id="Layer_1" xmlns="http://www.w3.org/2000/svg" xmlns:xlink="http://www.w3.org/1999/xlink" x="0px" y="0px"
	 width="73.701px" height="73.701px" viewBox="0 0 73.701 73.701" enable-background="new 0 0 73.701 73.701" xml:space="preserve">
<path id="Pay_Per_Click_1_" fill-rule="evenodd" clip-rule="evenodd" fill="none" stroke="#404041" stroke-width="2" stroke-miterlimit="22.9256" d="
	M23.19,46.322v-36.1c0-2.515,2.04-4.553,4.553-4.553c2.515,0,4.553,2.039,4.553,4.553v17.66c0-2.515,2.04-4.553,4.554-4.553
	c2.516,0,4.553,2.038,4.553,4.553v1.907c0-2.515,2.04-4.553,4.555-4.553c2.514,0,4.554,2.038,4.554,4.553v1.887
	c0-2.514,2.038-4.553,4.554-4.553c2.514,0,4.553,2.039,4.553,4.553v13.586c0,12.576-10.193,22.769-22.768,22.769
	c-12.573,0-22.767-10.192-22.767-22.769V32.334c0-0.714,0.586-1.3,1.302-1.3h0.001c4.292,0,7.803,3.511,7.803,7.805"/>
</svg>
