<?xml version="1.0" encoding="utf-8"?>
<!-- Generator: Adobe Illustrator 16.0.0, SVG Export Plug-In . SVG Version: 6.00 Build 0)  -->
<!DOCTYPE svg PUBLIC "-//W3C//DTD SVG 1.1//EN" "http://www.w3.org/Graphics/SVG/1.1/DTD/svg11.dtd">
<svg version="1.1" id="Layer_1" xmlns="http://www.w3.org/2000/svg" xmlns:xlink="http://www.w3.org/1999/xlink" x="0px" y="0px"
	 width="73.701px" height="73.701px" viewBox="0 0 73.701 73.701" enable-background="new 0 0 73.701 73.701" xml:space="preserve">
<path id="Pictures_Optimization_1_" fill-rule="evenodd" clip-rule="evenodd" fill="none" stroke="#404041" stroke-width="2" stroke-miterlimit="22.9256" d="
	M23.538,25.125c1.996-0.536,4.047,0.649,4.582,2.646c0.535,1.996-0.65,4.045-2.646,4.581s-4.046-0.65-4.582-2.646
	C20.357,27.712,21.542,25.66,23.538,25.125L23.538,25.125z M17.158,43.803l4.613-7.994l5.394,3.114l7.208-12.3l9.304,5.373
	 M38.352,12.118c-0.163-0.609-0.795-0.976-1.404-0.813l-25.481,6.828c-0.609,0.163-0.975,0.796-0.812,1.403 M7.583,14.72
	l31.021-8.312c1.372-0.367,2.793,0.453,3.159,1.825l9.796,36.561c0.368,1.371-0.451,2.79-1.82,3.157l-31.024,8.313
	c-1.371,0.367-2.792-0.452-3.16-1.823L5.758,17.88C5.391,16.509,6.21,15.088,7.583,14.72L7.583,14.72z M44.574,54.111l10.244,2.746
	c0.607,0.163,1.239-0.202,1.402-0.812 M50.08,21.452l16.042,4.298c1.372,0.367,2.19,1.788,1.822,3.158l-9.797,36.563
	c-0.367,1.371-1.785,2.188-3.157,1.822l-29.802-7.986"/>
</svg>
