<?xml version="1.0" encoding="utf-8"?>
<!-- Generator: Adobe Illustrator 16.0.0, SVG Export Plug-In . SVG Version: 6.00 Build 0)  -->
<!DOCTYPE svg PUBLIC "-//W3C//DTD SVG 1.1//EN" "http://www.w3.org/Graphics/SVG/1.1/DTD/svg11.dtd">
<svg version="1.1" id="Layer_1" xmlns="http://www.w3.org/2000/svg" xmlns:xlink="http://www.w3.org/1999/xlink" x="0px" y="0px"
	 width="73.701px" height="73.701px" viewBox="0 0 73.701 73.701" enable-background="new 0 0 73.701 73.701" xml:space="preserve">
<path id="Places_Optimizations_1_" fill-rule="evenodd" clip-rule="evenodd" fill="none" stroke="#404041" stroke-width="2" stroke-miterlimit="22.9256" d="
	M36.924,35.077c-6.397,0-11.583-5.188-11.583-11.587c0-6.397,5.186-11.584,11.583-11.584c6.398,0,11.585,5.187,11.585,11.584
	 M50.594,43.879c7.57,2.289,12.623,6.412,12.623,11.121c0,7.198-11.804,13.031-26.366,13.031c-14.562,0-26.365-5.833-26.365-13.031
	c0-4.733,5.107-8.88,12.748-11.161 M36.924,5.669c9.844,0,17.823,7.979,17.823,17.821c0,3.071-0.776,5.959-2.142,8.479
	L38.954,54.479c-1.169,1.931-2.887,1.937-4.06,0L21.253,31.986c-1.42-2.636-2.151-5.497-2.151-8.496
	C19.102,13.648,27.081,5.669,36.924,5.669z"/>
</svg>
