<?xml version="1.0" encoding="utf-8"?>
<!-- Generator: Adobe Illustrator 16.0.0, SVG Export Plug-In . SVG Version: 6.00 Build 0)  -->
<!DOCTYPE svg PUBLIC "-//W3C//DTD SVG 1.1//EN" "http://www.w3.org/Graphics/SVG/1.1/DTD/svg11.dtd">
<svg version="1.1" id="Layer_1" xmlns="http://www.w3.org/2000/svg" xmlns:xlink="http://www.w3.org/1999/xlink" x="0px" y="0px"
	 width="73.701px" height="73.701px" viewBox="0 0 73.701 73.701" enable-background="new 0 0 73.701 73.701" xml:space="preserve">
<path id="PR__x26__Communication_1_" fill-rule="evenodd" clip-rule="evenodd" fill="none" stroke="#404041" stroke-width="2" stroke-miterlimit="22.9256" d="
	M36.851,5.669L36.851,5.669c8.253,0,15,6.749,15,14.997v17.372c0,8.25-6.747,14.998-15,14.998l0,0
	c-8.247,0-14.995-6.748-14.995-14.998V20.667C21.856,12.418,28.604,5.669,36.851,5.669L36.851,5.669z M31.065,21.855h-9.209
	 M31.065,29.353h-9.209 M31.065,36.85h-9.209 M42.642,21.855h9.209 M42.642,29.353h9.209 M42.642,36.85h9.209 M14.697,24.746v9.21
	 M59.008,24.746v9.21 M59.005,38.72c0,12.236-9.92,22.154-22.156,22.154c-12.235,0-22.156-9.918-22.156-22.154 M26.624,68.032
	h20.452 M36.849,60.874l-0.001,7.158"/>
</svg>
