<?xml version="1.0" encoding="utf-8"?>
<!-- Generator: Adobe Illustrator 16.0.0, SVG Export Plug-In . SVG Version: 6.00 Build 0)  -->
<!DOCTYPE svg PUBLIC "-//W3C//DTD SVG 1.1//EN" "http://www.w3.org/Graphics/SVG/1.1/DTD/svg11.dtd">
<svg version="1.1" id="Layer_1" xmlns="http://www.w3.org/2000/svg" xmlns:xlink="http://www.w3.org/1999/xlink" x="0px" y="0px"
	 width="73.701px" height="73.701px" viewBox="0 0 73.701 73.701" enable-background="new 0 0 73.701 73.701" xml:space="preserve">
<path id="Premium_Services_1_" fill-rule="evenodd" clip-rule="evenodd" fill="none" stroke="#404041" stroke-width="2" stroke-miterlimit="22.9256" d="
	M56.572,61.093l1.398-5.113c-2.063-0.613-3.565-2.523-3.565-4.781c0-2.756,2.234-4.99,4.989-4.99c0.417,0,0.82,0.051,1.207,0.146
	l5.182-18.943c1.33-0.641,2.248-2,2.248-3.574c0-2.188-1.774-3.962-3.962-3.962s-3.964,1.775-3.964,3.962
	c0,1.162,0.5,2.207,1.299,2.931c-1.008,5.121-5.521,8.984-10.938,8.984c-6.159,0-11.151-4.994-11.151-11.151
	c0-0.98,0.127-1.93,0.365-2.836c1.318-0.903,2.186-2.422,2.186-4.141c0-2.771-2.246-5.016-5.016-5.016
	c-2.769,0-5.016,2.245-5.016,5.016c0,1.719,0.866,3.237,2.186,4.141c0.238,0.906,0.364,1.855,0.364,2.836
	c0,6.158-4.991,11.151-11.15,11.151c-5.417,0-9.929-3.863-10.937-8.984c0.797-0.724,1.297-1.77,1.297-2.931
	c0-2.188-1.774-3.962-3.962-3.962c-2.188,0-3.962,1.775-3.962,3.962c0,1.574,0.917,2.934,2.248,3.574l5.182,18.943
	c0.387-0.096,0.791-0.146,1.207-0.146c2.755,0,4.989,2.234,4.989,4.99c0,2.258-1.503,4.168-3.564,4.781l1.397,5.113H56.572
	L56.572,61.093z M48.105,41.458h7.57 M41.839,41.46l-4.991-4.989l-4.988,4.987l4.988,4.988 M18.031,41.458h7.556"/>
</svg>
