<?xml version="1.0" encoding="utf-8"?>
<!-- Generator: Adobe Illustrator 16.0.0, SVG Export Plug-In . SVG Version: 6.00 Build 0)  -->
<!DOCTYPE svg PUBLIC "-//W3C//DTD SVG 1.1//EN" "http://www.w3.org/Graphics/SVG/1.1/DTD/svg11.dtd">
<svg version="1.1" id="Layer_1" xmlns="http://www.w3.org/2000/svg" xmlns:xlink="http://www.w3.org/1999/xlink" x="0px" y="0px"
	 width="73.701px" height="73.701px" viewBox="0 0 73.701 73.701" enable-background="new 0 0 73.701 73.701" xml:space="preserve">
<path id="Readability_Check_1_" fill-rule="evenodd" clip-rule="evenodd" fill="none" stroke="#404041" stroke-width="2" stroke-miterlimit="22.9256" d="
	M54.81,32.726h1.995 M22.878,37.716h1.995 M42.681,22.747h-1.996 M53.878,8.593l4.989,4.989 M11.901,41.462v-33.3
	c0-1.372,1.122-2.495,2.494-2.495h35.308v12.09h12.092v23.705 M8.787,56.183c-1.723,0-3.118-1.395-3.118-3.115V33.354
	c0-1.723,1.396-3.119,3.118-3.119 M34.527,32.726h5.186 M16.89,32.726h13.646 M38.511,27.736h10.794 M28.864,37.716h12.574
	 M16.89,27.736h8.248 M16.89,37.716h1.996 M52.944,22.747h-6.272 M16.89,22.747h19.804 M34.521,27.736h-5.392 M43.703,32.726h7.114
	 M64.913,56.183c1.723,0,3.118-1.395,3.118-3.115V33.354c0-1.723-1.396-3.119-3.118-3.119 M32.377,54.565
	c1.381-0.564,2.892-0.875,4.476-0.875c1.582,0,3.094,0.311,4.473,0.873 M20.638,44.333c6.544,0,11.85,5.307,11.85,11.85
	c0,6.547-5.306,11.852-11.85,11.852c-6.545,0-11.851-5.305-11.851-11.852C8.787,49.64,14.093,44.333,20.638,44.333L20.638,44.333z
	 M53.064,44.333c6.545,0,11.85,5.307,11.85,11.85c0,6.545-5.305,11.852-11.85,11.852c-6.543,0-11.849-5.307-11.849-11.852
	C41.216,49.64,46.521,44.333,53.064,44.333L53.064,44.333z M13.776,56.183c0-0.822,0.144-1.609,0.41-2.342 M15.388,51.769
	c1.258-1.494,3.142-2.445,5.25-2.445 M46.204,56.183c0-0.822,0.145-1.609,0.409-2.342 M47.815,51.769
	c1.259-1.494,3.141-2.445,5.249-2.445 M22.629,17.757h8.486 M16.89,17.757h1.996"/>
</svg>
