<?xml version="1.0" encoding="utf-8"?>
<!-- Generator: Adobe Illustrator 16.0.0, SVG Export Plug-In . SVG Version: 6.00 Build 0)  -->
<!DOCTYPE svg PUBLIC "-//W3C//DTD SVG 1.1//EN" "http://www.w3.org/Graphics/SVG/1.1/DTD/svg11.dtd">
<svg version="1.1" id="Layer_1" xmlns="http://www.w3.org/2000/svg" xmlns:xlink="http://www.w3.org/1999/xlink" x="0px" y="0px"
	 width="73.701px" height="73.701px" viewBox="0 0 73.701 73.701" enable-background="new 0 0 73.701 73.701" xml:space="preserve">
<path id="Remarketing_Services_1_" fill-rule="evenodd" clip-rule="evenodd" fill="none" stroke="#404041" stroke-width="2" stroke-miterlimit="22.9256" d="
	M56.119,20.073l0.958-10.952l10.954,0.958 M53.55,52.299c-1.454-0.746-3.286-1.523-5.404-2.297c-1.287-0.469-2.367-0.92-3.27-1.383
	c-0.094-0.271,0.088-0.645,0.142-1.457c0.04-0.627-0.149-0.777-0.687-0.777c-0.676,0-1.575,0.391-2.199,0.207l-0.381-2.816
	c1.532-0.57,1.848-2.836,1.848-4.533c2.573-0.531,3.019-6.404,1.112-6.744c-0.253-0.661,1.737-6.435-0.341-9.684
	c-1.475-2.316-5.755-3.607-8.874-3.607c-2.52,0-5.089,0.385-4.178,2.551c-6.706,1.401-3.518,6.169-3.518,10.754
	c-2.259,0.77-0.496,6.609,1.431,6.779c0.282,2.588,1.18,4.506,2.189,4.672l-0.296,2.58c-0.585,0-2.925-0.684-2.792,0.482
	l0.138,1.197c-1.051,0.645-2.241,1.143-3.99,1.781c-3.527,1.285-5.893,2.322-7.4,3.459l0.206,2.154 M17.162,33.447l-4.37,7.119
	l-7.123-4.369 M57.077,9.121c12.688,12.687,12.688,33.258,0,45.943c-12.688,12.688-33.257,12.688-45.943,0 M12.792,40.566
	c-3.274-8.252-1.574-18.015,5.099-24.689c6.673-6.673,16.438-8.372,24.688-5.099"/>
</svg>
