<?xml version="1.0" encoding="utf-8"?>
<!-- Generator: Adobe Illustrator 16.0.0, SVG Export Plug-In . SVG Version: 6.00 Build 0)  -->
<!DOCTYPE svg PUBLIC "-//W3C//DTD SVG 1.1//EN" "http://www.w3.org/Graphics/SVG/1.1/DTD/svg11.dtd">
<svg version="1.1" id="Layer_1" xmlns="http://www.w3.org/2000/svg" xmlns:xlink="http://www.w3.org/1999/xlink" x="0px" y="0px"
	 width="73.701px" height="73.701px" viewBox="0 0 73.701 73.701" enable-background="new 0 0 73.701 73.701" xml:space="preserve">
<path id="Reputation_Management_1_" fill-rule="evenodd" clip-rule="evenodd" fill="none" stroke="#404041" stroke-width="2" stroke-miterlimit="22.9256" d="
	M26.838,19.898c-4.919-3.726-10.819-6.921-17.163-6.971c-2.213,0-4.006,8.105-4.006,16.564c0,8.458,1.793,16.564,4.006,16.564
	c6.344-0.053,12.243-3.246,17.164-6.971 M25.013,31.585l-8.999-2.093l8.999-2.095 M48.687,31.585l8.999-2.093l-8.999-2.095
	 M46.862,19.898c4.919-3.726,10.818-6.921,17.162-6.971c2.215,0,4.007,8.105,4.007,16.564c0,8.458-1.792,16.564-4.007,16.564
	c-6.344-0.053-12.242-3.246-17.164-6.971 M36.85,50.544c2.825,0,5.114,2.289,5.114,5.113s-2.289,5.117-5.114,5.117
	c-2.823,0-5.113-2.293-5.113-5.117S34.026,50.544,36.85,50.544L36.85,50.544z M36.85,21.569c3.227,0,5.926,0.717,6.589,1.675
	c0.779,1.007,1.33,3.423,1.33,6.247c0,1.274-0.324,5.404-1.359,6.281c-0.709,0.94-3.379,1.638-6.561,1.638
	c-3.228,0-5.924-0.718-6.59-1.675c-0.779-1.007-1.33-3.423-1.33-6.247c0-2.842,0.559-5.274,1.346-6.268
	C31.589,21.787,35.04,21.569,36.85,21.569z"/>
</svg>
