<?xml version="1.0" encoding="utf-8"?>
<!-- Generator: Adobe Illustrator 16.0.0, SVG Export Plug-In . SVG Version: 6.00 Build 0)  -->
<!DOCTYPE svg PUBLIC "-//W3C//DTD SVG 1.1//EN" "http://www.w3.org/Graphics/SVG/1.1/DTD/svg11.dtd">
<svg version="1.1" id="Layer_1" xmlns="http://www.w3.org/2000/svg" xmlns:xlink="http://www.w3.org/1999/xlink" x="0px" y="0px"
	 width="73.701px" height="73.701px" viewBox="0 0 73.701 73.701" enable-background="new 0 0 73.701 73.701" xml:space="preserve">
<path id="Responsive_Design_1_" fill-rule="evenodd" clip-rule="evenodd" fill="none" stroke="#404041" stroke-width="2" stroke-miterlimit="22.9256" d="
	M50.797,24.388l15.184-0.004c1.131,0.005,2.053,0.931,2.051,2.053l-0.002,30.814c0.002,1.129-0.924,2.05-2.047,2.054H50.797
	c-1.125,0-2.055-0.925-2.051-2.052V26.44C48.742,25.309,49.67,24.391,50.797,24.388L50.797,24.388z M58.385,54.034
	c0.904,0.004,1.627,0.725,1.625,1.63c0.002,0.896-0.727,1.62-1.617,1.62c-0.896,0.003-1.627-0.722-1.627-1.623
	C56.766,54.766,57.49,54.034,58.385,54.034L58.385,54.034z M53.273,28.033h6.488 M61.631,28.033h1.871 M26.874,64.289
	c1.712-1.287,3.083-3.002,3.95-4.99 M46.828,64.289c-3.029-2.277-4.988-5.897-4.988-9.979 M43.756,54.311H7.547
	c-1.02,0-1.878-0.844-1.878-1.879V11.288c0-1.036,0.844-1.877,1.878-1.877h58.607c1.033,0,1.875,0.854,1.875,1.877v8.113
	 M21.851,64.289h29.934 M48.746,44.333H10.659"/>
</svg>
