<?xml version="1.0" encoding="utf-8"?>
<!-- Generator: Adobe Illustrator 16.0.0, SVG Export Plug-In . SVG Version: 6.00 Build 0)  -->
<!DOCTYPE svg PUBLIC "-//W3C//DTD SVG 1.1//EN" "http://www.w3.org/Graphics/SVG/1.1/DTD/svg11.dtd">
<svg version="1.1" id="Layer_1" xmlns="http://www.w3.org/2000/svg" xmlns:xlink="http://www.w3.org/1999/xlink" x="0px" y="0px"
	 width="73.701px" height="73.701px" viewBox="0 0 73.701 73.701" enable-background="new 0 0 73.701 73.701" xml:space="preserve">
<path id="Retina_Ready_Web_Design_1_" fill-rule="evenodd" clip-rule="evenodd" fill="none" stroke="#404041" stroke-width="2" stroke-miterlimit="22.9256" d="
	M36.897,32.007c2.672,0,4.837,2.165,4.837,4.836c0,2.671-2.165,4.837-4.837,4.837c-2.67,0-4.836-2.166-4.836-4.837
	C32.061,34.172,34.227,32.007,36.897,32.007L36.897,32.007z M32.285,49.785c-7.141-2.521-10.889-10.353-8.37-17.498
	c2.521-7.145,10.353-10.89,17.496-8.372c1.939,0.684,3.627,1.756,5.007,3.103c-0.722,0.529-1.298,1.272-1.619,2.176
	c-0.842,2.391,0.41,5.005,2.796,5.847c0.96,0.34,1.958,0.335,2.863,0.063c0.266,2.062,0.067,4.215-0.673,6.31 M67.832,35.916
	C62.17,24.737,49.849,16.725,36.85,16.725c-12.998,0-25.318,7.997-30.98,19.178c-0.097,0.174-0.201,0.772-0.201,0.942
	c0,0.175,0.104,0.763,0.201,0.94c5.662,11.18,17.982,19.191,30.98,19.191c12.999,0,25.32-7.996,30.982-19.177
	c0.098-0.183,0.199-0.764,0.199-0.942C68.031,36.67,67.913,36.069,67.832,35.916z"/>
</svg>
