<?xml version="1.0" encoding="utf-8"?>
<!-- Generator: Adobe Illustrator 16.0.0, SVG Export Plug-In . SVG Version: 6.00 Build 0)  -->
<!DOCTYPE svg PUBLIC "-//W3C//DTD SVG 1.1//EN" "http://www.w3.org/Graphics/SVG/1.1/DTD/svg11.dtd">
<svg version="1.1" id="Layer_1" xmlns="http://www.w3.org/2000/svg" xmlns:xlink="http://www.w3.org/1999/xlink" x="0px" y="0px"
	 width="73.701px" height="73.701px" viewBox="0 0 73.701 73.701" enable-background="new 0 0 73.701 73.701" xml:space="preserve">
<path id="Return_On_Investment_1_" fill-rule="evenodd" clip-rule="evenodd" fill="none" stroke="#404041" stroke-width="2" stroke-miterlimit="22.9256" d="
	M30.316,16.224c-0.345-0.875-0.535-1.831-0.535-2.83c0-4.267,3.458-7.725,7.726-7.725c4.264,0,7.724,3.458,7.724,7.725
	c0,0.955-0.175,1.869-0.489,2.714 M37.487,63.635c-1.648,0-3.262-0.12-4.83-0.349l-1.343,3.749
	c-0.185,0.511-0.449,0.996-0.998,0.996h-7.369c-0.549,0-0.873-0.462-0.998-0.996l-2.003-8.617c-2.141-1.47-4.002-3.201-5.508-5.136
	l-3.866-0.177c-0.721-0.032-1.381-0.428-1.47-1.147L7.46,38.582c-0.089-0.722,0.453-1.265,1.148-1.471l2.289-0.682
	c1.006-3.66,3.114-6.98,6.025-9.714c-1.038-2.088-2.463-4.078-4.062-5.427c-2.622-2.21-2.768-3.84,2.34-4.238
	c4.352-0.339,8.168,0.015,12.355,3.526c3.08-0.99,6.438-1.534,9.948-1.534c7.057,0,13.486,2.193,18.329,5.788l0.001,0.001
	c1.6,1.296,3.042,2.656,4.274,4.108c0.649-0.544,1.486-0.874,2.401-0.874c2.067,0,3.741,1.674,3.741,3.741
	c0,1.61-1.014,2.98-2.439,3.509c0.625,1.836,0.963,3.829,0.963,6.023c0,6.852-3.782,12.979-9.732,17.068l-2.007,8.627
	c-0.124,0.534-0.448,0.996-0.997,0.996h-7.369c-0.548,0-0.813-0.485-0.998-0.996l-1.344-3.75 M47.153,25.384
	c-2.894-0.576-6.175-0.899-9.649-0.899c-3.474,0-6.752,0.323-9.646,0.899 M18.389,32.041c1.117,0.266,1.768,1.54,1.457,2.84
	c-0.311,1.3-1.468,2.138-2.584,1.871c-1.117-0.267-1.77-1.537-1.458-2.84C16.115,32.611,17.271,31.774,18.389,32.041z"/>
</svg>
