<?xml version="1.0" encoding="utf-8"?>
<!-- Generator: Adobe Illustrator 16.0.0, SVG Export Plug-In . SVG Version: 6.00 Build 0)  -->
<!DOCTYPE svg PUBLIC "-//W3C//DTD SVG 1.1//EN" "http://www.w3.org/Graphics/SVG/1.1/DTD/svg11.dtd">
<svg version="1.1" id="Layer_1" xmlns="http://www.w3.org/2000/svg" xmlns:xlink="http://www.w3.org/1999/xlink" x="0px" y="0px"
	 width="73.701px" height="73.701px" viewBox="0 0 73.701 73.701" enable-background="new 0 0 73.701 73.701" xml:space="preserve">
<path id="Search_Engine_Optimization_1_" fill-rule="evenodd" clip-rule="evenodd" fill="none" stroke="#404041" stroke-width="2" stroke-miterlimit="22.9256" d="
	M49.006,49.006l5.027,5.027 M13.104,13.104c9.914-9.914,25.988-9.914,35.902,0c9.913,9.914,9.913,25.988,0,35.902
	c-9.914,9.914-25.988,9.914-35.902,0C3.19,39.092,3.19,23.018,13.104,13.104L13.104,13.104z M54.031,54.035l0.003-0.004
	c2.114-2.113,5.576-2.113,7.692,0.002l4.718,4.719c2.115,2.115,2.114,5.578,0.003,7.691l-0.003,0.002
	c-2.112,2.113-5.575,2.117-7.693,0l-4.718-4.719C51.915,59.609,51.918,56.148,54.031,54.035L54.031,54.035z M19.259,42.852
	c-6.516-6.516-6.516-17.077,0-23.593c2.61-2.609,5.871-4.174,9.258-4.693"/>
</svg>
