<?xml version="1.0" encoding="utf-8"?>
<!-- Generator: Adobe Illustrator 16.0.0, SVG Export Plug-In . SVG Version: 6.00 Build 0)  -->
<!DOCTYPE svg PUBLIC "-//W3C//DTD SVG 1.1//EN" "http://www.w3.org/Graphics/SVG/1.1/DTD/svg11.dtd">
<svg version="1.1" id="Layer_1" xmlns="http://www.w3.org/2000/svg" xmlns:xlink="http://www.w3.org/1999/xlink" x="0px" y="0px"
	 width="73.701px" height="73.701px" viewBox="0 0 73.701 73.701" enable-background="new 0 0 73.701 73.701" xml:space="preserve">
<path id="SEO_Benchmark_1_" fill-rule="evenodd" clip-rule="evenodd" fill="none" stroke="#404041" stroke-width="2" stroke-miterlimit="22.9256" d="
	M11.912,33.929c3.448,0,6.244,2.796,6.244,6.243s-2.796,6.242-6.244,6.242c-3.447,0-6.242-2.795-6.242-6.242
	S8.465,33.929,11.912,33.929L11.912,33.929z M28.539,17.755c3.447,0,6.243,2.794,6.243,6.242c0,3.448-2.795,6.244-6.243,6.244
	c-3.447,0-6.243-2.796-6.243-6.244C22.296,20.55,25.092,17.755,28.539,17.755L28.539,17.755z M45.189,24.642
	c3.446,0,6.241,2.796,6.241,6.242c0,3.447-2.795,6.243-6.241,6.243c-3.447,0-6.242-2.796-6.242-6.243
	C38.947,27.438,41.742,24.642,45.189,24.642L45.189,24.642z M61.789,8.466c3.446,0,6.242,2.795,6.242,6.243
	c0,3.446-2.796,6.242-6.242,6.242c-3.447,0-6.241-2.795-6.241-6.242C55.548,11.261,58.342,8.466,61.789,8.466L61.789,8.466z
	 M24.063,28.352l-7.676,7.466 M57.317,19.066l-7.656,7.462 M33.981,26.249l5.439,2.25 M11.912,51.238v13.997 M28.538,35.259v29.976
	 M45.163,42.145v23.091 M61.789,25.971v39.264"/>
</svg>
