<?xml version="1.0" encoding="utf-8"?>
<!-- Generator: Adobe Illustrator 16.0.0, SVG Export Plug-In . SVG Version: 6.00 Build 0)  -->
<!DOCTYPE svg PUBLIC "-//W3C//DTD SVG 1.1//EN" "http://www.w3.org/Graphics/SVG/1.1/DTD/svg11.dtd">
<svg version="1.1" id="Layer_1" xmlns="http://www.w3.org/2000/svg" xmlns:xlink="http://www.w3.org/1999/xlink" x="0px" y="0px"
	 width="73.701px" height="73.701px" viewBox="0 0 73.701 73.701" enable-background="new 0 0 73.701 73.701" xml:space="preserve">
<path id="SEO_Copywriting_1_" fill-rule="evenodd" clip-rule="evenodd" fill="none" stroke="#404041" stroke-width="2" stroke-miterlimit="22.9256" d="
	M18.681,67.016L6.688,55.023L5.67,68.033L18.681,67.016L18.681,67.016z M42.25,8.884l2.512-2.51c0.938-0.939,2.482-0.944,3.426,0
	L67.33,25.518c0.943,0.944,0.928,2.497,0,3.425l-2.512,2.512 M28.428,56.561l1.791,9.494l31.465-31.467L39.115,12.02L7.649,43.486
	l9.495,1.789l1.789,9.496L28.428,56.561L28.428,56.561z M17.144,45.275l27.614-27.614 M28.428,56.561l27.615-27.614"/>
</svg>
