<?xml version="1.0" encoding="utf-8"?>
<!-- Generator: Adobe Illustrator 16.0.0, SVG Export Plug-In . SVG Version: 6.00 Build 0)  -->
<!DOCTYPE svg PUBLIC "-//W3C//DTD SVG 1.1//EN" "http://www.w3.org/Graphics/SVG/1.1/DTD/svg11.dtd">
<svg version="1.1" id="Layer_1" xmlns="http://www.w3.org/2000/svg" xmlns:xlink="http://www.w3.org/1999/xlink" x="0px" y="0px"
	 width="73.701px" height="73.701px" viewBox="0 0 73.701 73.701" enable-background="new 0 0 73.701 73.701" xml:space="preserve">
<path id="SEO_Training_1_" fill-rule="evenodd" clip-rule="evenodd" fill="none" stroke="#404041" stroke-width="2" stroke-miterlimit="22.9256" d="
	M7.547,51.337c-1.023,0-1.878-0.842-1.878-1.878V14.601c0-1.036,0.844-1.877,1.878-1.877c26.25,0,32.358,0,58.608,0
	c1.033,0,1.876,0.85,1.876,1.877v34.858c0,1.027-0.849,1.878-1.876,1.878C46.62,51.337,27.083,51.337,7.547,51.337L7.547,51.337z
	 M27.608,38.055L6.276,59.388 M36.851,7.735v4.989 M36.851,51.337v14.629 M47.452,63.736l-7.16-12.399 M26.249,63.736l7.159-12.399"
	/>
</svg>
