<?xml version="1.0" encoding="utf-8"?>
<!-- Generator: Adobe Illustrator 16.0.0, SVG Export Plug-In . SVG Version: 6.00 Build 0)  -->
<!DOCTYPE svg PUBLIC "-//W3C//DTD SVG 1.1//EN" "http://www.w3.org/Graphics/SVG/1.1/DTD/svg11.dtd">
<svg version="1.1" id="Layer_1" xmlns="http://www.w3.org/2000/svg" xmlns:xlink="http://www.w3.org/1999/xlink" x="0px" y="0px"
	 width="73.701px" height="73.701px" viewBox="0 0 73.701 73.701" enable-background="new 0 0 73.701 73.701" xml:space="preserve">
<path id="SEO_Tags_1_" fill-rule="evenodd" clip-rule="evenodd" fill="none" stroke="#404041" stroke-width="2" stroke-miterlimit="22.9256" d="
	M54.707,16.858c-2.437-2.436-6.385-2.436-8.821,0c-2.435,2.434-2.435,6.382,0,8.819c2.437,2.437,6.385,2.437,8.821,0
	c0.66-0.66,1.142-1.432,1.444-2.253 M6.67,39.6c-1.334,1.336-1.334,3.502,0,4.837l20.466,20.463c1.332,1.335,3.5,1.337,4.833,0
	l30.796-30.799c0.691-0.689,1.021-1.598,0.998-2.502c0-6.771,0-13.542,0-20.313c-0.003-1.917-1.569-3.486-3.486-3.486
	c-6.769,0-13.538,0.003-20.307,0.003c-0.892-0.02-1.788,0.304-2.471,0.968L6.67,39.6L6.67,39.6z M50.3,21.231
	c10.133,2.167,17.732,11.175,17.732,21.954c0,12.399-10.052,22.453-22.453,22.452"/>
</svg>
