<?xml version="1.0" encoding="utf-8"?>
<!-- Generator: Adobe Illustrator 16.0.0, SVG Export Plug-In . SVG Version: 6.00 Build 0)  -->
<!DOCTYPE svg PUBLIC "-//W3C//DTD SVG 1.1//EN" "http://www.w3.org/Graphics/SVG/1.1/DTD/svg11.dtd">
<svg version="1.1" id="Layer_1" xmlns="http://www.w3.org/2000/svg" xmlns:xlink="http://www.w3.org/1999/xlink" x="0px" y="0px"
	 width="73.701px" height="73.701px" viewBox="0 0 73.701 73.701" enable-background="new 0 0 73.701 73.701" xml:space="preserve">
<path id="SEO_White_Hat_1_" fill-rule="evenodd" clip-rule="evenodd" fill="none" stroke="#404041" stroke-width="2" stroke-miterlimit="22.9256" d="
	M56.162,53.568c-0.006-0.484-0.019-0.966-0.019-1.449c0-14.677,2.15-28.851,6.133-42.234c0.026-0.047,0.04-0.093,0.04-0.141
	c0-1.359-11.4-2.463-25.464-2.463c-14.065,0-25.467,1.104-25.467,2.463c0.01,0.059,0.006,0.081,0.038,0.136
	c3.984,13.383,6.135,27.56,6.135,42.239c0,0.482-0.014,0.962-0.018,1.442l0.012,0.084c5.884,2.666,12.418,4.151,19.299,4.151
	 M64.19,53.46c0.424-0.275,0.871-0.42,1.378-0.42c1.362,0,2.463,1.103,2.463,2.463c0,0.88-0.459,1.653-1.152,2.089l-0.033,0.02
	c-8.646,5.573-18.942,8.809-29.995,8.809c-11.066,0-21.374-3.242-30.027-8.828l0-0.002c-0.692-0.435-1.154-1.207-1.154-2.087
	c0-1.36,1.103-2.463,2.464-2.463c0.482,0,0.93,0.138,1.31,0.377l0.067,0.043"/>
</svg>
