<?xml version="1.0" encoding="utf-8"?>
<!-- Generator: Adobe Illustrator 16.0.0, SVG Export Plug-In . SVG Version: 6.00 Build 0)  -->
<!DOCTYPE svg PUBLIC "-//W3C//DTD SVG 1.1//EN" "http://www.w3.org/Graphics/SVG/1.1/DTD/svg11.dtd">
<svg version="1.1" id="Layer_1" xmlns="http://www.w3.org/2000/svg" xmlns:xlink="http://www.w3.org/1999/xlink" x="0px" y="0px"
	 width="73.701px" height="73.701px" viewBox="0 0 73.701 73.701" enable-background="new 0 0 73.701 73.701" xml:space="preserve">
<path id="SEO_Monitoring_1_" fill-rule="evenodd" clip-rule="evenodd" fill="none" stroke="#404041" stroke-width="2" stroke-miterlimit="22.9256" d="
	M58.79,19.61l4.253,0.825 M46.911,22.262l5.394-2.078 M33.023,32.589l8.151-6.921 M22.41,29.949l5.133,3.088 M16.127,28.03
	l-5.468-0.28 M55.465,15.582c1.867,0,3.386,1.515,3.386,3.384c0,1.87-1.519,3.385-3.386,3.385c-1.868,0-3.384-1.516-3.384-3.385
	C52.081,17.097,53.597,15.582,55.465,15.582L55.465,15.582z M43.755,20.094c1.867,0,3.382,1.515,3.382,3.382
	c0,1.872-1.515,3.386-3.382,3.386c-1.871,0-3.387-1.514-3.387-3.386C40.368,21.608,41.884,20.094,43.755,20.094L43.755,20.094z
	 M30.444,31.396c1.869,0,3.385,1.513,3.385,3.385c0,1.869-1.517,3.384-3.385,3.384c-1.868,0-3.385-1.515-3.385-3.384
	C27.059,32.909,28.576,31.396,30.444,31.396L30.444,31.396z M19.511,24.822c1.868,0,3.385,1.513,3.385,3.381
	c0,1.869-1.517,3.385-3.385,3.385c-1.87,0-3.386-1.516-3.386-3.385C16.125,26.335,17.641,24.822,19.511,24.822L19.511,24.822z
	 M26.874,64.29c1.713-1.287,3.083-3.002,3.952-4.988 M46.83,64.29c-3.029-2.275-4.989-5.896-4.989-9.979 M7.547,9.411h58.608
	c1.034,0,1.876,0.854,1.876,1.877v41.145c0,1.023-0.856,1.879-1.876,1.879H7.547c-1.021,0-1.877-0.844-1.877-1.879V11.288
	C5.67,10.252,6.513,9.411,7.547,9.411L7.547,9.411z M21.852,64.29h29.935 M63.043,44.333H10.659"/>
</svg>
