<?xml version="1.0" encoding="utf-8"?>
<!-- Generator: Adobe Illustrator 16.0.0, SVG Export Plug-In . SVG Version: 6.00 Build 0)  -->
<!DOCTYPE svg PUBLIC "-//W3C//DTD SVG 1.1//EN" "http://www.w3.org/Graphics/SVG/1.1/DTD/svg11.dtd">
<svg version="1.1" id="Layer_1" xmlns="http://www.w3.org/2000/svg" xmlns:xlink="http://www.w3.org/1999/xlink" x="0px" y="0px"
	 width="73.701px" height="73.701px" viewBox="0 0 73.701 73.701" enable-background="new 0 0 73.701 73.701" xml:space="preserve">
<path id="SEO_Performance_1_" fill-rule="evenodd" clip-rule="evenodd" fill="none" stroke="#404041" stroke-width="2" stroke-miterlimit="22.9256" d="
	M36.85,10.786c15.809,0,28.625,12.815,28.625,28.623c0,15.811-12.816,28.623-28.625,28.623c-15.809,0-28.625-12.813-28.625-28.623
	C8.226,23.601,21.042,10.786,36.85,10.786L36.85,10.786z M31.741,5.671h10.227 M36.85,15.77l0.007,14.909 M36.857,30.679
	c4.822,0,8.732,3.906,8.732,8.729s-3.91,8.73-8.732,8.73c-4.822,0-8.731-3.907-8.731-8.73S32.035,30.679,36.857,30.679
	L36.857,30.679z M36.85,10.784l0.004-5.115 M36.857,48.081l0.004,4.987 M53.271,15.96l2.928-4.192 M31.861,57.38
	c-2.26-0.628-4.347-1.67-6.176-3.038 M21.918,50.575c-1.828-2.439-3.071-5.343-3.523-8.503 M18.393,36.744
	c1.056-7.373,6.424-13.355,13.468-15.305"/>
</svg>
