<?xml version="1.0" encoding="utf-8"?>
<!-- Generator: Adobe Illustrator 16.0.0, SVG Export Plug-In . SVG Version: 6.00 Build 0)  -->
<!DOCTYPE svg PUBLIC "-//W3C//DTD SVG 1.1//EN" "http://www.w3.org/Graphics/SVG/1.1/DTD/svg11.dtd">
<svg version="1.1" id="Layer_1" xmlns="http://www.w3.org/2000/svg" xmlns:xlink="http://www.w3.org/1999/xlink" x="0px" y="0px"
	 width="73.701px" height="73.701px" viewBox="0 0 73.701 73.701" enable-background="new 0 0 73.701 73.701" xml:space="preserve">
<path id="Seo_Report_1_" fill-rule="evenodd" clip-rule="evenodd" fill="none" stroke="#404041" stroke-width="2" stroke-miterlimit="22.9256" d="
	M49.946,10.035H60.55c1.37,0,2.493,1.123,2.493,2.494v53.01c0,1.373-1.123,2.492-2.493,2.492H13.152
	c-1.372,0-2.494-1.119-2.494-2.492v-53.01c0-1.372,1.122-2.494,2.494-2.494h10.602 M28.119,12.529v-2.494h4.366
	c0-2.399,1.965-4.366,4.366-4.366l0,0c2.402,0,4.365,1.967,4.365,4.366h4.364v2.494 M34.061,28.432l6.835,6.836
	c-1.75,1.749-4.167,2.83-6.835,2.83c-5.34,0-9.667-4.327-9.667-9.666c0-5.34,4.327-9.665,9.667-9.665
	c2.668,0,5.085,1.081,6.835,2.829L34.061,28.432 M46.475,21.595c1.748,1.75,2.83,4.168,2.83,6.836c0,2.67-1.082,5.086-2.83,6.836
	l-6.837-6.836L46.475,21.595L46.475,21.595z M24.364,53.813v5.488 M30.6,42.894v16.408 M36.836,51.319v7.982 M43.072,47.524v11.777
	 M49.309,45.061v14.241"/>
</svg>
