<?xml version="1.0" encoding="utf-8"?>
<!-- Generator: Adobe Illustrator 16.0.0, SVG Export Plug-In . SVG Version: 6.00 Build 0)  -->
<!DOCTYPE svg PUBLIC "-//W3C//DTD SVG 1.1//EN" "http://www.w3.org/Graphics/SVG/1.1/DTD/svg11.dtd">
<svg version="1.1" id="Layer_1" xmlns="http://www.w3.org/2000/svg" xmlns:xlink="http://www.w3.org/1999/xlink" x="0px" y="0px"
	 width="73.701px" height="73.701px" viewBox="0 0 73.701 73.701" enable-background="new 0 0 73.701 73.701" xml:space="preserve">
<path id="SEO_Avards_1_" fill-rule="evenodd" clip-rule="evenodd" fill="none" stroke="#404041" stroke-width="2" stroke-miterlimit="22.9256" d="
	M42.032,49.499c0.44,2.777,1.491,5.353,3.014,7.582h9.769c0.873,0,1.442,0.743,1.586,1.587l1.322,7.777
	c0.146,0.849-0.725,1.587-1.584,1.587H17.573c-0.855,0-1.732-0.725-1.586-1.587l1.325-7.777c0.146-0.859,0.713-1.587,1.584-1.587
	h9.77c1.521-2.229,2.573-4.805,3.013-7.582h-1.978c-0.323,0-0.536-0.271-0.591-0.591l-0.457-2.688
	c-4.117-1.396-7.407-4.746-8.459-8.901l-0.85,0.076c-4.789,0.419-9.01-3.125-9.429-7.912c-0.38-4.336-0.758-8.669-1.136-13.004
	h5.096h6.863l0.238-4.396l-2.768-1.672V5.669c12.43,0,24.86,0,37.29,0v4.741l-2.765,1.67l0.227,4.4l6.864-0.002h5.095
	c-0.376,4.335-0.756,8.668-1.135,13.004c-0.419,4.787-4.642,8.331-9.429,7.912l-0.842-0.074c-1.053,4.153-4.343,7.503-8.46,8.899
	 M36.856,16.641l2.639,7.042l7.515,0.336l-5.884,4.688l2.005,7.248l-6.275-4.146l-6.274,4.146l2.003-7.248l-5.883-4.688l7.514-0.336
	 M19.938,32.247l0.549-10.691h-6.168l0.328,3.742 M59.055,25.298l0.326-3.742h-6.159l0.551,10.692"/>
</svg>
