<?xml version="1.0" encoding="utf-8"?>
<!-- Generator: Adobe Illustrator 16.0.0, SVG Export Plug-In . SVG Version: 6.00 Build 0)  -->
<!DOCTYPE svg PUBLIC "-//W3C//DTD SVG 1.1//EN" "http://www.w3.org/Graphics/SVG/1.1/DTD/svg11.dtd">
<svg version="1.1" id="Layer_1" xmlns="http://www.w3.org/2000/svg" xmlns:xlink="http://www.w3.org/1999/xlink" x="0px" y="0px"
	 width="73.701px" height="73.701px" viewBox="0 0 73.701 73.701" enable-background="new 0 0 73.701 73.701" xml:space="preserve">
<path id="Services_Packages_1_" fill-rule="evenodd" clip-rule="evenodd" fill="none" stroke="#404041" stroke-width="2" stroke-miterlimit="22.9256" d="
	M41.841,56.191l5.95-2.887v-2.492l-5.95,2.888V56.191L41.841,56.191z M58.734,39.231v13.755L36.851,63.6L14.968,52.986V34.243
	 M36.851,14.611v8.754 M36.851,35.836V63.6 M27.554,40.346l9.297-4.51l9.298,4.51l21.884-10.611l-9.298-4.51l9.298-4.51
	L46.148,10.101l-9.298,4.51l-9.297-4.51L5.67,20.714l9.298,4.51l-9.298,4.51L27.554,40.346L27.554,40.346z M36.851,14.611
	L14.968,25.224l21.882,10.612l21.884-10.612L36.851,14.611L36.851,14.611z M36.851,30.849v-2.494"/>
</svg>
