<?xml version="1.0" encoding="utf-8"?>
<!-- Generator: Adobe Illustrator 16.0.0, SVG Export Plug-In . SVG Version: 6.00 Build 0)  -->
<!DOCTYPE svg PUBLIC "-//W3C//DTD SVG 1.1//EN" "http://www.w3.org/Graphics/SVG/1.1/DTD/svg11.dtd">
<svg version="1.1" id="Layer_1" xmlns="http://www.w3.org/2000/svg" xmlns:xlink="http://www.w3.org/1999/xlink" x="0px" y="0px"
	 width="73.701px" height="73.701px" viewBox="0 0 73.701 73.701" enable-background="new 0 0 73.701 73.701" xml:space="preserve">
<path id="Smart_Alerts_1_" fill-rule="evenodd" clip-rule="evenodd" fill="none" stroke="#404041" stroke-width="2" stroke-miterlimit="22.9256" d="
	M30.691,12.876c-0.049-0.316-0.077-0.64-0.077-0.971c0-3.443,2.793-6.235,6.236-6.235s6.236,2.792,6.236,6.235
	c0,0.331-0.027,0.655-0.076,0.971 M12.035,54.313c2.659-0.068,4.802-2.214,4.86-4.875V31.862c0-9.884,7.185-18.089,16.618-19.676
	 M40.188,12.186c9.433,1.587,16.618,9.792,16.618,19.676v17.576c0.059,2.661,2.201,4.807,4.86,4.875 M68.031,54.313
	c-20.787,0-41.573,0-62.362,0 M25.784,23.753c2.497-3.401,6.523-5.611,11.066-5.611 M23.131,31.862c0-1.219,0.16-2.398,0.458-3.523
	 M23.131,48.077H50.57 M49.048,60.598c-2.278,4.416-6.885,7.434-12.197,7.434c-5.312,0-9.919-3.018-12.198-7.434"/>
</svg>
