<?xml version="1.0" encoding="utf-8"?>
<!-- Generator: Adobe Illustrator 16.0.0, SVG Export Plug-In . SVG Version: 6.00 Build 0)  -->
<!DOCTYPE svg PUBLIC "-//W3C//DTD SVG 1.1//EN" "http://www.w3.org/Graphics/SVG/1.1/DTD/svg11.dtd">
<svg version="1.1" id="Layer_1" xmlns="http://www.w3.org/2000/svg" xmlns:xlink="http://www.w3.org/1999/xlink" x="0px" y="0px"
	 width="73.701px" height="73.701px" viewBox="0 0 73.701 73.701" enable-background="new 0 0 73.701 73.701" xml:space="preserve">
<path id="Social_Media_Press_Release_1_" fill-rule="evenodd" clip-rule="evenodd" fill="none" stroke="#404041" stroke-width="2" stroke-miterlimit="22.9256" d="
	M36.851,23.736L68.029,8.864c0.004,13.701,0.001,27.402,0.001,41.104L36.853,64.836L5.67,49.968c0-13.701-0.003-27.402,0.001-41.104
	L36.851,23.736L36.851,23.736z M53.308,38.809l8.486-4.049v7.482l-8.486,4.048V38.809L53.308,38.809z M11.905,23.536l8.485,4.047
	v13.094l-8.485-4.048V23.536L11.905,23.536z M23.989,30.238l6.447,3.075 M23.989,35.848l6.447,3.078 M23.989,41.463l6.447,3.073
	 M11.905,41.308l18.531,8.844 M61.794,24.47l-18.535,8.843 M43.259,38.926l18.535-8.844 M43.259,44.539l6.451-3.079 M43.259,50.151
	l6.451-3.078 M36.851,28.826l0.002,30.92"/>
</svg>
