<?xml version="1.0" encoding="utf-8"?>
<!-- Generator: Adobe Illustrator 16.0.0, SVG Export Plug-In . SVG Version: 6.00 Build 0)  -->
<!DOCTYPE svg PUBLIC "-//W3C//DTD SVG 1.1//EN" "http://www.w3.org/Graphics/SVG/1.1/DTD/svg11.dtd">
<svg version="1.1" id="Layer_1" xmlns="http://www.w3.org/2000/svg" xmlns:xlink="http://www.w3.org/1999/xlink" x="0px" y="0px"
	 width="73.701px" height="73.701px" viewBox="0 0 73.701 73.701" enable-background="new 0 0 73.701 73.701" xml:space="preserve">
<path id="Social_Integration_1_" fill-rule="evenodd" clip-rule="evenodd" fill="none" stroke="#404041" stroke-width="2" stroke-miterlimit="22.9256" d="
	M24.2,62.973c4.317,0.228,8.429,1.225,12.203,2.856c6.819,1.689,22.205,2.489,26.462-4.684c0.749-1.26-0.328-3.115,0.734-4.263
	c1.106-1.191,3.075-2.7,3.075-4.28c0-0.888-0.648-2.118-0.983-3.112c-0.606-1.775-0.248-2.061,1.432-3.899
	c1.365-1.49,1.049-2.141-0.005-3.832c-0.275-0.439-0.98-1.59-1.066-2.088c-0.477-2.679,3.174-2.749-0.099-7.62
	c-1.606-2.41-2.805-3.184-5.739-3.29H47.063c-2.065,0,1.178-6.613,2.673-8.845c5.706-8.509-2.349-15.366-6.89-12.557
	c-0.669,6.69-4.11,12.565-9.157,16.461c-5.104,4.726-3.615,10.076-9.765,12.202c-0.425,0.111-0.736,0.673-0.75,1.021v12.43
	 M6.644,33.76H17.71c0.537,0,0.974,0.439,0.974,0.973v29.723c0,0.534-0.44,0.974-0.974,0.974H6.644
	c-0.533,0-0.974-0.437-0.974-0.974V34.732C5.669,34.197,6.108,33.76,6.644,33.76z"/>
</svg>
