<?xml version="1.0" encoding="utf-8"?>
<!-- Generator: Adobe Illustrator 16.0.0, SVG Export Plug-In . SVG Version: 6.00 Build 0)  -->
<!DOCTYPE svg PUBLIC "-//W3C//DTD SVG 1.1//EN" "http://www.w3.org/Graphics/SVG/1.1/DTD/svg11.dtd">
<svg version="1.1" id="Layer_1" xmlns="http://www.w3.org/2000/svg" xmlns:xlink="http://www.w3.org/1999/xlink" x="0px" y="0px"
	 width="73.701px" height="73.701px" viewBox="0 0 73.701 73.701" enable-background="new 0 0 73.701 73.701" xml:space="preserve">
<path id="Social_Engagement_1_" fill-rule="evenodd" clip-rule="evenodd" fill="none" stroke="#404041" stroke-width="2" stroke-miterlimit="22.9256" d="
	M67.841,55.655v10.891L53.289,55.708L36.654,55.69 M44.584,31.555h7.113 M35.401,26.564H30.01 M17.772,21.575h19.802 M53.824,21.575
	h-6.271 M17.772,36.543h1.996 M17.772,26.564h8.248 M29.746,36.543H42.32 M39.393,26.564h10.792 M17.772,31.555h13.645
	 M35.408,31.555h5.186 M43.563,21.575h-1.996 M23.759,36.543h1.995 M55.689,31.555h1.995 M11.903,50.964
	c-3.411-0.002-6.233-2.807-6.233-6.232v-31.34c0-3.433,2.803-6.236,6.235-6.236h49.892c3.433,0,6.235,2.822,6.235,6.236v31.34
	c0,3.408-2.822,6.232-6.235,6.232H26.326L11.891,61.679l0.005-5.357"/>
</svg>
