<?xml version="1.0" encoding="utf-8"?>
<!-- Generator: Adobe Illustrator 16.0.0, SVG Export Plug-In . SVG Version: 6.00 Build 0)  -->
<!DOCTYPE svg PUBLIC "-//W3C//DTD SVG 1.1//EN" "http://www.w3.org/Graphics/SVG/1.1/DTD/svg11.dtd">
<svg version="1.1" id="Layer_1" xmlns="http://www.w3.org/2000/svg" xmlns:xlink="http://www.w3.org/1999/xlink" x="0px" y="0px"
	 width="73.701px" height="73.701px" viewBox="0 0 73.701 73.701" enable-background="new 0 0 73.701 73.701" xml:space="preserve">
<path id="Social_Media_Marketing_1_" fill-rule="evenodd" clip-rule="evenodd" fill="none" stroke="#404041" stroke-width="2" stroke-miterlimit="22.9256" d="
	M46.374,38.237c-1.034-0.377-1.905-0.74-2.629-1.113c-0.076-0.219,0.068-0.52,0.111-1.172c0.033-0.504-0.118-0.625-0.551-0.625
	c-0.546,0-1.269,0.313-1.771,0.165l-0.308-2.268c1.232-0.458,1.488-2.281,1.488-3.647c2.071-0.425,2.429-5.155,0.895-5.429
	c-0.203-0.532,1.4-5.179-0.273-7.796c-1.188-1.863-4.633-2.901-7.144-2.901c-2.028,0-4.096,0.309-3.362,2.052
	c-5.398,1.128-2.832,4.965-2.832,8.655c-1.819,0.62-0.398,5.321,1.151,5.458c0.228,2.083,0.95,3.628,1.763,3.762l-0.238,2.077
	c-0.472,0-2.355-0.551-2.248,0.386l0.111,0.964c-0.846,0.521-1.805,0.922-3.212,1.436c-2.84,1.034-5.042,2.081-6.255,2.997
	l0.931,9.691l14.847,9.322l14.849-9.322l0.933-9.691C51.416,40.32,49.214,39.273,46.374,38.237L46.374,38.237z M54.635,50.928
	h12.414l0.983-8.217c-0.969-0.726-2.719-1.562-4.98-2.388c-2.86-1.041-4.133-1.951-4.507-3.502v-0.367
	c1.488-0.149,2.691-0.605,3.551-1.217c-0.348-0.285-0.518-0.799-0.474-1.331c0.735,0.404,1.539,0.504,2.348,0.468
	c-2.665-2.182-2.566-5.057-3.165-8.067c-0.258-1.301-0.531-2.667-1.521-3.644c-0.922-0.908-2.334-1.446-3.807-1.449
	c-1.474,0.003-2.886,0.541-3.807,1.449c-0.991,0.977-1.264,2.342-1.521,3.644c-0.6,3.01-0.336,5.688-3.001,7.871
	c0.868,0.001,1.272-0.056,2.183-0.271c0.045,0.532-0.125,1.046-0.475,1.331c0.859,0.611,2.064,1.067,3.552,1.217v0.335
	c-0.06,0.263-0.146,0.508-0.262,0.736 M21.554,37.525c-0.206-0.413-0.321-0.872-0.361-1.398c0.086-1.031,1.849-1.586,2.089-4.156
	c1.887-1.26,1.168-4.211,0.348-3.96c0.015-1.634,0.22-2.67,0.074-3.652c-0.438-2.971-5.049-2.357-4.966-4.409
	c-1.37,0.639-1.45,1.252-1.397,1.68c-0.398,0.023-1.062-0.188-1.216-0.375c-1.02,0.435-2.677,1.209-3.106,3.218
	c-0.086,0.12-0.18,0.258-0.281,0.416c-0.197,0.306-1.044,0.373-1.304,1.512c0.329-0.304,0.894-0.111,1.241-0.055
	c-0.236,0.798-0.008,1.209,0.09,1.686c-1.021,0.259-0.637,3.546,0.793,3.936c0.028,2.158,1.138,2.727,1.626,3.857
	c0.114,0.267-0.042,0.951-0.108,1.283c-0.424,1.697-2.985,2.69-4.426,3.216c-2.263,0.826-4.012,1.662-4.979,2.388l0.98,8.217h12.415
	"/>
</svg>
