<?xml version="1.0" encoding="utf-8"?>
<!-- Generator: Adobe Illustrator 16.0.0, SVG Export Plug-In . SVG Version: 6.00 Build 0)  -->
<!DOCTYPE svg PUBLIC "-//W3C//DTD SVG 1.1//EN" "http://www.w3.org/Graphics/SVG/1.1/DTD/svg11.dtd">
<svg version="1.1" id="Layer_1" xmlns="http://www.w3.org/2000/svg" xmlns:xlink="http://www.w3.org/1999/xlink" x="0px" y="0px"
	 width="73.701px" height="73.701px" viewBox="0 0 73.701 73.701" enable-background="new 0 0 73.701 73.701" xml:space="preserve">
<path id="Social_Media_Cloud_1_" fill-rule="evenodd" clip-rule="evenodd" fill="none" stroke="#404041" stroke-width="2" stroke-miterlimit="22.9256" d="
	M35.448,52.989L17.99,52.987c-6.813-0.046-12.32-5.583-12.32-12.404c0-6.254,4.624-11.423,10.637-12.282
	c1.563-4.778,6.058-8.231,11.358-8.231c1.763,0,3.435,0.383,4.94,1.067l0.007-0.012c2.689-4.716,7.763-7.897,13.58-7.897
	c8.631,0,15.627,6.995,15.627,15.625c0,1.208-0.138,2.381-0.397,3.509c3.882,1.613,6.61,5.44,6.61,9.906
	c0,5.921-4.801,10.722-10.722,10.722h-7.832 M45.736,52.989h-6.547 M31.038,38.854l4.41-4.411l4.411,4.411 M48.542,48.317
	l-2.806-2.804l-2.808,2.804 M35.448,34.442V56.73c0,2.065-1.676,3.741-3.742,3.741H20.893 M17.51,60.472h-5.587 M45.736,45.668
	V56.73c0,2.065,1.676,3.741,3.741,3.741h12.314"/>
</svg>
