<?xml version="1.0" encoding="utf-8"?>
<!-- Generator: Adobe Illustrator 16.0.0, SVG Export Plug-In . SVG Version: 6.00 Build 0)  -->
<!DOCTYPE svg PUBLIC "-//W3C//DTD SVG 1.1//EN" "http://www.w3.org/Graphics/SVG/1.1/DTD/svg11.dtd">
<svg version="1.1" id="Layer_1" xmlns="http://www.w3.org/2000/svg" xmlns:xlink="http://www.w3.org/1999/xlink" x="0px" y="0px"
	 width="73.701px" height="73.701px" viewBox="0 0 73.701 73.701" enable-background="new 0 0 73.701 73.701" xml:space="preserve">
<path id="Social_Media_Collaboration_1_" fill-rule="evenodd" clip-rule="evenodd" fill="none" stroke="#404041" stroke-width="2" stroke-miterlimit="22.9256" d="
	M42.503,27.059c-1.633,1.042-3.572,1.646-5.652,1.646c-2.081,0-4.021-0.604-5.652-1.646c0.086,1.936-0.362,3.917-1.402,5.718
	c-1.04,1.803-2.53,3.184-4.25,4.074c1.72,0.892,3.21,2.271,4.25,4.072 M31.198,46.642c1.633-1.043,3.571-1.645,5.652-1.645
	c2.08,0,4.021,0.602,5.652,1.645c-0.087-1.936,0.361-3.916,1.402-5.719c1.04-1.801,2.53-3.18,4.249-4.072
	c-1.719-0.891-3.209-2.271-4.249-4.074 M10.272,47.786c-1.582-0.145-3.069-1.029-3.924-2.512C4.95,42.856,5.78,39.761,8.2,38.362
	c1.703-0.982,3.741-0.865,5.285,0.135c0.576-0.535,1.22-1.018,1.931-1.425l0.402-0.221l-0.402-0.221
	c-5.035-2.906-6.76-9.344-3.853-14.379c0.673-1.166,1.538-2.156,2.528-2.951c-0.666-1.442-0.643-3.172,0.212-4.653
	c1.396-2.419,4.492-3.249,6.912-1.851c1.703,0.982,2.619,2.806,2.525,4.644c0.752,0.229,1.491,0.548,2.203,0.958l0.391,0.238
	l-0.011-0.458c0-5.814,4.713-10.526,10.527-10.526c1.346,0,2.633,0.252,3.818,0.713c0.916-1.295,2.428-2.143,4.137-2.143
	c2.795,0,5.059,2.266,5.059,5.061c0,1.966-1.12,3.67-2.758,4.508c0.177,0.766,0.271,1.566,0.271,2.386l-0.011,0.458l0.392-0.238
	c5.034-2.907,11.473-1.182,14.379,3.853c0.675,1.166,1.1,2.408,1.292,3.664c1.581,0.145,3.069,1.03,3.925,2.511
	c1.397,2.419,0.566,5.515-1.853,6.912c-1.703,0.984-3.742,0.865-5.285-0.135c-0.577,0.537-1.221,1.018-1.932,1.428l-0.401,0.221
	l0.401,0.221c5.035,2.906,6.76,9.343,3.853,14.378c-0.673,1.166-1.535,2.154-2.526,2.949c0.664,1.443,0.642,3.174-0.212,4.654
	c-1.398,2.42-4.493,3.25-6.913,1.852c-1.704-0.984-2.618-2.805-2.524-4.645c-0.754-0.229-1.491-0.547-2.203-0.959l-0.392-0.236
	l0.011,0.457c0,5.814-4.712,10.527-10.526,10.527c-1.348,0-2.633-0.252-3.818-0.715c-0.916,1.295-2.428,2.145-4.136,2.145
	c-2.796,0-5.061-2.268-5.061-5.061c0-1.967,1.121-3.672,2.76-4.51c-0.178-0.766-0.271-1.564-0.271-2.387l0.011-0.457l-0.391,0.236
	c-5.036,2.908-11.473,1.184-14.38-3.852C10.89,50.284,10.465,49.042,10.272,47.786z"/>
</svg>
