<?xml version="1.0" encoding="utf-8"?>
<!-- Generator: Adobe Illustrator 16.0.0, SVG Export Plug-In . SVG Version: 6.00 Build 0)  -->
<!DOCTYPE svg PUBLIC "-//W3C//DTD SVG 1.1//EN" "http://www.w3.org/Graphics/SVG/1.1/DTD/svg11.dtd">
<svg version="1.1" id="Layer_1" xmlns="http://www.w3.org/2000/svg" xmlns:xlink="http://www.w3.org/1999/xlink" x="0px" y="0px"
	 width="73.701px" height="73.701px" viewBox="0 0 73.701 73.701" enable-background="new 0 0 73.701 73.701" xml:space="preserve">
<path id="Strategy__x26__Consultancy_1_" fill-rule="evenodd" clip-rule="evenodd" fill="none" stroke="#404041" stroke-width="2" stroke-miterlimit="22.9256" d="
	M12.163,54.088c-3.554-0.004-6.493-2.926-6.493-6.494V14.948c0-3.574,2.92-6.495,6.494-6.495h49.373
	c3.575,0,6.495,2.942,6.495,6.495v32.646c0,3.547-2.943,6.494-6.495,6.494H27.186L12.15,65.248l0.005-5.58 M55.689,33.766h1.995
	 M23.758,38.754h1.997 M43.562,23.786h-1.994 M35.409,33.766h5.186 M17.773,33.766h13.644 M39.393,28.775h10.792 M29.746,38.754
	H42.32 M17.773,28.775h8.246 M17.773,38.754h1.995 M53.824,23.786h-6.271 M17.773,23.786h19.802 M35.401,28.775H30.01
	 M44.585,33.766h7.112"/>
</svg>
