<?xml version="1.0" encoding="utf-8"?>
<!-- Generator: Adobe Illustrator 16.0.0, SVG Export Plug-In . SVG Version: 6.00 Build 0)  -->
<!DOCTYPE svg PUBLIC "-//W3C//DTD SVG 1.1//EN" "http://www.w3.org/Graphics/SVG/1.1/DTD/svg11.dtd">
<svg version="1.1" id="Layer_1" xmlns="http://www.w3.org/2000/svg" xmlns:xlink="http://www.w3.org/1999/xlink" x="0px" y="0px"
	 width="73.701px" height="73.701px" viewBox="0 0 73.701 73.701" enable-background="new 0 0 73.701 73.701" xml:space="preserve">
<path id="Support_Services_1_" fill-rule="evenodd" clip-rule="evenodd" fill="none" stroke="#404041" stroke-width="2" stroke-miterlimit="22.9256" d="
	M18.696,11.493c10.818-7.764,25.488-7.764,36.306-0.001L44.136,22.36c-4.572-2.299-10.002-2.299-14.571,0L18.696,11.493
	L18.696,11.493z M62.208,18.697c7.765,10.82,7.765,25.489,0,36.308L51.34,44.137c2.299-4.57,2.299-10.002,0-14.571L62.208,18.697
	L62.208,18.697z M55.002,62.209c-10.817,7.765-25.486,7.764-36.306,0l10.868-10.868c4.569,2.301,9.999,2.299,14.571,0L55.002,62.209
	L55.002,62.209z M11.492,55.004c-7.763-10.817-7.765-25.487,0-36.307l10.867,10.869c-2.3,4.569-2.3,10,0,14.571L11.492,55.004z"/>
</svg>
