<?xml version="1.0" encoding="utf-8"?>
<!-- Generator: Adobe Illustrator 16.0.0, SVG Export Plug-In . SVG Version: 6.00 Build 0)  -->
<!DOCTYPE svg PUBLIC "-//W3C//DTD SVG 1.1//EN" "http://www.w3.org/Graphics/SVG/1.1/DTD/svg11.dtd">
<svg version="1.1" id="Layer_1" xmlns="http://www.w3.org/2000/svg" xmlns:xlink="http://www.w3.org/1999/xlink" x="0px" y="0px"
	 width="73.701px" height="73.701px" viewBox="0 0 73.701 73.701" enable-background="new 0 0 73.701 73.701" xml:space="preserve">
<path id="Target_Audience_1_" fill-rule="evenodd" clip-rule="evenodd" fill="none" stroke="#404041" stroke-width="2" stroke-miterlimit="22.9256" d="
	M59.809,21.095c-4.125-1.391-7.588-4.224-9.789-7.897c-3.246,2.873-7.915,4.678-13.107,4.678c-5.194,0-9.862-1.805-13.107-4.678
	c-2.228,3.711-5.739,6.565-9.92,7.943l-2.543,6.831 M8.796,34.804L5.731,9.137C5.498,7.342,6.979,5.72,8.764,5.669h56.188
	c1.854,0.053,3.112,1.573,3.039,3.387l-3.076,25.747l-2.553-6.855 M45.873,47.191c-0.981-0.357-1.805-0.701-2.491-1.056
	c-0.072-0.204,0.066-0.491,0.106-1.108c0.031-0.477-0.112-0.592-0.521-0.592c-0.517,0-1.202,0.297-1.676,0.156l-0.292-2.146
	c1.168-0.436,1.409-2.159,1.409-3.454c1.961-0.404,2.3-4.882,0.848-5.141c-0.193-0.504,1.325-4.903-0.259-7.381
	c-1.126-1.765-4.387-2.749-6.765-2.749c-1.919,0-3.877,0.293-3.184,1.944c-5.109,1.067-2.68,4.702-2.68,8.194
	c-1.723,0.587-0.378,5.037,1.09,5.169c0.215,1.971,0.901,3.433,1.669,3.559l-0.225,1.969c-0.447,0-2.23-0.523-2.128,0.363
	l0.104,0.915c-0.8,0.493-1.708,0.871-3.041,1.358c-2.688,0.979-4.774,1.971-5.923,2.837l0.881,9.179l14.058,8.822l14.06-8.822
	l0.882-9.179C50.646,49.164,48.562,48.173,45.873,47.191L45.873,47.191z M53.693,59.209h11.753l0.932-7.782
	c-0.917-0.688-2.574-1.478-4.717-2.26c-2.707-0.987-3.91-1.848-4.266-3.317v-0.347c1.408-0.142,2.548-0.573,3.361-1.151
	c-0.329-0.271-0.491-0.758-0.448-1.261c0.696,0.381,1.458,0.478,2.222,0.442c-2.522-2.064-2.428-4.788-2.996-7.638
	c-0.243-1.232-0.501-2.525-1.439-3.449c-0.874-0.859-2.209-1.369-3.604-1.372c-1.396,0.003-2.731,0.513-3.604,1.372
	c-0.938,0.924-1.198,2.217-1.439,3.449c-0.569,2.85-0.318,5.385-2.842,7.45c0.822,0.003,1.203-0.051,2.066-0.255
	c0.042,0.503-0.12,0.99-0.449,1.261c0.813,0.578,1.953,1.01,3.361,1.151v0.316c-0.056,0.25-0.138,0.48-0.246,0.698 M22.37,46.518
	c-0.193-0.39-0.302-0.825-0.339-1.324c0.08-0.977,1.749-1.502,1.978-3.935c1.785-1.194,1.104-3.987,0.328-3.751
	c0.013-1.547,0.208-2.527,0.07-3.457c-0.416-2.813-4.78-2.232-4.703-4.174c-1.296,0.604-1.372,1.184-1.322,1.59
	c-0.378,0.022-1.005-0.178-1.152-0.355c-0.964,0.413-2.535,1.146-2.942,3.047c-0.082,0.114-0.169,0.244-0.265,0.394
	c-0.188,0.289-0.99,0.353-1.235,1.433c0.313-0.288,0.845-0.106,1.175-0.052c-0.225,0.755-0.006,1.145,0.084,1.594
	c-0.967,0.247-0.602,3.359,0.752,3.728c0.025,2.043,1.077,2.582,1.538,3.653c0.109,0.252-0.039,0.899-0.102,1.213
	c-0.403,1.608-2.828,2.549-4.189,3.047c-2.143,0.782-3.8,1.572-4.715,2.26l0.93,7.782h11.753"/>
</svg>
