<?xml version="1.0" encoding="utf-8"?>
<!-- Generator: Adobe Illustrator 16.0.0, SVG Export Plug-In . SVG Version: 6.00 Build 0)  -->
<!DOCTYPE svg PUBLIC "-//W3C//DTD SVG 1.1//EN" "http://www.w3.org/Graphics/SVG/1.1/DTD/svg11.dtd">
<svg version="1.1" id="Layer_1" xmlns="http://www.w3.org/2000/svg" xmlns:xlink="http://www.w3.org/1999/xlink" x="0px" y="0px"
	 width="73.701px" height="73.701px" viewBox="0 0 73.701 73.701" enable-background="new 0 0 73.701 73.701" xml:space="preserve">
<path id="Target_Keywords_1_" fill-rule="evenodd" clip-rule="evenodd" fill="none" stroke="#404041" stroke-width="2" stroke-miterlimit="22.9256" d="
	M36.851,26.872c5.512,0,9.979,4.467,9.979,9.979c0,5.51-4.467,9.978-9.979,9.978c-5.51,0-9.978-4.468-9.978-9.978
	C26.873,31.339,31.34,26.872,36.851,26.872L36.851,26.872z M36.851,10.657c14.466,0,26.193,11.728,26.193,26.193
	S51.316,63.043,36.851,63.043c-14.466,0-26.193-11.727-26.193-26.192S22.384,10.657,36.851,10.657L36.851,10.657z M5.67,36.851
	h9.979 M58.054,36.851h9.978 M36.851,68.031v-9.979 M36.851,15.647V5.669"/>
</svg>
