<?xml version="1.0" encoding="utf-8"?>
<!-- Generator: Adobe Illustrator 16.0.0, SVG Export Plug-In . SVG Version: 6.00 Build 0)  -->
<!DOCTYPE svg PUBLIC "-//W3C//DTD SVG 1.1//EN" "http://www.w3.org/Graphics/SVG/1.1/DTD/svg11.dtd">
<svg version="1.1" id="Layer_1" xmlns="http://www.w3.org/2000/svg" xmlns:xlink="http://www.w3.org/1999/xlink" x="0px" y="0px"
	 width="73.701px" height="73.701px" viewBox="0 0 73.701 73.701" enable-background="new 0 0 73.701 73.701" xml:space="preserve">
<path id="Users_Flow_1_" fill-rule="evenodd" clip-rule="evenodd" fill="none" stroke="#404041" stroke-width="2" stroke-miterlimit="22.9256" d="
	M12.453,37.596l-6.784,5.493l5.493,6.784 M62.538,49.873l5.493-6.784l-6.785-5.493 M55.033,40.972l0.215-2.242
	c-1.582-0.862-3.69-1.776-6.177-2.684c-1.327-0.484-2.445-0.949-3.374-1.429c-0.1-0.281,0.089-0.665,0.143-1.504
	c0.045-0.646-0.151-0.802-0.706-0.802c-0.699,0-1.628,0.401-2.271,0.213l-0.396-2.911c1.584-0.59,1.909-2.926,1.909-4.681
	c2.657-0.546,3.117-6.613,1.149-6.965c-0.263-0.682,1.796-5.214-0.35-8.573C43.65,7.002,39.229,5.67,36.007,5.67
	c-2.603,0-5.255,0.396-4.314,2.635c-6.925,1.445-3.634,4.938-3.634,9.674c-2.334,0.795-0.511,6.827,1.478,7.003
	c0.291,2.672,1.219,4.653,2.262,4.825l-0.306,2.665c-0.604,0-3.021-0.707-2.885,0.496l0.143,1.239
	c-1.084,0.666-2.316,1.182-4.119,1.84c-2.49,0.905-4.595,1.819-6.178,2.683l0.216,2.242c7.713,2.432,14.128,6.961,18.18,12.721
	 M36.85,68.031c0-13.775,13.961-24.944,31.18-24.944h0.002 M36.85,68.031c0-13.775-13.959-24.944-31.181-24.944l0,0"/>
</svg>
