<?xml version="1.0" encoding="utf-8"?>
<!-- Generator: Adobe Illustrator 16.0.0, SVG Export Plug-In . SVG Version: 6.00 Build 0)  -->
<!DOCTYPE svg PUBLIC "-//W3C//DTD SVG 1.1//EN" "http://www.w3.org/Graphics/SVG/1.1/DTD/svg11.dtd">
<svg version="1.1" id="Layer_1" xmlns="http://www.w3.org/2000/svg" xmlns:xlink="http://www.w3.org/1999/xlink" x="0px" y="0px"
	 width="73.701px" height="73.701px" viewBox="0 0 73.701 73.701" enable-background="new 0 0 73.701 73.701" xml:space="preserve">
<path id="Video_Marketing_1_" fill-rule="evenodd" clip-rule="evenodd" fill="none" stroke="#404041" stroke-width="2" stroke-miterlimit="22.9256" d="
	M25.817,56.167l42.214-0.002 M15.839,56.167l-10.17-0.002 M20.829,51.177c2.755,0,4.989,2.233,4.989,4.99
	c0,2.755-2.233,4.988-4.989,4.988c-2.756,0-4.989-2.233-4.989-4.988C15.839,53.41,18.072,51.177,20.829,51.177L20.829,51.177z
	 M49.152,31.317L28.199,43.464c-1.153,0.641-2.438,0.709-3.6,0.032c-1.153-0.669-1.798-1.894-1.772-3.144l-0.004-24.185
	c0-1.31,0.635-2.484,1.769-3.144c1.136-0.657,2.495-0.618,3.554,0.001l20.903,12.119c1.137,0.677,1.828,1.772,1.828,3.116
	C50.877,29.56,50.188,30.695,49.152,31.317z"/>
</svg>
