<?xml version="1.0" encoding="utf-8"?>
<!-- Generator: Adobe Illustrator 16.0.0, SVG Export Plug-In . SVG Version: 6.00 Build 0)  -->
<!DOCTYPE svg PUBLIC "-//W3C//DTD SVG 1.1//EN" "http://www.w3.org/Graphics/SVG/1.1/DTD/svg11.dtd">
<svg version="1.1" id="Layer_1" xmlns="http://www.w3.org/2000/svg" xmlns:xlink="http://www.w3.org/1999/xlink" x="0px" y="0px"
	 width="73.701px" height="73.701px" viewBox="0 0 73.701 73.701" enable-background="new 0 0 73.701 73.701" xml:space="preserve">
<path id="Viral_Marketing_1_" fill-rule="evenodd" clip-rule="evenodd" fill="none" stroke="#404041" stroke-width="2" stroke-miterlimit="22.9256" d="
	M14.26,25.648c0-0.701,0.543-1.278,1.231-1.33l14.511-0.003l11.718-4.125 M46.3,18.576l7.609-2.678 M27.844,45.974l4.666,11.186
	c0.703-0.289,1.515,0.049,1.803,0.752l0.932,2.264c0.29,0.703-0.05,1.514-0.752,1.803l-9.398,3.902
	c-0.703,0.295-1.521-0.041-1.814-0.746l-7.025-16.84v-7.455h-0.41c-5.619,0-10.175-4.556-10.175-10.175
	c0-5.619,4.556-10.175,10.175-10.175h13.304l23.975-8.505c-0.126-0.535-0.258-1.066-0.396-1.596c0-0.123-0.065-0.349-0.065-0.535
	c0-1.18,0.956-2.138,2.137-2.138c0.973,0,1.827,0.661,2.068,1.604c1.756,6.823,2.687,13.976,2.687,21.345
	c0,7.371-0.931,14.523-2.687,21.343c-0.236,0.924-1.071,1.605-2.068,1.605c-1.181,0-2.137-0.957-2.137-2.139
	c0-0.184,0.022-0.361,0.065-0.531c0.138-0.531,0.27-1.063,0.396-1.598l-23.975-8.506h-6.446 M62.345,21.536
	c3.369,1.656,5.687,5.121,5.687,9.128c0,4.006-2.317,7.472-5.687,9.128"/>
</svg>
