<?xml version="1.0" encoding="utf-8"?>
<!-- Generator: Adobe Illustrator 16.0.0, SVG Export Plug-In . SVG Version: 6.00 Build 0)  -->
<!DOCTYPE svg PUBLIC "-//W3C//DTD SVG 1.1//EN" "http://www.w3.org/Graphics/SVG/1.1/DTD/svg11.dtd">
<svg version="1.1" id="Layer_1" xmlns="http://www.w3.org/2000/svg" xmlns:xlink="http://www.w3.org/1999/xlink" x="0px" y="0px"
	 width="73.701px" height="73.701px" viewBox="0 0 73.701 73.701" enable-background="new 0 0 73.701 73.701" xml:space="preserve">
<path id="Web_Analytics_1_" fill-rule="evenodd" clip-rule="evenodd" fill="none" stroke="#404041" stroke-width="2" stroke-miterlimit="22.9256" d="
	M39.531,5.67c15.158,1.26,27.241,13.346,28.501,28.501H52.938C51.823,27.302,46.4,21.88,39.531,20.764V5.67L39.531,5.67z
	 M68.032,39.419c-0.553,6.654-3.192,12.715-7.262,17.529L50.099,46.276c1.436-1.994,2.428-4.33,2.839-6.857H68.032L68.032,39.419z
	 M57.06,60.659c-5.438,4.598-12.473,7.373-20.152,7.373c-17.251,0-31.237-13.984-31.237-31.237c0-16.367,12.59-29.792,28.613-31.125
	v15.094c-7.725,1.254-13.62,7.952-13.62,16.031c0,8.972,7.272,16.243,16.244,16.243c3.539,0,6.813-1.131,9.48-3.053L57.06,60.659z"
	/>
</svg>
