<?xml version="1.0" encoding="utf-8"?>
<!-- Generator: Adobe Illustrator 16.0.0, SVG Export Plug-In . SVG Version: 6.00 Build 0)  -->
<!DOCTYPE svg PUBLIC "-//W3C//DTD SVG 1.1//EN" "http://www.w3.org/Graphics/SVG/1.1/DTD/svg11.dtd">
<svg version="1.1" id="Layer_1" xmlns="http://www.w3.org/2000/svg" xmlns:xlink="http://www.w3.org/1999/xlink" x="0px" y="0px"
	 width="73.701px" height="73.701px" viewBox="0 0 73.701 73.701" enable-background="new 0 0 73.701 73.701" xml:space="preserve">
<path id="Web_Development_1_" fill-rule="evenodd" clip-rule="evenodd" fill="none" stroke="#404041" stroke-width="2" stroke-miterlimit="22.9256" d="
	M42.045,28.354c0.948-1.301,2.036-2.381,3.262-3.261l3.009,1.52c0.646-0.344,1.317-0.622,2.005-0.831l1.06-3.208
	c1.588-0.25,3.124-0.244,4.612,0l1.054,3.204c0.688,0.211,1.357,0.487,2.005,0.829l3.017-1.521c1.301,0.948,2.381,2.037,3.26,3.261
	l-1.521,3.008c0.344,0.647,0.621,1.32,0.833,2.008l3.206,1.059c0.252,1.588,0.244,3.124,0,4.61l-3.204,1.055
	c-0.209,0.688-0.485,1.359-0.828,2.006l1.52,3.016c-0.945,1.301-2.036,2.381-3.26,3.26l-3.011-1.52
	c-0.645,0.344-1.316,0.621-2.004,0.83L56,50.888c-1.59,0.25-3.125,0.244-4.611,0l-1.055-3.203c-0.688-0.209-1.36-0.488-2.006-0.828
	l-3.016,1.52c-1.3-0.947-2.38-2.037-3.26-3.262l1.519-3.008c-0.343-0.646-0.621-1.318-0.832-2.008l-3.206-1.057
	c-0.251-1.59-0.245-3.125,0-4.613l3.204-1.054c0.211-0.688,0.486-1.359,0.828-2.005L42.045,28.354L42.045,28.354z M53.69,41.718
	c-2.755,0-4.989-2.232-4.989-4.987c0-2.756,2.234-4.989,4.989-4.989c2.754,0,4.985,2.233,4.985,4.989 M32.697,18.426l2.521-1.877
	c2.828,0.755,2.023,1.503,2.023,4.134c0,3.155-1.943,0.187-4.607-0.106L32.697,18.426L32.697,18.426z M38.352,48.501
	c-0.523,0.063-1.927,0.158-2,3.125c1.212,0.436,0.814,0.611,1.994,2.174c1.567,2.074,1.517,0.971,1.738,2.945
	c0.329,2.898-0.668,3.549-1.266,5.75c-0.015,0.059-0.031,0.119-0.046,0.18c0.071-0.01,0.145-0.021,0.211-0.035
	c1.141-0.246,1.91-0.727,2.818-1.369l3.528-2.984c1.932-1.834,2.859-2.037,3.644-2.803c-3.281-0.822-7.287-3.416-8.954-5.084
	C38.352,48.731,38.965,49.36,38.352,48.501L38.352,48.501z M63.16,53.587C57.625,62.271,47.91,68.03,36.85,68.03
	c-17.22,0-31.18-13.959-31.18-31.18c0-17.22,13.96-31.18,31.18-31.18c10.9,0,20.494,5.595,26.067,14.07
	c-2.654-1.443-5.573-2.22-8.514-2.328c-0.663-0.599-0.297-0.345-1.019-0.874c-0.225,0.32-0.301,0.594-0.825,0.819h-1.389
	c-0.367-1.371-0.015-0.499-0.754-1.601c0.553-0.238,0.853-0.412,1.171-0.56c-0.922-0.627-1.884-1.199-2.884-1.708
	c0.705,1.175-0.148,0.93-0.292,4.643c-0.425,0.12-0.846,0.254-1.264,0.404c-1.463-1.105-1.831-2.938-2.58-4.317
	c-1.522-2.804-2.245-2.724-3.476-3.215c-0.643-0.104-1.291-0.186-1.947-0.244c0.028,1.502-0.877,0.965,0.725,2.547
	c1.698,1.68,0.566,1.421,2.672,1.651c-0.21,2.532-0.431,1.76-1.096,4.252c1.717-0.459,0.598-0.468,2.314-0.927
	c0,1.059-0.027,1.494,0.059,1.821c-1.355,0.806-2.634,1.79-3.8,2.957c-3.794,3.794-5.683,8.771-5.663,13.744h-4.489
	c-0.45,1.938-0.872,1.274-0.925,3.706c1.265,0.459,0.952-0.025,1.389,1.852h1.39v-1.852c3.189,0,1.912-0.373,1.87,2.371l1.74-0.611
	c0.067,0.221,0.138,0.438,0.215,0.654l-0.12,2.217h0.852c0.302,0.627,0.56,1.109,0.934,1.707c-2.237-0.08-1.534-0.396-3.789-1.557
	l-1.955-0.824c-2.049-0.563-1.755,0.164-4.459-1.096c-1.721-0.801-1.72-0.564-1.771-2.861c-1.977,0.717-0.505,0.729-2.314,0.926
	l-1.054-2.186c-0.051-0.09-0.123-0.203-0.172-0.293c-2.124-4.401-1.573-2.234-3.077-3.973c0-5.366,1.111-8.136,0.831-10.077
	c-0.001-0.008-0.541-0.173-0.197-1.998c0.335-1.78,0.428-2.156,0.428-4.627"/>
</svg>
