<?xml version="1.0" encoding="utf-8"?>
<!-- Generator: Adobe Illustrator 16.0.0, SVG Export Plug-In . SVG Version: 6.00 Build 0)  -->
<!DOCTYPE svg PUBLIC "-//W3C//DTD SVG 1.1//EN" "http://www.w3.org/Graphics/SVG/1.1/DTD/svg11.dtd">
<svg version="1.1" id="Layer_1" xmlns="http://www.w3.org/2000/svg" xmlns:xlink="http://www.w3.org/1999/xlink" x="0px" y="0px"
	 width="73.701px" height="73.701px" viewBox="0 0 73.701 73.701" enable-background="new 0 0 73.701 73.701" xml:space="preserve">
<path id="Website_Optimization_1_" fill-rule="evenodd" clip-rule="evenodd" fill="none" stroke="#404041" stroke-width="2" stroke-miterlimit="22.9256" d="
	M5.671,20.638h62.361 M20.639,11.906c1.378,0,2.495,1.117,2.495,2.495c0,1.377-1.117,2.494-2.495,2.494s-2.495-1.117-2.495-2.494
	C18.144,13.023,19.261,11.906,20.639,11.906L20.639,11.906z M29.368,11.906c1.376,0,2.493,1.117,2.493,2.495
	c0,1.377-1.117,2.494-2.493,2.494s-2.493-1.117-2.493-2.494C26.875,13.023,27.992,11.906,29.368,11.906L29.368,11.906z
	 M11.907,11.906c1.377,0,2.494,1.117,2.494,2.495c0,1.377-1.117,2.494-2.494,2.494s-2.494-1.117-2.494-2.494
	C9.413,13.023,10.53,11.906,11.907,11.906L11.907,11.906z M68.032,10.819c0-1.46-1.194-2.655-2.654-2.655
	c-19.018,0-38.035,0-57.054,0c-1.459,0-2.653,1.194-2.653,2.655c0,19.018-0.001,33.047-0.001,52.064
	c0,1.459,1.193,2.652,2.654,2.652h17.093c-0.126-0.686-0.192-1.391-0.192-2.111c0-6.422,5.206-11.629,11.627-11.629
	s11.627,5.207,11.627,11.629c0,0.721-0.067,1.426-0.191,2.111h17.091c1.458,0,2.652-1.195,2.652-2.652
	C68.03,43.866,68.032,29.837,68.032,10.819L68.032,10.819z M62.916,59.454l-6.261-2.123c-0.389-1.264-0.894-2.477-1.505-3.625
	l2.75-5.447c-1.59-2.213-3.546-4.184-5.898-5.895l-5.455,2.748c-1.148-0.609-2.363-1.113-3.628-1.502l-1.905-5.791
	c-2.691-0.441-5.468-0.453-8.341,0l-1.912,5.799c-1.265,0.391-2.477,0.895-3.625,1.508l-5.446-2.75
	c-2.214,1.59-4.188,3.545-5.897,5.896l2.748,5.455c-0.61,1.15-1.113,2.365-1.502,3.629l-6.253,2.074"/>
</svg>
