<?xml version="1.0" encoding="utf-8"?>
<!-- Generator: Adobe Illustrator 16.0.0, SVG Export Plug-In . SVG Version: 6.00 Build 0)  -->
<!DOCTYPE svg PUBLIC "-//W3C//DTD SVG 1.1//EN" "http://www.w3.org/Graphics/SVG/1.1/DTD/svg11.dtd">
<svg version="1.1" id="Layer_1" xmlns="http://www.w3.org/2000/svg" xmlns:xlink="http://www.w3.org/1999/xlink" x="0px" y="0px"
	 width="73.701px" height="73.701px" viewBox="0 0 73.701 73.701" enable-background="new 0 0 73.701 73.701" xml:space="preserve">
<path id="Affliliate_Marketing_1_" fill-rule="evenodd" clip-rule="evenodd" fill="#404041" d="M43.17,21.477
	c2.898-5.85,12.465-14.766-0.789-11.33l-3.063,6.634l0.329-7.13C36.1,6.721,15.546-1.734,29.268,20.989
	c-0.198,0.033-0.381,0.069-0.544,0.106c-3.623,0.826-3.449,3.744-0.033,3.641l1.381,0.001c-9.641,3.834-20.032,14.794-19.004,29.47
	c0.004,0.054,2.125,4.113,2.119,4.176l-3.137-1.293c-2.053,1.354-3.388,3.109-3.935,4.312c-0.546,1.201,1.633,4.427,3.642,4.954
	c17.152,2.232,37.035,2.232,54.188,0c2.01-0.527,4.188-3.753,3.641-4.954c-0.547-1.202-1.8-2.903-3.854-4.256l-7.458,3.858
	c-0.008-0.063,6.402-7.498,6.405-7.554c1.02-14.541-9.201-25.037-18.785-28.715C49.447,24.579,48.648,22.514,43.17,21.477
	L43.17,21.477z M38.417,59.53h-2.458v-3.295c-3.115-0.065-5.736-1.148-5.736-1.148v-5.245h2.293l0.656,3.017
	c0,0,1.18,0.656,3.114,0.656c2.295,0,4.623-0.917,4.623-3.017c0-4.555-10.522-2.557-10.522-9.668c0-3.508,2.523-5.28,5.573-5.704
	v-2.836h2.458v2.735c2.688,0.198,5.245,1.215,5.245,1.215l-0.164,4.917h-1.967l-0.819-2.951c0,0-1.476-0.657-3.113-0.657
	c-2.623,0-3.935,1.313-3.935,2.787c0,4.49,10.489,2.854,10.489,9.505c0,3.638-2.523,5.606-5.735,6.196V59.53z"/>
</svg>
