<?xml version="1.0" encoding="utf-8"?>
<!-- Generator: Adobe Illustrator 16.0.0, SVG Export Plug-In . SVG Version: 6.00 Build 0)  -->
<!DOCTYPE svg PUBLIC "-//W3C//DTD SVG 1.1//EN" "http://www.w3.org/Graphics/SVG/1.1/DTD/svg11.dtd">
<svg version="1.1" id="Layer_1" xmlns="http://www.w3.org/2000/svg" xmlns:xlink="http://www.w3.org/1999/xlink" x="0px" y="0px"
	 width="73.701px" height="73.701px" viewBox="0 0 73.701 73.701" enable-background="new 0 0 73.701 73.701" xml:space="preserve">
<path id="Backlinks_Building_1_" fill-rule="evenodd" clip-rule="evenodd" fill="#404041" d="M11.902,11.905
	c1.378,0,2.495,1.119,2.495,2.495c0,1.378-1.117,2.495-2.495,2.495c-1.375,0-2.494-1.117-2.494-2.495
	C9.409,13.024,10.527,11.905,11.902,11.905L11.902,11.905z M28.119,61.794h6.862V34.632l-4.745,4.745l-2.647-2.646l9.261-9.262
	l9.263,9.262l-2.646,2.646l-4.746-4.744v27.161h6.861v3.741c-5.822,0-11.639,0-17.463,0V61.794L28.119,61.794z M58.248,45.754
	l-7.056-7.056l-7.056,7.056l2.646,2.646l2.539-2.54L49.32,59.924c0,3.098,2.514,5.611,5.613,5.611l10.445,0.002
	c1.458,0,2.653-1.193,2.653-2.651c0-19.019,0-33.048,0-52.066c0-1.461-1.195-2.656-2.653-2.656c-19.02,0-38.038,0-57.057,0
	c-1.458,0-2.653,1.195-2.653,2.656c0,19.018,0,33.046,0,52.066c0,1.457,1.195,2.651,2.653,2.651l10.447-0.002
	c3.1,0,5.612-2.514,5.612-5.611V45.859l2.538,2.54l2.646-2.646l-7.056-7.056l-7.056,7.056l2.646,2.646l2.541-2.541v14.065
	c0,1.032-0.839,1.87-1.871,1.87c-2.677,0-5.354,0.002-8.03,0.002c-0.705,0-1.328-0.604-1.328-1.328c0-13.741,0-24.765,0-38.507
	c0-0.722,0.597-1.324,1.328-1.324c17.029,0,35.193,0,52.224,0c0.729,0,1.328,0.615,1.328,1.324c0,13.743,0,24.766,0,38.507
	c0,0.712-0.623,1.328-1.328,1.328c-2.677,0-5.353-0.002-8.029-0.002c-1.033,0-1.871-0.838-1.871-1.87V45.858l2.54,2.541
	L58.248,45.754L58.248,45.754z M26.87,11.905c1.378,0,2.495,1.119,2.495,2.495c0,1.378-1.117,2.495-2.495,2.495
	c-1.376,0-2.495-1.117-2.495-2.495C24.375,13.024,25.494,11.905,26.87,11.905L26.87,11.905z M19.388,11.905
	c1.378,0,2.494,1.119,2.494,2.495c0,1.378-1.116,2.495-2.494,2.495s-2.495-1.117-2.495-2.495
	C16.893,13.024,18.01,11.905,19.388,11.905z"/>
</svg>
