<?xml version="1.0" encoding="utf-8"?>
<!-- Generator: Adobe Illustrator 16.0.0, SVG Export Plug-In . SVG Version: 6.00 Build 0)  -->
<!DOCTYPE svg PUBLIC "-//W3C//DTD SVG 1.1//EN" "http://www.w3.org/Graphics/SVG/1.1/DTD/svg11.dtd">
<svg version="1.1" id="Layer_1" xmlns="http://www.w3.org/2000/svg" xmlns:xlink="http://www.w3.org/1999/xlink" x="0px" y="0px"
	 width="73.701px" height="73.701px" viewBox="0 0 73.701 73.701" enable-background="new 0 0 73.701 73.701" xml:space="preserve">
<path id="Bookmarking_Services_1_" fill-rule="evenodd" clip-rule="evenodd" fill="#404041" d="M19.388,5.669h23.7v26.707
	l6.236-3.429l6.236,3.429V5.669h4.988c0.688,0,1.248,0.564,1.248,1.248v47.395c0,0.684-0.563,1.248-1.248,1.248h-4.988H19.7
	c-2.571,0-4.675,2.104-4.675,4.676v0.002c0,2.572,2.108,4.676,4.675,4.676h40.499h0.038c0.862,0,1.561,0.699,1.561,1.561
	c0,0.859-0.698,1.558-1.561,1.558h-0.038H19.7c-4.285,0-7.794-3.51-7.794-7.794v-0.002v-0.083v-5.808v-0.033v-1.053V13.153
	C11.905,9.037,15.274,5.669,19.388,5.669L19.388,5.669z M57.12,61.796c0.859,0,1.559-0.699,1.559-1.559
	c0-0.861-0.699-1.56-1.559-1.56h-0.04H19.703c-0.859,0-1.56,0.7-1.56,1.56l0,0c0,0.857,0.71,1.559,1.56,1.559H57.08H57.12z"/>
</svg>
