<?xml version="1.0" encoding="utf-8"?>
<!-- Generator: Adobe Illustrator 16.0.0, SVG Export Plug-In . SVG Version: 6.00 Build 0)  -->
<!DOCTYPE svg PUBLIC "-//W3C//DTD SVG 1.1//EN" "http://www.w3.org/Graphics/SVG/1.1/DTD/svg11.dtd">
<svg version="1.1" id="Layer_1" xmlns="http://www.w3.org/2000/svg" xmlns:xlink="http://www.w3.org/1999/xlink" x="0px" y="0px"
	 width="73.701px" height="73.701px" viewBox="0 0 73.701 73.701" enable-background="new 0 0 73.701 73.701" xml:space="preserve">
<path id="Branding_Services_1_" fill-rule="evenodd" clip-rule="evenodd" fill="#404041" d="M55.689,24.221l-5.705,41.898
	c0,1.056-5.876,1.912-13.127,1.912c-7.25,0-13.127-0.856-13.127-1.912L17.673,21.73h-2.111c-0.865,0-1.759-0.729-1.576-1.579
	l1.02-4.732c0.184-0.848,0.709-1.575,1.576-1.575h1.682l1.788-6.262c0-1.056,7.522-1.912,16.801-1.912
	c9.274,0,16.793,0.855,16.8,1.911l1.788,6.264h1.679c0.865,0,1.394,0.73,1.575,1.575l1.02,4.732
	c0.181,0.833-0.685,1.556-1.535,1.579H23.85L55.689,24.221L55.689,24.221z M36.855,33.982c-4.995,0-9.043,4.878-9.043,10.9
	s4.049,10.899,9.043,10.899c4.996,0,9.043-4.878,9.043-10.899S41.851,33.982,36.855,33.982z"/>
</svg>
