<?xml version="1.0" encoding="utf-8"?>
<!-- Generator: Adobe Illustrator 16.0.0, SVG Export Plug-In . SVG Version: 6.00 Build 0)  -->
<!DOCTYPE svg PUBLIC "-//W3C//DTD SVG 1.1//EN" "http://www.w3.org/Graphics/SVG/1.1/DTD/svg11.dtd">
<svg version="1.1" id="Layer_1" xmlns="http://www.w3.org/2000/svg" xmlns:xlink="http://www.w3.org/1999/xlink" x="0px" y="0px"
	 width="73.701px" height="73.701px" viewBox="0 0 73.701 73.701" enable-background="new 0 0 73.701 73.701" xml:space="preserve">
<path id="Bug_Fixing_1_" fill-rule="evenodd" clip-rule="evenodd" fill="#404041" d="M36.851,11.512c1.12,0,2.204,0.147,3.236,0.424
	c1.979-3.465,6.091-5.169,9.958-4.076c-2.999,0.401-5.701,2.349-6.933,5.335c3.604,2.097,6.062,5.944,6.205,10.38
	c-3.668-2.12-7.925-3.334-12.467-3.334c-4.541,0-8.797,1.214-12.465,3.334c0.143-4.436,2.6-8.283,6.205-10.38
	c-1.23-2.986-3.935-4.935-6.934-5.335c3.867-1.093,7.98,0.613,9.957,4.076C34.646,11.659,35.73,11.512,36.851,11.512L36.851,11.512z
	 M7.852,43.002h7.906c0.224-2.183,0.779-4.267,1.613-6.202c-2.466-1.751-4.687-3.829-6.597-6.166l0.006-0.004
	c-0.377-0.391-0.609-0.925-0.609-1.512c0-1.206,0.977-2.183,2.183-2.183c0.619,0,1.177,0.255,1.574,0.669l0.112,0.125
	c1.608,1.981,3.425,3.726,5.483,5.237c3.838-5.436,10.168-8.982,17.328-8.982c7.161,0,13.492,3.547,17.33,8.983
	c2.033-1.492,3.865-3.24,5.45-5.198l0.144-0.165c0.396-0.414,0.955-0.669,1.574-0.669c1.206,0,2.183,0.977,2.183,2.183
	c0,0.587-0.232,1.121-0.608,1.512l0.005,0.004c-1.912,2.337-4.132,4.415-6.598,6.166c0.835,1.936,1.391,4.019,1.612,6.202h7.906
	c1.203,0,2.183,0.982,2.183,2.183l0,0c0,1.202-0.979,2.184-2.183,2.184h-7.906c-0.222,2.183-0.777,4.265-1.612,6.201
	c2.466,1.752,4.686,3.827,6.598,6.165l-0.005,0.006c0.376,0.391,0.608,0.925,0.608,1.513c0,1.205-0.977,2.183-2.183,2.183
	c-0.619,0-1.178-0.257-1.574-0.671l-0.144-0.164c-1.585-1.957-3.417-3.704-5.45-5.196c-3.282,4.648-8.39,7.917-14.282,8.767
	l-3.048-20.986l-3.048,20.986c-5.89-0.85-10.997-4.116-14.283-8.767c-2.031,1.492-3.863,3.241-5.448,5.196l-0.144,0.164
	c-0.396,0.414-0.955,0.671-1.574,0.671c-1.206,0-2.183-0.978-2.183-2.183c0-0.588,0.232-1.122,0.609-1.513l-0.006-0.006
	c1.911-2.338,4.131-4.413,6.597-6.165c-0.833-1.937-1.389-4.019-1.613-6.201H7.852c-1.2,0-2.183-0.981-2.183-2.184l0,0
	C5.669,43.984,6.652,43.002,7.852,43.002z"/>
</svg>
