<?xml version="1.0" encoding="utf-8"?>
<!-- Generator: Adobe Illustrator 16.0.0, SVG Export Plug-In . SVG Version: 6.00 Build 0)  -->
<!DOCTYPE svg PUBLIC "-//W3C//DTD SVG 1.1//EN" "http://www.w3.org/Graphics/SVG/1.1/DTD/svg11.dtd">
<svg version="1.1" id="Layer_1" xmlns="http://www.w3.org/2000/svg" xmlns:xlink="http://www.w3.org/1999/xlink" x="0px" y="0px"
	 width="73.701px" height="73.701px" viewBox="0 0 73.701 73.701" enable-background="new 0 0 73.701 73.701" xml:space="preserve">
<path id="Business_Solutions_1_" fill-rule="evenodd" clip-rule="evenodd" fill="#404041" d="M57.769,14.569l0.024,0.004
	c0.456,0.081,0.806,0.478,0.813,0.956c-1.123,5.155-1.852,10.455-2.146,15.872c0.531,0.266,1.133,0.417,1.769,0.417
	c0.53,0,1.033-0.104,1.493-0.29l0.026-0.012l0.013-0.005l0.111-0.048l0.02-0.009l0.004-0.001l0.01-0.004l0.04-0.019l0.038-0.015
	l0.02-0.007l0.018-0.007l0.003-0.001l0.018-0.007l0.019-0.007l0.019-0.008l0.02-0.007l0.02-0.008l0.018-0.006l0.021-0.008h0.003
	l0.09-0.038l0.144-0.043l0.012-0.004l0.013-0.004l0.012-0.003h0.003l0.009-0.004c0.547-0.169,1.128-0.261,1.731-0.261
	c3.237,0,5.859,2.624,5.859,5.86c0,3.236-2.622,5.858-5.859,5.858c-0.604,0-1.185-0.091-1.731-0.26v0.008
	c-0.064-0.019-0.127-0.039-0.191-0.057c-0.1-0.043-0.2-0.082-0.304-0.118c-0.519-0.25-1.102-0.39-1.716-0.39
	c-0.636,0-1.237,0.149-1.769,0.417c0.294,5.412,1.022,10.712,2.146,15.864c-0.008,0.477-0.357,0.874-0.813,0.955l-0.024,0.004
	c-5.024,1.091-10.189,1.798-15.468,2.09c-0.265-0.532-0.413-1.131-0.413-1.765c0-0.539,0.105-1.052,0.301-1.521l0.005-0.012
	l0.006-0.012l0.011-0.024l0.011-0.025l0.011-0.025l0.012-0.024l0.008-0.021l0.003-0.004l0.023-0.05l0.021-0.058l0.005-0.019
	l0.001-0.002l0.007-0.017l0.007-0.02l0.008-0.019l0.007-0.019l0.009-0.021l0.006-0.019l0.009-0.019v-0.003l0.039-0.092l0.041-0.142
	l0.004-0.014l0.003-0.011l0.004-0.012v-0.003l0.004-0.01c0.17-0.546,0.26-1.128,0.26-1.732c0-3.235-2.623-5.859-5.859-5.859
	c-3.235,0-5.858,2.624-5.858,5.859c0,0.604,0.092,1.187,0.262,1.732h-0.009c0.02,0.064,0.039,0.128,0.056,0.19
	c0.043,0.102,0.083,0.202,0.118,0.306c0.25,0.518,0.391,1.1,0.391,1.716c0,0.634-0.149,1.233-0.415,1.765
	c-5.276-0.292-10.442-1.001-15.464-2.09c-0.467-0.072-0.827-0.476-0.835-0.959c1.12-5.152,1.85-10.45,2.143-15.864
	c-0.532-0.268-1.133-0.417-1.769-0.417c-0.616,0-1.196,0.14-1.715,0.39c-0.104,0.036-0.207,0.075-0.305,0.118
	c-0.063,0.018-0.127,0.038-0.192,0.057v-0.008c-0.546,0.169-1.128,0.26-1.732,0.26c-3.236,0-5.86-2.622-5.86-5.858
	c0-3.236,2.624-5.86,5.86-5.86c0.604,0,1.186,0.091,1.732,0.261l0.011,0.004h0.002l0.011,0.003l0.012,0.004l0.012,0.004l0.144,0.043
	l0.09,0.038h0.003l0.02,0.008l0.018,0.006l0.02,0.008l0.019,0.007l0.02,0.008l0.018,0.007l0.017,0.007l0.003,0.001l0.019,0.007
	l0.019,0.007l0.038,0.015l0.04,0.019l0.01,0.004l0.004,0.001l0.021,0.009l0.11,0.048l0.012,0.005l0.025,0.012
	c0.461,0.187,0.964,0.29,1.495,0.29c0.635,0,1.237-0.15,1.769-0.417c-0.294-5.417-1.022-10.718-2.143-15.872
	c0.008-0.486,0.368-0.888,0.835-0.96c5.022-1.089,10.188-1.799,15.464-2.091c0.266,0.532,0.415,1.13,0.415,1.766
	c0,0.615-0.141,1.196-0.391,1.716c-0.035,0.102-0.075,0.204-0.118,0.303c-0.018,0.064-0.036,0.127-0.056,0.191h0.009
	c-0.169,0.548-0.262,1.129-0.262,1.732c0,3.237,2.624,5.86,5.858,5.86c3.236,0,5.859-2.623,5.859-5.86
	c0-0.603-0.09-1.184-0.26-1.732l-0.004-0.01v-0.002l-0.004-0.012l-0.003-0.011l-0.004-0.012l-0.041-0.144l-0.039-0.091V16.17
	l-0.009-0.02l-0.006-0.019l-0.009-0.019l-0.007-0.019l-0.008-0.021l-0.007-0.017l-0.007-0.018l-0.001-0.003l-0.005-0.019
	l-0.021-0.058l-0.023-0.048l-0.003-0.005l-0.008-0.019l-0.012-0.025l-0.011-0.024l-0.011-0.025l-0.011-0.024l-0.006-0.012
	l-0.005-0.014c-0.195-0.467-0.301-0.98-0.301-1.519c0-0.635,0.148-1.232,0.413-1.766C47.579,12.771,52.744,13.479,57.769,14.569z"/>
</svg>
