<?xml version="1.0" encoding="utf-8"?>
<!-- Generator: Adobe Illustrator 16.0.0, SVG Export Plug-In . SVG Version: 6.00 Build 0)  -->
<!DOCTYPE svg PUBLIC "-//W3C//DTD SVG 1.1//EN" "http://www.w3.org/Graphics/SVG/1.1/DTD/svg11.dtd">
<svg version="1.1" id="Layer_1" xmlns="http://www.w3.org/2000/svg" xmlns:xlink="http://www.w3.org/1999/xlink" x="0px" y="0px"
	 width="73.701px" height="73.701px" viewBox="0 0 73.701 73.701" enable-background="new 0 0 73.701 73.701" xml:space="preserve">
<path id="Business_Strategy_1_" fill-rule="evenodd" clip-rule="evenodd" fill="#404041" d="M14.559,57.669h4.429l4.257-25.096
	l-5.885-6.869c0-6.679,0.001-13.355,0.001-20.034h7.171v5.923h7.095V5.67h10.603v5.923h6.938V5.67h7.173v20.034l-5.885,6.869
	l3.513,20.695l-17.117,4.4h22.292c0.826,0,1.363,0.694,1.501,1.502l1.251,7.36c0.14,0.813-0.677,1.5-1.499,1.5H13.305
	c-0.821,0-1.64-0.685-1.5-1.5l1.253-7.36C13.196,58.357,13.733,57.669,14.559,57.669z"/>
</svg>
