<?xml version="1.0" encoding="utf-8"?>
<!-- Generator: Adobe Illustrator 16.0.0, SVG Export Plug-In . SVG Version: 6.00 Build 0)  -->
<!DOCTYPE svg PUBLIC "-//W3C//DTD SVG 1.1//EN" "http://www.w3.org/Graphics/SVG/1.1/DTD/svg11.dtd">
<svg version="1.1" id="Layer_1" xmlns="http://www.w3.org/2000/svg" xmlns:xlink="http://www.w3.org/1999/xlink" x="0px" y="0px"
	 width="73.701px" height="73.701px" viewBox="0 0 73.701 73.701" enable-background="new 0 0 73.701 73.701" xml:space="preserve">
<path id="Campaign_Tweaks_1_" fill-rule="evenodd" clip-rule="evenodd" fill="#404041" d="M13.515,8.07h2.497
	c1.027,0,1.869,0.845,1.869,1.871v26.254h2.859c1.716,0,3.12,1.404,3.12,3.117v11.951c0,1.716-1.404,3.119-3.12,3.119h-2.859v9.379
	c0,1.025-0.843,1.87-1.869,1.87h-2.497c-1.025,0-1.87-0.842-1.87-1.87v-9.379H8.786c-1.713,0-3.117-1.403-3.117-3.119V39.312
	c0-1.713,1.403-3.117,3.117-3.117h2.859V9.94C11.645,8.912,12.487,8.07,13.515,8.07L13.515,8.07z M52.961,28.397h2.858V9.94
	c0-1.028,0.843-1.871,1.871-1.871h2.495c1.028,0,1.87,0.845,1.87,1.871v18.457h2.856c1.717,0,3.119,1.404,3.119,3.117v11.954
	c0,1.716-1.402,3.119-3.119,3.119h-2.856v17.174c0,1.025-0.845,1.87-1.87,1.87H57.69c-1.027,0-1.871-0.842-1.871-1.87V46.587h-2.858
	c-1.713,0-3.117-1.403-3.117-3.119V31.514C49.844,29.801,51.248,28.397,52.961,28.397L52.961,28.397z M30.875,19.302h2.856V9.94
	c0-1.028,0.842-1.871,1.872-1.871H38.1c1.026,0,1.867,0.845,1.867,1.871v9.362h2.859c1.717,0,3.119,1.403,3.119,3.119v11.951
	c0,1.716-1.402,3.12-3.119,3.12h-2.859v26.269c0,1.025-0.844,1.87-1.867,1.87h-2.497c-1.027,0-1.872-0.842-1.872-1.87V37.492h-2.856
	c-1.716,0-3.12-1.404-3.12-3.12V22.421C27.755,20.706,29.159,19.302,30.875,19.302L30.875,19.302z M9.658,45.788
	c0,0.41,0.361,0.748,0.749,0.748h8.714c0.389,0,0.75-0.358,0.75-0.748v-1c0-0.387-0.338-0.747-0.75-0.747h-8.714
	c-0.41,0-0.749,0.338-0.749,0.747V45.788L9.658,45.788z M31.746,28.898c0,0.41,0.359,0.748,0.749,0.748h8.712
	c0.39,0,0.751-0.361,0.751-0.748v-1c0-0.39-0.338-0.748-0.751-0.748h-8.712c-0.411,0-0.749,0.338-0.749,0.748V28.898L31.746,28.898z
	 M53.832,37.993c0,0.41,0.36,0.748,0.75,0.748h8.713c0.39,0,0.749-0.361,0.749-0.748v-1c0-0.39-0.338-0.748-0.749-0.748h-8.713
	c-0.412,0-0.75,0.338-0.75,0.748V37.993z"/>
</svg>
