<?xml version="1.0" encoding="utf-8"?>
<!-- Generator: Adobe Illustrator 16.0.0, SVG Export Plug-In . SVG Version: 6.00 Build 0)  -->
<!DOCTYPE svg PUBLIC "-//W3C//DTD SVG 1.1//EN" "http://www.w3.org/Graphics/SVG/1.1/DTD/svg11.dtd">
<svg version="1.1" id="Layer_1" xmlns="http://www.w3.org/2000/svg" xmlns:xlink="http://www.w3.org/1999/xlink" x="0px" y="0px"
	 width="73.701px" height="73.701px" viewBox="0 0 73.701 73.701" enable-background="new 0 0 73.701 73.701" xml:space="preserve">
<path id="Campaign_Launch_1_" fill-rule="evenodd" clip-rule="evenodd" fill="#404041" d="M21.941,37.737
	c-0.284-1.68-0.433-3.402-0.433-5.158c0-11.284,6.111-21.207,15.341-26.91c9.229,5.704,15.341,15.626,15.341,26.909
	c0,1.756-0.148,3.479-0.433,5.159c3.086,1.78,5.824,4.097,8.087,6.82c0.158,1.24,0.241,2.505,0.241,3.79
	c0,6.918-2.356,13.284-6.306,18.351c-0.134,0.145-0.327,0.233-0.541,0.233c-0.049,0-0.098-0.004-0.144-0.013l-3.064-0.821
	c-0.327-0.083-0.559-0.381-0.559-0.722l0.004-0.068c0.073-0.546,0.109-1.104,0.109-1.669c0-3.861-1.718-7.317-4.428-9.653
	l-2.269,4.327c-0.172,0.274-0.478,0.461-0.822,0.468H31.632c-0.344-0.007-0.65-0.193-0.822-0.468l-2.269-4.327
	c-2.709,2.336-4.426,5.792-4.426,9.653c0,0.565,0.035,1.123,0.107,1.669l0.004,0.068c0,0.344-0.229,0.631-0.544,0.718l-3.078,0.825
	c-0.047,0.009-0.096,0.013-0.145,0.013c-0.214,0-0.406-0.089-0.542-0.233c-3.949-5.066-6.304-11.433-6.304-18.351
	c0-1.285,0.082-2.55,0.239-3.79C16.117,41.834,18.855,39.518,21.941,37.737L21.941,37.737z M35.929,61.844
	c-0.335,0-0.636,0.278-0.612,0.613l0.388,4.962c0.024,0.335,0.278,0.612,0.613,0.612h1.062c0.333,0,0.588-0.279,0.611-0.612
	l0.39-4.962c0.024-0.335-0.276-0.613-0.612-0.613H35.929L35.929,61.844z M36.85,17.028c-2.852,0-5.164,2.319-5.164,5.179
	c0,2.862,2.312,5.181,5.164,5.181c2.852,0,5.163-2.319,5.163-5.181C42.013,19.347,39.701,17.028,36.85,17.028z"/>
</svg>
