<?xml version="1.0" encoding="utf-8"?>
<!-- Generator: Adobe Illustrator 16.0.0, SVG Export Plug-In . SVG Version: 6.00 Build 0)  -->
<!DOCTYPE svg PUBLIC "-//W3C//DTD SVG 1.1//EN" "http://www.w3.org/Graphics/SVG/1.1/DTD/svg11.dtd">
<svg version="1.1" id="Layer_1" xmlns="http://www.w3.org/2000/svg" xmlns:xlink="http://www.w3.org/1999/xlink" x="0px" y="0px"
	 width="73.701px" height="73.701px" viewBox="0 0 73.701 73.701" enable-background="new 0 0 73.701 73.701" xml:space="preserve">
<path id="Campaign_Timing_1_" fill-rule="evenodd" clip-rule="evenodd" fill="#404041" d="M39.463,18.674
	c9.356,1.177,16.77,8.588,17.95,17.944c-1.449,0-2.624,1.166-2.624,2.617c0,1.449,1.175,2.617,2.624,2.617
	c-1.179,9.353-8.593,16.764-17.945,17.942c0-1.448-1.168-2.621-2.617-2.621c-1.445,0-2.617,1.17-2.617,2.615v0.006
	c-9.352-1.179-16.764-8.59-17.943-17.942c1.448,0,2.621-1.168,2.621-2.617s-1.173-2.617-2.621-2.617
	c1.18-9.356,8.594-16.767,17.948-17.944c0.084,1.369,1.221,2.452,2.611,2.452S39.379,20.043,39.463,18.674L39.463,18.674z
	 M40.604,44.323l3.743,2.159c1.203,0.696,2.757,0.279,3.453-0.925c0.694-1.203,0.278-2.76-0.926-3.455l-3.741-2.16
	c0.024-0.231,0.039-0.468,0.039-0.707c0-3.454-2.766-6.259-6.204-6.322l-2.922-7.054c-0.533-1.285-2.018-1.901-3.304-1.368
	c-1.279,0.53-1.898,2.024-1.368,3.305l2.922,7.055c-1.094,1.136-1.768,2.68-1.768,4.385c0,3.49,2.83,6.32,6.321,6.32
	C38.257,45.556,39.554,45.098,40.604,44.323L40.604,44.323z M12.05,14.87c-0.5,0.486-0.784,1.133-0.784,1.832
	c0,1.395,1.132,2.53,2.53,2.53c0.739,0,1.405-0.318,1.868-0.827c3.525-3.582,7.951-6.278,12.911-7.714
	c1.159-0.232,2.034-1.256,2.034-2.487c0-1.399-1.134-2.534-2.534-2.534c-0.31,0-0.604,0.053-0.878,0.155
	C21.375,7.503,16.185,10.665,12.05,14.87L12.05,14.87z M61.651,14.87c-4.132-4.207-9.326-7.366-15.146-9.045
	c-0.272-0.102-0.569-0.155-0.877-0.155c-1.399,0-2.534,1.134-2.534,2.534c0,1.23,0.874,2.254,2.034,2.487
	c4.96,1.437,9.388,4.132,12.911,7.714c0.463,0.508,1.129,0.827,1.868,0.827c1.396,0,2.529-1.135,2.529-2.53
	C62.437,15.981,62.155,15.373,61.651,14.87L61.651,14.87z M21.085,59.646l-2.482,4.081c-0.809,1.334-0.379,3.085,0.953,3.895
	c1.326,0.808,3.088,0.38,3.896-0.948l2.475-4.069c3.317,1.555,7.02,2.424,10.924,2.424c3.906,0,7.607-0.869,10.926-2.424
	l2.474,4.069c0.811,1.334,2.563,1.759,3.897,0.948c1.326-0.807,1.759-2.568,0.951-3.895l-2.48-4.081
	c6.099-4.718,10.025-12.105,10.025-20.412c0-14.244-11.549-25.793-25.793-25.793c-14.243,0-25.793,11.549-25.793,25.793
	C11.057,47.54,14.985,54.928,21.085,59.646z"/>
</svg>
