<?xml version="1.0" encoding="utf-8"?>
<!-- Generator: Adobe Illustrator 16.0.0, SVG Export Plug-In . SVG Version: 6.00 Build 0)  -->
<!DOCTYPE svg PUBLIC "-//W3C//DTD SVG 1.1//EN" "http://www.w3.org/Graphics/SVG/1.1/DTD/svg11.dtd">
<svg version="1.1" id="Layer_1" xmlns="http://www.w3.org/2000/svg" xmlns:xlink="http://www.w3.org/1999/xlink" x="0px" y="0px"
	 width="73.701px" height="73.701px" viewBox="0 0 73.701 73.701" enable-background="new 0 0 73.701 73.701" xml:space="preserve">
<path id="Case_Study_1_" fill-rule="evenodd" clip-rule="evenodd" fill="#404041" d="M15.047,68.031h43.299l0,0
	c0-2.94-2.408-5.348-5.349-5.348h-9.141c0-3.953-3.204-7.16-7.16-7.16c-1.165,0-2.263,0.279-3.234,0.771L17.384,40.219
	c0.181-0.52,0.278-1.08,0.278-1.661c0-0.583-0.097-1.14-0.278-1.663l16.083-16.079l1.312,1.312
	c-2.825,6.686-1.514,14.705,3.934,20.155c0.393,0.391,0.798,0.761,1.215,1.11v-0.002c0.678,0.567,1.681,0.543,2.329-0.076
	L65.74,19.833c0.619-0.648,0.645-1.651,0.077-2.329l0,0c-0.348-0.417-0.719-0.821-1.109-1.213c-5.449-5.45-13.467-6.76-20.154-3.936
	l-5.918-5.918c-1.021-1.023-2.691-1.023-3.714,0l-6.06,6.06c-1.021,1.021-1.021,2.691,0,3.712l1.454,1.454L14.233,33.742
	c-0.521-0.181-1.082-0.278-1.665-0.278c-2.813,0-5.093,2.28-5.093,5.093c0,2.813,2.28,5.094,5.093,5.094
	c0.583,0,1.143-0.1,1.665-0.279l16.075,16.074c-0.494,0.973-0.772,2.072-0.772,3.237h-9.14
	C17.455,62.684,15.047,65.091,15.047,68.031L15.047,68.031L15.047,68.031z M61.891,28.57c1.608,3.046,1.133,6.902-1.432,9.465
	c-2.562,2.563-6.418,3.038-9.464,1.431L61.891,28.57z"/>
</svg>
