<?xml version="1.0" encoding="utf-8"?>
<!-- Generator: Adobe Illustrator 16.0.0, SVG Export Plug-In . SVG Version: 6.00 Build 0)  -->
<!DOCTYPE svg PUBLIC "-//W3C//DTD SVG 1.1//EN" "http://www.w3.org/Graphics/SVG/1.1/DTD/svg11.dtd">
<svg version="1.1" id="Layer_1" xmlns="http://www.w3.org/2000/svg" xmlns:xlink="http://www.w3.org/1999/xlink" x="0px" y="0px"
	 width="73.701px" height="73.701px" viewBox="0 0 73.701 73.701" enable-background="new 0 0 73.701 73.701" xml:space="preserve">
<path id="Communities__x26__Networks_1_" fill="#404041" d="M41.131,31.492l7.705-4.521c-0.239-0.847-0.368-1.741-0.368-2.665
	c0-0.821,0.103-1.62,0.293-2.382l-7.466-4.072c-1.198,1.021-2.747,1.64-4.443,1.64c-0.891,0-1.738-0.169-2.518-0.478L21.787,32.465
	c0.752,1.285,1.186,2.779,1.186,4.373c0,1.338-0.305,2.604-0.846,3.734l10.209,9.194c1.316-0.806,2.861-1.271,4.516-1.271
	c4.775,0,8.65,3.875,8.65,8.651c0,4.774-3.875,8.651-8.65,8.651c-3.293,0-6.156-1.844-7.62-4.551l-4.29,0.896
	c-0.52,3.267-3.35,5.764-6.762,5.764c-3.781,0-6.848-3.067-6.848-6.848c0-3.783,3.065-6.849,6.848-6.849
	c2.416,0,4.543,1.252,5.762,3.146l4.284-0.896c0.086-1.092,0.374-2.129,0.83-3.069l-10.204-9.187
	c-1.316,0.813-2.871,1.281-4.531,1.281c-4.775,0-8.65-3.876-8.65-8.65c0-4.777,3.875-8.652,8.65-8.652
	c1.405,0,2.731,0.336,3.905,0.93l12.501-13.405c-0.464-0.922-0.723-1.964-0.723-3.066c0-3.781,3.066-6.848,6.848-6.848
	c3.78,0,6.848,3.066,6.848,6.848c0,0.311-0.021,0.615-0.062,0.915l7.465,4.071c1.786-1.91,4.327-3.107,7.147-3.107
	c5.4,0,9.781,4.382,9.781,9.783c0,5.402-4.381,9.783-9.781,9.783c-2.717,0-5.174-1.107-6.945-2.896l-7.698,4.518
	c0.06,0.367,0.093,0.744,0.093,1.127c0,3.781-3.066,6.847-6.848,6.847s-6.848-3.065-6.848-6.847c0-3.782,3.066-6.85,6.848-6.85
	C38.47,29.988,39.957,30.552,41.131,31.492L41.131,31.492z M58.25,19.018c-2.92,0-5.289,2.368-5.289,5.288
	c0,2.922,2.369,5.29,5.289,5.29c2.922,0,5.289-2.368,5.289-5.29C63.539,21.386,61.172,19.018,58.25,19.018L58.25,19.018z
	 M36.852,10.148c-1.379,0-2.497,1.116-2.497,2.496c0,1.378,1.117,2.497,2.497,2.497c1.379,0,2.495-1.119,2.495-2.497
	C39.347,11.265,38.23,10.148,36.852,10.148L36.852,10.148z M14.322,32.677c-2.297,0-4.16,1.862-4.16,4.161
	c0,2.295,1.863,4.158,4.16,4.158s4.16-1.863,4.16-4.158C18.482,34.539,16.619,32.677,14.322,32.677L14.322,32.677z M36.852,52.987
	c-2.299,0-4.161,1.862-4.161,4.159c0,2.298,1.862,4.16,4.161,4.16s4.159-1.862,4.159-4.16C41.011,54.85,39.15,52.987,36.852,52.987
	L36.852,52.987z M18.181,58.564c-1.379,0-2.497,1.117-2.497,2.497c0,1.379,1.117,2.495,2.497,2.495c1.378,0,2.495-1.116,2.495-2.495
	C20.676,59.682,19.558,58.564,18.181,58.564L18.181,58.564z M36.851,34.34c-1.378,0-2.497,1.117-2.497,2.498
	c0,1.377,1.119,2.494,2.497,2.494c1.379,0,2.494-1.117,2.494-2.494C39.345,35.457,38.229,34.34,36.851,34.34z"/>
</svg>
