<?xml version="1.0" encoding="utf-8"?>
<!-- Generator: Adobe Illustrator 16.0.0, SVG Export Plug-In . SVG Version: 6.00 Build 0)  -->
<!DOCTYPE svg PUBLIC "-//W3C//DTD SVG 1.1//EN" "http://www.w3.org/Graphics/SVG/1.1/DTD/svg11.dtd">
<svg version="1.1" id="Layer_1" xmlns="http://www.w3.org/2000/svg" xmlns:xlink="http://www.w3.org/1999/xlink" x="0px" y="0px"
	 width="73.701px" height="73.701px" viewBox="0 0 73.701 73.701" enable-background="new 0 0 73.701 73.701" xml:space="preserve">
<path id="Content_Delivery_1_" fill-rule="evenodd" clip-rule="evenodd" fill="#404041" d="M58.92,40.182v16.642H41.878v0.001
	c0,0.686-0.562,1.247-1.247,1.247h-8.107c-0.686,0-1.248-0.562-1.248-1.247v-0.001H14.777V45.874
	c0.105-0.112,0.169-0.261,0.169-0.426s-0.064-0.313-0.169-0.426v-17.99c0-0.682,0.565-1.247,1.248-1.247h16.852l-12.814,4.838
	l10.37,2.602l6.246,14.578L47.35,37.351L58.92,40.182L58.92,40.182z M7.02,43.67c0.345,0,0.624,0.279,0.624,0.623
	s-0.279,0.624-0.624,0.624c-0.344,0-0.624-0.28-0.624-0.624S6.675,43.67,7.02,43.67L7.02,43.67z M8.726,44.355
	c0.344,0,0.624,0.279,0.624,0.624c0,0.344-0.279,0.624-0.624,0.624c-0.344,0-0.623-0.28-0.623-0.624
	C8.103,44.635,8.382,44.355,8.726,44.355L8.726,44.355z M10.567,44.848c0.344,0,0.623,0.28,0.623,0.624
	c0,0.345-0.279,0.624-0.623,0.624c-0.345,0-0.624-0.279-0.624-0.624C9.943,45.128,10.223,44.848,10.567,44.848L10.567,44.848z
	 M16.095,44.123c-0.344,0-0.623,0.278-0.623,0.623c0,0.344,0.279,0.623,0.623,0.623c0.344,0,0.625-0.279,0.625-0.623
	C16.719,44.401,16.439,44.123,16.095,44.123L16.095,44.123z M17.579,42.929c-0.345,0-0.624,0.278-0.624,0.624
	c0,0.345,0.279,0.623,0.624,0.623c0.344,0,0.624-0.278,0.624-0.623C18.202,43.207,17.922,42.929,17.579,42.929L17.579,42.929z
	 M18.648,41.351c-0.344,0-0.624,0.28-0.624,0.624c0,0.345,0.279,0.623,0.624,0.623c0.345,0,0.624-0.278,0.624-0.623
	C19.272,41.631,18.993,41.351,18.648,41.351L18.648,41.351z M19.238,39.574c-0.344,0-0.624,0.28-0.624,0.624
	c0,0.345,0.279,0.624,0.624,0.624c0.345,0,0.624-0.279,0.624-0.624C19.862,39.854,19.583,39.574,19.238,39.574L19.238,39.574z
	 M19.334,37.658c-0.345,0-0.624,0.278-0.624,0.623c0,0.346,0.279,0.624,0.624,0.624c0.344,0,0.624-0.278,0.624-0.624
	C19.958,37.937,19.679,37.658,19.334,37.658L19.334,37.658z M18.873,35.837c-0.344,0-0.624,0.28-0.624,0.625
	c0,0.344,0.279,0.622,0.624,0.622c0.345,0,0.624-0.278,0.624-0.622C19.497,36.118,19.217,35.837,18.873,35.837L18.873,35.837z
	 M17.769,34.283c-0.344,0-0.624,0.28-0.624,0.624c0,0.345,0.279,0.624,0.624,0.624c0.344,0,0.624-0.279,0.624-0.624
	C18.393,34.563,18.113,34.283,17.769,34.283L17.769,34.283z M16.135,33.369c-0.345,0-0.624,0.279-0.624,0.624
	c0,0.344,0.279,0.624,0.624,0.624c0.344,0,0.624-0.28,0.624-0.624C16.759,33.647,16.479,33.369,16.135,33.369L16.135,33.369z
	 M10.896,34.673c0.344,0,0.624,0.279,0.624,0.624c0,0.344-0.28,0.624-0.624,0.624c-0.344,0-0.624-0.28-0.624-0.624
	C10.273,34.952,10.552,34.673,10.896,34.673L10.896,34.673z M10.047,36.344c0.345,0,0.624,0.28,0.624,0.624
	c0,0.345-0.279,0.624-0.624,0.624c-0.344,0-0.624-0.279-0.624-0.624C9.423,36.624,9.703,36.344,10.047,36.344L10.047,36.344z
	 M9.918,38.238c0.345,0,0.624,0.28,0.624,0.625c0,0.344-0.279,0.623-0.624,0.623c-0.344,0-0.624-0.279-0.624-0.623
	C9.294,38.519,9.574,38.238,9.918,38.238L9.918,38.238z M10.369,40.12c0.344,0,0.623,0.28,0.623,0.624s-0.279,0.623-0.623,0.623
	c-0.344,0-0.624-0.279-0.624-0.623S10.025,40.12,10.369,40.12L10.369,40.12z M11.227,41.785c-0.344,0-0.624,0.279-0.624,0.623
	c0,0.345,0.279,0.625,0.624,0.625c0.169,0,0.321-0.066,0.433-0.175v13.965h-5.99c0,2.41,1.954,4.366,4.365,4.366h53.632
	c2.41,0,4.364-1.956,4.364-4.366h-5.992V31.183l5.992-18.67l-0.002,0.001L41.136,22.667H14.385c-1.505,0-2.725,1.22-2.725,2.725
	v16.569C11.548,41.854,11.396,41.785,11.227,41.785L11.227,41.785z M15.605,45.334c-0.344,0-0.624,0.279-0.624,0.623
	s0.279,0.623,0.624,0.623c0.344,0,0.623-0.279,0.623-0.623S15.949,45.334,15.605,45.334L15.605,45.334z M17.405,45.885
	c-0.345,0-0.624,0.279-0.624,0.623c0,0.346,0.279,0.624,0.624,0.624c0.344,0,0.624-0.278,0.624-0.624
	C18.028,46.164,17.749,45.885,17.405,45.885L17.405,45.885z M19.267,46.124c-0.344,0-0.623,0.28-0.623,0.624
	c0,0.345,0.279,0.623,0.623,0.623s0.624-0.278,0.624-0.623C19.89,46.404,19.611,46.124,19.267,46.124L19.267,46.124z M21.192,46.076
	c-0.344,0-0.624,0.279-0.624,0.623s0.279,0.624,0.624,0.624s0.624-0.28,0.624-0.624S21.537,46.076,21.192,46.076L21.192,46.076z
	 M23.056,45.78c-0.344,0-0.624,0.278-0.624,0.624c0,0.344,0.279,0.623,0.624,0.623s0.624-0.279,0.624-0.623
	C23.679,46.059,23.4,45.78,23.056,45.78L23.056,45.78z M24.872,45.279c-0.344,0-0.624,0.278-0.624,0.623
	c0,0.344,0.279,0.623,0.624,0.623s0.624-0.279,0.624-0.623C25.496,45.558,25.216,45.279,24.872,45.279L24.872,45.279z
	 M26.662,44.594c-0.344,0-0.624,0.28-0.624,0.624s0.279,0.622,0.624,0.622c0.344,0,0.624-0.278,0.624-0.622
	S27.005,44.594,26.662,44.594L26.662,44.594z M28.371,43.777c-0.344,0-0.624,0.279-0.624,0.623c0,0.345,0.279,0.625,0.624,0.625
	c0.344,0,0.624-0.28,0.624-0.625C28.995,44.057,28.714,43.777,28.371,43.777L28.371,43.777z M30.023,42.84
	c-0.344,0-0.624,0.279-0.624,0.624c0,0.344,0.279,0.624,0.624,0.624c0.345,0,0.624-0.28,0.624-0.624
	C30.647,43.119,30.368,42.84,30.023,42.84L30.023,42.84z M39.285,35.378l23.257-19.111l-29.879,17.52l4.017,14.014L39.285,35.378z"
	/>
</svg>
