<?xml version="1.0" encoding="utf-8"?>
<!-- Generator: Adobe Illustrator 16.0.0, SVG Export Plug-In . SVG Version: 6.00 Build 0)  -->
<!DOCTYPE svg PUBLIC "-//W3C//DTD SVG 1.1//EN" "http://www.w3.org/Graphics/SVG/1.1/DTD/svg11.dtd">
<svg version="1.1" id="Layer_1" xmlns="http://www.w3.org/2000/svg" xmlns:xlink="http://www.w3.org/1999/xlink" x="0px" y="0px"
	 width="73.701px" height="73.701px" viewBox="0 0 73.701 73.701" enable-background="new 0 0 73.701 73.701" xml:space="preserve">
<path id="Conversion_Optimization_1_" fill-rule="evenodd" clip-rule="evenodd" fill="#404041" d="M36.851,12.675
	c2.256,0,4.087,1.829,4.087,4.086s-1.831,4.086-4.087,4.086c-2.257,0-4.086-1.829-4.086-4.086S34.594,12.675,36.851,12.675
	L36.851,12.675z M42.11,47.283l17.795-21.477c0.255-0.333,0.389-0.679,0.389-1.03c0-1.746-3.263-3.307-8.39-4.347
	c0.025-0.152,0.04-0.304,0.04-0.459c0-1.517-1.229-2.745-2.744-2.745c-1.516,0-2.744,1.228-2.744,2.745
	c0,1.515,1.229,2.743,2.744,2.743c0.69,0,1.32-0.255,1.802-0.676c1.306,0.239,5.933,1.076,5.933,2.338
	c0,1.785-8.992,3.231-20.083,3.231s-20.083-1.446-20.083-3.231c0-1.596,7.571-2.616,8.345-2.725
	c0.487-0.004,0.882-0.401,0.882-0.889c0.001-0.491-0.398-0.89-0.89-0.89c-0.082,0-0.159,0.012-0.233,0.032
	c-6.864,0.985-11.464,2.801-11.464,4.874c0,0.348,0.132,0.689,0.38,1.021l17.799,21.48l0.875,4.711
	c-2.534,1.501-4.234,4.265-4.234,7.423c0,4.761,3.858,8.62,8.62,8.62s8.62-3.859,8.62-8.62c0-3.158-1.698-5.92-4.233-7.42
	L42.11,47.283L42.11,47.283z M26.375,5.669c1.065,0,1.928,0.864,1.928,1.926c0,1.064-0.862,1.928-1.928,1.928
	c-1.063,0-1.925-0.864-1.925-1.928C24.451,6.533,25.313,5.669,26.375,5.669L26.375,5.669z M54.829,7.839
	c2.257,0,4.088,1.829,4.088,4.086s-1.831,4.086-4.088,4.086c-2.255,0-4.088-1.831-4.088-4.086S52.574,7.839,54.829,7.839
	L54.829,7.839z M19.201,10.397c2.256,0,4.086,1.829,4.086,4.086c0,2.256-1.831,4.086-4.086,4.086c-2.259,0-4.088-1.831-4.088-4.086
	C15.113,12.227,16.942,10.397,19.201,10.397z"/>
</svg>
