<?xml version="1.0" encoding="utf-8"?>
<!-- Generator: Adobe Illustrator 16.0.0, SVG Export Plug-In . SVG Version: 6.00 Build 0)  -->
<!DOCTYPE svg PUBLIC "-//W3C//DTD SVG 1.1//EN" "http://www.w3.org/Graphics/SVG/1.1/DTD/svg11.dtd">
<svg version="1.1" id="Layer_1" xmlns="http://www.w3.org/2000/svg" xmlns:xlink="http://www.w3.org/1999/xlink" x="0px" y="0px"
	 width="73.701px" height="73.701px" viewBox="0 0 73.701 73.701" enable-background="new 0 0 73.701 73.701" xml:space="preserve">
<path id="Creative_Campaigns_1_" fill-rule="evenodd" clip-rule="evenodd" fill="#404041" d="M45.715,63.185
	c0-2.103,0.002-2.938,0.002-5.041c0-0.696-0.57-1.27-1.267-1.27H29.248c-0.696,0-1.266,0.573-1.266,1.27c0,2.103,0,2.938,0,5.041
	c0,1.776,2.436,2.896,5.504,3.354c0.005,0.825,0.68,1.493,1.505,1.493h3.713c0.824,0,1.497-0.671,1.503-1.493
	C43.275,66.081,45.715,64.961,45.715,63.185L45.715,63.185z M22.387,25.918v-0.05c0.027-7.949,6.464-14.383,14.413-14.412
	l0.05-0.001c0.798,0,1.445,0.648,1.445,1.446c0,0.799-0.647,1.445-1.445,1.445c-6.393,0-11.571,5.181-11.571,11.571
	c0,0.799-0.647,1.447-1.445,1.447C23.033,27.365,22.387,26.717,22.387,25.918L22.387,25.918z M36.851,5.669
	c-11.184,0-20.249,9.067-20.249,20.25c0,5.039,1.75,9.486,4.989,13.313c2.883,3.312,5.018,7.293,6.14,11.679h0.001
	c0.232,0.92,1.054,1.599,2.038,1.621h0.047h14.065h0.049c0.97-0.02,1.78-0.679,2.027-1.578l0.011-0.043
	c1.126-4.392,3.263-8.379,6.152-11.696c3.1-3.553,4.979-8.205,4.979-13.295C57.101,14.736,48.032,5.669,36.851,5.669L36.851,5.669z
	 M6.292,25.294h4.698c0.343,0,0.623,0.28,0.623,0.623l0,0c0,0.343-0.28,0.624-0.623,0.624H6.292c-0.342,0-0.623-0.281-0.623-0.624
	l0,0C5.669,25.574,5.95,25.294,6.292,25.294L6.292,25.294z M62.711,25.294h4.697c0.343,0,0.623,0.28,0.623,0.623l0,0
	c0,0.343-0.28,0.624-0.623,0.624h-4.697c-0.343,0-0.623-0.281-0.623-0.624l0,0C62.088,25.574,62.368,25.294,62.711,25.294
	L62.711,25.294z M10.075,40.655l4.068-2.35c0.296-0.172,0.68-0.065,0.852,0.229l0,0c0.17,0.298,0.069,0.682-0.228,0.854
	l-4.069,2.346c-0.296,0.175-0.68,0.069-0.852-0.226l0,0C9.676,41.211,9.777,40.827,10.075,40.655L10.075,40.655z M58.934,12.446
	l4.069-2.348c0.297-0.172,0.681-0.069,0.853,0.229l0,0c0.17,0.296,0.068,0.68-0.229,0.852l-4.067,2.348
	c-0.297,0.173-0.681,0.069-0.853-0.228l0,0C58.535,13.001,58.638,12.618,58.934,12.446L58.934,12.446z M10.698,10.098l4.069,2.348
	c0.296,0.171,0.398,0.555,0.228,0.853l0,0c-0.172,0.296-0.556,0.4-0.852,0.228l-4.068-2.348c-0.298-0.171-0.399-0.555-0.229-0.852
	l0,0C10.018,10.029,10.403,9.926,10.698,10.098L10.698,10.098z M59.559,38.306l4.067,2.35c0.298,0.172,0.399,0.556,0.229,0.854l0,0
	c-0.172,0.295-0.558,0.4-0.853,0.226l-4.069-2.346c-0.296-0.172-0.398-0.556-0.228-0.854l0,0
	C58.878,38.24,59.262,38.134,59.559,38.306z"/>
</svg>
