<?xml version="1.0" encoding="utf-8"?>
<!-- Generator: Adobe Illustrator 16.0.0, SVG Export Plug-In . SVG Version: 6.00 Build 0)  -->
<!DOCTYPE svg PUBLIC "-//W3C//DTD SVG 1.1//EN" "http://www.w3.org/Graphics/SVG/1.1/DTD/svg11.dtd">
<svg version="1.1" id="Layer_1" xmlns="http://www.w3.org/2000/svg" xmlns:xlink="http://www.w3.org/1999/xlink" x="0px" y="0px"
	 width="73.701px" height="73.701px" viewBox="0 0 73.701 73.701" enable-background="new 0 0 73.701 73.701" xml:space="preserve">
<path id="Custom_Coding_1_" fill-rule="evenodd" clip-rule="evenodd" fill="#404041" d="M10.061,12.423H63.64
	c0.418,0,0.759,0.353,0.759,0.756v33.518c0,0.401-0.354,0.756-0.759,0.756H10.061c-0.404,0-0.758-0.342-0.758-0.756V13.179
	C9.303,12.763,9.644,12.423,10.061,12.423L10.061,12.423z M43.087,54.937h23.067c1.021,0,1.877-0.856,1.877-1.88v-42.39
	c0-1.022-0.843-1.877-1.877-1.877H7.547c-1.034,0-1.878,0.841-1.878,1.877v42.39c0,1.037,0.858,1.88,1.878,1.88h23.068
	c0,5.481-4.421,9.931-9.891,9.977h32.253C47.507,64.867,43.087,60.42,43.087,54.937L43.087,54.937z M17.55,22.503l-3.06,3.061
	c-0.216,0.216-0.216,0.663,0,0.879l0.884,0.884c0.216,0.216,0.639,0.242,0.881,0c1.459-1.461,2.922-2.922,4.383-4.381
	c0.134-0.134,0.166-0.259,0.182-0.441v-0.001c-0.016-0.182-0.048-0.307-0.182-0.44c-1.461-1.461-2.923-2.92-4.383-4.381
	c-0.242-0.242-0.665-0.217-0.881,0l-0.882,0.882c-0.218,0.218-0.218,0.665-0.001,0.881L17.55,22.503L17.55,22.503z M27.383,39.97
	c-0.342,0-0.623,0.281-0.623,0.625v1.246c0,0.344,0.288,0.624,0.623,0.624h1.247c0.335,0,0.623-0.288,0.623-0.624v-1.246
	c0-0.337-0.28-0.625-0.623-0.625H27.383L27.383,39.97z M22.394,39.97c-0.344,0-0.625,0.281-0.625,0.625v1.246
	c0,0.344,0.29,0.624,0.625,0.624h1.248c0.335,0,0.623-0.288,0.623-0.624v-1.246c0-0.337-0.281-0.625-0.623-0.625H22.394
	L22.394,39.97z M28.305,25.002h-6.862c-0.312,0-0.622,0.31-0.622,0.625v1.248c0,0.314,0.281,0.623,0.622,0.623h6.862
	c0.342,0,0.623-0.281,0.623-0.623v-1.248C28.928,25.283,28.59,25.002,28.305,25.002L28.305,25.002z M28.634,32.486
	c-0.342,0-0.623,0.281-0.623,0.625v1.248c0,0.342,0.29,0.623,0.623,0.623h4.99c0.333,0,0.623-0.29,0.623-0.623v-1.248
	c0-0.335-0.281-0.625-0.623-0.625H28.634L28.634,32.486z M14.916,32.486c-0.344,0-0.625,0.281-0.625,0.625v1.248
	c0,0.342,0.29,0.623,0.625,0.623h9.978c0.333,0,0.623-0.29,0.623-0.623v-1.248c0-0.335-0.281-0.625-0.623-0.625H14.916
	L14.916,32.486z M37.365,32.486c-0.343,0-0.623,0.281-0.623,0.625v1.248c0,0.342,0.308,0.623,0.623,0.623H58.79
	c0.315,0,0.621-0.308,0.621-0.623v-1.248c0-0.317-0.28-0.625-0.621-0.625H37.365L37.365,32.486z M32.371,39.97
	c-0.342,0-0.623,0.281-0.623,0.625v1.246c0,0.344,0.298,0.624,0.623,0.624h11.226c0.326,0,0.624-0.298,0.624-0.624v-1.246
	c0-0.327-0.28-0.625-0.624-0.625H32.371z"/>
</svg>
