<?xml version="1.0" encoding="utf-8"?>
<!-- Generator: Adobe Illustrator 16.0.0, SVG Export Plug-In . SVG Version: 6.00 Build 0)  -->
<!DOCTYPE svg PUBLIC "-//W3C//DTD SVG 1.1//EN" "http://www.w3.org/Graphics/SVG/1.1/DTD/svg11.dtd">
<svg version="1.1" id="Layer_1" xmlns="http://www.w3.org/2000/svg" xmlns:xlink="http://www.w3.org/1999/xlink" x="0px" y="0px"
	 width="73.701px" height="73.701px" viewBox="0 0 73.701 73.701" enable-background="new 0 0 73.701 73.701" xml:space="preserve">
<path id="E-Commerce_Solutions_1_" fill-rule="evenodd" clip-rule="evenodd" fill="#404041" d="M16.718,8.866H9.21
	c-1.959,0-3.541,1.588-3.541,3.541v1.553h6.769l5.639,32.798c0.136,0.796,0.904,1.452,1.723,1.452h39.225
	c1.962,0,3.546-1.59,3.546-3.55V43.13H22.609l-0.749-4.352h34.954c3.913,0,7.605-3.131,8.253-6.989l2.965-17.812H17.598
	L16.718,8.866L16.718,8.866z M46.27,58.688c0,3.383,2.742,6.124,6.127,6.124c3.379,0,6.125-2.741,6.125-6.124
	s-2.746-6.128-6.125-6.128C49.012,52.56,46.27,55.305,46.27,58.688L46.27,58.688z M34.227,58.71c0,3.381-2.737,6.125-6.126,6.125
	c-3.385,0-6.129-2.744-6.129-6.125c0-3.386,2.744-6.127,6.129-6.127C31.489,52.583,34.227,55.324,34.227,58.71z"/>
</svg>
