<?xml version="1.0" encoding="utf-8"?>
<!-- Generator: Adobe Illustrator 16.0.0, SVG Export Plug-In . SVG Version: 6.00 Build 0)  -->
<!DOCTYPE svg PUBLIC "-//W3C//DTD SVG 1.1//EN" "http://www.w3.org/Graphics/SVG/1.1/DTD/svg11.dtd">
<svg version="1.1" id="Layer_1" xmlns="http://www.w3.org/2000/svg" xmlns:xlink="http://www.w3.org/1999/xlink" x="0px" y="0px"
	 width="73.701px" height="73.701px" viewBox="0 0 73.701 73.701" enable-background="new 0 0 73.701 73.701" xml:space="preserve">
<path id="E-Mail_Marketing_1_" fill-rule="evenodd" clip-rule="evenodd" fill="#404041" d="M61.797,34.664V19.006H48.459V5.669
	h-34.06c-1.369,0-2.494,1.124-2.494,2.495v26.501l-6.236-3.601v36.966c20.787,0,41.576,0,62.362,0V31.065L61.797,34.664
	L61.797,34.664z M49.013,46.367l15.276-8.819V64.29H9.412V37.548c9.145,5.281,18.292,10.561,27.44,15.84
	c2.936-1.695,5.868-3.386,8.806-5.084l8.951,8.951l3.356-1.934L49.013,46.367L49.013,46.367z M25.302,51.045l-6.211,6.213
	l-3.353-1.937l6.211-6.213L25.302,51.045L25.302,51.045z M60.167,16.511h-9.213V7.299L60.167,16.511L60.167,16.511z M27.492,31.479
	h11.225c0.344,0,0.625,0.298,0.625,0.625v1.246c0,0.327-0.299,0.625-0.625,0.625H27.492c-0.325,0-0.623-0.281-0.623-0.625v-1.246
	C26.869,31.759,27.149,31.479,27.492,31.479L27.492,31.479z M28.744,23.995h4.989c0.344,0,0.625,0.288,0.625,0.625v1.246
	c0,0.338-0.287,0.625-0.625,0.625h-4.989c-0.336,0-0.623-0.281-0.623-0.625V24.62C28.121,24.276,28.401,23.995,28.744,23.995
	L28.744,23.995z M17.519,23.995h7.482c0.344,0,0.625,0.288,0.625,0.625v1.246c0,0.338-0.286,0.625-0.625,0.625h-7.482
	c-0.338,0-0.625-0.281-0.625-0.625V24.62C16.895,24.276,17.175,23.995,17.519,23.995L17.519,23.995z M37.475,23.995h18.709
	c0.343,0,0.623,0.301,0.623,0.625v1.246c0,0.324-0.301,0.625-0.623,0.625H37.475c-0.323,0-0.623-0.281-0.623-0.625V24.62
	C36.852,24.276,37.133,23.995,37.475,23.995L37.475,23.995z M17.519,16.511h1.246c0.344,0,0.625,0.296,0.625,0.623v1.248
	c0,0.328-0.295,0.625-0.625,0.625h-1.246c-0.33,0-0.625-0.281-0.625-0.625v-1.248C16.895,16.792,17.175,16.511,17.519,16.511
	L17.519,16.511z M31.862,16.511c0.291,0,0.625,0.281,0.625,0.623v1.248c0,0.344-0.281,0.625-0.625,0.625h-9.355
	c-0.341,0-0.622-0.308-0.622-0.625v-1.248c0-0.316,0.307-0.623,0.622-0.623H31.862L31.862,16.511z M17.513,31.479h1.248
	c0.342,0,0.623,0.288,0.623,0.625v1.246c0,0.337-0.288,0.625-0.623,0.625h-1.248c-0.335,0-0.623-0.281-0.623-0.625v-1.246
	C16.89,31.759,17.169,31.479,17.513,31.479L17.513,31.479z M22.503,31.479h1.246c0.344,0,0.625,0.288,0.625,0.625v1.246
	c0,0.337-0.29,0.625-0.625,0.625h-1.246c-0.335,0-0.625-0.281-0.625-0.625v-1.246C21.879,31.759,22.16,31.479,22.503,31.479z"/>
</svg>
