<?xml version="1.0" encoding="utf-8"?>
<!-- Generator: Adobe Illustrator 16.0.0, SVG Export Plug-In . SVG Version: 6.00 Build 0)  -->
<!DOCTYPE svg PUBLIC "-//W3C//DTD SVG 1.1//EN" "http://www.w3.org/Graphics/SVG/1.1/DTD/svg11.dtd">
<svg version="1.1" id="Layer_1" xmlns="http://www.w3.org/2000/svg" xmlns:xlink="http://www.w3.org/1999/xlink" x="0px" y="0px"
	 width="73.701px" height="73.701px" viewBox="0 0 73.701 73.701" enable-background="new 0 0 73.701 73.701" xml:space="preserve">
<path id="Events_Calendar_1_" fill-rule="evenodd" clip-rule="evenodd" fill="#404041" d="M15.817,51.244h3.747
	c0.513,0,0.931,0.422,0.931,0.936v3.747c0,0.515-0.418,0.935-0.931,0.935h-3.747c-0.513,0-0.934-0.42-0.934-0.935V52.18
	C14.883,51.666,15.304,51.244,15.817,51.244L15.817,51.244z M25.455,51.244h3.747c0.516,0,0.934,0.422,0.934,0.936v3.747
	c0,0.515-0.418,0.935-0.934,0.935h-3.747c-0.513,0-0.933-0.42-0.933-0.935V52.18C24.522,51.666,24.942,51.244,25.455,51.244
	L25.455,51.244z M35.092,51.244h3.75c0.513,0,0.932,0.419,0.932,0.935v3.747c0,0.516-0.419,0.933-0.932,0.933h-3.75
	c-0.514,0-0.933-0.417-0.933-0.933v-3.747C34.159,51.663,34.578,51.244,35.092,51.244L35.092,51.244z M54.367,31.962h3.746
	c0.516,0,0.932,0.418,0.932,0.934v3.746c0,0.517-0.416,0.937-0.932,0.937h-3.746c-0.514,0-0.935-0.42-0.935-0.937v-3.746
	C53.433,32.38,53.854,31.962,54.367,31.962L54.367,31.962z M44.729,31.958h3.747c0.513,0,0.933,0.423,0.933,0.937v3.747
	c0,0.514-0.42,0.934-0.933,0.934h-3.747c-0.513,0-0.935-0.419-0.935-0.934v-3.747C43.795,32.38,44.217,31.958,44.729,31.958
	L44.729,31.958z M25.455,31.963h3.747c0.517,0,0.934,0.417,0.934,0.933v3.746c0,0.517-0.417,0.936-0.934,0.936h-3.747
	c-0.513,0-0.933-0.419-0.933-0.936v-3.746C24.522,32.38,24.942,31.963,25.455,31.963L25.455,31.963z M35.092,31.958h3.75
	c0.513,0,0.932,0.423,0.932,0.937v3.747c0,0.514-0.419,0.936-0.932,0.936h-3.75c-0.514,0-0.933-0.421-0.933-0.936v-3.747
	C34.159,32.38,34.578,31.958,35.092,31.958L35.092,31.958z M54.367,41.604h3.746c0.516,0,0.932,0.418,0.932,0.934v3.748
	c0,0.516-0.416,0.935-0.932,0.935h-3.746c-0.514,0-0.935-0.419-0.935-0.935v-3.748C53.433,42.021,53.854,41.604,54.367,41.604
	L54.367,41.604z M44.729,41.604h3.747c0.513,0,0.933,0.418,0.933,0.933v3.747c0,0.516-0.42,0.934-0.933,0.934h-3.747
	c-0.513,0-0.935-0.418-0.935-0.934v-3.747C43.795,42.021,44.217,41.604,44.729,41.604L44.729,41.604z M15.817,41.604h3.747
	c0.513,0,0.931,0.418,0.931,0.933v3.748c0,0.515-0.418,0.932-0.931,0.932h-3.747c-0.513,0-0.934-0.417-0.934-0.932v-3.748
	C14.883,42.022,15.304,41.604,15.817,41.604L15.817,41.604z M25.455,41.604h3.747c0.516,0,0.934,0.418,0.934,0.933v3.748
	c0,0.515-0.418,0.932-0.934,0.932h-3.747c-0.513,0-0.933-0.417-0.933-0.932v-3.748C24.522,42.022,24.942,41.604,25.455,41.604
	L25.455,41.604z M35.092,41.604h3.75c0.513,0,0.932,0.417,0.932,0.933v3.747c0,0.517-0.419,0.934-0.932,0.934h-3.75
	c-0.514,0-0.933-0.417-0.933-0.934v-3.747C34.159,42.021,34.578,41.604,35.092,41.604L35.092,41.604z M63.105,58.889V29.975
	c0-1.44-1.18-2.618-2.62-2.618H13.145c-1.44,0-2.618,1.178-2.618,2.618v28.914c0,1.427,1.207,2.584,2.691,2.584h47.196
	C61.897,61.473,63.105,60.315,63.105,58.889L63.105,58.889z M48.188,12.512V9.02c0-0.857,0.722-1.554,1.614-1.554h5.207
	c0.894,0,1.615,0.697,1.615,1.554v3.492H48.188L48.188,12.512z M61.037,15.505c-16.124,0-32.249,0-48.373,0
	c-3.856,0-6.995,3.015-6.995,6.723v37.283c0,3.705,3.137,6.724,6.995,6.724h48.373c3.855,0,6.995-3.017,6.995-6.724V22.227
	C68.032,18.521,64.893,15.505,61.037,15.505L61.037,15.505z M16.964,12.512V9.02c0-0.857,0.721-1.554,1.612-1.554h5.209
	c0.892,0,1.616,0.697,1.616,1.554v3.492H16.964z"/>
</svg>
