<?xml version="1.0" encoding="utf-8"?>
<!-- Generator: Adobe Illustrator 16.0.0, SVG Export Plug-In . SVG Version: 6.00 Build 0)  -->
<!DOCTYPE svg PUBLIC "-//W3C//DTD SVG 1.1//EN" "http://www.w3.org/Graphics/SVG/1.1/DTD/svg11.dtd">
<svg version="1.1" id="Layer_1" xmlns="http://www.w3.org/2000/svg" xmlns:xlink="http://www.w3.org/1999/xlink" x="0px" y="0px"
	 width="73.701px" height="73.701px" viewBox="0 0 73.701 73.701" enable-background="new 0 0 73.701 73.701" xml:space="preserve">
<path id="Games_Development_2_" fill-rule="evenodd" clip-rule="evenodd" fill="#404041" d="M50.003,23.454
	c1.266,0,2.289,1.024,2.289,2.288s-1.023,2.288-2.289,2.288c-1.263,0-2.287-1.024-2.287-2.288S48.74,23.454,50.003,23.454
	L50.003,23.454z M36.849,11.555h0.003c0.686,0,1.246,0.562,1.246,1.246v4.992c0,0.685-0.56,1.246-1.246,1.246h-0.003
	c-0.686,0-1.246-0.562-1.246-1.246v-4.992C35.603,12.116,36.163,11.555,36.849,11.555L36.849,11.555z M44.184,29.274
	c1.265,0,2.289,1.024,2.289,2.287s-1.024,2.288-2.289,2.288c-1.262,0-2.287-1.024-2.287-2.288S42.922,29.274,44.184,29.274
	L44.184,29.274z M50.003,35.093c1.266,0,2.289,1.024,2.289,2.288c0,1.262-1.023,2.287-2.289,2.287c-1.263,0-2.287-1.025-2.287-2.287
	C47.716,36.117,48.74,35.093,50.003,35.093L50.003,35.093z M55.825,29.272c1.263,0,2.286,1.024,2.286,2.287
	c0,1.265-1.023,2.289-2.286,2.289c-1.265,0-2.288-1.024-2.288-2.289C53.537,30.296,54.561,29.272,55.825,29.272L55.825,29.272z
	 M23.695,23.454h0.003c1.259,0,2.288,1.029,2.288,2.288v3.531h3.533c1.258,0,2.286,1.027,2.286,2.287v0.003
	c0,1.256-1.028,2.288-2.286,2.288h-3.533v3.532c0,1.258-1.028,2.286-2.288,2.286h-0.003c-1.259,0-2.287-1.028-2.287-2.286V33.85
	h-3.531c-1.257,0-2.288-1.031-2.288-2.288V31.56c0-1.26,1.03-2.287,2.288-2.287h3.531v-3.531
	C21.408,24.483,22.436,23.454,23.695,23.454L23.695,23.454z M23.698,18.405c-6.418,0-11.761,4.595-12.921,10.674l-0.001-0.001
	L5.869,54.019H5.87l-0.006,0.022l-0.007,0.025L5.853,54.09l-0.006,0.025L5.84,54.139l-0.003,0.016l-0.001,0.009L5.83,54.188
	l-0.006,0.024l-0.006,0.023L5.814,54.26l-0.02,0.1l-0.005,0.024l-0.004,0.023L5.78,54.434l-0.004,0.024l-0.004,0.014v0.011
	l-0.004,0.025l-0.006,0.023l-0.003,0.025l-0.004,0.024L5.75,54.606l-0.004,0.024l-0.001,0.003l-0.003,0.021l-0.003,0.026
	l-0.004,0.024l-0.003,0.026l-0.003,0.024l-0.004,0.024l-0.001,0.015l-0.001,0.012l-0.003,0.024l-0.003,0.025l-0.003,0.025
	l-0.003,0.024l-0.003,0.026l-0.002,0.024l-0.001,0.003l-0.001,0.024L5.7,55.009l-0.003,0.026l-0.003,0.025l-0.001,0.024
	l-0.003,0.026l-0.001,0.014v0.012l-0.003,0.025l-0.001,0.024l-0.001,0.027l-0.001,0.024L5.68,55.265L5.678,55.29v0.001l-0.001,0.024
	l-0.001,0.026l-0.001,0.025v0.026v0.025l-0.001,0.025v0.014l-0.001,0.013v0.025v0.027l-0.001,0.025v0.024v0.027v0.026
	c0,3.601,2.919,6.52,6.52,6.52l0.103-0.002l0.064-0.001l0.037-0.002l0.103-0.004h0.027l0.073-0.004l0.093-0.006l0.01-0.002
	l0.1-0.008l0.055-0.006l0.046-0.005l0.1-0.011l0.019-0.003l0.08-0.012l0.082-0.012l0.019-0.003l0.099-0.017l0.043-0.008l0.054-0.01
	l0.098-0.019l0.009-0.002l0.088-0.019l0.069-0.016l0.027-0.006l0.096-0.024l0.035-0.008l0.062-0.016l0.095-0.026l0.001-0.001
	l0.093-0.027l0.059-0.018l0.036-0.012l0.093-0.029l0.023-0.009l0.069-0.023l0.082-0.028l0.01-0.004l0.092-0.035l0.047-0.019
	l0.133-0.054l0.015-0.006l0.074-0.033l0.072-0.031l0.017-0.009l0.089-0.04l0.037-0.018l0.05-0.024l0.086-0.044l0.004-0.002
	l0.001-0.001l0.139-0.073l0.026-0.013l0.083-0.047l0.029-0.017l0.056-0.032l0.08-0.049h0.001l0.083-0.052l0.049-0.03l0.032-0.021
	l0.08-0.053l0.019-0.013l0.062-0.042l0.069-0.047l0.01-0.007l0.077-0.057l0.039-0.028l0.037-0.028l0.076-0.059l0.011-0.009
	l0.063-0.052l0.059-0.047l0.016-0.015l0.103-0.088l0.042-0.035l0.073-0.064l0.003-0.003l0.067-0.062l0.047-0.045l0.021-0.021
	l0.069-0.067l0.021-0.021l0.046-0.046l0.063-0.065l0.004-0.003l0.066-0.068l0.037-0.042l0.026-0.03l0.063-0.073l0.014-0.014
	l0.049-0.058l0.053-0.063l0.008-0.011l0.06-0.074l0.029-0.037l0.03-0.039l0.059-0.075l0.007-0.011l0.048-0.067l0.043-0.059
	l0.015-0.019L29.48,45.126h14.741l11.962,14.256c1.18,1.672,3.128,2.765,5.329,2.765c3.601,0,6.52-2.919,6.52-6.52
	c0-0.556-0.071-1.095-0.2-1.608h0.002l-4.907-24.941l-0.002,0.001C61.764,23,56.422,18.405,50.003,18.405
	c-3.245,0-6.217,1.178-8.512,3.128H32.21C29.916,19.583,26.943,18.405,23.698,18.405z"/>
</svg>
