<?xml version="1.0" encoding="utf-8"?>
<!-- Generator: Adobe Illustrator 16.0.0, SVG Export Plug-In . SVG Version: 6.00 Build 0)  -->
<!DOCTYPE svg PUBLIC "-//W3C//DTD SVG 1.1//EN" "http://www.w3.org/Graphics/SVG/1.1/DTD/svg11.dtd">
<svg version="1.1" id="Layer_1" xmlns="http://www.w3.org/2000/svg" xmlns:xlink="http://www.w3.org/1999/xlink" x="0px" y="0px"
	 width="73.701px" height="73.701px" viewBox="0 0 73.701 73.701" enable-background="new 0 0 73.701 73.701" xml:space="preserve">
<path id="Goals_Completion_1_" fill-rule="evenodd" clip-rule="evenodd" fill="#404041" d="M6.979,5.874
	c1.09-0.508,2.385-0.036,2.896,1.054l27.049,58.004c0.508,1.089,0.035,2.387-1.055,2.896c-1.09,0.507-2.388,0.034-2.896-1.054
	L5.938,8.798L5.925,8.77C5.416,7.68,5.888,6.384,6.979,5.874L6.979,5.874z M33.597,5.702c-0.687,0-0.982,0.56-0.666,1.244
	l2.849,6.135H17.478c-0.686,0-0.982,0.559-0.666,1.243l9.246,19.916c0.316,0.685,1.138,1.244,1.82,1.244h24.384
	c0.684,0,0.984-0.562,0.666-1.244l-2.849-6.135h17.902L54.213,17.013l3.552-11.311H33.597z"/>
</svg>
