<?xml version="1.0" encoding="utf-8"?>
<!-- Generator: Adobe Illustrator 16.0.0, SVG Export Plug-In . SVG Version: 6.00 Build 0)  -->
<!DOCTYPE svg PUBLIC "-//W3C//DTD SVG 1.1//EN" "http://www.w3.org/Graphics/SVG/1.1/DTD/svg11.dtd">
<svg version="1.1" id="Layer_1" xmlns="http://www.w3.org/2000/svg" xmlns:xlink="http://www.w3.org/1999/xlink" x="0px" y="0px"
	 width="73.701px" height="73.701px" viewBox="0 0 73.701 73.701" enable-background="new 0 0 73.701 73.701" xml:space="preserve">
<path id="Hosting_Services_1_" fill-rule="evenodd" clip-rule="evenodd" fill="#404041" d="M6.917,59.301h23.762
	c0.662-1.854,2.136-3.329,3.989-3.991v-4.74c0-0.685,0.561-1.246,1.248-1.246h1.871c0.686,0,1.246,0.562,1.246,1.246v4.74
	c1.854,0.662,3.328,2.138,3.99,3.991h23.762c0.687,0,1.247,0.562,1.247,1.246v1.87c0,0.688-0.561,1.249-1.247,1.249H43.022
	c-0.904,2.535-3.333,4.365-6.17,4.365h-0.003c-2.837,0-5.268-1.83-6.17-4.365H6.917c-0.686,0-1.248-0.562-1.248-1.249v-1.87
	C5.669,59.862,6.231,59.301,6.917,59.301L6.917,59.301z M60.238,12.843H38.407c-0.859,0-1.557,0.7-1.557,1.558l0,0
	c0,0.858,0.697,1.56,1.557,1.56h21.831c0.858,0,1.558-0.702,1.558-1.56l0,0C61.796,13.543,61.097,12.843,60.238,12.843
	L60.238,12.843z M15.024,17.517c1.722,0,3.118-1.396,3.118-3.118c0-1.72-1.396-3.118-3.118-3.118s-3.12,1.398-3.12,3.118
	C11.904,16.12,13.302,17.517,15.024,17.517L15.024,17.517z M11.904,5.67h49.892c3.43,0,6.235,2.807,6.235,6.236v4.989
	c0,3.429-2.806,6.236-6.235,6.236H11.904c-3.429,0-6.235-2.807-6.235-6.236v-4.989C5.669,8.478,8.476,5.67,11.904,5.67L11.904,5.67z
	 M60.238,34.67H38.407c-0.859,0-1.557,0.7-1.557,1.558l0,0c0,0.858,0.697,1.559,1.557,1.559h21.831c0.858,0,1.558-0.701,1.558-1.559
	l0,0C61.796,35.37,61.097,34.67,60.238,34.67L60.238,34.67z M15.024,39.343c1.722,0,3.118-1.396,3.118-3.117
	c0-1.72-1.396-3.118-3.118-3.118s-3.12,1.398-3.12,3.118C11.904,37.947,13.302,39.343,15.024,39.343L15.024,39.343z M11.904,27.497
	h49.892c3.43,0,6.235,2.807,6.235,6.236v4.987c0,3.43-2.806,6.236-6.235,6.236H11.904c-3.429,0-6.235-2.807-6.235-6.236v-4.987
	C5.669,30.304,8.476,27.497,11.904,27.497z"/>
</svg>
