<?xml version="1.0" encoding="utf-8"?>
<!-- Generator: Adobe Illustrator 16.0.0, SVG Export Plug-In . SVG Version: 6.00 Build 0)  -->
<!DOCTYPE svg PUBLIC "-//W3C//DTD SVG 1.1//EN" "http://www.w3.org/Graphics/SVG/1.1/DTD/svg11.dtd">
<svg version="1.1" id="Layer_1" xmlns="http://www.w3.org/2000/svg" xmlns:xlink="http://www.w3.org/1999/xlink" x="0px" y="0px"
	 width="73.701px" height="73.701px" viewBox="0 0 73.701 73.701" enable-background="new 0 0 73.701 73.701" xml:space="preserve">
<path id="In-Store_Promotions_1_" fill-rule="evenodd" clip-rule="evenodd" fill="#404041" d="M14.56,33.674
	c2.376-0.683,4.12-2.869,4.135-5.464h0.5c0.02,3.145,2.571,5.688,5.718,5.688c3.151,0,5.702-2.542,5.72-5.688h0.501
	c0.019,3.145,2.569,5.688,5.716,5.688c3.149,0,5.7-2.542,5.719-5.688h0.502c0.019,3.145,2.569,5.688,5.718,5.688
	c3.147,0,5.7-2.542,5.719-5.688h0.501c0.017,2.585,1.743,4.764,4.108,5.457v25.469c-0.013,0.453-0.38,0.819-0.834,0.831H45.235
	c-0.453-0.012-0.819-0.378-0.832-0.831V36.752c0-0.47-0.384-0.855-0.854-0.855h-1.472c-0.47,0-0.854,0.385-0.854,0.855v17.844
	c-0.012,0.453-0.38,0.819-0.832,0.831h-25c-0.453-0.012-0.819-0.378-0.833-0.831V33.674L14.56,33.674z M66.296,29.5l1.735-8.537
	L59.455,9.194H14.246L5.669,20.963l1.736,8.517c0.474,2.011,1.99,3.616,3.978,4.192v26.296H7.189c-0.47,0-0.854,0.384-0.854,0.854
	v2.833c0,0.47,0.384,0.854,0.854,0.854h59.326c0.47,0,0.855-0.384,0.855-0.854v-2.833c0-0.47-0.386-0.854-0.855-0.854h-4.22V33.679
	C64.276,33.116,65.818,31.513,66.296,29.5L66.296,29.5z M48.051,43.98c-0.269,0-0.488,0.221-0.488,0.487v5.654
	c0,0.267,0.223,0.487,0.488,0.487h0.93c0.267,0,0.488-0.224,0.488-0.487v-5.654c0-0.264-0.219-0.487-0.488-0.487H48.051
	L48.051,43.98z M22.426,48.79l0.658,0.659c0.19,0.188,0.501,0.188,0.69,0l8.901-8.903c0.189-0.189,0.189-0.498,0-0.69l-0.659-0.656
	c-0.19-0.191-0.5-0.191-0.69,0l-8.9,8.9C22.235,48.289,22.235,48.602,22.426,48.79L22.426,48.79z M29.281,49.472l0.661,0.659
	c0.189,0.189,0.5,0.189,0.688,0l2.726-2.725c0.19-0.191,0.19-0.501,0-0.69l-0.658-0.658c-0.19-0.192-0.5-0.192-0.69,0l-2.727,2.727
	C29.092,48.974,29.092,49.283,29.281,49.472z"/>
</svg>
