<?xml version="1.0" encoding="utf-8"?>
<!-- Generator: Adobe Illustrator 16.0.0, SVG Export Plug-In . SVG Version: 6.00 Build 0)  -->
<!DOCTYPE svg PUBLIC "-//W3C//DTD SVG 1.1//EN" "http://www.w3.org/Graphics/SVG/1.1/DTD/svg11.dtd">
<svg version="1.1" id="Layer_1" xmlns="http://www.w3.org/2000/svg" xmlns:xlink="http://www.w3.org/1999/xlink" x="0px" y="0px"
	 width="73.701px" height="73.701px" viewBox="0 0 73.701 73.701" enable-background="new 0 0 73.701 73.701" xml:space="preserve">
<path id="Keyword_Density_1_" fill-rule="evenodd" clip-rule="evenodd" fill="#404041" d="M23.646,24.895h11.225
	c0.344,0,0.623,0.298,0.623,0.623v1.248c0,0.325-0.298,0.623-0.623,0.623H23.646c-0.325,0-0.625-0.281-0.625-0.623v-1.248
	C23.022,25.176,23.303,24.895,23.646,24.895L23.646,24.895z M48.591,17.411h3.964c0.342,0,0.623,0.325,0.623,0.625v1.246
	c0,0.298-0.325,0.625-0.623,0.625h-3.964c-0.298,0-0.623-0.281-0.623-0.625v-1.246C47.968,17.692,48.247,17.411,48.591,17.411
	L48.591,17.411z M14.915,17.411H26.14c0.344,0,0.625,0.291,0.625,0.625v1.246c0,0.334-0.291,0.625-0.625,0.625H14.915
	c-0.333,0-0.623-0.281-0.623-0.625v-1.246C14.292,17.692,14.573,17.411,14.915,17.411L14.915,17.411z M14.915,24.895h4.989
	c0.344,0,0.625,0.291,0.625,0.623v1.248c0,0.331-0.292,0.623-0.625,0.623h-4.989c-0.331,0-0.623-0.281-0.623-0.623v-1.248
	C14.292,25.176,14.573,24.895,14.915,24.895L14.915,24.895z M43.085,54.938h23.07c1.02,0,1.876-0.856,1.876-1.879V10.667
	c0-1.024-0.843-1.878-1.876-1.878H7.546c-1.033,0-1.876,0.841-1.876,1.878v42.392c0,1.035,0.856,1.879,1.876,1.879h23.07
	c0,5.481-4.421,9.93-9.892,9.976h32.254C47.506,64.867,43.085,60.42,43.085,54.938L43.085,54.938z M10.061,12.422
	c-0.418,0-0.758,0.34-0.758,0.758v33.519c0,0.412,0.354,0.755,0.758,0.755h53.58c0.403,0,0.757-0.355,0.757-0.755V13.18
	c0-0.405-0.339-0.758-0.757-0.758H10.061L10.061,12.422z M29.882,17.411c2.774,0,5.546,0,8.321,0
	c0.514-1.455,1.68-2.495,3.528-2.495c1.848,0,3.741,1.676,3.741,3.743S43.579,22.4,41.731,22.4c-1.849,0-3.016-1.042-3.528-2.494
	h-1.461v1.871c0,0.341-0.282,0.623-0.623,0.623h-1.248c-0.342,0-0.623-0.281-0.623-0.623v-1.871H33v1.871
	c0,0.341-0.282,0.623-0.625,0.623H31.13c-0.342,0-0.625-0.281-0.625-0.623v-1.871h-0.623c-0.339,0-0.623-0.281-0.623-0.625v-1.246
	C29.259,17.692,29.539,17.411,29.882,17.411L29.882,17.411z M41.731,17.411c0.688,0,1.246,0.559,1.246,1.248
	s-0.559,1.248-1.246,1.248c-0.688,0-1.247-0.559-1.247-1.248S41.043,17.411,41.731,17.411L41.731,17.411z M38.612,32.379h8.731
	c0.344,0,0.624,0.301,0.624,0.623v1.248c0,0.324-0.301,0.623-0.624,0.623h-8.731c-0.322,0-0.623-0.279-0.623-0.623v-1.248
	C37.989,32.66,38.27,32.379,38.612,32.379L38.612,32.379z M33.624,32.379h1.248c0.344,0,0.623,0.288,0.623,0.623v1.248
	c0,0.335-0.288,0.623-0.623,0.623h-1.248c-0.335,0-0.623-0.279-0.623-0.623v-1.248C33,32.66,33.281,32.379,33.624,32.379
	L33.624,32.379z M14.915,32.379c2.774,0,5.547,0,8.32,0c0.514-1.456,1.899-2.495,3.529-2.495c2.067,0,3.741,1.673,3.741,3.741
	c0,2.068-1.674,3.742-3.741,3.742c-1.63,0-3.016-1.041-3.529-2.495h-1.459v1.872c0,0.343-0.281,0.623-0.625,0.623h-1.248
	c-0.342,0-0.623-0.28-0.623-0.623v-1.872h-1.248v1.872c0,0.343-0.281,0.623-0.623,0.623h-1.248c-0.342,0-0.623-0.28-0.623-0.623
	v-1.872h-0.625c-0.339,0-0.623-0.279-0.623-0.623v-1.248C14.292,32.66,14.573,32.379,14.915,32.379L14.915,32.379z M26.764,32.379
	c0.689,0,1.248,0.557,1.248,1.246s-0.559,1.248-1.248,1.248c-0.69,0-1.248-0.559-1.248-1.248S26.074,32.379,26.764,32.379
	L26.764,32.379z M38.612,24.895h1.247c0.344,0,0.625,0.288,0.625,0.623v1.248c0,0.336-0.288,0.623-0.625,0.623h-1.247
	c-0.335,0-0.623-0.281-0.623-0.623v-1.248C37.989,25.176,38.27,24.895,38.612,24.895L38.612,24.895z M43.603,24.895h15.184
	c0.343,0,0.623,0.304,0.623,0.623v1.248c0,0.319-0.304,0.623-0.623,0.623H43.603c-0.319,0-0.625-0.281-0.625-0.623v-1.248
	C42.978,25.176,43.259,24.895,43.603,24.895z"/>
</svg>
