<?xml version="1.0" encoding="utf-8"?>
<!-- Generator: Adobe Illustrator 16.0.0, SVG Export Plug-In . SVG Version: 6.00 Build 0)  -->
<!DOCTYPE svg PUBLIC "-//W3C//DTD SVG 1.1//EN" "http://www.w3.org/Graphics/SVG/1.1/DTD/svg11.dtd">
<svg version="1.1" id="Layer_1" xmlns="http://www.w3.org/2000/svg" xmlns:xlink="http://www.w3.org/1999/xlink" x="0px" y="0px"
	 width="73.701px" height="73.701px" viewBox="0 0 73.701 73.701" enable-background="new 0 0 73.701 73.701" xml:space="preserve">
<path id="Keywords__x26__Rankings_1_" fill-rule="evenodd" clip-rule="evenodd" fill="#404041" d="M25.1,57.448h4.073V13.356
	c0-1.12,0.916-2.037,2.036-2.037h11.283c1.12,0,2.035,0.917,2.035,2.037v44.092h4.074V37.412c0-1.12,0.916-2.037,2.036-2.037H61.92
	c1.12,0,2.037,0.917,2.037,2.037v20.036h4.074v4.933c-20.786,0-41.575,0-62.362,0v-4.933h4.075v-28.93
	c0-1.12,0.917-2.037,2.036-2.037h11.283c1.12,0,2.037,0.917,2.037,2.037V57.448z"/>
</svg>
