<?xml version="1.0" encoding="utf-8"?>
<!-- Generator: Adobe Illustrator 16.0.0, SVG Export Plug-In . SVG Version: 6.00 Build 0)  -->
<!DOCTYPE svg PUBLIC "-//W3C//DTD SVG 1.1//EN" "http://www.w3.org/Graphics/SVG/1.1/DTD/svg11.dtd">
<svg version="1.1" id="Layer_1" xmlns="http://www.w3.org/2000/svg" xmlns:xlink="http://www.w3.org/1999/xlink" x="0px" y="0px"
	 width="73.701px" height="73.701px" viewBox="0 0 73.701 73.701" enable-background="new 0 0 73.701 73.701" xml:space="preserve">
<path id="Keyword_Analysis_1_" fill-rule="evenodd" clip-rule="evenodd" fill="#404041" d="M62.317,17.106l-3.854,2.697
	c0.363,0.925,0.669,1.879,0.912,2.857l4.584-3.21c0.222,0.104,0.459,0.181,0.713,0.225c1.557,0.275,3.041-0.765,3.315-2.322
	c0.275-1.557-0.765-3.041-2.321-3.316c-1.557-0.273-3.042,0.765-3.316,2.322C62.306,16.612,62.294,16.863,62.317,17.106
	L62.317,17.106z M38.972,51.227c1.902,0.826,3.237,2.728,3.237,4.919v3.972c0,2.943-2.413,5.358-5.358,5.358h-0.001
	c-2.945,0-5.358-2.412-5.358-5.358v-3.972c0-2.194,1.335-4.093,3.236-4.919v-2.984c-10.082-1.061-17.94-9.588-17.94-19.953
	c0-11.082,8.981-20.063,20.063-20.063s20.064,8.982,20.064,20.063c0,10.365-7.857,18.892-17.941,19.953V51.227L38.972,51.227z
	 M36.849,12.481c-8.73,0-15.809,7.077-15.809,15.808c0,0.305,0.01,0.609,0.027,0.911l6.126-4.289
	c-0.071-0.391-0.076-0.802-0.003-1.216c0.33-1.868,2.111-3.117,3.979-2.786c1.826,0.322,3.06,2.033,2.808,3.854l7.284,4.641
	c0.704-0.454,1.573-0.656,2.463-0.498c0.413,0.073,0.798,0.217,1.14,0.418l7.268-5.087C50.342,17.47,44.179,12.481,36.849,12.481
	L36.849,12.481z M52.63,27.381l-6.124,4.29c0.073,0.39,0.077,0.801,0.004,1.216c-0.329,1.867-2.111,3.114-3.979,2.785
	c-1.826-0.321-3.058-2.031-2.806-3.852l-7.288-4.642c-0.703,0.454-1.571,0.653-2.46,0.497c-0.414-0.073-0.799-0.216-1.142-0.418
	l-7.268,5.088c1.791,6.766,7.952,11.752,15.281,11.752c8.731,0,15.808-7.076,15.808-15.807
	C52.657,27.984,52.649,27.681,52.63,27.381L52.63,27.381z M14.323,33.924l-4.581,3.207c-0.222-0.103-0.461-0.181-0.713-0.225
	c-1.555-0.275-3.041,0.765-3.316,2.322c-0.275,1.558,0.765,3.042,2.322,3.315c1.559,0.275,3.042-0.764,3.317-2.321
	c0.043-0.253,0.055-0.503,0.032-0.747l3.851-2.697C14.873,35.855,14.567,34.901,14.323,33.924z"/>
</svg>
