<?xml version="1.0" encoding="utf-8"?>
<!-- Generator: Adobe Illustrator 16.0.0, SVG Export Plug-In . SVG Version: 6.00 Build 0)  -->
<!DOCTYPE svg PUBLIC "-//W3C//DTD SVG 1.1//EN" "http://www.w3.org/Graphics/SVG/1.1/DTD/svg11.dtd">
<svg version="1.1" id="Layer_1" xmlns="http://www.w3.org/2000/svg" xmlns:xlink="http://www.w3.org/1999/xlink" x="0px" y="0px"
	 width="73.701px" height="73.701px" viewBox="0 0 73.701 73.701" enable-background="new 0 0 73.701 73.701" xml:space="preserve">
<path id="Landing_Page_Optimization_1_" fill-rule="evenodd" clip-rule="evenodd" fill="#404041" d="M36.225,38.044h4.988
	c0.343,0,0.623,0.285,0.623,0.624v1.248c0,0.339-0.283,0.623-0.623,0.623h-4.988c-0.339,0-0.625-0.281-0.625-0.623v-1.248
	C35.6,38.324,35.881,38.044,36.225,38.044L36.225,38.044z M44.954,38.044h6.236c0.344,0,0.625,0.286,0.625,0.624v1.248
	c0,0.338-0.286,0.623-0.625,0.623h-6.236c-0.338,0-0.623-0.281-0.623-0.623v-1.248C44.331,38.324,44.612,38.044,44.954,38.044
	L44.954,38.044z M36.225,30.561h1.246c0.344,0,0.624,0.288,0.624,0.623v1.248c0,0.335-0.287,0.625-0.624,0.625h-1.246
	c-0.336,0-0.625-0.281-0.625-0.625v-1.248C35.6,30.842,35.881,30.561,36.225,30.561L36.225,30.561z M41.213,30.561h1.248
	c0.342,0,0.623,0.288,0.623,0.623v1.248c0,0.335-0.288,0.625-0.623,0.625h-1.248c-0.335,0-0.624-0.281-0.624-0.625v-1.248
	C40.589,30.842,40.869,30.561,41.213,30.561L41.213,30.561z M46.202,30.561h12.476c0.344,0,0.624,0.295,0.624,0.623v1.248
	c0,0.328-0.296,0.625-0.624,0.625H46.202c-0.328,0-0.623-0.281-0.623-0.625v-1.248C45.579,30.842,45.859,30.561,46.202,30.561
	L46.202,30.561z M36.225,46.775h8.106c0.343,0,0.623,0.28,0.623,0.624v3.741c0,0.343-0.28,0.623-0.623,0.623h-8.106
	c-0.344,0-0.625-0.28-0.625-0.623v-3.741C35.6,47.056,35.881,46.775,36.225,46.775L36.225,46.775z M49.32,46.775h8.106
	c0.343,0,0.623,0.28,0.623,0.624v3.741c0,0.343-0.28,0.623-0.623,0.623H49.32c-0.343,0-0.623-0.28-0.623-0.623v-3.741
	C48.697,47.056,48.978,46.775,49.32,46.775L49.32,46.775z M15.025,25.572h14.963c0.342,0,0.623,0.286,0.623,0.623V56.13
	c0,0.338-0.285,0.623-0.623,0.623H15.025c-0.338,0-0.623-0.281-0.623-0.623V26.195C14.402,25.853,14.683,25.572,15.025,25.572
	L15.025,25.572z M11.904,11.906c1.378,0,2.495,1.118,2.495,2.494c0,1.377-1.117,2.494-2.495,2.494c-1.376,0-2.494-1.117-2.494-2.494
	C9.41,13.024,10.527,11.906,11.904,11.906L11.904,11.906z M26.872,11.906c1.376,0,2.494,1.118,2.494,2.494
	c0,1.377-1.117,2.494-2.494,2.494c-1.378,0-2.495-1.117-2.495-2.494C24.376,13.024,25.494,11.906,26.872,11.906L26.872,11.906z
	 M19.388,11.906c1.378,0,2.495,1.118,2.495,2.494c0,1.377-1.117,2.494-2.495,2.494s-2.495-1.117-2.495-2.494
	C16.893,13.024,18.01,11.906,19.388,11.906L19.388,11.906z M68.032,10.82c0-1.46-1.193-2.655-2.653-2.655
	c-19.018,0-38.036,0-57.056,0c-1.459,0-2.653,1.194-2.653,2.655c-0.001,19.02,0,33.047,0,52.066c0,1.457,1.193,2.651,2.653,2.651
	h57.056c1.46,0,2.653-1.193,2.653-2.651C68.032,43.867,68.032,29.838,68.032,10.82L68.032,10.82z M9.413,21.961
	c0,13.742,0,24.765,0,38.506c0,0.725,0.622,1.328,1.326,1.328h52.224c0.705,0,1.328-0.616,1.328-1.328c0-13.741,0-24.765,0-38.506
	c0-0.709-0.598-1.325-1.328-1.325c-17.028,0-35.193,0-52.224,0C10.01,20.637,9.413,21.238,9.413,21.961z"/>
</svg>
