<?xml version="1.0" encoding="utf-8"?>
<!-- Generator: Adobe Illustrator 16.0.0, SVG Export Plug-In . SVG Version: 6.00 Build 0)  -->
<!DOCTYPE svg PUBLIC "-//W3C//DTD SVG 1.1//EN" "http://www.w3.org/Graphics/SVG/1.1/DTD/svg11.dtd">
<svg version="1.1" id="Layer_1" xmlns="http://www.w3.org/2000/svg" xmlns:xlink="http://www.w3.org/1999/xlink" x="0px" y="0px"
	 width="73.701px" height="73.701px" viewBox="0 0 73.701 73.701" enable-background="new 0 0 73.701 73.701" xml:space="preserve">
<path id="Link_Building_1_" fill-rule="evenodd" clip-rule="evenodd" fill="#404041" d="M30.332,56.436
	c1.462-1.464,3.834-1.464,5.297-0.001c1.464,1.461,1.464,3.831,0,5.298l-1.394,1.396c-6.534,6.535-17.129,6.535-23.662,0.003
	c-6.551-6.552-6.494-16.96-0.094-23.561c-0.009-0.01,9.344-9.347,10.533-10.533c6.6-6.4,17.01-6.458,23.56,0.091
	c1.461,1.464,1.461,3.834,0,5.297c-1.464,1.462-3.835,1.462-5.297,0l-0.001,0.003c-3.596-3.594-9.368-3.609-12.98-0.086
	c-4.418,4.42-6.09,6.09-10.509,10.51c-3.523,3.612-3.508,9.387,0.084,12.979c3.594,3.594,9.458,3.606,13.067-0.001L30.332,56.436
	L30.332,56.436z M43.369,17.265l1.395-1.396c3.609-3.606,9.474-3.593,13.067,0c3.594,3.592,3.607,9.367,0.086,12.979
	c-4.42,4.42-6.093,6.093-10.512,10.512c-3.612,3.523-9.385,3.508-12.978-0.086l-0.003,0.003c-1.461-1.463-3.834-1.463-5.297,0
	c-1.461,1.462-1.461,3.834,0,5.296c6.55,6.55,16.96,6.491,23.561,0.092c1.188-1.186,10.544-10.524,10.533-10.534
	c6.399-6.6,6.459-17.009-0.093-23.56C56.597,4.038,46,4.038,39.468,10.572l-1.396,1.396c-1.462,1.467-1.461,3.835,0,5.298
	C39.534,18.729,41.906,18.729,43.369,17.265z"/>
</svg>
