<?xml version="1.0" encoding="utf-8"?>
<!-- Generator: Adobe Illustrator 16.0.0, SVG Export Plug-In . SVG Version: 6.00 Build 0)  -->
<!DOCTYPE svg PUBLIC "-//W3C//DTD SVG 1.1//EN" "http://www.w3.org/Graphics/SVG/1.1/DTD/svg11.dtd">
<svg version="1.1" id="Layer_1" xmlns="http://www.w3.org/2000/svg" xmlns:xlink="http://www.w3.org/1999/xlink" x="0px" y="0px"
	 width="73.701px" height="73.701px" viewBox="0 0 73.701 73.701" enable-background="new 0 0 73.701 73.701" xml:space="preserve">
<path id="Local_SEO_2_" fill-rule="evenodd" clip-rule="evenodd" fill="#404041" d="M53.706,50.044
	c2.349-0.927,5.144-0.436,7.026,1.447l5.4,5.398c2.532,2.532,2.533,6.703,0,9.239H66.13c-2.534,2.535-6.697,2.54-9.238,0
	l-5.397-5.397c-1.891-1.891-2.375-4.678-1.449-7.027l-4.548-4.547c-9.605,7.775-23.729,7.198-32.663-1.734
	c-9.553-9.551-9.553-25.038,0-34.589c9.552-9.552,25.037-9.552,34.589,0c8.934,8.934,9.512,23.059,1.734,32.663L53.706,50.044
	L53.706,50.044z M16.503,16.501c-7.525,7.526-7.525,19.726,0,27.252c7.527,7.527,19.726,7.525,27.251,0
	c7.527-7.526,7.528-19.726,0-27.252C36.229,8.976,24.029,8.976,16.503,16.501L16.503,16.501z M15.733,26.152v2.919l-1.446,0.175
	c-0.014,0.274-0.021,0.55-0.021,0.834c0,8.763,7.1,15.864,15.863,15.862c8.764,0.002,15.865-7.1,15.865-15.862
	c0.003-1.359-0.172-2.674-0.492-3.927h-1.999v4.222l-2.801,0.646v-6.556h-4.296v3.126l-1.921-0.939l-3.21,1.574v-8.148l-8.02,2.255
	l0.001,11.719h-1.583v-7.901H15.733z"/>
</svg>
