<?xml version="1.0" encoding="utf-8"?>
<!-- Generator: Adobe Illustrator 16.0.0, SVG Export Plug-In . SVG Version: 6.00 Build 0)  -->
<!DOCTYPE svg PUBLIC "-//W3C//DTD SVG 1.1//EN" "http://www.w3.org/Graphics/SVG/1.1/DTD/svg11.dtd">
<svg version="1.1" id="Layer_1" xmlns="http://www.w3.org/2000/svg" xmlns:xlink="http://www.w3.org/1999/xlink" x="0px" y="0px"
	 width="73.701px" height="73.701px" viewBox="0 0 73.701 73.701" enable-background="new 0 0 73.701 73.701" xml:space="preserve">
<path id="Market_Watch_1_" fill-rule="evenodd" clip-rule="evenodd" fill="#404041" d="M36.839,18.136
	c2.199,0,4.288,0.473,6.168,1.324c0.562-3.578,3.658-6.315,7.395-6.315c3.263,0,6.037,2.087,7.063,5l8.976,22.266
	c0.221,0.417,1.078,2.31,1.078,2.688c0.334,1.186,0.515,2.438,0.515,3.733c0,7.58-6.145,13.725-13.725,13.725
	s-13.725-6.145-13.725-13.725c0-0.646,0.046-1.281,0.132-1.903c-0.902-1.1-2.263-1.809-3.79-1.83h-0.073
	c-1.557,0-2.949,0.713-3.865,1.83c0.086,0.623,0.133,1.258,0.133,1.903c0,7.58-6.146,13.725-13.726,13.725
	c-7.58,0-13.726-6.145-13.726-13.725c0-2.315,0.576-4.499,1.59-6.412l8.955-22.275c1.025-2.913,3.8-5,7.063-5
	c3.737,0,6.833,2.737,7.395,6.315C32.552,18.608,34.641,18.136,36.839,18.136L36.839,18.136z M54.396,44.033
	c2.079,0,4.158,0,6.239,0c0,2.08,0,4.158,0,6.238h-2.497v-1.979l-4.563,4.563l-3.53-3.528l-3.624,3.626
	c1.825,2.349,4.68,3.861,7.887,3.861c5.513,0,9.98-4.469,9.98-9.982c0-5.513-4.468-9.981-9.98-9.981
	c-5.515,0-9.983,4.469-9.983,9.981c0,1.383,0.282,2.699,0.791,3.897l4.93-4.93l3.53,3.527l2.798-2.799h-1.977V44.033L54.396,44.033z
	 M19.484,44.032c2.08,0,4.158,0,6.237,0c0,2.08,0,4.159,0,6.239h-2.495v-1.979l-4.563,4.563l-3.529-3.529l-3.626,3.627
	c1.828,2.349,4.681,3.861,7.888,3.861c5.513,0,9.981-4.469,9.981-9.982c0-5.513-4.469-9.981-9.981-9.981
	c-5.513,0-9.982,4.469-9.982,9.981c0,1.383,0.282,2.699,0.791,3.897l4.93-4.932l3.529,3.528l2.799-2.799h-1.978V44.032
	L19.484,44.032z M36.852,28.125c-4.006,0-7.645,1.573-10.33,4.134c0.787,0.384,1.539,0.831,2.248,1.335
	c2.177-1.855,4.999-2.974,8.083-2.974c3.083,0,5.906,1.12,8.083,2.974c0.71-0.501,1.459-0.951,2.247-1.335
	C44.493,29.696,40.856,28.125,36.852,28.125L36.852,28.125z M36.852,34.484c-1.378,0-2.497,1.117-2.497,2.495
	s1.119,2.495,2.497,2.495c1.376,0,2.495-1.117,2.495-2.495S38.229,34.484,36.852,34.484z"/>
</svg>
