<?xml version="1.0" encoding="utf-8"?>
<!-- Generator: Adobe Illustrator 16.0.0, SVG Export Plug-In . SVG Version: 6.00 Build 0)  -->
<!DOCTYPE svg PUBLIC "-//W3C//DTD SVG 1.1//EN" "http://www.w3.org/Graphics/SVG/1.1/DTD/svg11.dtd">
<svg version="1.1" id="Layer_1" xmlns="http://www.w3.org/2000/svg" xmlns:xlink="http://www.w3.org/1999/xlink" x="0px" y="0px"
	 width="73.701px" height="73.701px" viewBox="0 0 73.701 73.701" enable-background="new 0 0 73.701 73.701" xml:space="preserve">
<path id="Market_Research_1_" fill-rule="evenodd" clip-rule="evenodd" fill="#404041" d="M57.023,68.029l-40.314,0.002
	c-3.101,0-5.62-2.423-5.62-5.411c0-1.008,0.291-1.949,0.791-2.76l13.563-19.763c0.804-1.188,1.233-2.688,1.249-4.119v-6.693
	c0-1.305-1.059-2.362-2.362-2.362H22.99c-0.752,0-1.371-0.62-1.371-1.372V23.79c0-0.753,0.619-1.372,1.371-1.372l1.339-0.003
	c3.795-0.007,6.868,3.074,6.868,6.871l-0.001,7.779c-0.036,1.827-0.61,3.524-1.57,4.933l-13.113,19.09
	c-0.167,0.247-0.271,0.545-0.271,0.866c0,0.866,0.729,1.565,1.628,1.565H55.83c0.872,0,1.63-0.678,1.63-1.565
	c0-0.335-0.109-0.639-0.289-0.896L44.076,41.997c-0.961-1.409-1.533-3.106-1.569-4.933l-0.002-7.777
	c0-3.797,3.071-6.872,6.867-6.869l1.34,0.001c0.752,0,1.371,0.622,1.371,1.371v1.763c0,0.748-0.619,1.372-1.371,1.372h-1.34
	c-1.304,0-2.36,1.056-2.36,2.362v6.62c0,1.49,0.43,2.939,1.249,4.191L61.822,59.86c0.515,0.834,0.79,1.782,0.79,2.76
	C62.612,65.6,60.112,68.015,57.023,68.029L57.023,68.029z M45.616,5.669c3.22,0,5.828,2.61,5.828,5.828
	c0,3.217-2.608,5.827-5.828,5.827c-3.216,0-5.825-2.61-5.825-5.827C39.791,8.279,42.4,5.669,45.616,5.669L45.616,5.669z
	 M36.852,18.364c-1.524,0-2.762,1.233-2.762,2.759s1.238,2.759,2.762,2.759c1.523,0,2.758-1.233,2.758-2.759
	S38.375,18.364,36.852,18.364L36.852,18.364z M29.898,10.667c2.201,0,3.986,1.784,3.986,3.987c0,2.202-1.785,3.986-3.986,3.986
	c-2.202,0-3.986-1.784-3.986-3.986C25.912,12.451,27.697,10.667,29.898,10.667L29.898,10.667z M32.124,47.587
	c-1.585,0.138-3.035,0.69-4.25,1.541l1.431,2.047c0.867-0.607,1.904-1.004,3.035-1.103c2.289-0.198,4.396,0.866,5.633,2.615
	l0.004,0.006c1.491,2.051,3.99,3.291,6.702,3.057c1.359-0.119,2.601-0.592,3.643-1.322l-1.432-2.044
	c-0.694,0.484-1.52,0.802-2.428,0.88c-1.79,0.155-3.443-0.655-4.439-2l-0.005-0.004C38.287,48.803,35.334,47.31,32.124,47.587z"/>
</svg>
