<?xml version="1.0" encoding="utf-8"?>
<!-- Generator: Adobe Illustrator 16.0.0, SVG Export Plug-In . SVG Version: 6.00 Build 0)  -->
<!DOCTYPE svg PUBLIC "-//W3C//DTD SVG 1.1//EN" "http://www.w3.org/Graphics/SVG/1.1/DTD/svg11.dtd">
<svg version="1.1" id="Layer_1" xmlns="http://www.w3.org/2000/svg" xmlns:xlink="http://www.w3.org/1999/xlink" x="0px" y="0px"
	 width="73.701px" height="73.701px" viewBox="0 0 73.701 73.701" enable-background="new 0 0 73.701 73.701" xml:space="preserve">
<path id="Mobile_Marketing_1_" fill-rule="evenodd" clip-rule="evenodd" fill="#404041" d="M23.727,5.667h26.856
	c2.017,0,3.666,1.657,3.666,3.668v11.441h12.663c0.616,0,1.12,0.571,1.12,1.134v17.576c0,0.568-0.559,1.135-1.12,1.135H54.249
	v23.746c0,2.01-1.655,3.666-3.666,3.666H23.727c-2.014,0-3.666-1.652-3.666-3.666V9.335C20.061,7.319,21.71,5.667,23.727,5.667
	L23.727,5.667z M5.67,16.75l0.882-0.881l3.969,3.969l3.969-3.969l0.882,0.881l-3.969,3.97l3.969,3.969l-0.882,0.882l-3.969-3.969
	l-3.969,3.969L5.67,24.688l3.969-3.969L5.67,16.75L5.67,16.75z M57.992,48.347l2.205,2.203l-2.205,2.207l0.882,0.881l2.204-2.203
	l2.205,2.203l0.883-0.881l-2.205-2.207l2.205-2.203l-0.882-0.883l-2.206,2.205l-2.205-2.205L57.992,48.347L57.992,48.347z
	 M14.447,36.53c0.344,0,0.624,0.277,0.624,0.625c0,0.344-0.28,0.624-0.624,0.624c-0.347,0-0.625-0.279-0.625-0.624
	C13.822,36.807,14.1,36.53,14.447,36.53L14.447,36.53z M14.447,35.282c-1.034,0-1.872,0.838-1.872,1.873
	c0,1.034,0.838,1.87,1.872,1.87c1.034,0,1.871-0.836,1.871-1.87C16.317,36.12,15.48,35.282,14.447,35.282L14.447,35.282z
	 M60.487,12.045c-1.38,0-2.495,1.117-2.495,2.495c0,1.378,1.115,2.495,2.495,2.495c1.378,0,2.493-1.117,2.493-2.495
	C62.98,13.162,61.865,12.045,60.487,12.045L60.487,12.045z M60.487,13.293c-0.69,0-1.248,0.557-1.248,1.247
	c0,0.689,0.558,1.248,1.248,1.248c0.688,0,1.246-0.559,1.246-1.248C61.733,13.851,61.175,13.293,60.487,13.293L60.487,13.293z
	 M51.182,20.777v-3.891c0-0.572-0.496-1.099-1.1-1.099H24.227c-0.604,0-1.1,0.494-1.1,1.099v39.925c0,0.607,0.526,1.102,1.1,1.102
	h25.855c0.574,0,1.1-0.525,1.1-1.102V40.622h-9.911l-4.765,3.84l-0.129,0.082c-0.193,0.107-0.416,0.172-0.654,0.172
	c-0.744,0-1.35-0.615-1.35-1.367v-2.727h-5.139c-0.564,0-1.118-0.512-1.118-1.135V21.911c0-0.624,0.505-1.134,1.118-1.134H51.182
	L51.182,20.777z M42.383,31.26c-1.358,0-2.46,1.115-2.46,2.494s1.102,2.494,2.46,2.494c1.359,0,2.461-1.115,2.461-2.494
	S43.742,31.26,42.383,31.26L42.383,31.26z M42.383,32.507c-0.679,0-1.229,0.558-1.229,1.247c0,0.688,0.55,1.248,1.229,1.248
	c0.681,0,1.232-0.56,1.232-1.248C43.615,33.065,43.063,32.507,42.383,32.507L42.383,32.507z M42.271,26.088l-8.703,8.82l0.87,0.883
	l8.702-8.821L42.271,26.088L42.271,26.088z M47.64,28.956c0,1.005,0.276,1.794,0.82,2.367c0.546,0.574,1.283,0.859,2.207,0.859
	c0.913,0,1.645-0.287,2.19-0.863c0.546-0.576,0.817-1.374,0.817-2.393c0-1.028-0.273-1.832-0.823-2.409
	c-0.552-0.577-1.285-0.866-2.201-0.866c-0.507,0-0.955,0.084-1.342,0.25c-0.29,0.125-0.559,0.314-0.804,0.569
	c-0.244,0.255-0.438,0.545-0.58,0.866C47.735,27.773,47.64,28.312,47.64,28.956L47.64,28.956z M48.935,28.913
	c0,0.714,0.164,1.255,0.489,1.625c0.327,0.369,0.739,0.554,1.24,0.554c0.502,0,0.913-0.183,1.235-0.548
	c0.322-0.367,0.482-0.916,0.482-1.648c0-0.723-0.156-1.263-0.47-1.618c-0.313-0.357-0.729-0.534-1.248-0.534
	c-0.518,0-0.937,0.181-1.253,0.54C49.095,27.644,48.935,28.186,48.935,28.913L48.935,28.913z M54.655,32.069h1.259v-2.676h2.605
	v-1.065h-2.605v-1.495h3.015v-1.065h-4.273V32.069L54.655,32.069z M59.96,32.069h1.259v-2.676h2.605v-1.065h-2.605v-1.495h3.014
	v-1.065H59.96V32.069L59.96,32.069z M47.691,35.006v1.246h16.593v-1.246H47.691L47.691,35.006z M34.324,25.627
	c-1.379,0-2.496,1.116-2.496,2.494s1.117,2.494,2.496,2.494s2.494-1.116,2.494-2.494S35.703,25.627,34.324,25.627L34.324,25.627z
	 M34.324,26.874c-0.689,0-1.248,0.558-1.248,1.248c0,0.689,0.559,1.248,1.248,1.248c0.688,0,1.247-0.559,1.247-1.248
	C35.571,27.432,35.013,26.874,34.324,26.874L34.324,26.874z M29.717,9.876c-0.467,0-0.85,0.383-0.85,0.85v0.003
	c0,0.467,0.385,0.849,0.85,0.849h9.887c0.464,0,0.849-0.384,0.849-0.849v-0.003c0-0.464-0.382-0.85-0.849-0.85H29.717L29.717,9.876z
	 M37.154,59.97c-1.66,0-3.006,1.344-3.006,3.004s1.346,3.006,3.006,3.006c1.661,0,3.005-1.346,3.005-3.006
	S38.815,59.97,37.154,59.97L37.154,59.97z M43.798,9.878c-0.47,0-0.851,0.381-0.851,0.851l0,0c0,0.468,0.384,0.85,0.851,0.85h0.792
	c0.469,0,0.853-0.382,0.853-0.85l0,0c0-0.47-0.382-0.851-0.853-0.851H43.798z"/>
</svg>
