<?xml version="1.0" encoding="utf-8"?>
<!-- Generator: Adobe Illustrator 16.0.0, SVG Export Plug-In . SVG Version: 6.00 Build 0)  -->
<!DOCTYPE svg PUBLIC "-//W3C//DTD SVG 1.1//EN" "http://www.w3.org/Graphics/SVG/1.1/DTD/svg11.dtd">
<svg version="1.1" id="Layer_1" xmlns="http://www.w3.org/2000/svg" xmlns:xlink="http://www.w3.org/1999/xlink" x="0px" y="0px"
	 width="73.701px" height="73.701px" viewBox="0 0 73.701 73.701" enable-background="new 0 0 73.701 73.701" xml:space="preserve">
<path id="Online_Presence_1_" fill="#404041" d="M36.852,5.668c17.221,0,31.18,13.961,31.18,31.182
	c0,17.221-13.959,31.182-31.18,31.182C19.63,68.032,5.67,54.071,5.67,36.851C5.67,19.629,19.63,5.668,36.852,5.668L36.852,5.668z
	 M42.994,24.73c0.349,3.078,1.883,2.906-0.063,3.079c-2.054,0.182-1.072-0.2-2.293,1.686c-0.75,1.162-0.086,0.174-0.824,1.047
	l-0.822,1.031c-0.051,0.09-0.108,0.213-0.154,0.309c-0.756,1.525-0.461,2.34-2.484,3.072l-0.143,2.834l-0.702,0.104
	c-0.073-0.252-0.19-0.566-0.31-1.086h-5.33c-0.45,1.938-0.872,1.273-0.926,3.707c1.265,0.457,0.951-0.025,1.39,1.852h1.389v-1.853
	c3.189,0,1.912-0.372,1.869,2.372l1.835-0.521v2.778h2.779c0.48-1.194,0.084-0.489,1.215-1.165c0.074-0.046,0.205-0.118,0.281-0.152
	l0.785-0.185c1.262,0.019-0.242-0.047,0.813,0.215l0.707,0.197c0.676,0.145,1.085,0.11,1.658,0.261
	c2.64,0.686,0.229,1.343,5.189,1.756c-0.885,3.805,3.098,1.424,3.328,3.971l0.063,0.528c-0.206,1.323-0.524,0.675-2.293,3.544
	l-0.74,1.114c-0.841,1-1.75,1.04-3.882,3.063l-3.529,2.983c-0.908,0.642-1.677,1.123-2.816,1.368
	c-0.067,0.014-0.143,0.027-0.213,0.035c0.017-0.061,0.032-0.121,0.047-0.18c0.598-2.203,1.595-2.852,1.267-5.752
	c-0.224-1.973-0.171-0.871-1.739-2.944c-1.179-1.562-0.781-1.735-1.992-2.175c0.09-4.035,1.541-3.592,1.853-3.705v-0.926
	c-3.334,0-2.263-0.404-4.782-1.703l-1.955-0.822c-2.05-0.563-1.756,0.162-4.46-1.096c-1.721-0.803-1.72-0.565-1.771-2.86
	c-1.978,0.715-0.506,0.728-2.314,0.926l-1.054-2.188c-0.052-0.088-0.123-0.201-0.173-0.291l-1.055-2.187
	c-0.388-0.745-0.63-1.149-0.82-1.377c-0.168-0.2,1.354,4.724,1.199,4.688s-2.156-4.816-2.4-5.1c0-5.365,1.111-8.136,0.83-10.077
	c0-0.007-0.541-0.173-0.196-1.998c0.335-1.78,0.429-2.156,0.429-4.627c-0.259,0.173-0.754,0.425-1.164,0.688
	c-0.738,0.474-2.248,2.165-3.096,2.817c-3,4.262-4.764,9.455-4.764,15.063c0,14.465,11.727,26.19,26.191,26.19
	c6.696,0,12.805-2.513,17.435-6.646l2.062-2.056c0.67-0.745,1.299-1.53,1.879-2.348c0.457-0.896,0.487-1.498,0.531-1.591l0.943-1.47
	c1.479-2.467-0.315-1.939-2.973-1.939c0-9.529-1.406-4.644,2.164-11.744c0.141-0.287,0.736-1.838,0.764-1.984
	c0.353-1.885,0.279-0.207-0.286-1.824c-0.009-0.025-0.321-0.855-0.388-1.029c-0.045-0.121-0.237-0.457-0.267-0.682
	c-0.021-0.175-0.069-0.232-0.135-0.333c0.788-1.95,0.713-0.173,1.39-1.853c-0.492-0.567-0.058,0-0.545-0.844l-1.332-1.911
	c-2.974-2.83-1.133-3.21-1.255-4.864c-1.332-1.572-2.849-2.988-4.515-4.208c0.152,0.344,0.221,0.875,0.238,1.641h-1.391
	c-0.365-1.371-0.188-0.751-0.928-1.854c0.57-0.205,1.008-0.322,1.344-0.309c-0.92-0.627-1.883-1.198-2.884-1.708
	c0.768,1.278-0.312,0.875-0.312,5.722c-2.396-0.868-3.164-3.237-4.101-4.957c-1.522-2.804-1.97-2.759-3.201-3.25
	c-0.642-0.104-1.289-0.187-1.944-0.244c0.027,1.502,0.086,0.534,1.688,2.117c1.664,1.648,2.879,2.003,1.936,3.671
	c-0.309,0.544-0.697,0.938-1.048,1.82c-0.399,1.021-0.354,0.844,0.597,0.733c3.713-0.438,0.953,0.289,2.934,2.788
	c0.458,0.581,0.111,0.145,0.541,0.853c0.288,0.474,1.141,1.875,1.195,2.013c0.553,1.408,0.414-0.014,0.017,1.863
	c-1.942-0.212-0.726-0.062-2.198-0.861l-0.095-0.221C44.753,24.083,45.036,24.639,42.994,24.73L42.994,24.73z M34.855,39.907
	l2.309,0.717l1.041,1.738c0.508-1.256-1.473-0.925,4.63-0.925c-1.488-1.295-1.86-0.72-3.479-1.206
	c-0.117-0.036-0.236-0.08-0.344-0.121l-2.517-1.214C35.113,38.964,35.429,38.712,34.855,39.907L34.855,39.907z M61.357,29.396
	l-0.123,3.026l1.403-0.176c-0.143-0.801-0.321-1.586-0.534-2.358C62.025,29.851,61.831,29.743,61.357,29.396L61.357,29.396z
	 M33.369,18.221l-0.063,2.151c2.663,0.292,4.898,3.382,4.898,0.227c0-2.632,0.049-2.95-2.779-3.706L33.369,18.221z"/>
</svg>
