<?xml version="1.0" encoding="utf-8"?>
<!-- Generator: Adobe Illustrator 16.0.0, SVG Export Plug-In . SVG Version: 6.00 Build 0)  -->
<!DOCTYPE svg PUBLIC "-//W3C//DTD SVG 1.1//EN" "http://www.w3.org/Graphics/SVG/1.1/DTD/svg11.dtd">
<svg version="1.1" id="Layer_1" xmlns="http://www.w3.org/2000/svg" xmlns:xlink="http://www.w3.org/1999/xlink" x="0px" y="0px"
	 width="73.701px" height="73.701px" viewBox="0 0 73.701 73.701" enable-background="new 0 0 73.701 73.701" xml:space="preserve">
<path id="Page_Speed_1_" fill-rule="evenodd" clip-rule="evenodd" fill="#404041" d="M10.615,20.542
	c0-0.724,0.597-1.325,1.327-1.325c17.021,0,32.797,0,49.818,0c0.73,0,1.326,0.616,1.326,1.325v18.237
	c1.934,2.203,3.596,4.649,4.931,7.291V8.324c0-1.459-1.192-2.654-2.65-2.654c-19.011,0-38.019,0-57.03,0
	c-1.458,0-2.651,1.194-2.651,2.654v37.74c1.334-2.639,2.996-5.088,4.93-7.288V20.542L10.615,20.542z M36.851,30.632
	c17.212,0,31.166,13.956,31.166,31.167h-0.029c0,1.36-1.103,2.463-2.463,2.463c-1.361,0-2.465-1.103-2.465-2.463H63.03
	c0-4.214-0.998-8.196-2.766-11.723l-2.37,1.369c-0.742,0.428-1.697,0.172-2.127-0.569v-0.003c-0.43-0.742-0.174-1.699,0.568-2.126
	l2.367-1.369c-1.95-2.95-4.485-5.482-7.437-7.437L49.9,42.311c-0.43,0.742-1.387,0.997-2.128,0.57l-0.003-0.003
	c-0.741-0.427-0.997-1.384-0.569-2.126l1.368-2.369c-3.088-1.547-6.524-2.504-10.159-2.718v2.732c0,0.856-0.7,1.556-1.557,1.556
	h-0.003c-0.856,0-1.557-0.699-1.557-1.556v-2.732c-3.635,0.214-7.071,1.17-10.159,2.718l1.366,2.369
	c0.43,0.742,0.172,1.699-0.57,2.126v0.003c-0.743,0.427-1.699,0.172-2.128-0.57l-1.367-2.366c-2.952,1.951-5.485,4.483-7.437,7.437
	l2.366,1.366c0.741,0.427,0.997,1.384,0.57,2.126l-0.003,0.003c-0.428,0.741-1.384,0.997-2.125,0.569l-2.369-1.366
	c-1.771,3.523-2.766,7.506-2.766,11.72h-0.029c0,1.36-1.103,2.463-2.465,2.463c-1.361,0-2.464-1.103-2.464-2.463H5.685
	C5.685,44.588,19.64,30.632,36.851,30.632L36.851,30.632z M48.789,49.858l-9.651,6.143c-3.157-1.246-6.743,0.263-8.046,3.411
	c-1.318,3.18,0.193,6.826,3.375,8.145c3.18,1.317,6.826-0.195,8.145-3.375c0.645-1.556,0.611-3.223,0.037-4.672L48.789,49.858
	L48.789,49.858z M21.329,9.799c1.447,0,2.618,1.175,2.618,2.619c0,1.445-1.171,2.618-2.618,2.618s-2.618-1.173-2.618-2.618
	C18.71,10.974,19.882,9.799,21.329,9.799L21.329,9.799z M29.433,9.799c1.444,0,2.618,1.175,2.618,2.619
	c0,1.445-1.174,2.618-2.618,2.618c-1.445,0-2.618-1.173-2.618-2.618C26.814,10.974,27.987,9.799,29.433,9.799L29.433,9.799z
	 M13.225,9.799c1.447,0,2.618,1.175,2.618,2.619c0,1.445-1.171,2.618-2.618,2.618c-1.444,0-2.617-1.173-2.617-2.618
	C10.608,10.974,11.781,9.799,13.225,9.799z"/>
</svg>
