<?xml version="1.0" encoding="utf-8"?>
<!-- Generator: Adobe Illustrator 16.0.0, SVG Export Plug-In . SVG Version: 6.00 Build 0)  -->
<!DOCTYPE svg PUBLIC "-//W3C//DTD SVG 1.1//EN" "http://www.w3.org/Graphics/SVG/1.1/DTD/svg11.dtd">
<svg version="1.1" id="Layer_1" xmlns="http://www.w3.org/2000/svg" xmlns:xlink="http://www.w3.org/1999/xlink" x="0px" y="0px"
	 width="73.701px" height="73.701px" viewBox="0 0 73.701 73.701" enable-background="new 0 0 73.701 73.701" xml:space="preserve">
<path id="Page_Quality_1_" fill-rule="evenodd" clip-rule="evenodd" fill="#404041" d="M36.852,26.389l3.662,11.348l11.929-0.021
	l-9.662,6.989l3.707,11.337l-9.636-7.028l-9.635,7.028l3.707-11.337l-9.663-6.989l11.929,0.021L36.852,26.389L36.852,26.389z
	 M11.905,11.905c1.376,0,2.494,1.119,2.494,2.495s-1.117,2.495-2.494,2.495c-1.378,0-2.495-1.119-2.495-2.495
	S10.527,11.905,11.905,11.905L11.905,11.905z M26.871,11.905c1.376,0,2.494,1.119,2.494,2.495s-1.117,2.495-2.494,2.495
	s-2.494-1.119-2.494-2.495S25.495,11.905,26.871,11.905L26.871,11.905z M19.388,11.905c1.377,0,2.495,1.119,2.495,2.495
	s-1.117,2.495-2.495,2.495c-1.378,0-2.495-1.119-2.495-2.495S18.01,11.905,19.388,11.905L19.388,11.905z M68.031,10.82
	c0-1.461-1.192-2.656-2.652-2.656c-19.019,0-38.036,0-57.055,0c-1.461,0-2.653,1.195-2.653,2.656c-0.002,19.02,0,33.046,0,52.066
	c0,1.457,1.192,2.651,2.653,2.651h57.055c1.46,0,2.652-1.193,2.652-2.651C68.031,43.867,68.031,29.838,68.031,10.82L68.031,10.82z
	 M9.413,21.962c0,13.741,0,24.765,0,38.506c0,0.724,0.622,1.328,1.327,1.328h52.225c0.705,0,1.326-0.616,1.326-1.328
	c0-13.741,0-24.765,0-38.506c0-0.71-0.597-1.325-1.326-1.325c-17.03,0-35.194,0-52.225,0C10.01,20.637,9.413,21.238,9.413,21.962z"
	/>
</svg>
