<?xml version="1.0" encoding="utf-8"?>
<!-- Generator: Adobe Illustrator 16.0.0, SVG Export Plug-In . SVG Version: 6.00 Build 0)  -->
<!DOCTYPE svg PUBLIC "-//W3C//DTD SVG 1.1//EN" "http://www.w3.org/Graphics/SVG/1.1/DTD/svg11.dtd">
<svg version="1.1" id="Layer_1" xmlns="http://www.w3.org/2000/svg" xmlns:xlink="http://www.w3.org/1999/xlink" x="0px" y="0px"
	 width="73.701px" height="73.701px" viewBox="0 0 73.701 73.701" enable-background="new 0 0 73.701 73.701" xml:space="preserve">
<path id="Pay_Per_Click_1_" fill-rule="evenodd" clip-rule="evenodd" fill="#404041" d="M27.744,5.67
	c2.515,0,4.553,2.038,4.553,4.552v17.66c0-2.514,2.038-4.552,4.553-4.552c2.515,0,4.554,2.038,4.554,4.552v1.908
	c0-2.515,2.039-4.555,4.553-4.555c2.516,0,4.554,2.04,4.554,4.555v1.888c0-2.515,2.039-4.553,4.553-4.553
	c2.516,0,4.554,2.038,4.554,4.553v13.586c0,12.574-10.192,22.769-22.767,22.769S14.084,57.838,14.084,45.264V32.335
	c0-0.716,0.584-1.301,1.301-1.301h0.001c4.294,0,7.805,3.511,7.805,7.805V10.222C23.191,7.708,25.229,5.67,27.744,5.67z"/>
</svg>
