<?xml version="1.0" encoding="utf-8"?>
<!-- Generator: Adobe Illustrator 16.0.0, SVG Export Plug-In . SVG Version: 6.00 Build 0)  -->
<!DOCTYPE svg PUBLIC "-//W3C//DTD SVG 1.1//EN" "http://www.w3.org/Graphics/SVG/1.1/DTD/svg11.dtd">
<svg version="1.1" id="Layer_1" xmlns="http://www.w3.org/2000/svg" xmlns:xlink="http://www.w3.org/1999/xlink" x="0px" y="0px"
	 width="73.701px" height="73.701px" viewBox="0 0 73.701 73.701" enable-background="new 0 0 73.701 73.701" xml:space="preserve">
<path id="Pictures_Optimization_1_" fill-rule="evenodd" clip-rule="evenodd" fill="#404041" d="M50.081,21.452l16.04,4.298
	c1.372,0.367,2.19,1.788,1.823,3.158l-9.797,36.563c-0.366,1.371-1.786,2.19-3.156,1.822l-29.804-7.985l19.388-5.196l10.241,2.745
	c0.609,0.164,1.24-0.201,1.403-0.809l6.829-25.481c0.16-0.607-0.202-1.242-0.811-1.405l-10.873-2.913L50.081,21.452L50.081,21.452z
	 M7.582,14.721c-1.372,0.368-2.191,1.788-1.825,3.158l9.797,36.561c0.368,1.371,1.788,2.19,3.16,1.823l31.024-8.312
	c1.369-0.368,2.188-1.787,1.821-3.158L41.762,8.233c-0.366-1.372-1.787-2.191-3.158-1.825L7.582,14.721L7.582,14.721z
	 M34.371,26.624l9.305,5.373l-5.325-19.879c-0.164-0.608-0.794-0.975-1.404-0.812l-25.481,6.828
	c-0.61,0.163-0.975,0.797-0.812,1.405l6.504,24.265l4.614-7.992l5.393,3.112L34.371,26.624L34.371,26.624z M23.598,25.365
	c-2.163,0.58-3.446,2.803-2.868,4.964c0.579,2.163,2.802,3.446,4.964,2.866c2.163-0.579,3.446-2.802,2.868-4.963
	C27.983,26.069,25.76,24.785,23.598,25.365z"/>
</svg>
