<?xml version="1.0" encoding="utf-8"?>
<!-- Generator: Adobe Illustrator 16.0.0, SVG Export Plug-In . SVG Version: 6.00 Build 0)  -->
<!DOCTYPE svg PUBLIC "-//W3C//DTD SVG 1.1//EN" "http://www.w3.org/Graphics/SVG/1.1/DTD/svg11.dtd">
<svg version="1.1" id="Layer_1" xmlns="http://www.w3.org/2000/svg" xmlns:xlink="http://www.w3.org/1999/xlink" x="0px" y="0px"
	 width="73.701px" height="73.701px" viewBox="0 0 73.701 73.701" enable-background="new 0 0 73.701 73.701" xml:space="preserve">
<path id="PR__x26__Communication_1_" fill-rule="evenodd" clip-rule="evenodd" fill="#404041" d="M36.847,5.669L36.847,5.669
	c7.55,0,13.723,6.176,13.723,13.72v0.623h-7.483c-0.687,0-1.248,0.563-1.248,1.248l0,0c0,0.686,0.562,1.247,1.248,1.247h7.483v4.366
	h-7.483c-0.687,0-1.248,0.562-1.248,1.246l0,0c0,0.688,0.562,1.248,1.248,1.248h7.483v4.366h-7.483
	c-0.687,0-1.248,0.563-1.248,1.248l0,0c0,0.686,0.562,1.246,1.248,1.246h7.483v0.625c0,7.542-6.173,13.72-13.723,13.72l0,0
	c-7.544,0-13.717-6.178-13.717-13.72v-0.625h7.484c0.686,0,1.248-0.56,1.248-1.246l0,0c0-0.685-0.562-1.248-1.248-1.248h-7.484
	v-4.366h7.484c0.686,0,1.248-0.56,1.248-1.248l0,0c0-0.685-0.562-1.246-1.248-1.246h-7.484v-4.366h7.484
	c0.686,0,1.248-0.561,1.248-1.247l0,0c0-0.685-0.562-1.248-1.248-1.248h-7.484V19.39C23.129,11.846,29.303,5.669,36.847,5.669
	L36.847,5.669z M57.118,35.292c-1.205,0-2.184,0.978-2.184,2.182c0,9.943-8.137,18.085-18.088,18.085
	c-9.945,0-18.083-8.142-18.083-18.085c0-1.204-0.977-2.182-2.183-2.182c-1.205,0-2.182,0.978-2.182,2.182v0.058l0.001,0.055
	c0.06,11.564,8.968,21.126,20.263,22.229v3.85h-4.989c-1.202,0-2.183,0.982-2.183,2.183l0,0c0,1.202,0.981,2.183,2.183,2.183h4.989
	h4.366h4.988c1.202,0,2.184-0.98,2.184-2.183l0,0c0-1.2-0.981-2.183-2.184-2.183h-4.988v-3.85
	c11.3-1.104,20.208-10.667,20.269-22.229l0.001-0.055l0.002-0.058C59.301,36.271,58.322,35.292,57.118,35.292L57.118,35.292z
	 M57.118,24.003L57.118,24.003c-1.202,0-2.184,0.981-2.184,2.183v3.866c0,1.202,0.981,2.183,2.184,2.183l0,0
	c1.2,0,2.183-0.981,2.183-2.183v-3.866C59.301,24.984,58.318,24.003,57.118,24.003L57.118,24.003z M16.581,24.003L16.581,24.003
	c1.202,0,2.183,0.981,2.183,2.183v3.866c0,1.202-0.981,2.183-2.183,2.183l0,0c-1.2,0-2.182-0.981-2.182-2.183v-3.866
	C14.399,24.984,15.381,24.003,16.581,24.003L16.581,24.003z M36.847,55.56"/>
</svg>
