<?xml version="1.0" encoding="utf-8"?>
<!-- Generator: Adobe Illustrator 16.0.0, SVG Export Plug-In . SVG Version: 6.00 Build 0)  -->
<!DOCTYPE svg PUBLIC "-//W3C//DTD SVG 1.1//EN" "http://www.w3.org/Graphics/SVG/1.1/DTD/svg11.dtd">
<svg version="1.1" id="Layer_1" xmlns="http://www.w3.org/2000/svg" xmlns:xlink="http://www.w3.org/1999/xlink" x="0px" y="0px"
	 width="73.701px" height="73.701px" viewBox="0 0 73.701 73.701" enable-background="new 0 0 73.701 73.701" xml:space="preserve">
<path id="Premium_Services_1_" fill-rule="evenodd" clip-rule="evenodd" fill="#404041" d="M56.572,61.092l1.397-5.113
	c-2.062-0.614-3.564-2.522-3.564-4.781c0-2.756,2.234-4.99,4.99-4.99c0.415,0,0.819,0.052,1.206,0.148l5.181-18.944
	c1.332-0.641,2.249-2,2.249-3.574c0-2.188-1.773-3.963-3.963-3.963c-2.187,0-3.962,1.776-3.962,3.963
	c0,1.161,0.501,2.207,1.298,2.931c-1.009,5.121-5.52,8.984-10.938,8.984c-6.158,0-11.15-4.993-11.15-11.15
	c0-0.981,0.126-1.931,0.364-2.836c1.319-0.905,2.186-2.423,2.186-4.142c0-2.77-2.247-5.015-5.016-5.015
	c-2.769,0-5.016,2.245-5.016,5.015c0,1.719,0.867,3.237,2.187,4.142c0.238,0.905,0.364,1.855,0.364,2.836
	c0,6.157-4.992,11.15-11.15,11.15c-5.418,0-9.93-3.864-10.938-8.984c0.798-0.724,1.298-1.77,1.298-2.931
	c0-2.188-1.776-3.963-3.962-3.963c-2.189,0-3.963,1.776-3.963,3.963c0,1.573,0.917,2.933,2.25,3.574l5.18,18.944
	c0.387-0.097,0.791-0.148,1.207-0.148c2.755,0,4.989,2.234,4.989,4.99c0,2.259-1.502,4.167-3.564,4.781l1.398,5.113H56.572
	L56.572,61.092z M31.86,41.459l4.988-4.989l4.988,4.989l-4.988,4.99L31.86,41.459z"/>
</svg>
