<?xml version="1.0" encoding="utf-8"?>
<!-- Generator: Adobe Illustrator 16.0.0, SVG Export Plug-In . SVG Version: 6.00 Build 0)  -->
<!DOCTYPE svg PUBLIC "-//W3C//DTD SVG 1.1//EN" "http://www.w3.org/Graphics/SVG/1.1/DTD/svg11.dtd">
<svg version="1.1" id="Layer_1" xmlns="http://www.w3.org/2000/svg" xmlns:xlink="http://www.w3.org/1999/xlink" x="0px" y="0px"
	 width="73.701px" height="73.701px" viewBox="0 0 73.701 73.701" enable-background="new 0 0 73.701 73.701" xml:space="preserve">
<path id="Readability_Check_1_" fill-rule="evenodd" clip-rule="evenodd" fill="#404041" d="M32.479,30.617h11.227
	c0.342,0,0.623,0.301,0.623,0.625v1.248c0,0.322-0.301,0.623-0.623,0.623H32.479c-0.322,0-0.623-0.281-0.623-0.623v-1.248
	C31.856,30.898,32.137,30.617,32.479,30.617L32.479,30.617z M49.705,5.67H16.895c-2.066,0-3.742,1.676-3.742,3.741v32.443h3.742
	c0-10.398,0-20.796,0-31.196c0-0.686,0.563-1.248,1.248-1.248h29.933v8.731h8.73v23.712h3.742V16.512L49.705,5.67L49.705,5.67z
	 M62.263,58.658c3.224-0.242,5.763-2.93,5.763-6.217l0.006-24.333h-3.742l-0.005,24.333c0,1.22-0.875,2.235-2.032,2.451
	c-0.908-5.286-5.514-9.311-11.062-9.311c-5.1,0-9.405,3.403-10.771,8.061c-1.122-0.375-2.322-0.578-3.568-0.578
	c-1.04,0-2.045,0.142-2.999,0.406c-1.421-4.57-5.683-7.889-10.721-7.889c-5.563,0-10.178,4.045-11.07,9.353h-0.155
	c-1.378,0-2.495-1.114-2.495-2.493V28.108H5.67v24.333c0,3.444,2.79,6.235,6.236,6.235h0.155c0.892,5.31,5.507,9.354,11.07,9.354
	c6.057,0,10.99-4.795,11.216-10.797l0,0c0.783-0.277,1.625-0.428,2.503-0.428c1.12,0,2.183,0.248,3.137,0.688
	c0.355,5.879,5.235,10.536,11.203,10.536C56.76,68.031,61.38,63.977,62.263,58.658L62.263,58.658z M51.19,49.323
	c4.134,0,7.484,3.35,7.484,7.483s-3.351,7.483-7.484,7.483c-4.133,0-7.483-3.35-7.483-7.483S47.058,49.323,51.19,49.323
	L51.19,49.323z M23.131,49.323c4.132,0,7.484,3.35,7.484,7.483s-3.352,7.483-7.484,7.483c-4.133,0-7.483-3.35-7.483-7.483
	S18.998,49.323,23.131,49.323L23.131,49.323z M27.491,30.617h1.248c0.344,0,0.625,0.292,0.625,0.625v1.248
	c0,0.334-0.292,0.623-0.625,0.623h-1.248c-0.333,0-0.623-0.281-0.623-0.623v-1.248C26.868,30.898,27.148,30.617,27.491,30.617
	L27.491,30.617z M22.502,30.617h1.248c0.342,0,0.623,0.292,0.623,0.625v1.248c0,0.334-0.291,0.623-0.623,0.623h-1.248
	c-0.332,0-0.625-0.281-0.625-0.623v-1.248C21.877,30.898,22.158,30.617,22.502,30.617L22.502,30.617z M36.851,15.651
	c0.285,0,0.623,0.281,0.623,0.623v1.248c0,0.342-0.281,0.623-0.623,0.623h-9.355c-0.342,0-0.623-0.308-0.623-0.623v-1.248
	c0-0.313,0.309-0.623,0.623-0.623H36.851L36.851,15.651z M22.508,15.651h1.246c0.344,0,0.625,0.298,0.625,0.623v1.248
	c0,0.325-0.298,0.623-0.625,0.623h-1.246c-0.327,0-0.625-0.281-0.625-0.623v-1.248C21.883,15.932,22.164,15.651,22.508,15.651
	L22.508,15.651z M42.462,23.135h8.731c0.343,0,0.623,0.312,0.623,0.623v1.248c0,0.311-0.313,0.624-0.623,0.624h-8.731
	c-0.311,0-0.623-0.28-0.623-0.624v-1.248C41.839,23.416,42.12,23.135,42.462,23.135L42.462,23.135z M22.508,23.135h7.482
	c0.344,0,0.625,0.289,0.625,0.623v1.248c0,0.335-0.29,0.624-0.625,0.624h-7.482c-0.335,0-0.625-0.28-0.625-0.624v-1.248
	C21.883,23.416,22.164,23.135,22.508,23.135L22.508,23.135z M33.731,23.135h4.991c0.342,0,0.623,0.289,0.623,0.623v1.248
	c0,0.335-0.29,0.624-0.623,0.624h-4.991c-0.333,0-0.623-0.28-0.623-0.624v-1.248C33.108,23.416,33.389,23.135,33.731,23.135z"/>
</svg>
