<?xml version="1.0" encoding="utf-8"?>
<!-- Generator: Adobe Illustrator 16.0.0, SVG Export Plug-In . SVG Version: 6.00 Build 0)  -->
<!DOCTYPE svg PUBLIC "-//W3C//DTD SVG 1.1//EN" "http://www.w3.org/Graphics/SVG/1.1/DTD/svg11.dtd">
<svg version="1.1" id="Layer_1" xmlns="http://www.w3.org/2000/svg" xmlns:xlink="http://www.w3.org/1999/xlink" x="0px" y="0px"
	 width="73.701px" height="73.701px" viewBox="0 0 73.701 73.701" enable-background="new 0 0 73.701 73.701" xml:space="preserve">
<path id="Remarketing_Services_1_" fill-rule="evenodd" clip-rule="evenodd" fill="#404041" d="M48.418,50.716
	c-1.261-0.46-2.317-0.901-3.2-1.354c-0.093-0.266,0.085-0.632,0.138-1.429c0.04-0.609-0.145-0.759-0.672-0.759
	c-0.661,0-1.542,0.381-2.152,0.202l-0.374-2.758c1.5-0.559,1.809-2.775,1.809-4.437c2.521-0.519,2.955-6.27,1.091-6.603
	c-0.25-0.647,1.701-6.299-0.334-9.48c-1.444-2.268-5.635-3.531-8.688-3.531c-2.468,0-4.981,0.375-4.089,2.497
	c-6.565,1.371-3.444,6.04-3.444,10.527c-2.211,0.753-0.486,6.47,1.4,6.639c0.277,2.53,1.156,4.411,2.145,4.571l-0.29,2.526
	c-0.573,0-2.865-0.67-2.734,0.47l0.135,1.175c-1.028,0.63-2.194,1.119-3.906,1.745c-3.455,1.256-6.132,2.532-7.607,3.644
	l0.364,3.795c-1.643-1.097-3.171-2.352-4.562-3.743l-2.36,2.357c6.037,6.037,14.376,9.77,23.588,9.77
	c18.423,0,33.358-14.935,33.358-33.358c0-8.521-3.192-16.292-8.45-22.19l6.141,0.539l0.29-3.324L54.05,7.159l-1.047,11.965
	l3.322,0.29l0.563-6.427c4.851,5.333,7.809,12.419,7.809,20.195c0,8.25-3.33,15.721-8.717,21.148l-0.026-0.021l-0.044-0.031
	l-0.028-0.021l-0.043-0.031l-0.03-0.021l-0.045-0.031l-0.029-0.021l-0.046-0.032L55.656,54.1l-0.046-0.031l-0.032-0.021
	l-0.046-0.031l-0.034-0.023l-0.046-0.029l-0.036-0.024l-0.047-0.029l-0.038-0.025l-0.045-0.028l-0.041-0.024L55.2,53.802
	l-0.042-0.027l-0.044-0.025l-0.045-0.028l-0.046-0.027l-0.043-0.026l-0.047-0.026l-0.046-0.029l-0.046-0.025l-0.048-0.03
	l-0.045-0.025l-0.051-0.029l-0.044-0.027l-0.052-0.028l-0.045-0.025l-0.054-0.029l-0.045-0.025l-0.056-0.031l-0.044-0.024
	l-0.058-0.032l-0.043-0.023l-0.061-0.032l-0.044-0.022l-0.061-0.034l-0.044-0.023l-0.062-0.031l-0.045-0.024l-0.064-0.033
	l-0.043-0.022l-0.065-0.034l-0.043-0.023l-0.067-0.034l-0.042-0.021l-0.071-0.037l-0.042-0.02l-0.072-0.037l-0.04-0.021
	l-0.075-0.036l-0.04-0.02L53.2,52.711l-0.039-0.021l-0.08-0.038l-0.038-0.018l-0.08-0.04l-0.038-0.018l-0.084-0.04l-0.037-0.017
	l-0.085-0.04l-0.035-0.018l-0.089-0.042l-0.036-0.016l-0.089-0.041l-0.036-0.016l-0.091-0.043l-0.035-0.015l-0.094-0.045
	l-0.032-0.016l-0.097-0.041l-0.033-0.016l-0.099-0.043l-0.03-0.015l-0.104-0.044l-0.03-0.014l-0.103-0.046l-0.029-0.011
	l-0.105-0.048l-0.028-0.013l-0.109-0.046l-0.025-0.012l-0.112-0.046l-0.025-0.011l-0.113-0.049l-0.025-0.009l-0.116-0.049
	l-0.021-0.012l-0.119-0.048l-0.022-0.009l-0.121-0.051l-0.021-0.01l-0.123-0.049l-0.02-0.008l-0.125-0.051l-0.019-0.007
	l-0.129-0.053l-0.017-0.006l-0.132-0.054L50.11,51.36l-0.133-0.054l-0.016-0.006l-0.136-0.053l-0.012-0.006l-0.139-0.054
	l-0.014-0.005l-0.14-0.053l-0.012-0.006l-0.144-0.055l-0.009-0.004l-0.147-0.055l-0.007-0.003l-0.148-0.057L49.05,50.95
	l-0.152-0.058l-0.004-0.001l-0.155-0.058l-0.003-0.001l-0.157-0.058h-0.001L48.418,50.716L48.418,50.716z M14.768,45.417
	l-9.098-5.583l1.745-2.841l4.081,2.502c-0.547-2.011-0.839-4.128-0.839-6.313c0-13.265,10.754-24.017,24.018-24.017
	c2.886,0,5.654,0.51,8.217,1.442l-1.143,3.137c-2.208-0.804-4.589-1.243-7.075-1.243c-11.421,0-20.682,9.26-20.682,20.681
	c0,2.008,0.286,3.949,0.821,5.782l2.694-4.389l2.843,1.745L14.768,45.417L14.768,45.417z M13.667,40.828L13.667,40.828
	L13.667,40.828L13.667,40.828z"/>
</svg>
