<?xml version="1.0" encoding="utf-8"?>
<!-- Generator: Adobe Illustrator 16.0.0, SVG Export Plug-In . SVG Version: 6.00 Build 0)  -->
<!DOCTYPE svg PUBLIC "-//W3C//DTD SVG 1.1//EN" "http://www.w3.org/Graphics/SVG/1.1/DTD/svg11.dtd">
<svg version="1.1" id="Layer_1" xmlns="http://www.w3.org/2000/svg" xmlns:xlink="http://www.w3.org/1999/xlink" x="0px" y="0px"
	 width="73.701px" height="73.701px" viewBox="0 0 73.701 73.701" enable-background="new 0 0 73.701 73.701" xml:space="preserve">
<path id="Reputation_Management_1_" fill-rule="evenodd" clip-rule="evenodd" fill="#404041" d="M26.839,19.899
	c-4.92-3.726-10.819-6.922-17.163-6.971c-2.213,0-4.006,8.105-4.006,16.564c0,8.458,1.793,16.563,4.006,16.563
	c6.344-0.052,12.242-3.245,17.165-6.971c-0.976-2.341-1.606-4.862-1.826-7.498l-9-2.094l9-2.095
	C25.234,24.76,25.863,22.241,26.839,19.899L26.839,19.899z M46.862,19.899c4.92-3.726,10.819-6.922,17.163-6.971
	c2.213,0,4.006,8.105,4.006,16.564c0,8.458-1.793,16.563-4.006,16.563c-6.344-0.052-12.242-3.245-17.164-6.971
	c0.976-2.341,1.605-4.862,1.826-7.498l8.999-2.094l-8.999-2.095C48.467,24.76,47.838,22.241,46.862,19.899L46.862,19.899z
	 M36.851,50.545c2.823,0,5.114,2.29,5.114,5.114s-2.291,5.114-5.114,5.114s-5.113-2.29-5.113-5.114S34.027,50.545,36.851,50.545
	L36.851,50.545z M36.851,21.571c3.227,0,5.926,0.717,6.589,1.674c0.779,1.007,1.33,3.422,1.33,6.247
	c0,2.841-0.558,5.272-1.344,6.267l-0.014,0.01l-0.003,0.003c-0.709,0.942-3.378,1.638-6.56,1.638c-3.228,0-5.924-0.717-6.589-1.675
	c-0.779-1.006-1.331-3.422-1.331-6.246c0-2.842,0.559-5.274,1.346-6.269l0.011-0.01l0.002-0.005
	C31,22.265,33.668,21.571,36.851,21.571z"/>
</svg>
