<?xml version="1.0" encoding="utf-8"?>
<!-- Generator: Adobe Illustrator 16.0.0, SVG Export Plug-In . SVG Version: 6.00 Build 0)  -->
<!DOCTYPE svg PUBLIC "-//W3C//DTD SVG 1.1//EN" "http://www.w3.org/Graphics/SVG/1.1/DTD/svg11.dtd">
<svg version="1.1" id="Layer_1" xmlns="http://www.w3.org/2000/svg" xmlns:xlink="http://www.w3.org/1999/xlink" x="0px" y="0px"
	 width="73.701px" height="73.701px" viewBox="0 0 73.701 73.701" enable-background="new 0 0 73.701 73.701" xml:space="preserve">
<path id="Retina_Ready_Web_Design_1_" fill-rule="evenodd" clip-rule="evenodd" fill="#404041" d="M67.966,36.408
	c-0.021-0.083-0.011-0.176-0.04-0.258c-0.012-0.034-0.041-0.052-0.054-0.085c-0.02-0.049-0.015-0.102-0.04-0.149
	C62.169,24.737,49.85,16.725,36.851,16.725S11.532,24.722,5.869,35.904c-0.025,0.045-0.02,0.099-0.041,0.146
	c-0.013,0.033-0.042,0.053-0.053,0.086c-0.029,0.083-0.019,0.173-0.038,0.258c-0.034,0.152-0.068,0.297-0.068,0.451
	c0,0.152,0.034,0.3,0.068,0.45c0.019,0.084,0.009,0.175,0.038,0.259c0.011,0.03,0.04,0.05,0.053,0.082
	c0.021,0.048,0.015,0.104,0.041,0.148c5.663,11.181,17.982,19.192,30.981,19.192S62.169,48.981,67.832,37.8
	c0.025-0.046,0.021-0.101,0.04-0.148c0.013-0.031,0.042-0.053,0.054-0.086c0.029-0.083,0.019-0.172,0.04-0.256
	c0.032-0.153,0.065-0.297,0.065-0.451C68.031,36.707,67.998,36.559,67.966,36.408L67.966,36.408z M40.997,25.092
	c1.763,0.622,3.297,1.597,4.552,2.822c-0.655,0.48-1.182,1.157-1.472,1.978c-0.767,2.172,0.372,4.55,2.542,5.315
	c0.872,0.309,1.78,0.305,2.603,0.057c0.241,1.874,0.061,3.83-0.611,5.734c-2.292,6.494-9.414,9.9-15.909,7.611
	c-6.493-2.292-9.902-9.413-7.61-15.906C27.384,26.208,34.504,22.802,40.997,25.092L40.997,25.092z M36.897,32.008
	c2.672,0,4.838,2.165,4.838,4.836c0,2.67-2.166,4.837-4.838,4.837c-2.669,0-4.836-2.167-4.836-4.837
	C32.061,34.172,34.228,32.008,36.897,32.008L36.897,32.008z M36.851,52.566L36.851,52.566c-10.706,0-21.185-6.276-26.408-15.72
	c5.25-9.458,15.717-15.71,26.408-15.71c10.705,0,21.186,6.276,26.408,15.719C58.009,46.314,47.541,52.566,36.851,52.566z"/>
</svg>
