<?xml version="1.0" encoding="utf-8"?>
<!-- Generator: Adobe Illustrator 16.0.0, SVG Export Plug-In . SVG Version: 6.00 Build 0)  -->
<!DOCTYPE svg PUBLIC "-//W3C//DTD SVG 1.1//EN" "http://www.w3.org/Graphics/SVG/1.1/DTD/svg11.dtd">
<svg version="1.1" id="Layer_1" xmlns="http://www.w3.org/2000/svg" xmlns:xlink="http://www.w3.org/1999/xlink" x="0px" y="0px"
	 width="73.701px" height="73.701px" viewBox="0 0 73.701 73.701" enable-background="new 0 0 73.701 73.701" xml:space="preserve">
<path id="Return_On_Investment_1_" fill-rule="evenodd" clip-rule="evenodd" fill="#404041" d="M37.507,5.669
	c4.264,0,7.724,3.456,7.724,7.723c0,1.194-0.271,2.325-0.753,3.332c-2.163-0.403-4.328-0.616-6.719-0.616
	c-2.392,0-4.878,0.245-7.182,0.704c-0.51-1.029-0.796-2.19-0.796-3.419C29.781,9.125,33.238,5.669,37.507,5.669L37.507,5.669z
	 M8.608,37.111c-0.696,0.206-1.237,0.749-1.148,1.47l1.643,13.377c0.087,0.72,0.749,1.115,1.468,1.147l3.867,0.177
	c1.505,1.935,3.366,3.666,5.508,5.136l2.002,8.615c0.125,0.536,0.45,0.998,0.999,0.998h7.369c0.547,0,0.813-0.486,0.997-0.998
	l1.343-3.748c1.567,0.229,3.181,0.348,4.832,0.348c1.651,0,3.269-0.118,4.838-0.35l1.345,3.75c0.185,0.512,0.45,0.998,0.998,0.998
	h7.368c0.55,0,0.874-0.462,0.998-0.998l2.006-8.627c5.951-4.089,9.733-10.215,9.733-17.066c0-2.194-0.339-4.188-0.964-6.025
	c1.425-0.528,2.44-1.899,2.44-3.507c0-2.067-1.676-3.743-3.742-3.743c-0.915,0-1.75,0.33-2.402,0.875
	c-1.231-1.454-2.674-2.813-4.273-4.109h-0.002c-4.841-3.595-11.271-5.788-18.327-5.788c-3.509,0-6.867,0.544-9.949,1.532
	c-4.187-3.51-8.003-3.864-12.355-3.525c-5.107,0.397-4.961,2.027-2.34,4.237c1.6,1.351,3.025,3.34,4.063,5.427
	c-2.912,2.734-5.02,6.054-6.025,9.714L8.608,37.111L8.608,37.111z M37.504,22.188c3.33,0,7.044,0.546,10.036,1.822
	c0.283,0.117,0.47,0.354,0.47,0.668c0,0.397-0.321,0.718-0.715,0.718c-0.015,0-0.142-0.014-0.142-0.014
	c-2.895-0.575-6.175-0.898-9.649-0.898c-3.474,0-6.752,0.323-9.647,0.898c0,0-0.127,0.014-0.143,0.014
	c-0.394,0-0.715-0.321-0.715-0.718c0-0.311,0.201-0.577,0.479-0.674C30.468,22.732,34.178,22.188,37.504,22.188L37.504,22.188z
	 M18.388,32.041c1.117,0.266,1.769,1.538,1.457,2.839c-0.311,1.302-1.468,2.138-2.584,1.872c-1.118-0.268-1.77-1.537-1.458-2.84
	C16.114,32.611,17.271,31.773,18.388,32.041z"/>
</svg>
