<?xml version="1.0" encoding="utf-8"?>
<!-- Generator: Adobe Illustrator 16.0.0, SVG Export Plug-In . SVG Version: 6.00 Build 0)  -->
<!DOCTYPE svg PUBLIC "-//W3C//DTD SVG 1.1//EN" "http://www.w3.org/Graphics/SVG/1.1/DTD/svg11.dtd">
<svg version="1.1" id="Layer_1" xmlns="http://www.w3.org/2000/svg" xmlns:xlink="http://www.w3.org/1999/xlink" x="0px" y="0px"
	 width="73.701px" height="73.701px" viewBox="0 0 73.701 73.701" enable-background="new 0 0 73.701 73.701" xml:space="preserve">
<path id="Search_Engine_Optimization_1_" fill-rule="evenodd" clip-rule="evenodd" fill="#404041" d="M53.705,50.043
	c2.351-0.927,5.145-0.436,7.029,1.449l5.397,5.396c2.532,2.534,2.534,6.705,0,9.239l-0.002,0.001c-2.533,2.534-6.698,2.54-9.238,0
	l-5.396-5.398c-1.891-1.891-2.375-4.677-1.45-7.026l-4.548-4.548c-9.605,7.777-23.729,7.2-32.663-1.734
	c-9.552-9.552-9.552-25.038,0-34.589c9.552-9.552,25.036-9.552,34.59,0c8.934,8.935,9.511,23.059,1.733,32.664L53.705,50.043
	L53.705,50.043z M19.075,19.073c-6.083,6.083-6.102,15.93-0.063,22.041l0.062,0.064c0.71,0.711,1.862,0.711,2.572,0
	c0.71-0.71,0.71-1.86,0-2.571l-0.033-0.034l-0.007-0.006c-4.644-4.688-4.631-12.252,0.04-16.923
	c2.319-2.319,5.353-3.493,8.394-3.513l0.044,0.002c0.479,0.011,0.964-0.166,1.33-0.533c0.71-0.71,0.71-1.861,0-2.572
	c-0.366-0.367-0.85-0.544-1.33-0.533l-0.044,0.002C26.067,14.519,22.104,16.043,19.075,19.073L19.075,19.073z M16.502,16.501
	c-7.525,7.525-7.525,19.727,0,27.252c7.526,7.527,19.727,7.527,27.253,0c7.526-7.525,7.528-19.726,0-27.252
	C36.229,8.976,24.028,8.976,16.502,16.501z"/>
</svg>
