<?xml version="1.0" encoding="utf-8"?>
<!-- Generator: Adobe Illustrator 16.0.0, SVG Export Plug-In . SVG Version: 6.00 Build 0)  -->
<!DOCTYPE svg PUBLIC "-//W3C//DTD SVG 1.1//EN" "http://www.w3.org/Graphics/SVG/1.1/DTD/svg11.dtd">
<svg version="1.1" id="Layer_1" xmlns="http://www.w3.org/2000/svg" xmlns:xlink="http://www.w3.org/1999/xlink" x="0px" y="0px"
	 width="73.701px" height="73.701px" viewBox="0 0 73.701 73.701" enable-background="new 0 0 73.701 73.701" xml:space="preserve">
<path id="SEO_Tags_1_" fill-rule="evenodd" clip-rule="evenodd" fill="#404041" d="M6.67,39.6c-1.333,1.336-1.333,3.502,0,4.835
	l20.467,20.465c1.332,1.335,3.499,1.336,4.833,0l29.654-29.657c1.243,2.375,1.948,5.077,1.948,7.945
	c0,6.233-3.326,11.688-8.299,14.687c-0.825,0.333-1.408,1.145-1.408,2.091c0,1.245,1.01,2.253,2.254,2.253
	c0.546,0,1.045-0.193,1.435-0.514c6.277-3.777,10.477-10.656,10.477-18.517c0-8.895-5.378-16.533-13.058-19.842
	c-0.954,2.114-3.08,3.277-5.41,2.983c-1.084-0.146-2.112-0.673-2.883-1.445c-1.997-1.998-1.997-5.237,0-7.235
	c1.996-1.997,5.236-1.997,7.234,0c0.377,0.378,0.683,0.801,0.917,1.248c3.344,1.157,6.375,2.983,8.933,5.321l-0.001-12.932
	c0-1.918-1.568-3.486-3.486-3.486c-6.768,0-13.537,0.003-20.306,0.003c-0.891-0.02-1.787,0.302-2.472,0.967L6.67,39.6z"/>
</svg>
