<?xml version="1.0" encoding="utf-8"?>
<!-- Generator: Adobe Illustrator 16.0.0, SVG Export Plug-In . SVG Version: 6.00 Build 0)  -->
<!DOCTYPE svg PUBLIC "-//W3C//DTD SVG 1.1//EN" "http://www.w3.org/Graphics/SVG/1.1/DTD/svg11.dtd">
<svg version="1.1" id="Layer_1" xmlns="http://www.w3.org/2000/svg" xmlns:xlink="http://www.w3.org/1999/xlink" x="0px" y="0px"
	 width="73.701px" height="73.701px" viewBox="0 0 73.701 73.701" enable-background="new 0 0 73.701 73.701" xml:space="preserve">
<path id="SEO_White_Hat_1_" fill-rule="evenodd" clip-rule="evenodd" fill="#404041" d="M11.384,9.744
	c-0.008,0,0.03,0.122,0.039,0.136c3.983,13.383,6.135,27.56,6.135,42.239c0,0.481-0.014,0.962-0.02,1.442l0.014,0.084
	c5.884,2.666,12.418,4.151,19.297,4.151c6.882,0,13.415-1.485,19.3-4.152l0.012-0.076c-0.005-0.484-0.019-0.966-0.019-1.449
	c0-14.677,2.151-28.851,6.133-42.234c0.025-0.047,0.041-0.093,0.041-0.141c0-1.359-11.402-2.463-25.466-2.463
	C22.786,7.281,11.384,8.385,11.384,9.744L11.384,9.744z M65.568,53.04c1.36,0,2.463,1.102,2.463,2.463
	c0,0.88-0.461,1.653-1.154,2.089l-0.031,0.02c-8.646,5.573-18.943,8.809-29.997,8.809c-11.064,0-21.373-3.242-30.027-8.828
	l0.001-0.002c-0.693-0.435-1.154-1.207-1.154-2.087c0-1.361,1.103-2.463,2.463-2.463c0.481,0,0.931,0.138,1.31,0.377l0.02,0.011
	l0.048,0.032l0.006,0.002c7.879,5.081,17.262,8.03,27.333,8.03c10.075,0,19.46-2.949,27.341-8.032l0.05-0.032l0.016-0.011
	C64.636,53.179,65.085,53.04,65.568,53.04z"/>
</svg>
