<?xml version="1.0" encoding="utf-8"?>
<!-- Generator: Adobe Illustrator 16.0.0, SVG Export Plug-In . SVG Version: 6.00 Build 0)  -->
<!DOCTYPE svg PUBLIC "-//W3C//DTD SVG 1.1//EN" "http://www.w3.org/Graphics/SVG/1.1/DTD/svg11.dtd">
<svg version="1.1" id="Layer_1" xmlns="http://www.w3.org/2000/svg" xmlns:xlink="http://www.w3.org/1999/xlink" x="0px" y="0px"
	 width="73.701px" height="73.701px" viewBox="0 0 73.701 73.701" enable-background="new 0 0 73.701 73.701" xml:space="preserve">
<path id="SEO_Avards_1_" fill-rule="evenodd" clip-rule="evenodd" fill="#404041" d="M55.5,5.67v4.741l-2.765,1.672l0.227,4.397
	h11.959c-0.377,4.334-0.757,8.667-1.136,13.005c-0.419,4.787-4.641,8.33-9.429,7.911l-0.841-0.073
	c-1.054,4.154-4.343,7.502-8.461,8.898L44.6,48.91c-0.054,0.315-0.266,0.591-0.592,0.591h-1.976c0.44,2.778,1.492,5.352,3.013,7.581
	h9.771c0.871,0,1.44,0.744,1.584,1.586l1.324,7.778c0.146,0.848-0.727,1.586-1.586,1.586H17.572c-0.855,0-1.732-0.726-1.584-1.586
	l1.324-7.778c0.147-0.859,0.713-1.586,1.585-1.586h9.769c1.523-2.229,2.574-4.803,3.015-7.581h-1.979
	c-0.324,0-0.535-0.271-0.59-0.591l-0.458-2.689c-4.117-1.396-7.406-4.743-8.458-8.899l-0.851,0.075
	c-4.788,0.419-9.01-3.124-9.429-7.911c-0.379-4.337-0.759-8.67-1.135-13.005h11.957l0.238-4.396l-2.766-1.673V5.67
	C30.64,5.67,43.07,5.67,55.5,5.67L55.5,5.67z M36.856,16.643l-2.639,7.042l-7.516,0.335l5.884,4.687l-2.005,7.25l6.275-4.148
	l6.275,4.148l-2.004-7.25l5.883-4.687l-7.514-0.335L36.856,16.643L36.856,16.643z M14.32,21.556l0.654,7.486
	c0.174,1.996,1.932,3.471,3.928,3.297l1.037-0.091l0.55-10.691H14.32L14.32,21.556z M53.223,21.556l0.55,10.692l1.026,0.09
	c1.996,0.174,3.755-1.301,3.93-3.297l0.652-7.486H53.223z"/>
</svg>
