<?xml version="1.0" encoding="utf-8"?>
<!-- Generator: Adobe Illustrator 16.0.0, SVG Export Plug-In . SVG Version: 6.00 Build 0)  -->
<!DOCTYPE svg PUBLIC "-//W3C//DTD SVG 1.1//EN" "http://www.w3.org/Graphics/SVG/1.1/DTD/svg11.dtd">
<svg version="1.1" id="Layer_1" xmlns="http://www.w3.org/2000/svg" xmlns:xlink="http://www.w3.org/1999/xlink" x="0px" y="0px"
	 width="73.701px" height="73.701px" viewBox="0 0 73.701 73.701" enable-background="new 0 0 73.701 73.701" xml:space="preserve">
<path id="SEO_Copywriting_1_" fill-rule="evenodd" clip-rule="evenodd" fill="#404041" d="M48.231,6.373l19.1,19.1
	c0.941,0.942,0.927,2.49-0.001,3.417l-3.575,3.575L41.239,9.948l3.573-3.575C45.749,5.436,47.291,5.432,48.231,6.373L48.231,6.373z
	 M38.313,12.874L7.645,43.542l7.096,1.268l9.829-6.935l-6.936,9.829l1.269,7.096L26,56.069l9.829-6.936l-6.936,9.83l1.268,7.094
	L60.829,35.39L38.313,12.874L38.313,12.874z M6.687,55.055L18.65,67.018L5.669,68.033L6.687,55.055z"/>
</svg>
