<?xml version="1.0" encoding="utf-8"?>
<!-- Generator: Adobe Illustrator 16.0.0, SVG Export Plug-In . SVG Version: 6.00 Build 0)  -->
<!DOCTYPE svg PUBLIC "-//W3C//DTD SVG 1.1//EN" "http://www.w3.org/Graphics/SVG/1.1/DTD/svg11.dtd">
<svg version="1.1" id="Layer_1" xmlns="http://www.w3.org/2000/svg" xmlns:xlink="http://www.w3.org/1999/xlink" x="0px" y="0px"
	 width="73.701px" height="73.701px" viewBox="0 0 73.701 73.701" enable-background="new 0 0 73.701 73.701" xml:space="preserve">
<path id="SEO_Monitoring_1_" fill-rule="evenodd" clip-rule="evenodd" fill="#404041" d="M52.628,18.979
	c1.436,0,2.624,1.057,2.836,2.433l4.944,0.987c0.429,0.083,0.751,0.461,0.751,0.917c0,0.519-0.417,0.937-0.935,0.937
	c-0.064,0-0.123-0.008-0.183-0.02l-4.913-0.981c-0.492,0.875-1.427,1.465-2.501,1.465c-0.888,0-1.684-0.408-2.211-1.046
	l-4.847,1.914v0.086c0,1.581-1.285,2.868-2.868,2.868c-0.525,0-1.018-0.142-1.44-0.388l-7.15,6.105
	c0.114,0.311,0.178,0.645,0.178,0.996c0,1.584-1.287,2.869-2.869,2.869s-2.869-1.285-2.869-2.869c0-0.147,0.013-0.291,0.034-0.434
	l-4.509-2.498c-0.51,0.461-1.183,0.742-1.925,0.742c-1.359,0-2.501-0.948-2.796-2.219l-5.977-0.628
	c-0.471-0.05-0.838-0.447-0.838-0.931c0-0.517,0.418-0.937,0.937-0.937c0.045,0.004,0.094,0.005,0.142,0.011l5.931,0.625
	c0.457-0.979,1.451-1.659,2.601-1.659c1.583,0,2.869,1.288,2.869,2.869c0,0.167-0.016,0.331-0.042,0.488l4.478,2.483
	c0.514-0.484,1.203-0.782,1.963-0.782c0.551,0,1.067,0.156,1.504,0.428l7.114-6.077c-0.133-0.33-0.206-0.688-0.206-1.063
	c0-1.584,1.286-2.869,2.87-2.869c0.884,0,1.675,0.402,2.203,1.033l4.855-1.917v-0.072C49.761,20.263,51.047,18.979,52.628,18.979
	L52.628,18.979z M10.061,12.423c-0.417,0-0.758,0.339-0.758,0.758v33.518c0,0.413,0.354,0.755,0.758,0.755h53.58
	c0.404,0,0.758-0.354,0.758-0.755V13.181c0-0.404-0.341-0.758-0.758-0.758H10.061L10.061,12.423z M43.086,54.938h23.07
	c1.019,0,1.876-0.856,1.876-1.88V10.667c0-1.023-0.844-1.878-1.876-1.878H7.547c-1.034,0-1.878,0.841-1.878,1.878v42.391
	c0,1.036,0.856,1.88,1.878,1.88h23.07c0,5.481-4.423,9.93-9.893,9.976h32.253C47.507,64.867,43.086,60.42,43.086,54.938z"/>
</svg>
