<?xml version="1.0" encoding="utf-8"?>
<!-- Generator: Adobe Illustrator 16.0.0, SVG Export Plug-In . SVG Version: 6.00 Build 0)  -->
<!DOCTYPE svg PUBLIC "-//W3C//DTD SVG 1.1//EN" "http://www.w3.org/Graphics/SVG/1.1/DTD/svg11.dtd">
<svg version="1.1" id="Layer_1" xmlns="http://www.w3.org/2000/svg" xmlns:xlink="http://www.w3.org/1999/xlink" x="0px" y="0px"
	 width="73.701px" height="73.701px" viewBox="0 0 73.701 73.701" enable-background="new 0 0 73.701 73.701" xml:space="preserve">
<path id="SEO_Performance_1_" fill-rule="evenodd" clip-rule="evenodd" fill="#404041" d="M38.727,13.215
	c4.478,0.301,8.66,1.68,12.292,3.875l3.968-5.669c0.197-0.28,0.59-0.348,0.871-0.153l2.042,1.431c0.281,0.198,0.35,0.589,0.152,0.87
	l-3.971,5.672c6.228,5.03,10.209,12.727,10.209,21.353c0,15.153-12.286,27.439-27.44,27.439c-15.152,0-27.44-12.286-27.44-27.439
	c0-14.525,11.291-26.416,25.575-27.375V9.412h-3.118c-0.344,0-0.625-0.282-0.625-0.625V6.294c0-0.342,0.281-0.625,0.625-0.625h3.118
	h3.742h3.117c0.344,0,0.624,0.282,0.624,0.625v2.494c0,0.342-0.28,0.625-0.624,0.625h-3.117V13.215L38.727,13.215z M30.22,52.604
	l-0.009-0.004l-0.027-0.017c-2.225-1.238-4.066-3.076-5.311-5.298l-0.004-0.009l-0.014-0.026l-0.016-0.027v-0.002
	c-0.215-0.374-0.619-0.624-1.08-0.624c-0.689,0-1.248,0.559-1.248,1.247c0,0.211,0.051,0.41,0.145,0.585h-0.001l0.007,0.01
	c1.474,2.661,3.675,4.862,6.333,6.338l0.019,0.012c0.179,0.099,0.384,0.154,0.603,0.154c0.688,0,1.246-0.559,1.246-1.247
	C30.863,53.228,30.605,52.817,30.22,52.604L30.22,52.604z M23.13,40.592l0.001-0.03V40.53v-0.033v-0.006
	c0.037-5.01,2.76-9.384,6.802-11.75l0.027-0.016l0.026-0.014l0.003-0.003c0.372-0.216,0.623-0.617,0.623-1.079
	c0-0.689-0.559-1.248-1.246-1.248c-0.228,0-0.441,0.062-0.625,0.167l-0.021,0.013l-0.027,0.017
	c-4.792,2.796-8.022,7.977-8.055,13.917v0.033v0.031l-0.001,0.03h0.003c0.033,0.66,0.579,1.186,1.246,1.186
	C22.551,41.777,23.097,41.251,23.13,40.592L23.13,40.592z M36.748,16.895C23.71,16.95,13.152,27.539,13.152,40.592
	c0,13.087,10.612,23.698,23.698,23.698c13.086,0,23.7-10.611,23.7-23.698c0-7.943-3.91-14.973-9.912-19.274l-0.403-0.281
	c-3.747-2.571-8.273-4.094-13.151-4.142H36.748L36.748,16.895z M38.724,34.642V22.509c0-0.344-0.28-0.625-0.621-0.625h-2.496
	c-0.341,0-0.623,0.281-0.623,0.625v12.132c-2.532,0.792-4.37,3.156-4.37,5.951c0,2.794,1.837,5.159,4.37,5.952v3.4
	c0,0.344,0.282,0.625,0.623,0.625h2.496c0.341,0,0.621-0.281,0.621-0.625v-3.402c2.53-0.795,4.363-3.16,4.363-5.95
	S41.254,35.438,38.724,34.642z"/>
</svg>
