<?xml version="1.0" encoding="utf-8"?>
<!-- Generator: Adobe Illustrator 16.0.0, SVG Export Plug-In . SVG Version: 6.00 Build 0)  -->
<!DOCTYPE svg PUBLIC "-//W3C//DTD SVG 1.1//EN" "http://www.w3.org/Graphics/SVG/1.1/DTD/svg11.dtd">
<svg version="1.1" id="Layer_1" xmlns="http://www.w3.org/2000/svg" xmlns:xlink="http://www.w3.org/1999/xlink" x="0px" y="0px"
	 width="73.701px" height="73.701px" viewBox="0 0 73.701 73.701" enable-background="new 0 0 73.701 73.701" xml:space="preserve">
<path id="SEO_Report_1_" fill-rule="evenodd" clip-rule="evenodd" fill="#404041" d="M13.152,10.035h10.603v4.365h-7.483
	c-0.685,0-1.249,0.563-1.249,1.249v46.77c0,0.687,0.562,1.249,1.249,1.249h41.157c0.688,0,1.249-0.563,1.249-1.249v-46.77
	c0-0.687-0.563-1.249-1.249-1.249h-7.481v-4.365H60.55c1.37,0,2.494,1.124,2.494,2.494v53.011c0,1.372-1.124,2.492-2.494,2.492
	H13.152c-1.372,0-2.494-1.12-2.494-2.492V12.528C10.658,11.157,11.78,10.035,13.152,10.035L13.152,10.035z M48.374,45.06
	c-0.343,0-0.625,0.28-0.625,0.624v12.994c0,0.342,0.282,0.622,0.625,0.622h1.869c0.346,0,0.624-0.28,0.624-0.622V45.684
	c0-0.344-0.278-0.624-0.624-0.624H48.374L48.374,45.06z M42.138,47.523c-0.343,0-0.624,0.279-0.624,0.622v10.532
	c0,0.342,0.281,0.622,0.624,0.622h1.869c0.346,0,0.625-0.28,0.625-0.622V48.146c0-0.343-0.279-0.622-0.625-0.622H42.138
	L42.138,47.523z M23.428,53.813c-0.343,0-0.623,0.28-0.623,0.625v4.24c0,0.342,0.28,0.622,0.623,0.622h1.871
	c0.342,0,0.624-0.28,0.624-0.622v-4.24c0-0.345-0.282-0.625-0.624-0.625H23.428L23.428,53.813z M29.666,42.894
	c-0.344,0-0.624,0.279-0.624,0.623v15.161c0,0.344,0.28,0.622,0.624,0.622h1.87c0.344,0,0.624-0.278,0.624-0.622V43.517
	c0-0.344-0.28-0.623-0.624-0.623H29.666L29.666,42.894z M35.902,51.319c-0.344,0-0.624,0.28-0.624,0.622v6.736
	c0,0.342,0.28,0.622,0.624,0.622h1.869c0.346,0,0.625-0.28,0.625-0.622v-6.736c0-0.342-0.279-0.622-0.625-0.622H35.902
	L35.902,51.319z M36.85,5.669c-2.4,0-4.365,1.965-4.365,4.365H28.12v4.365h8.73h8.731v-4.365h-4.364
	C41.217,7.635,39.252,5.669,36.85,5.669L36.85,5.669L36.85,5.669z M34.06,18.766c-5.339,0-9.665,4.326-9.665,9.665
	c0,5.339,4.326,9.667,9.665,9.667c2.669,0,5.084-1.082,6.834-2.831l-6.834-6.836l6.834-6.836
	C39.145,19.848,36.729,18.766,34.06,18.766L34.06,18.766z M46.475,21.595l-6.837,6.836l6.837,6.836
	c1.748-1.75,2.831-4.167,2.831-6.836C49.306,25.763,48.223,23.346,46.475,21.595z"/>
</svg>
