<?xml version="1.0" encoding="utf-8"?>
<!-- Generator: Adobe Illustrator 16.0.0, SVG Export Plug-In . SVG Version: 6.00 Build 0)  -->
<!DOCTYPE svg PUBLIC "-//W3C//DTD SVG 1.1//EN" "http://www.w3.org/Graphics/SVG/1.1/DTD/svg11.dtd">
<svg version="1.1" id="Layer_1" xmlns="http://www.w3.org/2000/svg" xmlns:xlink="http://www.w3.org/1999/xlink" x="0px" y="0px"
	 width="73.701px" height="73.701px" viewBox="0 0 73.701 73.701" enable-background="new 0 0 73.701 73.701" xml:space="preserve">
<path id="SEO_Training_1_" fill-rule="evenodd" clip-rule="evenodd" fill="#404041" d="M7.405,11.894h27.416V7.833h4.061v4.061
	h27.415c0.956,0,1.734,0.792,1.734,1.736v36.979c0,0.942-0.792,1.735-1.734,1.735H42.379l6.619,11.464h-4.691l-5.425-9.401v11.462
	h-4.061V54.407l-5.427,9.401h-4.689l6.619-11.464H16.978l-6.745,7.337c-0.032,0.037-0.063,0.068-0.101,0.105
	c-0.746,0.748-1.957,0.746-2.704,0c-0.745-0.746-0.746-1.956,0-2.703c0.038-0.037,0.07-0.066,0.109-0.1l5.044-4.64H7.405
	c-0.941,0-1.736-0.779-1.736-1.735V13.63C5.669,12.67,6.449,11.894,7.405,11.894L7.405,11.894z M25.935,40.064
	c0.333-0.335,0.882-0.335,1.216,0c0.335,0.335,0.335,0.882,0,1.218l-6.439,7.002h42.561c0.376,0,0.7-0.329,0.7-0.699V16.651
	c0-0.365-0.316-0.699-0.7-0.699c-16.515,0-36.328,0-52.842,0c-0.387,0-0.701,0.313-0.701,0.699v30.934
	c0,0.386,0.331,0.699,0.701,0.699h6.567L25.935,40.064z"/>
</svg>
