<?xml version="1.0" encoding="utf-8"?>
<!-- Generator: Adobe Illustrator 16.0.0, SVG Export Plug-In . SVG Version: 6.00 Build 0)  -->
<!DOCTYPE svg PUBLIC "-//W3C//DTD SVG 1.1//EN" "http://www.w3.org/Graphics/SVG/1.1/DTD/svg11.dtd">
<svg version="1.1" id="Layer_1" xmlns="http://www.w3.org/2000/svg" xmlns:xlink="http://www.w3.org/1999/xlink" x="0px" y="0px"
	 width="73.701px" height="73.701px" viewBox="0 0 73.701 73.701" enable-background="new 0 0 73.701 73.701" xml:space="preserve">
<path id="SEO_Benchmark_1_" fill-rule="evenodd" clip-rule="evenodd" fill="#404041" d="M10.369,51.254h3.134v13.985h-3.134V51.254
	L10.369,51.254z M56.004,17.203l-8.067,8.07c-1.563-0.773-3.443-0.894-5.182-0.175c-0.923,0.382-1.705,0.96-2.32,1.665l-5.636-2.333
	c0.01-0.14,0.016-0.278,0.016-0.419c0-3.46-2.807-6.267-6.268-6.267s-6.268,2.806-6.268,6.267c0,0.879,0.18,1.716,0.507,2.474
	l-8.068,8.069c-0.838-0.415-1.783-0.651-2.781-0.651c-3.462,0-6.267,2.807-6.267,6.267s2.805,6.268,6.267,6.268
	s6.268-2.808,6.268-6.268c0-0.997-0.233-1.942-0.649-2.779l7.917-7.918c0.91,0.514,1.958,0.806,3.075,0.806
	c1.882,0,3.569-0.829,4.718-2.141l5.633,2.333c-0.063,0.933,0.084,1.895,0.465,2.817c1.326,3.199,4.993,4.719,8.189,3.393
	c2.412-0.998,3.867-3.332,3.87-5.791V30.78c-0.009-0.375-0.046-0.755-0.123-1.131c-0.08-0.39-0.197-0.778-0.355-1.159
	c-0.054-0.129-0.111-0.256-0.172-0.379l7.918-7.918c0.908,0.513,1.957,0.805,3.074,0.805c3.46,0,6.268-2.806,6.268-6.267
	c0-3.462-2.808-6.268-6.268-6.268c-3.461,0-6.269,2.806-6.269,6.268C55.496,15.609,55.677,16.445,56.004,17.203L56.004,17.203z
	 M60.197,26.012h3.134v39.228h-3.134V26.012L60.197,26.012z M43.588,42.17h3.135v23.069h-3.135V42.17L43.588,42.17z M26.979,35.292
	h3.134v29.948h-3.134V35.292L26.979,35.292z M11.937,37.035c1.731,0,3.134,1.403,3.134,3.133c0,1.733-1.402,3.134-3.134,3.134
	c-1.732,0-3.134-1.4-3.134-3.134C8.802,38.438,10.205,37.035,11.937,37.035L11.937,37.035z M28.547,20.875
	c1.73,0,3.134,1.403,3.134,3.134c0,1.731-1.403,3.134-3.134,3.134s-3.134-1.402-3.134-3.134
	C25.413,22.279,26.816,20.875,28.547,20.875L28.547,20.875z M45.155,27.755c1.73,0,3.134,1.403,3.134,3.134
	c0,1.731-1.403,3.134-3.134,3.134s-3.134-1.402-3.134-3.134C42.021,29.158,43.425,27.755,45.155,27.755L45.155,27.755z
	 M61.765,11.597c1.729,0,3.134,1.402,3.134,3.134c0,1.73-1.404,3.133-3.134,3.133c-1.73,0-3.134-1.402-3.134-3.133
	C58.631,12.999,60.034,11.597,61.765,11.597z"/>
</svg>
