<?xml version="1.0" encoding="utf-8"?>
<!-- Generator: Adobe Illustrator 16.0.0, SVG Export Plug-In . SVG Version: 6.00 Build 0)  -->
<!DOCTYPE svg PUBLIC "-//W3C//DTD SVG 1.1//EN" "http://www.w3.org/Graphics/SVG/1.1/DTD/svg11.dtd">
<svg version="1.1" id="Layer_1" xmlns="http://www.w3.org/2000/svg" xmlns:xlink="http://www.w3.org/1999/xlink" x="0px" y="0px"
	 width="73.701px" height="73.701px" viewBox="0 0 73.701 73.701" enable-background="new 0 0 73.701 73.701" xml:space="preserve">
<path id="Services_Packages_1_" fill-rule="evenodd" clip-rule="evenodd" fill="#404041" d="M36.851,38.331l-9.298,4.511
	l-12.584-6.103v16.25l21.883,10.613l21.883-10.613v-16.25l-12.584,6.103L36.851,38.331L36.851,38.331z M47.792,50.811v2.495
	l-5.953,2.888v-2.495L47.792,50.811L47.792,50.811z M36.228,43.483h1.246v14.966h-1.246V43.483L36.228,43.483z M14.968,25.225
	l21.883,10.613l-9.298,4.509L5.669,29.735L14.968,25.225L14.968,25.225z M58.733,25.225l9.298,4.51L46.149,40.347l-9.299-4.509
	L58.733,25.225L58.733,25.225z M14.968,25.225l21.883-10.613l-9.298-4.511L5.669,20.714L14.968,25.225L14.968,25.225z
	 M58.733,25.225l9.298-4.511L46.149,10.101l-9.299,4.511L58.733,25.225L58.733,25.225z M36.228,18.988v7.484h1.246v-7.484H36.228
	L36.228,18.988z M36.228,28.965v2.495h1.246v-2.495H36.228z"/>
</svg>
