<?xml version="1.0" encoding="utf-8"?>
<!-- Generator: Adobe Illustrator 16.0.0, SVG Export Plug-In . SVG Version: 6.00 Build 0)  -->
<!DOCTYPE svg PUBLIC "-//W3C//DTD SVG 1.1//EN" "http://www.w3.org/Graphics/SVG/1.1/DTD/svg11.dtd">
<svg version="1.1" id="Layer_1" xmlns="http://www.w3.org/2000/svg" xmlns:xlink="http://www.w3.org/1999/xlink" x="0px" y="0px"
	 width="73.701px" height="73.701px" viewBox="0 0 73.701 73.701" enable-background="new 0 0 73.701 73.701" xml:space="preserve">
<path id="Services_Portfolio_1_" fill-rule="evenodd" clip-rule="evenodd" fill="#404041" d="M29.367,19.217v-2.929
	c0-0.581,0.477-1.06,1.062-1.06h12.846c0.583,0,1.06,0.482,1.06,1.06v2.929h3.741v-4.738c0-1.646-1.354-2.994-2.992-2.994H28.618
	c-1.639,0-2.992,1.355-2.992,2.994v4.738H29.367L29.367,19.217z M7.542,22.305H66.16c1.029,0,1.871,0.842,1.871,1.871v36.169
	c0,1.028-0.845,1.872-1.871,1.872H7.542c-1.027,0-1.872-0.841-1.872-1.872V24.176C5.669,23.146,6.512,22.305,7.542,22.305
	L7.542,22.305z M13.776,56.479c0,0.412,0.336,0.749,0.748,0.749h2.246c0.412,0,0.748-0.337,0.748-0.749V28.043
	c0-0.412-0.335-0.749-0.748-0.749h-2.246c-0.411,0-0.748,0.337-0.748,0.749V56.479L13.776,56.479z M56.184,56.479
	c0,0.412,0.337,0.749,0.748,0.749h2.245c0.411,0,0.748-0.337,0.748-0.749V28.043c0-0.412-0.337-0.749-0.748-0.749h-2.245
	c-0.411,0-0.748,0.337-0.748,0.749V56.479z"/>
</svg>
