<?xml version="1.0" encoding="utf-8"?>
<!-- Generator: Adobe Illustrator 16.0.0, SVG Export Plug-In . SVG Version: 6.00 Build 0)  -->
<!DOCTYPE svg PUBLIC "-//W3C//DTD SVG 1.1//EN" "http://www.w3.org/Graphics/SVG/1.1/DTD/svg11.dtd">
<svg version="1.1" id="Layer_1" xmlns="http://www.w3.org/2000/svg" xmlns:xlink="http://www.w3.org/1999/xlink" x="0px" y="0px"
	 width="73.701px" height="73.701px" viewBox="0 0 73.701 73.701" enable-background="new 0 0 73.701 73.701" xml:space="preserve">
<path id="Smart_Alerts_1_" fill-rule="evenodd" clip-rule="evenodd" fill="#404041" d="M43.011,12.876
	c8.007,2.595,13.796,10.114,13.796,18.985v12.585c0.059,2.663,2.201,4.81,4.86,4.876h5.741c0.343,0,0.623,0.28,0.623,0.624v3.741
	c0,0.344-0.28,0.624-0.623,0.624c-20.371,0-40.744,0-61.114,0c-0.344,0-0.625-0.28-0.625-0.624v-3.741
	c0-0.344,0.281-0.624,0.625-0.624h5.741c2.658-0.066,4.801-2.213,4.861-4.876V31.862c0-8.872,5.789-16.39,13.796-18.985
	c-0.049-0.315-0.078-0.64-0.078-0.971c0-3.443,2.793-6.236,6.236-6.236s6.236,2.793,6.236,6.236
	C43.087,12.236,43.06,12.562,43.011,12.876L43.011,12.876z M36.851,16.896h-0.032h-0.031c-5.492,0.023-10.285,3.003-12.869,7.434
	l-0.016,0.026l-0.015,0.023c-0.106,0.183-0.167,0.396-0.167,0.623c0,0.689,0.56,1.248,1.248,1.248c0.461,0,0.865-0.252,1.08-0.625
	l0.001-0.003l0.016-0.026c2.16-3.709,6.18-6.206,10.785-6.206c0.688,0,1.247-0.559,1.247-1.248
	C38.098,17.454,37.539,16.896,36.851,16.896L36.851,16.896z M24.378,34.357v-0.033v-2.429v-0.033c0-0.689-0.559-1.248-1.246-1.248
	c-0.69,0-1.249,0.559-1.249,1.248v0.033v2.429v0.033c0,0.689,0.559,1.248,1.249,1.248C23.819,35.604,24.378,35.046,24.378,34.357
	L24.378,34.357z M44.431,58.676c-1.51,2.611-4.332,4.367-7.563,4.367s-6.056-1.756-7.564-4.367h-5.447
	c1.825,5.438,6.958,9.355,13.011,9.355c6.05,0,11.186-3.917,13.009-9.355H44.431z"/>
</svg>
