<?xml version="1.0" encoding="utf-8"?>
<!-- Generator: Adobe Illustrator 16.0.0, SVG Export Plug-In . SVG Version: 6.00 Build 0)  -->
<!DOCTYPE svg PUBLIC "-//W3C//DTD SVG 1.1//EN" "http://www.w3.org/Graphics/SVG/1.1/DTD/svg11.dtd">
<svg version="1.1" id="Layer_1" xmlns="http://www.w3.org/2000/svg" xmlns:xlink="http://www.w3.org/1999/xlink" x="0px" y="0px"
	 width="73.701px" height="73.701px" viewBox="0 0 73.701 73.701" enable-background="new 0 0 73.701 73.701" xml:space="preserve">
<path id="Social_Integration_1_" fill-rule="evenodd" clip-rule="evenodd" fill="#404041" d="M23.175,37.045v24.857
	c0.029,0.563,0.468,1.019,1.025,1.072c4.317,0.226,8.428,1.225,12.203,2.854c6.818,1.689,22.204,2.489,26.462-4.684
	c0.749-1.26-0.328-3.115,0.734-4.262c1.106-1.192,3.075-2.699,3.075-4.281c0-0.888-0.648-2.118-0.985-3.11
	c-0.604-1.776-0.246-2.063,1.434-3.9c1.365-1.491,1.049-2.14-0.005-3.831c-0.275-0.44-0.98-1.59-1.066-2.089
	c-0.477-2.678,3.175-2.749-0.099-7.62c-1.606-2.411-2.805-3.184-5.739-3.292H47.063c-2.065,0,1.178-6.613,2.673-8.843
	c5.706-8.509-2.349-15.366-6.89-12.559c-0.669,6.692-4.11,12.567-9.158,16.463c-5.104,4.725-3.615,10.076-9.764,12.2h0.007
	C23.504,36.173,23.193,36.573,23.175,37.045L23.175,37.045z M6.643,33.761h12.411c0.534,0,0.972,0.437,0.972,0.972v29.724
	c0,0.535-0.438,0.972-0.972,0.972H6.643c-0.536,0-0.974-0.437-0.974-0.972V34.733C5.669,34.198,6.107,33.761,6.643,33.761z"/>
</svg>
