<?xml version="1.0" encoding="utf-8"?>
<!-- Generator: Adobe Illustrator 16.0.0, SVG Export Plug-In . SVG Version: 6.00 Build 0)  -->
<!DOCTYPE svg PUBLIC "-//W3C//DTD SVG 1.1//EN" "http://www.w3.org/Graphics/SVG/1.1/DTD/svg11.dtd">
<svg version="1.1" id="Layer_1" xmlns="http://www.w3.org/2000/svg" xmlns:xlink="http://www.w3.org/1999/xlink" x="0px" y="0px"
	 width="73.701px" height="73.701px" viewBox="0 0 73.701 73.701" enable-background="new 0 0 73.701 73.701" xml:space="preserve">
<path id="Social_Media_Press_Release_1_" fill-rule="evenodd" clip-rule="evenodd" fill="#404041" d="M36.851,23.736L68.031,8.865
	c0.002,13.7,0,27.4,0,41.102l-31.178,14.87L5.67,49.967c0-13.702-0.003-27.402,0-41.102L36.851,23.736L36.851,23.736z
	 M34.903,27.118L9.561,15.032c0,10.825,0,21.648,0,32.474l25.342,12.092C34.903,48.771,34.903,37.943,34.903,27.118L34.903,27.118z
	 M38.794,27.121c0,10.825,0,21.65,0,32.478l25.347-12.093c0-10.826,0-21.648,0-32.474L38.794,27.121L38.794,27.121z M42.199,32.377
	v1.871l18.535-8.843v-1.871L42.199,32.377L42.199,32.377z M42.199,49.216v1.869l6.449-3.075v-1.873L42.199,49.216L42.199,49.216z
	 M42.199,43.604v1.869l6.449-3.078v-1.871L42.199,43.604L42.199,43.604z M52.249,38.809v7.482l8.485-4.049v-7.484L52.249,38.809
	L52.249,38.809z M42.199,37.989v1.872l18.535-8.844v-1.871L42.199,37.989L42.199,37.989z M12.967,23.535V36.63l8.485,4.05V27.583
	L12.967,23.535L12.967,23.535z M12.967,40.373v1.869l18.531,8.843v-1.872L12.967,40.373L12.967,40.373z M25.05,40.524v1.872
	l6.448,3.075v-1.87L25.05,40.524L25.05,40.524z M25.05,34.913v1.872l6.448,3.076v-1.871L25.05,34.913L25.05,34.913z M25.05,29.301
	v1.871l6.448,3.077v-1.871L25.05,29.301z"/>
</svg>
