<?xml version="1.0" encoding="utf-8"?>
<!-- Generator: Adobe Illustrator 16.0.0, SVG Export Plug-In . SVG Version: 6.00 Build 0)  -->
<!DOCTYPE svg PUBLIC "-//W3C//DTD SVG 1.1//EN" "http://www.w3.org/Graphics/SVG/1.1/DTD/svg11.dtd">
<svg version="1.1" id="Layer_1" xmlns="http://www.w3.org/2000/svg" xmlns:xlink="http://www.w3.org/1999/xlink" x="0px" y="0px"
	 width="73.701px" height="73.701px" viewBox="0 0 73.701 73.701" enable-background="new 0 0 73.701 73.701" xml:space="preserve">
<path id="Social_Engagement_1_" fill="#404041" d="M68.028,68.015L53.159,56.94L38.7,56.923c-1.016,0-1.838-0.825-1.838-1.84
	c0-1.016,0.822-1.838,1.838-1.838h15.553L64.331,60.7v-5.609c0-1.021,0.826-1.85,1.848-1.85c1.02,0,1.85,0.828,1.85,1.85V68.015
	L68.028,68.015z M11.905,5.686c-3.434,0-6.235,2.804-6.235,6.237v30.099c0,3.429,2.821,6.229,6.233,6.233L11.89,58.97l14.436-10.715
	h35.472c3.403,0,6.235-2.834,6.235-6.233V11.924c0-3.407-2.805-6.237-6.235-6.237L11.905,5.686L11.905,5.686z M23.129,33.208h1.247
	c0.343,0,0.623,0.289,0.623,0.623v1.248c0,0.336-0.287,0.625-0.623,0.625h-1.247c-0.337,0-0.624-0.281-0.624-0.625v-1.248
	C22.505,33.489,22.786,33.208,23.129,33.208L23.129,33.208z M18.139,33.208h1.248c0.343,0,0.624,0.289,0.624,0.623v1.248
	c0,0.336-0.289,0.625-0.624,0.625h-1.248c-0.335,0-0.623-0.281-0.623-0.625v-1.248C17.516,33.489,17.796,33.208,18.139,33.208
	L18.139,33.208z M50.573,18.242c0.289,0,0.623,0.28,0.623,0.624v1.248c0,0.343-0.279,0.624-0.623,0.624h-9.354
	c-0.343,0-0.623-0.307-0.623-0.624v-1.248c0-0.316,0.308-0.624,0.623-0.624H50.573L50.573,18.242z M36.229,18.242h1.248
	c0.345,0,0.623,0.295,0.623,0.624v1.248c0,0.328-0.295,0.624-0.623,0.624h-1.248c-0.327,0-0.622-0.281-0.622-0.624v-1.248
	C35.606,18.521,35.887,18.242,36.229,18.242L36.229,18.242z M32.487,18.242c0.311,0,0.623,0.28,0.623,0.624v1.248
	c0,0.343-0.279,0.624-0.623,0.624H18.144c-0.342,0-0.623-0.297-0.623-0.624v-1.248c0-0.327,0.297-0.624,0.623-0.624H32.487
	L32.487,18.242z M38.1,25.725h17.463c0.343,0,0.623,0.299,0.623,0.624v1.247c0,0.325-0.3,0.624-0.623,0.624H38.1
	c-0.323,0-0.623-0.281-0.623-0.624v-1.247C37.477,26.005,37.757,25.725,38.1,25.725L38.1,25.725z M18.144,25.725h7.484
	c0.343,0,0.624,0.287,0.624,0.624v1.247c0,0.337-0.287,0.624-0.624,0.624h-7.484c-0.336,0-0.624-0.281-0.624-0.624v-1.247
	C17.521,26.005,17.802,25.725,18.144,25.725L18.144,25.725z M29.37,25.725h4.988c0.344,0,0.625,0.287,0.625,0.624v1.247
	c0,0.337-0.287,0.624-0.625,0.624H29.37c-0.338,0-0.625-0.281-0.625-0.624v-1.247C28.745,26.005,29.026,25.725,29.37,25.725
	L29.37,25.725z M28.116,33.208h11.227c0.343,0,0.623,0.299,0.623,0.623v1.248c0,0.325-0.299,0.625-0.623,0.625H28.116
	c-0.324,0-0.623-0.281-0.623-0.625v-1.248C27.493,33.489,27.774,33.208,28.116,33.208z"/>
</svg>
