<?xml version="1.0" encoding="utf-8"?>
<!-- Generator: Adobe Illustrator 16.0.0, SVG Export Plug-In . SVG Version: 6.00 Build 0)  -->
<!DOCTYPE svg PUBLIC "-//W3C//DTD SVG 1.1//EN" "http://www.w3.org/Graphics/SVG/1.1/DTD/svg11.dtd">
<svg version="1.1" id="Layer_1" xmlns="http://www.w3.org/2000/svg" xmlns:xlink="http://www.w3.org/1999/xlink" x="0px" y="0px"
	 width="73.701px" height="73.701px" viewBox="0 0 73.701 73.701" enable-background="new 0 0 73.701 73.701" xml:space="preserve">
<path id="Social_Media_Marketing_2_" fill-rule="evenodd" clip-rule="evenodd" fill="#404041" d="M46.374,38.24
	c-1.035-0.379-1.905-0.742-2.63-1.115c-0.076-0.219,0.07-0.518,0.113-1.172c0.032-0.504-0.12-0.625-0.553-0.625
	c-0.544,0-1.268,0.313-1.77,0.166l-0.309-2.267c1.234-0.459,1.488-2.281,1.488-3.648c2.072-0.424,2.43-5.155,0.896-5.43
	c-0.203-0.531,1.399-5.178-0.273-7.795c-1.189-1.863-4.635-2.902-7.145-2.902c-2.028,0-4.096,0.31-3.362,2.053
	c-5.398,1.128-2.832,4.966-2.832,8.655c-1.819,0.62-0.399,5.32,1.152,5.458c0.227,2.082,0.95,3.626,1.762,3.761l-0.238,2.078
	c-0.471,0-2.355-0.552-2.248,0.385l0.111,0.965c-0.845,0.52-1.805,0.92-3.211,1.434c-2.84,1.033-5.042,2.082-6.255,2.997
	l0.931,9.692l14.847,9.32l14.849-9.32l0.931-9.692C51.416,40.322,49.214,39.276,46.374,38.24L46.374,38.24z M58.546,36.822
	c0.374,1.552,1.646,2.461,4.505,3.502c2.264,0.826,4.014,1.662,4.98,2.387l-0.982,8.219H54.635l1.076-11.278
	c-1.021-0.755-2.216-1.458-3.563-2.125c0.116-0.229,0.202-0.474,0.262-0.737v-0.333c-1.488-0.15-2.691-0.607-3.551-1.218
	c0.348-0.285,0.519-0.799,0.474-1.332c-0.424,0.474-1.059,0.754-1.918,0.847c2.666-2.181,2.136-5.435,2.736-8.445
	c0.256-1.301,0.529-2.666,1.521-3.643c0.922-0.908,2.333-1.446,3.806-1.45c1.473,0.004,2.886,0.542,3.808,1.45
	c0.989,0.977,1.263,2.342,1.52,3.643c0.601,3.01,0.07,6.264,2.735,8.445c-0.859-0.093-1.493-0.373-1.916-0.847
	c-0.046,0.533,0.125,1.047,0.474,1.332c-0.859,0.611-2.063,1.068-3.551,1.218V36.822L58.546,36.822z M13.557,31.969
	c-1.43-0.391-1.814-3.678-0.793-3.938c-0.097-0.475-0.326-0.887-0.089-1.685c-0.348,0.021-0.595,0.035-0.924,0.339
	c0.018-0.399,0.789-1.49,0.987-1.796c0.102-0.158,0.195-0.297,0.28-0.416c0.431-2.009,2.088-2.783,3.107-3.218
	c0.154,0.187,0.816,0.399,1.215,0.375c-0.052-0.428,0.028-1.041,1.397-1.68c-0.082,2.052,4.529,1.438,4.967,4.409
	c0.145,0.982-0.06,2.019-0.075,3.652c0.82-0.25,1.539,2.701-0.346,3.961c-0.241,2.569-2.003,3.124-2.09,4.156
	c0.041,0.526,0.155,0.986,0.361,1.397c-1.349,0.667-2.543,1.37-3.564,2.125l1.076,11.278H6.65l-0.981-8.219
	c0.967-0.725,2.716-1.561,4.979-2.387c1.44-0.524,4.001-1.52,4.425-3.217c0.068-0.331,0.224-1.014,0.109-1.281
	C14.694,34.695,13.584,34.125,13.557,31.969z"/>
</svg>
