<?xml version="1.0" encoding="utf-8"?>
<!-- Generator: Adobe Illustrator 16.0.0, SVG Export Plug-In . SVG Version: 6.00 Build 0)  -->
<!DOCTYPE svg PUBLIC "-//W3C//DTD SVG 1.1//EN" "http://www.w3.org/Graphics/SVG/1.1/DTD/svg11.dtd">
<svg version="1.1" id="Layer_1" xmlns="http://www.w3.org/2000/svg" xmlns:xlink="http://www.w3.org/1999/xlink" x="0px" y="0px"
	 width="73.701px" height="73.701px" viewBox="0 0 73.701 73.701" enable-background="new 0 0 73.701 73.701" xml:space="preserve">
<path id="Social_Media_Collaboration_1_" fill-rule="evenodd" clip-rule="evenodd" fill="#404041" d="M36.851,44.997
	c2.081,0,4.021,0.604,5.653,1.645c-0.088-1.935,0.361-3.916,1.4-5.718c1.04-1.802,2.531-3.181,4.251-4.073
	c-1.72-0.893-3.211-2.271-4.251-4.072c-1.039-1.802-1.486-3.784-1.4-5.719c-1.635,1.041-3.572,1.646-5.653,1.646
	s-4.021-0.604-5.652-1.646c0.086,1.935-0.362,3.917-1.402,5.719c-1.041,1.801-2.53,3.18-4.25,4.072
	c1.719,0.893,3.209,2.271,4.25,4.073s1.488,3.783,1.402,5.718C32.832,45.601,34.77,44.997,36.851,44.997L36.851,44.997z
	 M10.272,47.787c-1.582-0.146-3.068-1.031-3.923-2.511c-1.398-2.42-0.569-5.516,1.851-6.913c1.703-0.982,3.741-0.865,5.285,0.136
	c0.576-0.537,1.221-1.019,1.932-1.428l0.402-0.221l-0.402-0.221c-5.036-2.906-6.76-9.344-3.854-14.379
	c0.674-1.166,1.538-2.155,2.528-2.95c-0.665-1.442-0.642-3.173,0.212-4.654c1.396-2.419,4.493-3.249,6.913-1.851
	c1.704,0.982,2.618,2.806,2.525,4.644c0.753,0.229,1.492,0.548,2.203,0.958l0.391,0.237l-0.011-0.458
	c0-5.814,4.712-10.527,10.527-10.527c1.348,0,2.634,0.253,3.817,0.714c0.916-1.296,2.429-2.143,4.138-2.143
	c2.794,0,5.061,2.266,5.061,5.061c0,1.966-1.122,3.67-2.761,4.508c0.178,0.766,0.271,1.566,0.271,2.386l-0.011,0.458l0.392-0.237
	c5.035-2.908,11.473-1.183,14.38,3.853c0.673,1.166,1.099,2.408,1.292,3.664c1.581,0.145,3.068,1.029,3.923,2.51
	c1.398,2.42,0.568,5.516-1.852,6.913c-1.703,0.983-3.741,0.865-5.285-0.136c-0.576,0.537-1.221,1.018-1.931,1.428l-0.402,0.221
	l0.402,0.221c5.035,2.907,6.76,9.344,3.853,14.38c-0.673,1.166-1.537,2.154-2.528,2.949c0.666,1.442,0.644,3.173-0.212,4.653
	c-1.396,2.421-4.493,3.25-6.912,1.853c-1.703-0.983-2.618-2.807-2.525-4.646c-0.753-0.229-1.49-0.547-2.202-0.957l-0.392-0.237
	l0.011,0.458c0,5.813-4.713,10.526-10.526,10.526c-1.347,0-2.633-0.254-3.818-0.715c-0.917,1.296-2.428,2.143-4.136,2.143
	c-2.795,0-5.061-2.266-5.061-5.061c0-1.966,1.121-3.671,2.76-4.509c-0.177-0.765-0.271-1.565-0.271-2.385l0.011-0.458l-0.391,0.237
	c-5.036,2.906-11.474,1.182-14.38-3.853C10.89,50.285,10.465,49.042,10.272,47.787z"/>
</svg>
