<?xml version="1.0" encoding="utf-8"?>
<!-- Generator: Adobe Illustrator 16.0.0, SVG Export Plug-In . SVG Version: 6.00 Build 0)  -->
<!DOCTYPE svg PUBLIC "-//W3C//DTD SVG 1.1//EN" "http://www.w3.org/Graphics/SVG/1.1/DTD/svg11.dtd">
<svg version="1.1" id="Layer_1" xmlns="http://www.w3.org/2000/svg" xmlns:xlink="http://www.w3.org/1999/xlink" x="0px" y="0px"
	 width="73.701px" height="73.701px" viewBox="0 0 73.701 73.701" enable-background="new 0 0 73.701 73.701" xml:space="preserve">
<path id="Social_Media_Cloud_1_" fill-rule="evenodd" clip-rule="evenodd" fill="#404041" d="M18.728,53.013
	c-0.195,0.009-0.39,0.014-0.586,0.014c-6.888,0-12.472-5.584-12.472-12.472c0-6.209,4.538-11.358,10.476-12.313
	c1.765-4.742,6.333-8.121,11.69-8.121c1.716,0,3.352,0.347,4.84,0.974c2.683-4.711,7.75-7.888,13.558-7.888
	c8.61,0,15.59,6.979,15.59,15.592c0,1.298-0.157,2.56-0.458,3.767c3.907,1.563,6.667,5.382,6.667,9.847
	c0,5.854-4.748,10.601-10.602,10.601H42.465v1.87c0,3.1-2.513,5.612-5.612,5.612h-5.616v-3.741h5.616
	c1.032,0,1.871-0.838,1.871-1.871v-1.87H18.728L18.728,53.013z M38.721,40.19l-4.302,4.305l-2.647-2.646l8.821-8.82l8.821,8.82
	l-2.646,2.646l-4.305-4.305l0.002,9.097c8.047-0.001,14.966-0.004,14.966-0.016c3.788,0,6.859-3.072,6.859-6.859
	c0-3.788-3.071-6.861-6.859-6.861c-0.549,0-1.083,0.066-1.594,0.188c0.845-1.166,1.48-2.494,1.857-3.926
	c0.253-0.963,0.388-1.973,0.388-3.015c0-6.545-5.305-11.849-11.849-11.849c-5.926,0-10.835,4.348-11.712,10.03
	c-0.882-1.051-2.01-1.891-3.293-2.434c-1.042-0.441-2.19-0.683-3.393-0.683c-4.582,0-8.339,3.529-8.703,8.018
	c-0.324-0.039-0.656-0.057-0.991-0.057c-0.969,0-1.902,0.161-2.774,0.453c-3.462,1.159-5.956,4.427-5.956,8.279
	c0,4.821,3.909,8.731,8.729,8.731l20.582,0.001L38.721,40.19L38.721,40.19z M46.206,56.754v3.741h3.742v-3.741H46.206L46.206,56.754
	z M23.753,56.754v3.741h3.741v-3.741H23.753z"/>
</svg>
