<?xml version="1.0" encoding="utf-8"?>
<!-- Generator: Adobe Illustrator 16.0.0, SVG Export Plug-In . SVG Version: 6.00 Build 0)  -->
<!DOCTYPE svg PUBLIC "-//W3C//DTD SVG 1.1//EN" "http://www.w3.org/Graphics/SVG/1.1/DTD/svg11.dtd">
<svg version="1.1" id="Layer_1" xmlns="http://www.w3.org/2000/svg" xmlns:xlink="http://www.w3.org/1999/xlink" x="0px" y="0px"
	 width="73.701px" height="73.701px" viewBox="0 0 73.701 73.701" enable-background="new 0 0 73.701 73.701" xml:space="preserve">
<path id="Strategy__x26__Consultancy_1_" fill-rule="evenodd" clip-rule="evenodd" fill="#404041" d="M11.904,9.588h49.892
	c3.433,0,6.235,2.822,6.235,6.236v31.339c0,3.409-2.822,6.233-6.235,6.233H26.325L11.89,64.113l0.011-10.717
	c-3.41-0.001-6.232-2.806-6.232-6.233V15.824C5.669,12.392,8.473,9.588,11.904,9.588L11.904,9.588z M23.128,37.73
	c-0.342,0-0.623,0.28-0.623,0.624v1.246c0,0.344,0.288,0.625,0.623,0.625h1.248c0.335,0,0.625-0.288,0.625-0.625v-1.246
	c0-0.335-0.281-0.624-0.625-0.624H23.128L23.128,37.73z M18.139,37.73c-0.342,0-0.623,0.28-0.623,0.624v1.246
	c0,0.344,0.288,0.625,0.623,0.625h1.248c0.335,0,0.623-0.288,0.623-0.625v-1.246c0-0.335-0.279-0.624-0.623-0.624H18.139
	L18.139,37.73z M50.573,22.764h-9.355c-0.316,0-0.623,0.307-0.623,0.623v1.248c0,0.316,0.28,0.624,0.623,0.624h9.355
	c0.343,0,0.623-0.28,0.623-0.624v-1.248C51.196,23.044,50.862,22.764,50.573,22.764L50.573,22.764z M36.229,22.764
	c-0.342,0-0.623,0.28-0.623,0.623v1.248c0,0.343,0.295,0.624,0.623,0.624h1.248c0.328,0,0.624-0.295,0.624-0.624v-1.248
	c0-0.328-0.28-0.623-0.624-0.623H36.229L36.229,22.764z M32.488,22.764H18.144c-0.325,0-0.623,0.296-0.623,0.623v1.248
	c0,0.327,0.281,0.624,0.623,0.624h14.344c0.342,0,0.623-0.28,0.623-0.624v-1.248C33.111,23.044,32.799,22.764,32.488,22.764
	L32.488,22.764z M38.101,30.248c-0.344,0-0.624,0.281-0.624,0.623v1.248c0,0.342,0.299,0.623,0.624,0.623h17.462
	c0.323,0,0.623-0.299,0.623-0.623v-1.248c0-0.325-0.281-0.623-0.623-0.623H38.101L38.101,30.248z M18.145,30.248
	c-0.344,0-0.625,0.281-0.625,0.623v1.248c0,0.342,0.288,0.623,0.625,0.623h7.483c0.337,0,0.623-0.287,0.623-0.623v-1.248
	c0-0.337-0.281-0.623-0.623-0.623H18.145L18.145,30.248z M29.37,30.248c-0.344,0-0.623,0.281-0.623,0.623v1.248
	c0,0.342,0.287,0.623,0.623,0.623h4.989c0.336,0,0.623-0.287,0.623-0.623v-1.248c0-0.337-0.279-0.623-0.623-0.623H29.37
	L29.37,30.248z M28.118,37.73c-0.344,0-0.625,0.28-0.625,0.624v1.246c0,0.344,0.298,0.625,0.625,0.625h11.225
	c0.325,0,0.623-0.298,0.623-0.625v-1.246c0-0.326-0.28-0.624-0.623-0.624H28.118z"/>
</svg>
