<?xml version="1.0" encoding="utf-8"?>
<!-- Generator: Adobe Illustrator 16.0.0, SVG Export Plug-In . SVG Version: 6.00 Build 0)  -->
<!DOCTYPE svg PUBLIC "-//W3C//DTD SVG 1.1//EN" "http://www.w3.org/Graphics/SVG/1.1/DTD/svg11.dtd">
<svg version="1.1" id="Layer_1" xmlns="http://www.w3.org/2000/svg" xmlns:xlink="http://www.w3.org/1999/xlink" x="0px" y="0px"
	 width="73.701px" height="73.701px" viewBox="0 0 73.701 73.701" enable-background="new 0 0 73.701 73.701" xml:space="preserve">
<path id="Support_Services_1_" fill-rule="evenodd" clip-rule="evenodd" fill="#404041" d="M18.698,11.492
	c10.818-7.764,25.488-7.764,36.306,0L44.136,22.361c-4.571-2.299-10.002-2.3-14.571,0L18.698,11.492L18.698,11.492z M62.208,18.697
	L51.34,29.565c2.3,4.57,2.299,10.001,0,14.57l10.868,10.868C69.973,44.184,69.973,29.517,62.208,18.697L62.208,18.697z
	 M55.004,62.208c-10.818,7.767-25.488,7.764-36.306,0l10.867-10.865c4.569,2.297,10,2.297,14.571,0L55.004,62.208L55.004,62.208z
	 M11.492,55.004l10.867-10.868c-2.299-4.569-2.299-10,0-14.57L11.492,18.698C3.729,29.517,3.729,44.184,11.492,55.004z"/>
</svg>
