<?xml version="1.0" encoding="utf-8"?>
<!-- Generator: Adobe Illustrator 16.0.0, SVG Export Plug-In . SVG Version: 6.00 Build 0)  -->
<!DOCTYPE svg PUBLIC "-//W3C//DTD SVG 1.1//EN" "http://www.w3.org/Graphics/SVG/1.1/DTD/svg11.dtd">
<svg version="1.1" id="Layer_1" xmlns="http://www.w3.org/2000/svg" xmlns:xlink="http://www.w3.org/1999/xlink" x="0px" y="0px"
	 width="73.701px" height="73.701px" viewBox="0 0 73.701 73.701" enable-background="new 0 0 73.701 73.701" xml:space="preserve">
<path id="Target_Keywords_1_" fill-rule="evenodd" clip-rule="evenodd" fill="#404041" d="M34.357,19.391v-3.599
	c-9.717,1.14-17.422,8.848-18.563,18.564h3.595c0.688,0,1.249,0.562,1.249,1.246v2.494c0,0.688-0.561,1.249-1.249,1.249h-3.595
	c1.141,9.717,8.846,17.422,18.563,18.563v-3.596c0-0.688,0.562-1.249,1.247-1.249H38.1c0.685,0,1.246,0.562,1.246,1.249v3.596
	c9.716-1.141,17.422-8.846,18.562-18.563h-3.596c-0.687,0-1.248-0.562-1.248-1.249v-2.494c0-0.685,0.562-1.246,1.248-1.246h3.596
	c-1.14-9.716-8.846-17.425-18.562-18.564v3.599c0,0.685-0.562,1.246-1.246,1.246h-2.496C34.918,20.637,34.357,20.075,34.357,19.391
	L34.357,19.391z M36.852,26.872c5.51,0,9.979,4.468,9.979,9.978c0,5.512-4.469,9.978-9.979,9.978c-5.511,0-9.979-4.466-9.979-9.978
	C26.873,31.34,31.34,26.872,36.852,26.872L36.852,26.872z M39.346,10.775c12.475,1.178,22.4,11.105,23.58,23.582h3.857
	c0.688,0,1.249,0.562,1.249,1.246v2.494c0,0.688-0.562,1.249-1.249,1.249h-3.857c-1.18,12.475-11.105,22.4-23.58,23.581v3.858
	c0,0.685-0.562,1.246-1.246,1.246h-2.496c-0.685,0-1.247-0.562-1.247-1.246v-3.858c-12.475-1.181-22.401-11.106-23.58-23.581H6.916
	c-0.685,0-1.246-0.562-1.246-1.249v-2.494c0-0.685,0.562-1.246,1.246-1.246h3.861c1.179-12.477,11.105-22.403,23.58-23.582V6.918
	c0-0.688,0.562-1.249,1.247-1.249H38.1c0.685,0,1.246,0.562,1.246,1.249V10.775z"/>
</svg>
