<?xml version="1.0" encoding="utf-8"?>
<!-- Generator: Adobe Illustrator 16.0.0, SVG Export Plug-In . SVG Version: 6.00 Build 0)  -->
<!DOCTYPE svg PUBLIC "-//W3C//DTD SVG 1.1//EN" "http://www.w3.org/Graphics/SVG/1.1/DTD/svg11.dtd">
<svg version="1.1" id="Layer_1" xmlns="http://www.w3.org/2000/svg" xmlns:xlink="http://www.w3.org/1999/xlink" x="0px" y="0px"
	 width="73.701px" height="73.701px" viewBox="0 0 73.701 73.701" enable-background="new 0 0 73.701 73.701" xml:space="preserve">
<path id="Target_Audience_1_" fill-rule="evenodd" clip-rule="evenodd" fill="#404041" d="M14.786,41.476
	c0.026,2.036,1.074,2.575,1.534,3.641c0.109,0.252-0.04,0.896-0.103,1.211c-0.401,1.604-2.817,2.54-4.178,3.036
	c-2.134,0.779-3.786,1.568-4.698,2.254l0.927,7.756h11.716l-1.016-10.646c0.965-0.712,2.093-1.377,3.365-2.006
	c-0.193-0.388-0.302-0.822-0.341-1.319c0.083-0.974,1.746-1.496,1.973-3.921c1.78-1.19,1.103-3.977,0.328-3.738
	c0.015-1.543,0.207-2.521,0.07-3.448c-0.413-2.805-4.765-2.226-4.688-4.162c-1.292,0.604-1.368,1.183-1.317,1.585
	c-0.377,0.023-1.001-0.178-1.149-0.354c-0.961,0.411-2.525,1.142-2.932,3.037c-0.082,0.115-0.167,0.245-0.266,0.394
	c-0.185,0.288-0.913,1.319-0.928,1.696c0.31-0.288,0.543-0.301,0.871-0.319c-0.224,0.752-0.007,1.14,0.086,1.59
	C13.073,38.007,13.436,41.107,14.786,41.476L14.786,41.476z M45.702,47.584c2.637,0.964,4.684,1.936,5.811,2.786l-0.865,9.003
	l-13.792,8.658l-13.792-8.658l-0.865-9.003c1.125-0.851,3.172-1.823,5.811-2.784c1.308-0.478,2.199-0.85,2.984-1.332l-0.104-0.896
	c-0.1-0.871,1.65-0.358,2.088-0.358l0.221-1.931c-0.753-0.123-1.427-1.557-1.637-3.493c-1.441-0.128-2.76-4.494-1.068-5.071
	c0-3.426-2.385-6.991,2.629-8.04c-0.682-1.618,1.239-1.906,3.123-1.906c2.332,0,5.533,0.965,6.637,2.696
	c1.554,2.43,0.064,6.748,0.254,7.242c1.425,0.255,1.093,4.649-0.832,5.043c0,1.271-0.236,2.963-1.381,3.391l0.285,2.105
	c0.465,0.136,1.137-0.153,1.644-0.153c0.401,0,0.543,0.111,0.513,0.578c-0.04,0.607-0.176,0.889-0.105,1.09
	C43.934,46.896,44.741,47.233,45.702,47.584L45.702,47.584z M59.811,21.095c-4.125-1.392-7.589-4.224-9.79-7.899
	c-3.247,2.875-7.915,4.679-13.107,4.679c-5.193,0-9.861-1.805-13.107-4.679c-2.227,3.712-5.739,6.567-9.92,7.945L8.797,34.802
	L5.732,9.137C5.499,7.342,6.98,5.72,8.765,5.669h56.187c1.854,0.053,3.113,1.573,3.039,3.386l-3.075,25.747L59.811,21.095
	L59.811,21.095z M57.42,46.049v-0.347c1.406-0.142,2.542-0.571,3.353-1.15c-0.328-0.268-0.488-0.755-0.446-1.256
	c0.4,0.445,0.999,0.712,1.811,0.799c-2.517-2.061-2.016-5.133-2.583-7.976c-0.243-1.229-0.501-2.52-1.438-3.442
	c-0.868-0.858-2.203-1.365-3.594-1.369c-1.393,0.004-2.725,0.511-3.597,1.369c-0.934,0.922-1.193,2.213-1.436,3.442
	c-0.565,2.843-0.065,5.916-2.582,7.976c0.811-0.087,1.409-0.354,1.811-0.799c0.041,0.501-0.12,0.988-0.448,1.256
	c0.812,0.579,1.949,1.009,3.353,1.15v0.315c-0.055,0.249-0.136,0.481-0.246,0.697c1.273,0.629,2.402,1.293,3.367,2.005
	l-1.019,10.653H65.45l0.929-7.763c-0.914-0.686-2.565-1.474-4.702-2.253C58.976,48.373,57.773,47.514,57.42,46.049z"/>
</svg>
