<?xml version="1.0" encoding="utf-8"?>
<!-- Generator: Adobe Illustrator 16.0.0, SVG Export Plug-In . SVG Version: 6.00 Build 0)  -->
<!DOCTYPE svg PUBLIC "-//W3C//DTD SVG 1.1//EN" "http://www.w3.org/Graphics/SVG/1.1/DTD/svg11.dtd">
<svg version="1.1" id="Layer_1" xmlns="http://www.w3.org/2000/svg" xmlns:xlink="http://www.w3.org/1999/xlink" x="0px" y="0px"
	 width="73.701px" height="73.701px" viewBox="0 0 73.701 73.701" enable-background="new 0 0 73.701 73.701" xml:space="preserve">
<path id="Users_Flow_1_" fill-rule="evenodd" clip-rule="evenodd" fill="#404041" d="M61.753,42.016
	c-11.773,1.851-21.293,8.809-24.902,17.911c-3.608-9.103-13.127-16.061-24.9-17.911l2.466-1.998l-1.962-2.424l-6.785,5.494
	l5.494,6.785l2.424-1.962l-2.302-2.842c13.672,2.071,24.007,11.563,24.007,22.961h3.118c0-11.398,10.334-20.89,24.007-22.961
	l-2.302,2.842l2.424,1.962l5.492-6.785l-6.783-5.494l-1.962,2.424L61.753,42.016L61.753,42.016z M49.072,36.045
	c2.486,0.908,4.595,1.822,6.176,2.684l-0.215,2.24C47.32,43.4,40.904,47.931,36.852,53.691c-4.052-5.759-10.467-10.289-18.18-12.72
	l-0.216-2.242c1.583-0.863,3.688-1.777,6.176-2.683c1.805-0.659,3.036-1.174,4.122-1.84l-0.145-1.239
	c-0.136-1.202,2.28-0.496,2.884-0.496l0.307-2.664c-1.042-0.172-1.971-2.154-2.262-4.826c-1.989-0.176-3.813-6.209-1.478-7.002
	c0-4.735-3.293-8.229,3.634-9.675c-0.941-2.237,1.711-2.634,4.315-2.634c3.22,0,7.642,1.332,9.167,3.723
	c2.146,3.358,0.089,7.892,0.35,8.574c1.969,0.352,1.508,6.419-1.15,6.965c0,1.753-0.325,4.09-1.908,4.681l0.396,2.91
	c0.644,0.188,1.571-0.213,2.271-0.213c0.555,0,0.751,0.156,0.706,0.802c-0.054,0.839-0.242,1.223-0.143,1.504
	C46.628,35.095,47.745,35.562,49.072,36.045z"/>
</svg>
