<?xml version="1.0" encoding="utf-8"?>
<!-- Generator: Adobe Illustrator 16.0.0, SVG Export Plug-In . SVG Version: 6.00 Build 0)  -->
<!DOCTYPE svg PUBLIC "-//W3C//DTD SVG 1.1//EN" "http://www.w3.org/Graphics/SVG/1.1/DTD/svg11.dtd">
<svg version="1.1" id="Layer_1" xmlns="http://www.w3.org/2000/svg" xmlns:xlink="http://www.w3.org/1999/xlink" x="0px" y="0px"
	 width="73.701px" height="73.701px" viewBox="0 0 73.701 73.701" enable-background="new 0 0 73.701 73.701" xml:space="preserve">
<path id="Video_Marketing_1_" fill-rule="evenodd" clip-rule="evenodd" fill="#404041" d="M43.253,26.534l-0.027-0.019l-0.03-0.018
	l-13.843-8.021h-0.003c-0.327-0.193-0.753-0.204-1.101-0.004c-0.345,0.2-0.535,0.551-0.541,0.917v0.038v16.042v0.037
	c0.006,0.366,0.196,0.718,0.541,0.918c0.348,0.199,0.773,0.19,1.101-0.006h0.003l13.901-8.054l0.03-0.022l0.005-0.001l0.023-0.018
	h0.002l0.025-0.02v-0.003l0.025-0.018l0.003-0.004l0.018-0.018l0.01-0.006l0.016-0.013l0.007-0.013l0.016-0.012l0.013-0.013
	l0.008-0.01l0.015-0.013l0.008-0.01l0.018-0.019l0.005-0.006l0.016-0.021l0.002-0.002l0.021-0.025l0.018-0.028l0,0l0.018-0.025
	l0.008-0.005l0.01-0.022l0.003-0.006l0.013-0.021l0.008-0.014l0.01-0.018l0.008-0.011l0.005-0.015l0.01-0.015l0.005-0.013
	l0.008-0.021l0.008-0.006l0.008-0.029l0.002-0.006l0.013-0.025v-0.002l0.011-0.031v-0.003l0.007-0.029v-0.002l0.008-0.032
	l0.003-0.006l0.005-0.023l0.005-0.011v-0.021l0.003-0.015l0.005-0.02l0.005-0.018l0.003-0.015l0.002-0.021v-0.014l0.003-0.023
	v-0.009l0.002-0.029v-0.004V27.45v-0.038v-0.002l-0.002-0.03v-0.005l-0.003-0.033v-0.005l-0.005-0.029v-0.009l-0.005-0.025
	l-0.005-0.013l-0.003-0.021v-0.013l-0.005-0.021l-0.005-0.015l-0.005-0.015l-0.006-0.021l-0.002-0.015l-0.005-0.019l-0.006-0.016
	l-0.005-0.021l-0.005-0.007l-0.01-0.024l-0.003-0.009l-0.013-0.025V27.01l-0.013-0.025l-0.005-0.005l-0.01-0.026l-0.003-0.004
	l-0.015-0.026l-0.019-0.032l-0.002-0.002l-0.003-0.008l-0.022-0.039l-0.005-0.006l-0.008-0.006l-0.013-0.02L43.536,26.8
	l-0.016-0.021l-0.007-0.007l-0.016-0.018l-0.005-0.009l-0.016-0.015l-0.01-0.014l-0.013-0.01l-0.01-0.013l-0.013-0.013l-0.016-0.012
	l-0.002-0.006l-0.005-0.006l-0.016-0.013l-0.01-0.006l-0.018-0.018l-0.008-0.004l-0.021-0.018l-0.005-0.008l-0.022-0.015
	l-0.003-0.002l-0.025-0.017h-0.005L43.253,26.534L43.253,26.534z M12.283,48.74h49.133c3.652,0,6.615,2.963,6.615,6.612
	c0,3.652-2.963,6.614-6.615,6.614H12.283c-3.652,0-6.613-2.962-6.613-6.614C5.669,51.703,8.63,48.74,12.283,48.74L12.283,48.74z
	 M12.283,53.717c-0.903,0-1.638,0.733-1.638,1.636c0,0.905,0.734,1.638,1.638,1.638h0.042h5.096c0.611,1.27,1.907,2.144,3.407,2.144
	c1.5,0,2.795-0.874,3.407-2.144h37.141h0.04c0.905,0,1.639-0.732,1.639-1.638c0-0.902-0.733-1.636-1.639-1.636h-0.04H24.235
	c-0.612-1.266-1.907-2.141-3.407-2.141c-1.499,0-2.796,0.875-3.407,2.141h-5.096H12.283L12.283,53.717z M49.152,24.391
	c1.036,0.622,1.727,1.757,1.727,3.059c0,1.342-0.692,2.438-1.83,3.114L28.146,42.685c-1.06,0.619-2.419,0.657-3.555,0
	c-1.134-0.66-1.77-1.835-1.77-3.145l0.004-24.184c-0.024-1.25,0.621-2.475,1.773-3.145c1.163-0.676,2.447-0.608,3.601,0.034
	L49.152,24.391z"/>
</svg>
