<?xml version="1.0" encoding="utf-8"?>
<!-- Generator: Adobe Illustrator 16.0.0, SVG Export Plug-In . SVG Version: 6.00 Build 0)  -->
<!DOCTYPE svg PUBLIC "-//W3C//DTD SVG 1.1//EN" "http://www.w3.org/Graphics/SVG/1.1/DTD/svg11.dtd">
<svg version="1.1" id="Layer_1" xmlns="http://www.w3.org/2000/svg" xmlns:xlink="http://www.w3.org/1999/xlink" x="0px" y="0px"
	 width="73.701px" height="73.701px" viewBox="0 0 73.701 73.701" enable-background="new 0 0 73.701 73.701" xml:space="preserve">
<path id="Viral_Marketing_1_" fill-rule="evenodd" clip-rule="evenodd" fill="#404041" d="M62.346,21.535
	c3.367,1.656,5.686,5.121,5.686,9.128c0,4.008-2.318,7.473-5.686,9.128c0.317-2.999,0.48-6.044,0.48-9.128
	C62.826,27.581,62.662,24.535,62.346,21.535L62.346,21.535z M56.868,9.318c1.756,6.823,2.688,13.976,2.687,21.345
	c0,7.371-0.931,14.522-2.687,21.346c-0.236,0.923-1.071,1.603-2.068,1.603c-1.18,0-2.137-0.957-2.137-2.137
	c0-0.184,0.022-0.362,0.065-0.534c0.138-0.53,0.27-1.062,0.396-1.596L29.15,40.838h-1.306v5.135l4.667,11.186
	c0.702-0.29,1.512,0.05,1.802,0.753l0.931,2.263c0.29,0.702-0.048,1.515-0.752,1.805l-9.397,3.902
	c-0.704,0.292-1.521-0.043-1.815-0.746l-7.024-16.842v-7.455h-0.411c-5.619,0-10.175-4.556-10.175-10.175
	c0-5.619,4.556-10.175,10.175-10.175H29.15l23.974-8.505c-0.126-0.536-0.258-1.068-0.396-1.597c0-0.123-0.065-0.349-0.065-0.535
	c0-1.18,0.957-2.138,2.137-2.138C55.773,7.714,56.628,8.375,56.868,9.318L56.868,9.318z M53.842,15.34l-23.907,8.417L16.671,23.76
	c-0.688,0.053-1.232,0.628-1.232,1.331c0,0.783,0.633,1.346,1.404,1.333h13.542l21.687-7.634c0.311,0.753,0.617,1.508,0.906,2.268
	c0.892,2.336,1.653,4.644,2.341,7.024C55.189,24.408,54.695,19.47,53.842,15.34z"/>
</svg>
