<?xml version="1.0" encoding="utf-8"?>
<!-- Generator: Adobe Illustrator 16.0.0, SVG Export Plug-In . SVG Version: 6.00 Build 0)  -->
<!DOCTYPE svg PUBLIC "-//W3C//DTD SVG 1.1//EN" "http://www.w3.org/Graphics/SVG/1.1/DTD/svg11.dtd">
<svg version="1.1" id="Layer_1" xmlns="http://www.w3.org/2000/svg" xmlns:xlink="http://www.w3.org/1999/xlink" x="0px" y="0px"
	 width="73.701px" height="73.701px" viewBox="0 0 73.701 73.701" enable-background="new 0 0 73.701 73.701" xml:space="preserve">
<path id="Web_Analytics_1_" fill-rule="evenodd" clip-rule="evenodd" fill="#404041" d="M39.4,5.669
	c15.254,1.208,27.424,13.377,28.631,28.633H52.949c-1.075-6.969-6.581-12.475-13.549-13.551V5.669L39.4,5.669z M68.031,39.3
	c-0.534,6.743-3.212,12.888-7.352,17.746L50.015,46.381c1.498-2.048,2.531-4.463,2.935-7.081H68.031L68.031,39.3z M57.146,60.578
	L46.481,49.913c-2.685,1.965-5.997,3.128-9.581,3.128c-8.971,0-16.24-7.27-16.24-16.241c0-8.12,5.957-14.846,13.742-16.049V5.669
	C18.324,6.942,5.669,20.393,5.669,36.8c0,17.25,13.983,31.232,31.231,31.232C44.627,68.032,51.695,65.225,57.146,60.578z"/>
</svg>
