<?xml version="1.0" encoding="utf-8"?>
<!-- Generator: Adobe Illustrator 16.0.0, SVG Export Plug-In . SVG Version: 6.00 Build 0)  -->
<!DOCTYPE svg PUBLIC "-//W3C//DTD SVG 1.1//EN" "http://www.w3.org/Graphics/SVG/1.1/DTD/svg11.dtd">
<svg version="1.1" id="Layer_1" xmlns="http://www.w3.org/2000/svg" xmlns:xlink="http://www.w3.org/1999/xlink" x="0px" y="0px"
	 width="73.701px" height="73.701px" viewBox="0 0 73.701 73.701" enable-background="new 0 0 73.701 73.701" xml:space="preserve">
<path id="Website_Optimization_1_" fill-rule="evenodd" clip-rule="evenodd" fill="#404041" d="M11.904,11.906
	c1.377,0,2.495,1.117,2.495,2.494c0,1.377-1.117,2.495-2.495,2.495c-1.377,0-2.494-1.117-2.494-2.495
	C9.41,13.023,10.527,11.906,11.904,11.906L11.904,11.906z M36.851,53.509c6.642,0,12.027,5.386,12.027,12.028
	c5.501,0,11.001,0,16.501,0c1.46,0,2.653-1.194,2.653-2.652c0-19.019,0-33.048,0-52.066c0-1.46-1.193-2.655-2.653-2.655
	c-19.02,0-38.037,0-57.056,0c-1.459,0-2.653,1.195-2.653,2.655c-0.001,19.02,0,33.048,0,52.066c0,1.456,1.194,2.652,2.653,2.652
	c5.5,0,11,0,16.501,0C24.824,58.895,30.209,53.509,36.851,53.509L36.851,53.509z M64.212,60.902l-5.936-1.955
	c-0.421-1.368-0.97-2.68-1.63-3.923l2.975-5.892c-1.722-2.396-3.836-4.529-6.381-6.38l-5.901,2.974
	c-1.241-0.66-2.555-1.204-3.924-1.625l-2.062-6.267c-2.912-0.478-5.914-0.489-9.023,0l-2.068,6.276
	c-1.368,0.42-2.679,0.97-3.922,1.628l-5.891-2.973c-2.396,1.72-4.529,3.835-6.38,6.379l2.973,5.901
	c-0.66,1.243-1.205,2.559-1.625,3.926l-5.92,1.946c-0.054-0.14-0.084-0.293-0.084-0.452c0-13.741,0-24.765,0-38.506
	c0-0.723,0.597-1.325,1.327-1.325c17.03,0,35.194,0,52.224,0c0.729,0,1.328,0.615,1.328,1.325c0,13.742,0,24.765,0,38.506
	C64.291,60.618,64.262,60.765,64.212,60.902L64.212,60.902z M26.871,11.906c1.377,0,2.494,1.117,2.494,2.494
	c0,1.377-1.117,2.495-2.494,2.495c-1.377,0-2.495-1.117-2.495-2.495C24.376,13.023,25.494,11.906,26.871,11.906L26.871,11.906z
	 M19.387,11.906c1.378,0,2.494,1.117,2.494,2.494c0,1.377-1.116,2.495-2.494,2.495c-1.378,0-2.495-1.117-2.495-2.495
	C16.893,13.023,18.009,11.906,19.387,11.906z"/>
</svg>
