<?xml version="1.0" encoding="utf-8"?>
<!-- Generator: Adobe Illustrator 16.0.0, SVG Export Plug-In . SVG Version: 6.00 Build 0)  -->
<!DOCTYPE svg PUBLIC "-//W3C//DTD SVG 1.1//EN" "http://www.w3.org/Graphics/SVG/1.1/DTD/svg11.dtd">
<svg version="1.1" id="Layer_1" xmlns="http://www.w3.org/2000/svg" xmlns:xlink="http://www.w3.org/1999/xlink" x="0px" y="0px"
	 width="73.701px" height="73.701px" viewBox="0 0 73.701 73.701" enable-background="new 0 0 73.701 73.701" xml:space="preserve">
<path id="Affliliate_Marketing_1_" fill-rule="evenodd" clip-rule="evenodd" fill="#404041" d="M36.851,8.504
	c15.655,0,28.347,12.69,28.347,28.347c0,15.656-12.691,28.345-28.347,28.345S8.504,52.507,8.504,36.851
	C8.504,21.195,21.195,8.504,36.851,8.504L36.851,8.504z M37.662,48.603v-1.809c1.664-0.307,2.972-1.326,2.972-3.211
	c0-3.447-5.436-2.598-5.436-4.926c0-0.764,0.681-1.443,2.039-1.443c0.85,0,1.613,0.339,1.613,0.339l0.425,1.529h1.02l0.085-2.548
	c0,0-1.325-0.527-2.718-0.629v-1.418h-1.273v1.471c-1.581,0.219-2.889,1.137-2.889,2.955c0,3.684,5.453,2.648,5.453,5.01
	c0,1.088-1.206,1.563-2.396,1.563c-1.002,0-1.613-0.34-1.613-0.34l-0.34-1.563h-1.188V46.3c0,0,1.358,0.563,2.973,0.596v1.707
	H37.662L37.662,48.603z M40.124,28.884c1.503-3.03,6.46-7.65-0.408-5.871l-1.588,3.439l0.171-3.695
	c-1.838-1.52-12.488-5.9-5.379,5.875c-0.102,0.018-0.196,0.035-0.28,0.055c-1.878,0.429-1.788,1.939-0.018,1.887l0.715,0.001
	c-4.995,1.986-10.38,7.667-9.847,15.27c0.002,0.029,1.101,2.131,1.098,2.164l-1.625-0.67c-1.064,0.701-1.756,1.611-2.039,2.234
	s0.846,2.295,1.887,2.566c8.889,1.158,19.191,1.158,28.079,0c1.042-0.271,2.17-1.943,1.887-2.566s-0.933-1.504-1.997-2.207l-3.865,2
	c-0.003-0.031,3.318-3.885,3.319-3.912c0.528-7.535-4.767-12.974-9.733-14.88C43.378,30.493,42.964,29.421,40.124,28.884z"/>
</svg>
