<?xml version="1.0" encoding="utf-8"?>
<!-- Generator: Adobe Illustrator 16.0.0, SVG Export Plug-In . SVG Version: 6.00 Build 0)  -->
<!DOCTYPE svg PUBLIC "-//W3C//DTD SVG 1.1//EN" "http://www.w3.org/Graphics/SVG/1.1/DTD/svg11.dtd">
<svg version="1.1" id="Layer_1" xmlns="http://www.w3.org/2000/svg" xmlns:xlink="http://www.w3.org/1999/xlink" x="0px" y="0px"
	 width="73.701px" height="73.701px" viewBox="0 0 73.701 73.701" enable-background="new 0 0 73.701 73.701" xml:space="preserve">
<path id="Backlinks_Bulding_1_" fill-rule="evenodd" clip-rule="evenodd" fill="#404041" d="M36.851,8.504
	c15.656,0,28.345,12.69,28.345,28.347c0,15.656-12.689,28.345-28.345,28.345c-15.655,0-28.347-12.689-28.347-28.345
	C8.504,21.195,21.196,8.504,36.851,8.504L36.851,8.504z M23.243,23.245c-0.75,0-1.36,0.609-1.36,1.36s0.61,1.361,1.36,1.361
	c0.752,0,1.361-0.61,1.361-1.361S23.995,23.245,23.243,23.245L23.243,23.245z M32.088,50.456v2.041c3.176,0,6.348,0,9.524,0v-2.041
	h-3.74V35.641l2.588,2.588l1.443-1.445l-5.052-5.051l-5.052,5.051l1.443,1.445l2.588-2.589v14.816H32.088L32.088,50.456z
	 M48.522,41.706l-3.85-3.848l-3.848,3.848l1.443,1.443l1.385-1.385v7.67c0,1.691,1.371,3.063,3.061,3.063h5.697
	c0.797,0,1.447-0.65,1.447-1.445c0-10.373,0-18.027,0-28.4c0-0.797-0.65-1.448-1.447-1.448c-10.373,0-20.747,0-31.122,0
	c-0.795,0-1.446,0.651-1.446,1.448c-0.001,10.374,0,18.025,0,28.4c0,0.795,0.651,1.445,1.446,1.445h5.698
	c1.69,0,3.062-1.371,3.062-3.063l-0.001-7.67l1.385,1.385l1.443-1.443l-3.849-3.848l-3.848,3.848l1.442,1.443l1.386-1.387v7.672
	c0,0.564-0.457,1.021-1.021,1.021c-1.46,0-2.92,0-4.38,0c-0.385,0-0.725-0.328-0.725-0.723c0-7.496,0-13.509,0-21.004
	c0-0.395,0.326-0.723,0.725-0.723c9.289,0,19.198,0,28.487,0c0.396,0,0.723,0.335,0.723,0.723c0,7.495,0,13.508,0,21.004
	c0,0.387-0.34,0.723-0.723,0.723c-1.461,0-2.92,0-4.381,0c-0.563,0-1.02-0.457-1.02-1.021v-7.672l1.385,1.387L48.522,41.706
	L48.522,41.706z M31.407,23.245c-0.75,0-1.36,0.609-1.36,1.36s0.61,1.361,1.36,1.361c0.751,0,1.361-0.61,1.361-1.361
	S32.158,23.245,31.407,23.245L31.407,23.245z M27.325,23.245c-0.752,0-1.36,0.609-1.36,1.36s0.608,1.361,1.36,1.361
	s1.361-0.61,1.361-1.361S28.077,23.245,27.325,23.245z"/>
</svg>
