<?xml version="1.0" encoding="utf-8"?>
<!-- Generator: Adobe Illustrator 16.0.0, SVG Export Plug-In . SVG Version: 6.00 Build 0)  -->
<!DOCTYPE svg PUBLIC "-//W3C//DTD SVG 1.1//EN" "http://www.w3.org/Graphics/SVG/1.1/DTD/svg11.dtd">
<svg version="1.1" id="Layer_1" xmlns="http://www.w3.org/2000/svg" xmlns:xlink="http://www.w3.org/1999/xlink" x="0px" y="0px"
	 width="73.701px" height="73.701px" viewBox="0 0 73.701 73.701" enable-background="new 0 0 73.701 73.701" xml:space="preserve">
<path id="Bookmarking_Services_1_" fill-rule="evenodd" clip-rule="evenodd" fill="#404041" d="M47.905,50.458h-0.021H27.496
	c-0.463,0-0.85-0.383-0.85-0.852l0,0c0-0.467,0.383-0.85,0.85-0.85h20.388h0.021c0.471,0,0.852,0.381,0.852,0.85
	S48.376,50.458,47.905,50.458L47.905,50.458z M27.326,19.843c-2.244,0-4.082,1.836-4.082,4.082V45.8v0.576v0.018v3.168v0.045l0,0
	c0,2.338,1.914,4.252,4.252,4.252h22.089h0.021c0.469,0,0.85-0.381,0.85-0.85c0-0.471-0.381-0.852-0.85-0.852h-0.021H27.496
	c-1.4,0-2.551-1.146-2.551-2.551l0,0c0-1.402,1.148-2.551,2.551-2.551h19.56h2.721c0.373,0,0.68-0.309,0.68-0.68V20.523
	c0-0.372-0.305-0.68-0.68-0.68h-2.721v14.567l-3.402-1.871l-3.402,1.871V19.843H27.326L27.326,19.843z M36.851,8.504
	c-15.656,0-28.347,12.69-28.347,28.347c0,15.656,12.69,28.345,28.347,28.345c15.656,0,28.345-12.689,28.345-28.345
	C65.196,21.195,52.507,8.504,36.851,8.504z"/>
</svg>
