<?xml version="1.0" encoding="utf-8"?>
<!-- Generator: Adobe Illustrator 16.0.0, SVG Export Plug-In . SVG Version: 6.00 Build 0)  -->
<!DOCTYPE svg PUBLIC "-//W3C//DTD SVG 1.1//EN" "http://www.w3.org/Graphics/SVG/1.1/DTD/svg11.dtd">
<svg version="1.1" id="Layer_1" xmlns="http://www.w3.org/2000/svg" xmlns:xlink="http://www.w3.org/1999/xlink" x="0px" y="0px"
	 width="73.701px" height="73.701px" viewBox="0 0 73.701 73.701" enable-background="new 0 0 73.701 73.701" xml:space="preserve">
<path id="Branding_Services_1_" fill-rule="evenodd" clip-rule="evenodd" fill="#404041" d="M36.851,8.504
	c15.656,0,28.345,12.69,28.345,28.346c0,15.657-12.689,28.346-28.345,28.346c-15.656,0-28.347-12.689-28.347-28.346
	C8.504,21.195,21.195,8.504,36.851,8.504L36.851,8.504z M36.853,35.219c-2.838,0-5.139,2.774-5.139,6.194
	c0,3.422,2.301,6.193,5.139,6.193c2.839,0,5.138-2.771,5.138-6.193C41.991,37.993,39.692,35.219,36.853,35.219L36.853,35.219z
	 M47.554,29.673l-18.089-1.415h19.503c0.484-0.013,0.977-0.423,0.873-0.896l-0.578-2.688c-0.104-0.48-0.404-0.896-0.896-0.896
	h-0.953l-1.016-3.559c-0.004-0.6-4.277-1.085-9.546-1.085c-5.271,0-9.546,0.485-9.546,1.086l-1.016,3.558h-0.955
	c-0.492,0-0.791,0.414-0.896,0.896l-0.579,2.688c-0.104,0.483,0.403,0.896,0.896,0.896h1.199l3.441,25.221
	c0,0.6,3.34,1.088,7.459,1.088c4.119,0,7.458-0.488,7.458-1.088L47.554,29.673z"/>
</svg>
