<?xml version="1.0" encoding="utf-8"?>
<!-- Generator: Adobe Illustrator 16.0.0, SVG Export Plug-In . SVG Version: 6.00 Build 0)  -->
<!DOCTYPE svg PUBLIC "-//W3C//DTD SVG 1.1//EN" "http://www.w3.org/Graphics/SVG/1.1/DTD/svg11.dtd">
<svg version="1.1" id="Layer_1" xmlns="http://www.w3.org/2000/svg" xmlns:xlink="http://www.w3.org/1999/xlink" x="0px" y="0px"
	 width="73.701px" height="73.701px" viewBox="0 0 73.701 73.701" enable-background="new 0 0 73.701 73.701" xml:space="preserve">
<path id="Campaign_Launch_1_" fill-rule="evenodd" clip-rule="evenodd" fill="#404041" d="M36.851,8.504
	c15.655,0,28.347,12.691,28.347,28.347S52.506,65.197,36.851,65.197c-15.656,0-28.347-12.691-28.347-28.347
	S21.194,8.504,36.851,8.504L36.851,8.504z M27.702,37.394c-1.893,1.093-3.573,2.515-4.962,4.186
	c-0.096,0.762-0.146,1.537-0.146,2.326c0,4.245,1.445,8.152,3.867,11.262c0.084,0.088,0.202,0.143,0.332,0.143
	c0.031,0,0.06-0.003,0.089-0.009l1.889-0.505c0.193-0.055,0.334-0.23,0.334-0.439l-0.003-0.044
	c-0.044-0.335-0.067-0.677-0.067-1.024c0-2.369,1.054-4.49,2.716-5.924l1.393,2.656c0.105,0.168,0.293,0.283,0.506,0.286h6.402
	c0.212-0.003,0.399-0.118,0.505-0.286l1.393-2.656c1.663,1.434,2.716,3.555,2.716,5.924c0,0.348-0.021,0.689-0.066,1.024
	l-0.002,0.044c0,0.207,0.141,0.391,0.342,0.44l1.881,0.504c0.029,0.006,0.059,0.009,0.088,0.009c0.131,0,0.249-0.055,0.332-0.143
	c2.424-3.109,3.869-7.017,3.869-11.262c0-0.789-0.051-1.564-0.147-2.326c-1.39-1.671-3.069-3.093-4.962-4.186
	c0.174-1.03,0.266-2.087,0.266-3.165c0-6.924-3.751-13.012-9.414-16.512c-5.664,3.5-9.414,9.588-9.414,16.513
	C27.437,35.307,27.527,36.364,27.702,37.394L27.702,37.394z M36.286,52.188c-0.207,0-0.392,0.169-0.377,0.375l0.238,3.044
	c0.016,0.206,0.171,0.377,0.377,0.377h0.65c0.206,0,0.361-0.172,0.377-0.377l0.238-3.044c0.015-0.205-0.17-0.375-0.375-0.375H36.286
	L36.286,52.188z M36.851,24.686c-1.75,0-3.169,1.423-3.169,3.179s1.419,3.179,3.169,3.179c1.749,0,3.168-1.423,3.168-3.179
	S38.6,24.686,36.851,24.686z"/>
</svg>
