<?xml version="1.0" encoding="utf-8"?>
<!-- Generator: Adobe Illustrator 16.0.0, SVG Export Plug-In . SVG Version: 6.00 Build 0)  -->
<!DOCTYPE svg PUBLIC "-//W3C//DTD SVG 1.1//EN" "http://www.w3.org/Graphics/SVG/1.1/DTD/svg11.dtd">
<svg version="1.1" id="Layer_1" xmlns="http://www.w3.org/2000/svg" xmlns:xlink="http://www.w3.org/1999/xlink" x="0px" y="0px"
	 width="73.701px" height="73.701px" viewBox="0 0 73.701 73.701" enable-background="new 0 0 73.701 73.701" xml:space="preserve">
<path id="Campaign_Tweaks_1_" fill-rule="evenodd" clip-rule="evenodd" fill="#404041" d="M36.85,8.504
	c15.657,0,28.346,12.69,28.346,28.346c0,15.657-12.689,28.346-28.346,28.346c-15.655,0-28.346-12.689-28.346-28.346
	C8.504,21.195,21.195,8.504,36.85,8.504L36.85,8.504z M46.384,37.491c0,0.23,0.203,0.42,0.422,0.42h4.891
	c0.219,0,0.42-0.201,0.42-0.42V36.93c0-0.217-0.189-0.419-0.42-0.419h-4.891c-0.232,0-0.422,0.188-0.422,0.419V37.491L46.384,37.491
	z M33.984,32.385c0,0.231,0.202,0.421,0.421,0.421h4.891c0.219,0,0.422-0.202,0.422-0.421v-0.561c0-0.218-0.189-0.419-0.422-0.419
	h-4.891c-0.231,0-0.421,0.188-0.421,0.419V32.385L33.984,32.385z M21.584,41.868c0,0.23,0.202,0.42,0.422,0.42h4.891
	c0.219,0,0.422-0.201,0.422-0.42v-0.561c0-0.219-0.19-0.42-0.422-0.42h-4.891c-0.232,0-0.422,0.189-0.422,0.42V41.868L21.584,41.868
	z M33.495,27c-0.962,0-1.75,0.788-1.75,1.75v6.71c0,0.964,0.788,1.751,1.75,1.751h1.604v14.748c0,0.576,0.474,1.051,1.051,1.051
	h1.402c0.574,0,1.049-0.475,1.049-1.051V37.21h1.605c0.963,0,1.75-0.787,1.75-1.751v-6.71c0-0.962-0.787-1.75-1.75-1.75h-1.605
	v-5.256c0-0.575-0.473-1.051-1.049-1.051H36.15c-0.578,0-1.051,0.473-1.051,1.051V27H33.495L33.495,27z M45.894,32.106
	c-0.961,0-1.748,0.787-1.748,1.749v6.71c0,0.963,0.787,1.752,1.748,1.752h1.605v9.641c0,0.576,0.475,1.051,1.051,1.051h1.4
	c0.576,0,1.051-0.475,1.051-1.051v-9.641h1.604c0.963,0,1.752-0.789,1.752-1.752v-6.71c0-0.962-0.789-1.749-1.752-1.749h-1.604
	V21.744c0-0.575-0.473-1.051-1.051-1.051h-1.4c-0.578,0-1.051,0.473-1.051,1.051v10.362H45.894L45.894,32.106z M23.75,20.693
	c-0.578,0-1.05,0.473-1.05,1.051v14.738h-1.605c-0.962,0-1.749,0.788-1.749,1.75v6.709c0,0.965,0.787,1.752,1.749,1.752h1.605v5.266
	c0,0.576,0.474,1.051,1.05,1.051h1.401c0.575,0,1.05-0.475,1.05-1.051v-5.266h1.604c0.963,0,1.751-0.787,1.751-1.752v-6.709
	c0-0.961-0.788-1.75-1.751-1.75h-1.604V21.744c0-0.575-0.473-1.051-1.05-1.051H23.75z"/>
</svg>
