<?xml version="1.0" encoding="utf-8"?>
<!-- Generator: Adobe Illustrator 16.0.0, SVG Export Plug-In . SVG Version: 6.00 Build 0)  -->
<!DOCTYPE svg PUBLIC "-//W3C//DTD SVG 1.1//EN" "http://www.w3.org/Graphics/SVG/1.1/DTD/svg11.dtd">
<svg version="1.1" id="Layer_1" xmlns="http://www.w3.org/2000/svg" xmlns:xlink="http://www.w3.org/1999/xlink" x="0px" y="0px"
	 width="73.701px" height="73.701px" viewBox="0 0 73.701 73.701" enable-background="new 0 0 73.701 73.701" xml:space="preserve">
<path id="Case_Study_1_" fill-rule="evenodd" clip-rule="evenodd" fill="#404041" d="M24.958,53.858h23.617l0,0
	c0-1.605-1.313-2.918-2.918-2.918h-4.985c0-2.156-1.748-3.904-3.906-3.904c-0.635,0-1.233,0.152-1.764,0.42l-8.769-8.77
	c0.098-0.283,0.151-0.588,0.151-0.906c0-0.316-0.054-0.622-0.151-0.907l8.771-8.771l0.717,0.716
	c-1.542,3.647-0.827,8.021,2.146,10.995c0.215,0.213,0.436,0.414,0.662,0.605l0.001-0.002c0.368,0.311,0.916,0.297,1.27-0.041
	l12.81-12.808c0.337-0.354,0.351-0.901,0.041-1.271h0.001c-0.19-0.228-0.393-0.448-0.605-0.662
	c-2.973-2.973-7.346-3.687-10.993-2.146l-3.229-3.229c-0.558-0.557-1.468-0.557-2.025,0l-3.306,3.307
	c-0.558,0.556-0.558,1.467,0,2.024l0.793,0.793l-8.771,8.771c-0.285-0.099-0.59-0.152-0.908-0.152c-1.535,0-2.778,1.244-2.778,2.778
	c0,1.535,1.243,2.779,2.778,2.779c0.318,0,0.623-0.055,0.908-0.152l8.768,8.768c-0.27,0.531-0.421,1.131-0.421,1.766h-4.985
	C26.271,50.94,24.958,52.253,24.958,53.858L24.958,53.858L24.958,53.858z M50.509,32.333c0.877,1.661,0.617,3.765-0.78,5.162
	c-1.397,1.398-3.501,1.658-5.163,0.781L50.509,32.333L50.509,32.333z M36.851,8.504c15.655,0,28.347,12.69,28.347,28.346
	c0,15.657-12.691,28.346-28.347,28.346S8.504,52.507,8.504,36.85C8.504,21.195,21.195,8.504,36.851,8.504z"/>
</svg>
