<?xml version="1.0" encoding="utf-8"?>
<!-- Generator: Adobe Illustrator 16.0.0, SVG Export Plug-In . SVG Version: 6.00 Build 0)  -->
<!DOCTYPE svg PUBLIC "-//W3C//DTD SVG 1.1//EN" "http://www.w3.org/Graphics/SVG/1.1/DTD/svg11.dtd">
<svg version="1.1" id="Layer_1" xmlns="http://www.w3.org/2000/svg" xmlns:xlink="http://www.w3.org/1999/xlink" x="0px" y="0px"
	 width="73.701px" height="73.701px" viewBox="0 0 73.701 73.701" enable-background="new 0 0 73.701 73.701" xml:space="preserve">
<path id="Clean_Code_1_" fill-rule="evenodd" clip-rule="evenodd" fill="#404041" d="M24.144,21.543h25.414l8.346,9.947
	c-7.018,7.268-14.033,14.536-21.052,21.801L15.797,31.491L24.144,21.543L24.144,21.543z M34.271,33.307l-12.813-1.48l12.495,4.46
	l2.898,5.714l2.9-5.714l12.494-4.46l-12.813,1.48l-2.582-5.085L34.271,33.307L34.271,33.307z M36.851,49.147l17.183-17.792
	l-5.818-6.934H25.487l-5.818,6.934L36.851,49.147L36.851,49.147z M36.851,8.504c-15.655,0-28.347,12.69-28.347,28.346
	c0,15.657,12.691,28.346,28.347,28.346c15.656,0,28.345-12.689,28.345-28.346C65.196,21.195,52.507,8.504,36.851,8.504z"/>
</svg>
