<?xml version="1.0" encoding="utf-8"?>
<!-- Generator: Adobe Illustrator 16.0.0, SVG Export Plug-In . SVG Version: 6.00 Build 0)  -->
<!DOCTYPE svg PUBLIC "-//W3C//DTD SVG 1.1//EN" "http://www.w3.org/Graphics/SVG/1.1/DTD/svg11.dtd">
<svg version="1.1" id="Layer_1" xmlns="http://www.w3.org/2000/svg" xmlns:xlink="http://www.w3.org/1999/xlink" x="0px" y="0px"
	 width="73.701px" height="73.701px" viewBox="0 0 73.701 73.701" enable-background="new 0 0 73.701 73.701" xml:space="preserve">
<path id="Communities__x26__Networks_1_" fill-rule="evenodd" clip-rule="evenodd" fill="#404041" d="M39.341,33.73l4.482-2.63
	c-0.139-0.492-0.215-1.014-0.215-1.551c0-0.479,0.061-0.942,0.172-1.387l-4.344-2.368c-0.697,0.595-1.6,0.954-2.586,0.954
	c-0.517,0-1.011-0.099-1.464-0.278l-7.3,7.827c0.438,0.746,0.689,1.615,0.689,2.543c0,0.778-0.177,1.516-0.492,2.172l5.94,5.352
	c0.765-0.469,1.664-0.74,2.626-0.74c2.78,0,5.034,2.254,5.034,5.033S39.63,53.69,36.85,53.69c-1.916,0-3.582-1.07-4.433-2.646
	l-2.496,0.521c-0.303,1.9-1.949,3.354-3.935,3.354c-2.199,0-3.984-1.785-3.984-3.984s1.785-3.984,3.984-3.984
	c1.406,0,2.645,0.729,3.353,1.83l2.493-0.521c0.05-0.635,0.218-1.238,0.482-1.787l-5.937-5.344c-0.767,0.473-1.67,0.746-2.636,0.746
	c-2.779,0-5.034-2.256-5.034-5.034c0-2.779,2.255-5.034,5.034-5.034c0.817,0,1.589,0.196,2.271,0.542l7.272-7.8
	c-0.269-0.536-0.421-1.143-0.421-1.784c0-2.199,1.785-3.984,3.984-3.984c2.2,0,3.985,1.785,3.985,3.984
	c0,0.182-0.012,0.358-0.037,0.532l4.344,2.369c1.039-1.112,2.518-1.808,4.16-1.808c3.141,0,5.691,2.549,5.691,5.691
	s-2.551,5.692-5.691,5.692c-1.58,0-3.012-0.646-4.041-1.685l-4.48,2.628c0.035,0.213,0.055,0.432,0.055,0.655
	c0,2.2-1.785,3.985-3.985,3.985c-2.199,0-3.984-1.785-3.984-3.985c0-2.2,1.785-3.984,3.984-3.984
	C37.792,32.856,38.657,33.183,39.341,33.73L39.341,33.73z M49.302,26.473c-1.701,0-3.078,1.377-3.078,3.076
	c0,1.7,1.377,3.077,3.078,3.077c1.699,0,3.076-1.377,3.076-3.077C52.378,27.85,51.001,26.473,49.302,26.473L49.302,26.473z
	 M36.85,21.312c-0.803,0-1.452,0.65-1.452,1.452c0,0.803,0.649,1.452,1.452,1.452c0.803,0,1.452-0.649,1.452-1.452
	C38.302,21.962,37.653,21.312,36.85,21.312L36.85,21.312z M23.743,34.419c-1.337,0-2.421,1.084-2.421,2.421
	c0,1.336,1.084,2.42,2.421,2.42c1.336,0,2.42-1.084,2.42-2.42C26.163,35.503,25.079,34.419,23.743,34.419L23.743,34.419z
	 M36.85,46.237c-1.338,0-2.42,1.082-2.42,2.42s1.082,2.42,2.42,2.42c1.338,0,2.42-1.082,2.42-2.42S38.188,46.237,36.85,46.237
	L36.85,46.237z M25.987,49.483c-0.803,0-1.452,0.648-1.452,1.451s0.649,1.451,1.452,1.451c0.802,0,1.452-0.648,1.452-1.451
	S26.789,49.483,25.987,49.483L25.987,49.483z M36.849,35.387c-0.802,0-1.452,0.65-1.452,1.453c0,0.801,0.65,1.452,1.452,1.452
	c0.802,0,1.453-0.65,1.453-1.452C38.302,36.038,37.651,35.387,36.849,35.387L36.849,35.387z M36.85,8.504
	c-15.655,0-28.346,12.69-28.346,28.346c0,15.655,12.69,28.346,28.346,28.346c15.657,0,28.346-12.691,28.346-28.346
	C65.196,21.195,52.507,8.504,36.85,8.504z"/>
</svg>
