<?xml version="1.0" encoding="utf-8"?>
<!-- Generator: Adobe Illustrator 16.0.0, SVG Export Plug-In . SVG Version: 6.00 Build 0)  -->
<!DOCTYPE svg PUBLIC "-//W3C//DTD SVG 1.1//EN" "http://www.w3.org/Graphics/SVG/1.1/DTD/svg11.dtd">
<svg version="1.1" id="Layer_1" xmlns="http://www.w3.org/2000/svg" xmlns:xlink="http://www.w3.org/1999/xlink" x="0px" y="0px"
	 width="73.701px" height="73.701px" viewBox="0 0 73.701 73.701" enable-background="new 0 0 73.701 73.701" xml:space="preserve">
<path id="Content_Management_1_" fill-rule="evenodd" clip-rule="evenodd" fill="#404041" d="M36.851,8.504
	c15.656,0,28.345,12.69,28.345,28.346c0,15.657-12.689,28.346-28.345,28.346c-15.656,0-28.347-12.689-28.347-28.346
	C8.504,21.195,21.195,8.504,36.851,8.504L36.851,8.504z M24.946,25.965c-0.188,0-0.341,0.152-0.341,0.34v4.763
	c0,0.187,0.153,0.34,0.341,0.34h4.762c0.188,0,0.341-0.153,0.341-0.34v-4.763c0-0.188-0.153-0.34-0.341-0.34H24.946L24.946,25.965z
	 M27.667,34.129c-0.188,0-0.341,0.152-0.341,0.34v0.68c0,0.188,0.159,0.34,0.341,0.34h3.4c0.181,0,0.341-0.159,0.341-0.34v-0.68
	c0-0.181-0.153-0.34-0.341-0.34H27.667L27.667,34.129z M24.946,34.129c-0.188,0-0.341,0.152-0.341,0.34v0.68
	c0,0.188,0.157,0.34,0.341,0.34h0.681c0.182,0,0.34-0.156,0.34-0.34v-0.68c0-0.184-0.153-0.34-0.34-0.34H24.946L24.946,34.129z
	 M42.694,30.047c-0.186,0-0.34,0.152-0.34,0.34v0.681c0,0.187,0.16,0.34,0.34,0.34h6.061c0.182,0,0.342-0.159,0.342-0.34v-0.681
	c0-0.181-0.154-0.34-0.342-0.34H42.694L42.694,30.047z M37.933,30.047c-0.188,0-0.34,0.152-0.34,0.34v0.681
	c0,0.187,0.154,0.34,0.34,0.34h2.721c0.186,0,0.342-0.155,0.342-0.34v-0.681c0-0.186-0.154-0.34-0.342-0.34H37.933L37.933,30.047z
	 M33.171,30.047c-0.188,0-0.341,0.152-0.341,0.34v0.681c0,0.187,0.155,0.34,0.341,0.34h2.721c0.186,0,0.34-0.155,0.34-0.34v-0.681
	c0-0.186-0.152-0.34-0.34-0.34H33.171L33.171,30.047z M46.097,25.965h-2.383c-0.182,0-0.338,0.157-0.338,0.34v0.681
	c0,0.183,0.152,0.34,0.338,0.34h2.383c0.188,0,0.34-0.153,0.34-0.34v-0.681C46.437,26.118,46.276,25.965,46.097,25.965
	L46.097,25.965z M38.954,25.965H33.17c-0.185,0-0.34,0.154-0.34,0.34v0.681c0,0.186,0.153,0.34,0.34,0.34h5.784
	c0.186,0,0.34-0.153,0.34-0.34v-0.681C39.294,26.118,39.138,25.965,38.954,25.965L38.954,25.965z M40.995,25.965
	c-0.188,0-0.342,0.152-0.342,0.34v0.681c0,0.187,0.154,0.34,0.342,0.34h0.68c0.186,0,0.34-0.153,0.34-0.34v-0.681
	c0-0.186-0.152-0.34-0.34-0.34H40.995L40.995,25.965z M36.851,45.937c3.623,0,6.56,2.938,6.56,6.561c3,0,6,0,9,0
	c0.797,0,1.447-0.65,1.447-1.445c0-10.373,0-18.027,0-28.401c0-0.796-0.65-1.447-1.447-1.447c-10.373,0-20.748,0-31.121,0
	c-0.797,0-1.447,0.651-1.447,1.447c0,10.375,0,18.026,0,28.401c0,0.793,0.65,1.445,1.447,1.445c3,0,6,0,9,0
	C30.291,48.874,33.228,45.937,36.851,45.937L36.851,45.937z M51.774,49.97c0.027-0.074,0.043-0.154,0.043-0.236
	c0-7.496,0-18.271,0-25.767c0-0.387-0.326-0.722-0.725-0.722c-9.289,0-19.196,0-28.485,0c-0.397,0-0.724,0.327-0.724,0.722
	c0,7.496,0,18.271,0,25.767c0,0.086,0.016,0.168,0.045,0.246l3.23-1.063c0.229-0.746,0.525-1.463,0.886-2.141l-1.622-3.219
	c1.01-1.389,2.174-2.541,3.48-3.48l3.213,1.623c0.679-0.361,1.395-0.66,2.141-0.889l1.127-3.424c1.697-0.267,3.333-0.26,4.921,0
	l1.125,3.418c0.746,0.229,1.463,0.527,2.141,0.887l3.219-1.623c1.389,1.01,2.541,2.174,3.48,3.48l-1.623,3.213
	c0.361,0.68,0.66,1.395,0.889,2.141L51.774,49.97z"/>
</svg>
