<?xml version="1.0" encoding="utf-8"?>
<!-- Generator: Adobe Illustrator 16.0.0, SVG Export Plug-In . SVG Version: 6.00 Build 0)  -->
<!DOCTYPE svg PUBLIC "-//W3C//DTD SVG 1.1//EN" "http://www.w3.org/Graphics/SVG/1.1/DTD/svg11.dtd">
<svg version="1.1" id="Layer_1" xmlns="http://www.w3.org/2000/svg" xmlns:xlink="http://www.w3.org/1999/xlink" x="0px" y="0px"
	 width="73.701px" height="73.701px" viewBox="0 0 73.701 73.701" enable-background="new 0 0 73.701 73.701" xml:space="preserve">
<path id="Content_Delivery_1_" fill-rule="evenodd" clip-rule="evenodd" fill="#404041" d="M36.851,8.504
	c15.656,0,28.345,12.69,28.345,28.347c0,15.656-12.689,28.345-28.345,28.345c-15.656,0-28.347-12.689-28.347-28.345
	C8.504,21.195,21.195,8.504,36.851,8.504L36.851,8.504z M50.294,38.88l-7.049-1.724l-6.5,6.365l-3.805-8.877l-6.315-1.585
	l7.806-2.947H24.167c-0.415,0-0.76,0.344-0.76,0.76v10.958c0.063,0.066,0.103,0.158,0.103,0.258c0,0.102-0.039,0.191-0.103,0.26
	v6.67h10.049l0,0c0,0.418,0.342,0.758,0.76,0.758h4.938c0.418,0,0.76-0.34,0.76-0.758l0,0h10.381V38.88L50.294,38.88z
	 M18.681,41.003c-0.209,0-0.379,0.172-0.379,0.381s0.17,0.379,0.379,0.379c0.21,0,0.381-0.17,0.381-0.379
	S18.891,41.003,18.681,41.003L18.681,41.003z M19.72,41.421c-0.209,0-0.379,0.17-0.379,0.381c0,0.209,0.17,0.379,0.379,0.379
	c0.21,0,0.381-0.17,0.381-0.379C20.101,41.591,19.93,41.421,19.72,41.421L19.72,41.421z M20.841,41.722
	c-0.209,0-0.379,0.17-0.379,0.381c0,0.209,0.17,0.379,0.379,0.379c0.211,0,0.381-0.17,0.381-0.379
	C21.222,41.892,21.052,41.722,20.841,41.722L20.841,41.722z M24.208,41.28c-0.209,0-0.379,0.17-0.379,0.379
	c0,0.211,0.17,0.381,0.379,0.381c0.21,0,0.381-0.17,0.381-0.381C24.589,41.45,24.418,41.28,24.208,41.28L24.208,41.28z
	 M25.113,40.554c-0.21,0-0.381,0.17-0.381,0.379s0.171,0.379,0.381,0.379c0.209,0,0.379-0.17,0.379-0.379
	S25.322,40.554,25.113,40.554L25.113,40.554z M25.763,39.591c-0.209,0-0.379,0.172-0.379,0.381s0.17,0.379,0.379,0.379
	c0.211,0,0.381-0.17,0.381-0.379S25.974,39.591,25.763,39.591L25.763,39.591z M26.124,38.511c-0.21,0-0.38,0.17-0.38,0.379
	s0.17,0.381,0.38,0.381c0.209,0,0.38-0.172,0.38-0.381S26.333,38.511,26.124,38.511L26.124,38.511z M26.181,37.342
	c-0.209,0-0.379,0.17-0.379,0.379c0,0.211,0.17,0.381,0.379,0.381c0.211,0,0.381-0.17,0.381-0.381
	C26.562,37.513,26.392,37.342,26.181,37.342L26.181,37.342z M25.901,36.234c-0.21,0-0.38,0.17-0.38,0.38s0.17,0.38,0.38,0.38
	s0.38-0.17,0.38-0.38S26.111,36.234,25.901,36.234L25.901,36.234z M25.228,35.287c-0.209,0-0.379,0.17-0.379,0.38
	s0.17,0.38,0.379,0.38c0.21,0,0.381-0.17,0.381-0.38S25.438,35.287,25.228,35.287L25.228,35.287z M24.234,34.73
	c-0.211,0-0.381,0.17-0.381,0.38s0.17,0.38,0.381,0.38c0.209,0,0.379-0.17,0.379-0.38S24.443,34.73,24.234,34.73L24.234,34.73z
	 M21.042,35.525c-0.209,0-0.38,0.17-0.38,0.379c0,0.21,0.171,0.381,0.38,0.381s0.38-0.171,0.38-0.381
	C21.422,35.695,21.251,35.525,21.042,35.525L21.042,35.525z M20.525,36.542c-0.209,0-0.379,0.17-0.379,0.38s0.17,0.38,0.379,0.38
	c0.21,0,0.381-0.17,0.381-0.38S20.735,36.542,20.525,36.542L20.525,36.542z M20.447,37.696c-0.209,0-0.38,0.17-0.38,0.379
	c0,0.211,0.171,0.381,0.38,0.381c0.21,0,0.38-0.17,0.38-0.381C20.827,37.866,20.657,37.696,20.447,37.696L20.447,37.696z
	 M20.721,38.843c-0.21,0-0.38,0.17-0.38,0.379s0.17,0.379,0.38,0.379s0.38-0.17,0.38-0.379S20.931,38.843,20.721,38.843
	L20.721,38.843z M21.244,39.856c-0.209,0-0.38,0.17-0.38,0.379c0,0.211,0.171,0.381,0.38,0.381c0.103,0,0.195-0.041,0.264-0.107
	v8.508h-3.648c0,1.467,1.189,2.658,2.658,2.658h32.667c1.467,0,2.658-1.191,2.658-2.658h-3.65V33.398l3.65-11.371h-0.002
	L39.46,28.212H23.167c-0.917,0-1.66,0.742-1.66,1.658v10.093C21.439,39.897,21.346,39.856,21.244,39.856L21.244,39.856z
	 M23.91,42.017c-0.209,0-0.379,0.172-0.379,0.381s0.17,0.379,0.379,0.379c0.211,0,0.381-0.17,0.381-0.379
	S24.121,42.017,23.91,42.017L23.91,42.017z M25.007,42.353c-0.211,0-0.381,0.17-0.381,0.381c0,0.209,0.17,0.379,0.381,0.379
	c0.209,0,0.379-0.17,0.379-0.379C25.386,42.522,25.216,42.353,25.007,42.353L25.007,42.353z M26.141,42.499
	c-0.21,0-0.38,0.17-0.38,0.379c0,0.211,0.17,0.381,0.38,0.381s0.38-0.17,0.38-0.381C26.521,42.669,26.351,42.499,26.141,42.499
	L26.141,42.499z M27.314,42.47c-0.21,0-0.38,0.17-0.38,0.379c0,0.211,0.17,0.381,0.38,0.381c0.209,0,0.38-0.17,0.38-0.381
	C27.694,42.64,27.523,42.47,27.314,42.47L27.314,42.47z M28.449,42.29c-0.21,0-0.38,0.17-0.38,0.379s0.17,0.381,0.38,0.381
	c0.209,0,0.38-0.172,0.38-0.381S28.658,42.29,28.449,42.29L28.449,42.29z M29.555,41.983c-0.21,0-0.38,0.17-0.38,0.381
	c0,0.209,0.17,0.379,0.38,0.379s0.38-0.17,0.38-0.379C29.935,42.153,29.765,41.983,29.555,41.983L29.555,41.983z M30.645,41.567
	c-0.21,0-0.38,0.17-0.38,0.379c0,0.211,0.17,0.381,0.38,0.381s0.38-0.17,0.38-0.381C31.025,41.737,30.855,41.567,30.645,41.567
	L30.645,41.567z M31.685,41.069c-0.209,0-0.379,0.17-0.379,0.379c0,0.211,0.17,0.381,0.379,0.381c0.21,0,0.381-0.17,0.381-0.381
	C32.066,41.239,31.895,41.069,31.685,41.069L31.685,41.069z M32.693,40.499c-0.211,0-0.381,0.17-0.381,0.379
	c0,0.211,0.17,0.381,0.381,0.381c0.209,0,0.379-0.17,0.379-0.381C33.072,40.669,32.902,40.499,32.693,40.499L32.693,40.499z
	 M38.333,35.954l14.166-11.64L34.3,34.984l2.446,8.537L38.333,35.954z"/>
</svg>
