<?xml version="1.0" encoding="utf-8"?>
<!-- Generator: Adobe Illustrator 16.0.0, SVG Export Plug-In . SVG Version: 6.00 Build 0)  -->
<!DOCTYPE svg PUBLIC "-//W3C//DTD SVG 1.1//EN" "http://www.w3.org/Graphics/SVG/1.1/DTD/svg11.dtd">
<svg version="1.1" id="Layer_1" xmlns="http://www.w3.org/2000/svg" xmlns:xlink="http://www.w3.org/1999/xlink" x="0px" y="0px"
	 width="73.701px" height="73.701px" viewBox="0 0 73.701 73.701" enable-background="new 0 0 73.701 73.701" xml:space="preserve">
<path id="Conversion_Optimization_1_" fill-rule="evenodd" clip-rule="evenodd" fill="#404041" d="M36.85,22.235
	c1.366,0,2.471,1.106,2.471,2.472c0,1.364-1.105,2.47-2.471,2.47c-1.363,0-2.47-1.105-2.47-2.47
	C34.38,23.341,35.487,22.235,36.85,22.235L36.85,22.235z M40.03,43.157l10.758-12.984c0.154-0.201,0.234-0.409,0.234-0.621
	c0-1.057-1.971-2-5.07-2.629c0.014-0.091,0.021-0.184,0.021-0.277c0-0.916-0.742-1.66-1.658-1.66s-1.658,0.744-1.658,1.66
	s0.742,1.658,1.658,1.658c0.418,0,0.799-0.154,1.09-0.408c0.791,0.144,3.588,0.65,3.588,1.412c0,1.078-5.436,1.954-12.143,1.954
	c-6.705,0-12.141-0.876-12.141-1.954c0-0.964,4.576-1.582,5.045-1.646c0.294-0.003,0.533-0.243,0.533-0.538
	c0-0.296-0.242-0.538-0.538-0.538c-0.049,0-0.097,0.007-0.142,0.02c-4.148,0.597-6.93,1.693-6.93,2.947
	c0,0.209,0.08,0.416,0.229,0.616l10.761,12.987l0.528,2.848c-1.532,0.906-2.56,2.578-2.56,4.486c0,2.879,2.333,5.213,5.211,5.213
	c2.877,0,5.211-2.334,5.211-5.213c0-1.908-1.027-3.578-2.559-4.486L40.03,43.157L40.03,43.157z M30.518,18
	c0.645,0,1.165,0.521,1.165,1.165c0,0.643-0.521,1.165-1.165,1.165c-0.643,0-1.164-0.522-1.164-1.165
	C29.354,18.522,29.875,18,30.518,18L30.518,18z M47.72,19.312c1.363,0,2.471,1.105,2.471,2.471s-1.107,2.471-2.471,2.471
	s-2.471-1.106-2.471-2.471C45.249,20.419,46.356,19.312,47.72,19.312L47.72,19.312z M26.18,20.859c1.364,0,2.471,1.105,2.471,2.471
	c0,1.363-1.106,2.47-2.471,2.47c-1.365,0-2.471-1.106-2.471-2.47C23.709,21.964,24.815,20.859,26.18,20.859L26.18,20.859z
	 M36.85,8.504c-15.655,0-28.346,12.69-28.346,28.347c0,15.656,12.69,28.345,28.346,28.345c15.657,0,28.346-12.689,28.346-28.345
	C65.196,21.195,52.507,8.504,36.85,8.504z"/>
</svg>
