<?xml version="1.0" encoding="utf-8"?>
<!-- Generator: Adobe Illustrator 16.0.0, SVG Export Plug-In . SVG Version: 6.00 Build 0)  -->
<!DOCTYPE svg PUBLIC "-//W3C//DTD SVG 1.1//EN" "http://www.w3.org/Graphics/SVG/1.1/DTD/svg11.dtd">
<svg version="1.1" id="Layer_1" xmlns="http://www.w3.org/2000/svg" xmlns:xlink="http://www.w3.org/1999/xlink" x="0px" y="0px"
	 width="73.701px" height="73.701px" viewBox="0 0 73.701 73.701" enable-background="new 0 0 73.701 73.701" xml:space="preserve">
<path id="Creative_Campaigns_1_" fill-rule="evenodd" clip-rule="evenodd" fill="#404041" d="M36.85,8.504
	c15.657,0,28.346,12.69,28.346,28.346c0,15.657-12.689,28.346-28.346,28.346c-15.655,0-28.346-12.689-28.346-28.346
	C8.504,21.195,21.195,8.504,36.85,8.504L36.85,8.504z M42.118,52.651c0-1.262,0.002-1.764,0.002-3.025c0-0.418-0.342-0.76-0.76-0.76
	h-9.122c-0.418,0-0.76,0.342-0.76,0.76c0,1.262,0,1.764,0,3.025c0,1.064,1.462,1.736,3.303,2.014
	c0.004,0.492,0.408,0.895,0.902,0.895h2.229c0.494,0,0.898-0.402,0.902-0.895C40.655,54.39,42.118,53.718,42.118,52.651
	L42.118,52.651z M28.123,30.292c0,0.479,0.388,0.867,0.868,0.867c0.479,0,0.866-0.389,0.866-0.867c0-3.834,3.108-6.943,6.943-6.943
	c0.479,0,0.867-0.389,0.867-0.867s-0.388-0.868-0.867-0.868l-0.029,0.001c-4.771,0.018-8.632,3.878-8.648,8.647V30.292
	L28.123,30.292z M36.8,18.141c-6.71,0-12.149,5.439-12.149,12.15c0,3.023,1.051,5.69,2.993,7.987
	c1.73,1.988,3.011,4.377,3.684,7.008h0.002c0.14,0.551,0.633,0.961,1.223,0.973h0.029h8.439h0.029
	c0.582-0.012,1.068-0.408,1.215-0.945l0.008-0.027c0.674-2.635,1.957-5.027,3.689-7.018c1.861-2.132,2.988-4.923,2.988-7.977
	C48.95,23.581,43.509,18.141,36.8,18.141L36.8,18.141z M18.465,29.917c-0.205,0-0.374,0.168-0.374,0.374l0,0
	c0,0.206,0.169,0.374,0.374,0.374h2.818c0.206,0,0.374-0.168,0.374-0.374l0,0c0-0.206-0.168-0.374-0.374-0.374H18.465L18.465,29.917
	z M52.317,29.917c-0.207,0-0.375,0.168-0.375,0.374l0,0c0,0.206,0.168,0.374,0.375,0.374h2.818c0.205,0,0.373-0.168,0.373-0.374l0,0
	c0-0.206-0.168-0.374-0.373-0.374H52.317L52.317,29.917z M20.735,39.134c-0.179,0.102-0.239,0.332-0.137,0.512l0,0
	c0.104,0.178,0.332,0.24,0.511,0.137l2.44-1.41c0.179-0.102,0.24-0.332,0.138-0.51l0,0c-0.104-0.18-0.333-0.24-0.512-0.139
	L20.735,39.134L20.735,39.134z M50.052,22.208c-0.18,0.104-0.24,0.334-0.139,0.512l0,0c0.104,0.178,0.334,0.24,0.512,0.137
	l2.441-1.409c0.178-0.103,0.238-0.333,0.137-0.511l0,0c-0.104-0.179-0.332-0.24-0.512-0.137L50.052,22.208L50.052,22.208z
	 M21.109,20.799c-0.178-0.104-0.407-0.042-0.511,0.137l0,0c-0.103,0.178-0.042,0.408,0.137,0.511l2.44,1.409
	c0.179,0.104,0.408,0.041,0.512-0.137l0,0c0.103-0.178,0.041-0.408-0.138-0.512L21.109,20.799L21.109,20.799z M50.425,37.724
	c-0.178-0.102-0.408-0.041-0.512,0.139l0,0c-0.102,0.178-0.041,0.408,0.139,0.51l2.439,1.41c0.178,0.104,0.408,0.041,0.512-0.137
	l0,0c0.102-0.18,0.041-0.41-0.137-0.512L50.425,37.724z"/>
</svg>
