<?xml version="1.0" encoding="utf-8"?>
<!-- Generator: Adobe Illustrator 16.0.0, SVG Export Plug-In . SVG Version: 6.00 Build 0)  -->
<!DOCTYPE svg PUBLIC "-//W3C//DTD SVG 1.1//EN" "http://www.w3.org/Graphics/SVG/1.1/DTD/svg11.dtd">
<svg version="1.1" id="Layer_1" xmlns="http://www.w3.org/2000/svg" xmlns:xlink="http://www.w3.org/1999/xlink" x="0px" y="0px"
	 width="73.701px" height="73.701px" viewBox="0 0 73.701 73.701" enable-background="new 0 0 73.701 73.701" xml:space="preserve">
<path id="Custom_Coding_1_" fill-rule="evenodd" clip-rule="evenodd" fill="#404041" d="M36.851,8.504
	c15.655,0,28.347,12.691,28.347,28.347S52.506,65.197,36.851,65.197S8.504,52.506,8.504,36.851S21.195,8.504,36.851,8.504
	L36.851,8.504z M22.238,23.525c-0.229,0-0.414,0.186-0.414,0.413v18.283c0,0.226,0.193,0.412,0.414,0.412h29.225
	c0.221,0,0.414-0.194,0.414-0.412V23.938c0-0.22-0.187-0.413-0.414-0.413H22.238L22.238,23.525z M40.251,46.716h12.584
	c0.556,0,1.023-0.468,1.023-1.025V22.568c0-0.559-0.46-1.024-1.023-1.024H20.866c-0.563,0-1.023,0.459-1.023,1.024V45.69
	c0,0.565,0.467,1.025,1.023,1.025h12.583c0,2.989-2.411,5.416-5.396,5.441h17.594C42.662,52.132,40.251,49.706,40.251,46.716
	L40.251,46.716z M26.322,29.024l-1.668,1.669c-0.118,0.118-0.118,0.362,0,0.48l0.481,0.481c0.118,0.118,0.349,0.132,0.48,0
	c0.797-0.796,1.594-1.593,2.391-2.39c0.073-0.073,0.091-0.141,0.1-0.24v-0.001c-0.009-0.099-0.026-0.167-0.1-0.24
	c-0.797-0.796-1.594-1.593-2.391-2.39c-0.132-0.132-0.362-0.118-0.48,0l-0.48,0.481c-0.119,0.119-0.119,0.362-0.001,0.48
	L26.322,29.024L26.322,29.024z M31.687,38.552c-0.188,0-0.341,0.153-0.341,0.341v0.68c0,0.188,0.157,0.341,0.341,0.341h0.68
	c0.183,0,0.341-0.158,0.341-0.341v-0.68c0-0.184-0.153-0.341-0.341-0.341H31.687L31.687,38.552z M28.965,38.552
	c-0.188,0-0.34,0.153-0.34,0.341v0.68c0,0.188,0.157,0.341,0.34,0.341h0.681c0.183,0,0.34-0.158,0.34-0.341v-0.68
	c0-0.184-0.153-0.341-0.34-0.341H28.965L28.965,38.552z M32.188,30.389h-3.742c-0.171,0-0.34,0.168-0.34,0.34v0.681
	c0,0.171,0.153,0.34,0.34,0.34h3.742c0.188,0,0.341-0.153,0.341-0.34v-0.681C32.529,30.541,32.345,30.389,32.188,30.389
	L32.188,30.389z M32.369,34.47c-0.188,0-0.34,0.153-0.34,0.341v0.68c0,0.188,0.157,0.341,0.34,0.341h2.721
	c0.183,0,0.341-0.158,0.341-0.341v-0.68c0-0.183-0.153-0.341-0.341-0.341H32.369L32.369,34.47z M24.886,34.47
	c-0.188,0-0.341,0.153-0.341,0.341v0.68c0,0.188,0.158,0.341,0.341,0.341h5.442c0.183,0,0.34-0.158,0.34-0.341v-0.68
	c0-0.183-0.152-0.341-0.34-0.341H24.886L24.886,34.47z M37.131,34.47c-0.187,0-0.34,0.153-0.34,0.341v0.68
	c0,0.188,0.168,0.341,0.34,0.341h11.687c0.172,0,0.34-0.168,0.34-0.341v-0.68c0-0.173-0.153-0.341-0.34-0.341H37.131L37.131,34.47z
	 M34.407,38.552c-0.187,0-0.34,0.153-0.34,0.341v0.68c0,0.188,0.162,0.341,0.34,0.341h6.123c0.178,0,0.34-0.163,0.34-0.341v-0.68
	c0-0.178-0.152-0.341-0.34-0.341H34.407z"/>
</svg>
