<?xml version="1.0" encoding="utf-8"?>
<!-- Generator: Adobe Illustrator 16.0.0, SVG Export Plug-In . SVG Version: 6.00 Build 0)  -->
<!DOCTYPE svg PUBLIC "-//W3C//DTD SVG 1.1//EN" "http://www.w3.org/Graphics/SVG/1.1/DTD/svg11.dtd">
<svg version="1.1" id="Layer_1" xmlns="http://www.w3.org/2000/svg" xmlns:xlink="http://www.w3.org/1999/xlink" x="0px" y="0px"
	 width="73.701px" height="73.701px" viewBox="0 0 73.701 73.701" enable-background="new 0 0 73.701 73.701" xml:space="preserve">
<path id="E-Commerce_Solutions_1_" fill-rule="evenodd" clip-rule="evenodd" fill="#404041" d="M36.85,8.504
	c15.657,0,28.346,12.691,28.346,28.347S52.507,65.197,36.85,65.197c-15.655,0-28.346-12.691-28.346-28.347S21.195,8.504,36.85,8.504
	L36.85,8.504z M25.411,23.501h-4.266c-1.113,0-2.012,0.902-2.012,2.013v0.881h3.848l3.203,18.636
	c0.077,0.453,0.514,0.825,0.979,0.825H49.45c1.113,0,2.014-0.903,2.014-2.017V42.97H28.758l-0.425-2.473h19.861
	c2.223,0,4.32-1.779,4.688-3.971l1.686-10.12H25.911L25.411,23.501L25.411,23.501z M42.202,51.809c0,1.922,1.559,3.48,3.48,3.48
	c1.92,0,3.48-1.559,3.48-3.48s-1.561-3.48-3.48-3.48C43.761,48.328,42.202,49.887,42.202,51.809L42.202,51.809z M35.359,51.821
	c0-1.923-1.556-3.481-3.48-3.481c-1.923,0-3.481,1.559-3.481,3.481c0,1.922,1.559,3.481,3.481,3.481
	C33.803,55.303,35.359,53.743,35.359,51.821z"/>
</svg>
