<?xml version="1.0" encoding="utf-8"?>
<!-- Generator: Adobe Illustrator 16.0.0, SVG Export Plug-In . SVG Version: 6.00 Build 0)  -->
<!DOCTYPE svg PUBLIC "-//W3C//DTD SVG 1.1//EN" "http://www.w3.org/Graphics/SVG/1.1/DTD/svg11.dtd">
<svg version="1.1" id="Layer_1" xmlns="http://www.w3.org/2000/svg" xmlns:xlink="http://www.w3.org/1999/xlink" x="0px" y="0px"
	 width="73.701px" height="73.701px" viewBox="0 0 73.701 73.701" enable-background="new 0 0 73.701 73.701" xml:space="preserve">
<path id="E-Mail_Marketing_1_" fill-rule="evenodd" clip-rule="evenodd" fill="#404041" d="M36.851,8.504
	c15.655,0,28.346,12.691,28.346,28.347s-12.69,28.347-28.346,28.347c-15.656,0-28.347-12.691-28.347-28.347
	S21.194,8.504,36.851,8.504L36.851,8.504z M50.457,35.658v-8.541h-7.274v-7.274H24.604c-0.748,0-1.36,0.613-1.36,1.36v14.456
	l-3.401-1.965v20.165c11.338,0,22.678,0,34.016,0V33.694L50.457,35.658L50.457,35.658z M43.483,42.042l4.885,4.883l-1.831,1.057
	l-4.883-4.883c-1.603,0.925-3.201,1.849-4.804,2.772c-4.99-2.88-9.979-5.76-14.967-8.641v14.588h29.934V37.23L43.483,42.042
	L43.483,42.042z M30.552,44.593l-1.83-1.056l-3.389,3.388l1.83,1.057L30.552,44.593L30.552,44.593z M49.568,25.757l-5.025-5.025
	v5.025H49.568L49.568,25.757z M31.745,33.921c-0.188,0-0.34,0.153-0.34,0.34v0.681c0,0.187,0.162,0.34,0.34,0.34h6.123
	c0.178,0,0.34-0.162,0.34-0.34v-0.681c0-0.178-0.152-0.34-0.34-0.34H31.745L31.745,33.921z M32.429,29.839
	c-0.188,0-0.34,0.153-0.34,0.34v0.681c0,0.187,0.156,0.34,0.34,0.34h2.721c0.184,0,0.34-0.156,0.34-0.34v-0.681
	c0-0.184-0.152-0.34-0.34-0.34H32.429L32.429,29.839z M26.306,29.839c-0.188,0-0.34,0.153-0.34,0.34v0.681
	c0,0.187,0.156,0.34,0.34,0.34h4.082c0.184,0,0.34-0.156,0.34-0.34v-0.681c0-0.184-0.152-0.34-0.34-0.34H26.306L26.306,29.839z
	 M37.19,29.839c-0.188,0-0.34,0.153-0.34,0.34v0.681c0,0.187,0.164,0.34,0.34,0.34h10.205c0.176,0,0.34-0.164,0.34-0.34v-0.681
	c0-0.176-0.152-0.34-0.34-0.34H37.19L37.19,29.839z M26.306,25.757c-0.188,0-0.34,0.153-0.34,0.34v0.681
	c0,0.188,0.16,0.34,0.34,0.34h0.68c0.18,0,0.34-0.161,0.34-0.34v-0.681c0-0.179-0.152-0.34-0.34-0.34H26.306L26.306,25.757z
	 M34.13,25.757h-5.104c-0.172,0-0.34,0.167-0.34,0.34v0.681c0,0.173,0.153,0.34,0.34,0.34h5.104c0.187,0,0.34-0.152,0.34-0.34
	v-0.681C34.47,25.91,34.288,25.757,34.13,25.757L34.13,25.757z M26.303,33.921c-0.188,0-0.341,0.153-0.341,0.34v0.681
	c0,0.187,0.158,0.34,0.341,0.34h0.681c0.183,0,0.34-0.157,0.34-0.34v-0.681c0-0.183-0.153-0.34-0.34-0.34H26.303L26.303,33.921z
	 M29.024,33.921c-0.188,0-0.34,0.153-0.34,0.34v0.681c0,0.187,0.156,0.34,0.34,0.34h0.68c0.184,0,0.34-0.157,0.34-0.34v-0.681
	c0-0.183-0.152-0.34-0.34-0.34H29.024z"/>
</svg>
