<?xml version="1.0" encoding="utf-8"?>
<!-- Generator: Adobe Illustrator 16.0.0, SVG Export Plug-In . SVG Version: 6.00 Build 0)  -->
<!DOCTYPE svg PUBLIC "-//W3C//DTD SVG 1.1//EN" "http://www.w3.org/Graphics/SVG/1.1/DTD/svg11.dtd">
<svg version="1.1" id="Layer_1" xmlns="http://www.w3.org/2000/svg" xmlns:xlink="http://www.w3.org/1999/xlink" x="0px" y="0px"
	 width="73.701px" height="73.701px" viewBox="0 0 73.701 73.701" enable-background="new 0 0 73.701 73.701" xml:space="preserve">
<path id="Events_Calendar_1_" fill-rule="evenodd" clip-rule="evenodd" fill="#404041" d="M36.85,8.504
	c15.657,0,28.346,12.69,28.346,28.347c0,15.656-12.689,28.345-28.346,28.345c-15.655,0-28.346-12.689-28.346-28.345
	C8.504,21.195,21.195,8.504,36.85,8.504L36.85,8.504z M25.917,22.617h4.639v-1.92c0-0.471-0.398-0.854-0.889-0.854h-2.863
	c-0.49,0-0.887,0.384-0.887,0.854V22.617L25.917,22.617z M50.151,24.263c-8.867,0-17.733,0-26.6,0c-2.119,0-3.846,1.658-3.846,3.697
	v20.5c0,2.039,1.725,3.697,3.846,3.697h26.6c2.119,0,3.846-1.658,3.846-3.697v-20.5C53.997,25.921,52.271,24.263,50.151,24.263
	L50.151,24.263z M43.085,22.617h4.639v-1.92c0-0.471-0.396-0.854-0.887-0.854h-2.865c-0.49,0-0.887,0.384-0.887,0.854V22.617
	L43.085,22.617z M51.286,48.118V32.219c0-0.792-0.646-1.439-1.439-1.439H23.816c-0.792,0-1.44,0.647-1.44,1.439v15.899
	c0,0.783,0.664,1.42,1.48,1.42h25.952C50.624,49.538,51.286,48.901,51.286,48.118L51.286,48.118z M35.883,38.612
	c-0.282,0-0.512,0.23-0.512,0.514v2.061c0,0.283,0.229,0.514,0.512,0.514h2.063c0.281,0,0.512-0.23,0.512-0.514v-2.061
	c0-0.283-0.23-0.514-0.512-0.514H35.883L35.883,38.612z M30.584,38.614c-0.281,0-0.513,0.23-0.513,0.514v2.061
	c0,0.281,0.231,0.512,0.513,0.512h2.061c0.283,0,0.514-0.23,0.514-0.512v-2.061c0-0.283-0.23-0.514-0.514-0.514H30.584
	L30.584,38.614z M25.286,38.614c-0.283,0-0.514,0.23-0.514,0.514v2.061c0,0.281,0.23,0.512,0.514,0.512h2.061
	c0.281,0,0.512-0.23,0.512-0.512v-2.061c0-0.283-0.23-0.514-0.512-0.514H25.286L25.286,38.614z M41.183,38.614
	c-0.281,0-0.514,0.229-0.514,0.512v2.061c0,0.283,0.232,0.514,0.514,0.514h2.061c0.283,0,0.514-0.23,0.514-0.514v-2.061
	c0-0.283-0.23-0.512-0.514-0.512H41.183L41.183,38.614z M46.481,38.614c-0.281,0-0.512,0.229-0.512,0.514v2.061
	c0,0.283,0.23,0.512,0.512,0.512h2.061c0.283,0,0.514-0.229,0.514-0.512v-2.061c0-0.285-0.23-0.514-0.514-0.514H46.481
	L46.481,38.614z M35.883,33.309c-0.282,0-0.512,0.232-0.512,0.516v2.06c0,0.284,0.229,0.515,0.512,0.515h2.063
	c0.281,0,0.512-0.23,0.512-0.515v-2.06c0-0.283-0.23-0.516-0.512-0.516H35.883L35.883,33.309z M30.584,33.313
	c-0.282,0-0.513,0.229-0.513,0.512v2.061c0,0.284,0.23,0.514,0.513,0.514h2.061c0.284,0,0.514-0.229,0.514-0.514v-2.061
	c0-0.283-0.229-0.512-0.514-0.512H30.584L30.584,33.313z M41.183,33.309c-0.281,0-0.514,0.232-0.514,0.516v2.06
	c0,0.284,0.232,0.514,0.514,0.514h2.061c0.283,0,0.514-0.229,0.514-0.514v-2.06c0-0.283-0.23-0.516-0.514-0.516H41.183
	L41.183,33.309z M46.481,33.312c-0.281,0-0.512,0.229-0.512,0.513v2.061c0,0.284,0.23,0.515,0.512,0.515h2.061
	c0.283,0,0.514-0.23,0.514-0.515v-2.061c0-0.283-0.23-0.513-0.514-0.513H46.481L46.481,33.312z M35.883,43.915
	c-0.282,0-0.512,0.23-0.512,0.514v2.061c0,0.283,0.229,0.512,0.512,0.512h2.063c0.281,0,0.512-0.229,0.512-0.512v-2.061
	c0-0.283-0.23-0.514-0.512-0.514H35.883L35.883,43.915z M30.584,43.915c-0.281,0-0.513,0.23-0.513,0.514v2.061
	c0,0.283,0.231,0.514,0.513,0.514h2.061c0.283,0,0.514-0.23,0.514-0.514v-2.061c0-0.283-0.23-0.514-0.514-0.514H30.584
	L30.584,43.915z M25.286,43.915c-0.283,0-0.514,0.23-0.514,0.514v2.061c0,0.283,0.23,0.514,0.514,0.514h2.061
	c0.281,0,0.512-0.23,0.512-0.514v-2.061c0-0.283-0.23-0.514-0.512-0.514H25.286z"/>
</svg>
