<?xml version="1.0" encoding="utf-8"?>
<!-- Generator: Adobe Illustrator 16.0.0, SVG Export Plug-In . SVG Version: 6.00 Build 0)  -->
<!DOCTYPE svg PUBLIC "-//W3C//DTD SVG 1.1//EN" "http://www.w3.org/Graphics/SVG/1.1/DTD/svg11.dtd">
<svg version="1.1" id="Layer_1" xmlns="http://www.w3.org/2000/svg" xmlns:xlink="http://www.w3.org/1999/xlink" x="0px" y="0px"
	 width="73.701px" height="73.701px" viewBox="0 0 73.701 73.701" enable-background="new 0 0 73.701 73.701" xml:space="preserve">
<path id="Games_Development_1_" fill-rule="evenodd" clip-rule="evenodd" fill="#404041" d="M36.85,8.504
	c15.656,0,28.347,12.691,28.347,28.347S52.506,65.197,36.85,65.197c-15.655,0-28.346-12.691-28.346-28.347S21.194,8.504,36.85,8.504
	L36.85,8.504z M44.623,26.95c-0.748,0-1.353,0.605-1.353,1.352c0,0.747,0.604,1.352,1.353,1.352c0.746,0,1.352-0.604,1.352-1.352
	C45.975,27.556,45.369,26.95,44.623,26.95L44.623,26.95z M36.849,19.919c-0.405,0-0.735,0.332-0.735,0.736v2.949
	c0,0.405,0.33,0.736,0.735,0.736h0.002c0.405,0,0.736-0.331,0.736-0.736v-2.949c0-0.404-0.331-0.736-0.736-0.736H36.849
	L36.849,19.919z M41.184,30.389c-0.746,0-1.352,0.605-1.352,1.352c0,0.747,0.605,1.353,1.352,1.353c0.747,0,1.353-0.605,1.353-1.353
	C42.536,30.994,41.931,30.389,41.184,30.389L41.184,30.389z M44.623,33.828c-0.748,0-1.353,0.604-1.353,1.352
	c0,0.745,0.604,1.352,1.353,1.352c0.746,0,1.352-0.606,1.352-1.352C45.975,34.433,45.369,33.828,44.623,33.828L44.623,33.828z
	 M48.063,30.388c-0.747,0-1.353,0.605-1.353,1.353s0.605,1.353,1.353,1.353c0.745,0,1.351-0.605,1.351-1.353
	S48.808,30.388,48.063,30.388L48.063,30.388z M29.076,26.95c-0.744,0-1.352,0.607-1.352,1.352v2.086h-2.086
	c-0.744,0-1.352,0.607-1.352,1.353v0.001c0,0.743,0.607,1.352,1.352,1.352h2.086v2.088c0,0.742,0.607,1.351,1.352,1.351h0.002
	c0.744,0,1.352-0.608,1.352-1.351v-2.088h2.088c0.743,0,1.351-0.608,1.351-1.352V31.74c0-0.745-0.607-1.353-1.351-1.353H30.43
	v-2.086c0-0.744-0.607-1.352-1.352-1.352H29.076L29.076,26.95z M29.077,23.968c-3.792,0-6.949,2.714-7.635,6.306l0,0l-2.899,14.737
	h0.001l-0.004,0.014l-0.004,0.015l-0.003,0.014l-0.004,0.015l-0.004,0.015l-0.002,0.01l-0.001,0.005L18.52,45.11l-0.004,0.015
	l-0.002,0.015l-0.003,0.015l-0.013,0.058l-0.002,0.015l-0.004,0.015l-0.003,0.015l-0.002,0.015l-0.002,0.009l-0.001,0.006
	L18.482,45.3l-0.003,0.015l-0.002,0.015l-0.003,0.015l-0.003,0.015l-0.002,0.015l-0.001,0.001l-0.001,0.014l-0.003,0.015
	l-0.002,0.015l-0.001,0.016l-0.003,0.015l-0.002,0.015l-0.001,0.009l-0.001,0.006l-0.002,0.015l-0.001,0.016l-0.003,0.015
	l-0.001,0.016l-0.001,0.015l-0.002,0.015l-0.001,0.001l-0.001,0.014l-0.001,0.016l-0.001,0.016l-0.002,0.015l-0.001,0.015
	l-0.002,0.016l-0.001,0.008v0.007l-0.001,0.015l-0.001,0.016l-0.001,0.016l-0.001,0.015l-0.001,0.015l-0.001,0.015v0.001v0.015
	l-0.001,0.016l-0.001,0.015l-0.001,0.016v0.016l-0.001,0.015v0.008v0.008v0.016V45.9l-0.001,0.015v0.015v0.016v0.016
	c0,2.128,1.725,3.853,3.853,3.853l0.061-0.001l0.039-0.001h0.021l0.061-0.002l0.017-0.001l0.043-0.003l0.055-0.003l0.006-0.001
	l0.06-0.005l0.032-0.003l0.027-0.003l0.06-0.007l0.01-0.002l0.048-0.006l0.049-0.007l0.011-0.003l0.058-0.009l0.026-0.005
	l0.032-0.006l0.058-0.011l0.004-0.001l0.054-0.011l0.04-0.01l0.017-0.004l0.057-0.014l0.02-0.006l0.037-0.009l0.056-0.015v-0.001
	l0.056-0.017l0.035-0.01l0.021-0.007l0.055-0.018l0.015-0.005l0.04-0.015l0.049-0.017l0.006-0.002l0.054-0.021l0.028-0.011
	l0.079-0.031l0.008-0.004l0.044-0.02l0.042-0.019l0.011-0.005l0.052-0.023l0.022-0.011l0.029-0.015l0.051-0.025l0.003-0.002h0.001
	l0.082-0.043l0.015-0.009l0.05-0.027l0.017-0.009l0.033-0.021l0.047-0.027l0.001-0.001l0.049-0.03l0.029-0.018l0.019-0.013
	l0.048-0.031l0.011-0.008l0.036-0.024l0.041-0.028l0.006-0.004l0.045-0.033l0.023-0.017l0.021-0.018l0.045-0.034l0.007-0.005
	l0.038-0.03l0.034-0.028l0.01-0.008l0.061-0.052l0.025-0.021l0.042-0.038l0.002-0.002l0.04-0.037l0.027-0.025l0.014-0.013l0.04-0.04
	l0.013-0.012l0.027-0.027l0.037-0.039l0.002-0.002l0.039-0.041l0.022-0.024l0.015-0.018l0.038-0.043l0.008-0.009l0.029-0.034
	l0.03-0.037l0.006-0.006l0.036-0.044l0.017-0.021l0.018-0.023l0.035-0.045l0.003-0.006l0.03-0.04l0.024-0.034l0.009-0.011
	l7.067-8.425h8.712l7.067,8.425c0.697,0.987,1.849,1.633,3.149,1.633c2.128,0,3.853-1.725,3.853-3.853
	c0-0.328-0.042-0.646-0.119-0.95h0.001l-2.899-14.737h-0.001c-0.686-3.592-3.843-6.306-7.634-6.306c-1.919,0-3.675,0.694-5.03,1.847
	h-5.485C32.752,24.662,30.996,23.968,29.077,23.968z"/>
</svg>
