<?xml version="1.0" encoding="utf-8"?>
<!-- Generator: Adobe Illustrator 16.0.0, SVG Export Plug-In . SVG Version: 6.00 Build 0)  -->
<!DOCTYPE svg PUBLIC "-//W3C//DTD SVG 1.1//EN" "http://www.w3.org/Graphics/SVG/1.1/DTD/svg11.dtd">
<svg version="1.1" id="Layer_1" xmlns="http://www.w3.org/2000/svg" xmlns:xlink="http://www.w3.org/1999/xlink" x="0px" y="0px"
	 width="73.701px" height="73.701px" viewBox="0 0 73.701 73.701" enable-background="new 0 0 73.701 73.701" xml:space="preserve">
<path id="Goals_Completion_1_" fill-rule="evenodd" clip-rule="evenodd" fill="#404041" d="M36.85,8.504
	c15.657,0,28.346,12.691,28.346,28.347S52.507,65.197,36.85,65.197c-15.655,0-28.346-12.691-28.346-28.347S21.195,8.504,36.85,8.504
	L36.85,8.504z M20.557,23.356c-0.596,0.277-0.853,0.984-0.575,1.579l0.008,0.016l14.745,31.623c0.276,0.594,0.984,0.852,1.58,0.574
	c0.594-0.277,0.852-0.985,0.574-1.579L22.136,23.931C21.858,23.336,21.151,23.079,20.557,23.356L20.557,23.356z M35.075,23.262
	c-0.373,0-0.535,0.306-0.363,0.679l1.555,3.347h-9.983c-0.373,0-0.535,0.305-0.363,0.679l5.044,10.862
	c0.173,0.373,0.621,0.679,0.993,0.679h13.3c0.373,0,0.537-0.307,0.363-0.679l-1.555-3.347h9.766l-7.51-6.051l1.936-6.169H35.075z"/>
</svg>
