<?xml version="1.0" encoding="utf-8"?>
<!-- Generator: Adobe Illustrator 16.0.0, SVG Export Plug-In . SVG Version: 6.00 Build 0)  -->
<!DOCTYPE svg PUBLIC "-//W3C//DTD SVG 1.1//EN" "http://www.w3.org/Graphics/SVG/1.1/DTD/svg11.dtd">
<svg version="1.1" id="Layer_1" xmlns="http://www.w3.org/2000/svg" xmlns:xlink="http://www.w3.org/1999/xlink" x="0px" y="0px"
	 width="73.701px" height="73.701px" viewBox="0 0 73.701 73.701" enable-background="new 0 0 73.701 73.701" xml:space="preserve">
<path id="Hosting_Services_1_" fill-rule="evenodd" clip-rule="evenodd" fill="#404041" d="M36.851,8.504
	c15.656,0,28.345,12.691,28.345,28.347S52.507,65.197,36.851,65.197c-15.656,0-28.347-12.691-28.347-28.347
	S21.195,8.504,36.851,8.504L36.851,8.504z M21.204,48.585c-0.358,0-0.651,0.293-0.651,0.652v0.978c0,0.359,0.293,0.652,0.651,0.652
	h12.421c0.473,1.326,1.742,2.282,3.226,2.282h0.001c1.484,0,2.753-0.956,3.226-2.282h12.42c0.359,0,0.652-0.293,0.652-0.652v-0.978
	c0-0.359-0.293-0.652-0.652-0.652h-12.42c-0.346-0.968-1.117-1.74-2.086-2.085v-2.478c0-0.359-0.293-0.652-0.652-0.652h-0.978
	c-0.358,0-0.651,0.293-0.651,0.652V46.5c-0.969,0.345-1.74,1.117-2.086,2.085H21.204L21.204,48.585z M49.077,24.301H37.665
	c-0.449,0-0.814,0.366-0.814,0.814l0,0c0,0.449,0.365,0.815,0.814,0.815h11.412c0.447,0,0.813-0.366,0.813-0.815l0,0
	C49.89,24.667,49.524,24.301,49.077,24.301L49.077,24.301z M25.441,26.744c0.9,0,1.631-0.73,1.631-1.63s-0.73-1.63-1.631-1.63
	c-0.899,0-1.629,0.73-1.629,1.63S24.542,26.744,25.441,26.744L25.441,26.744z M23.812,20.551c-1.793,0-3.26,1.468-3.26,3.26v2.608
	c0,1.792,1.467,3.26,3.26,3.26H49.89c1.793,0,3.26-1.468,3.26-3.26v-2.608c0-1.792-1.467-3.26-3.26-3.26H23.812L23.812,20.551z
	 M49.077,35.71H37.665c-0.449,0-0.814,0.366-0.814,0.815l0,0c0,0.448,0.365,0.814,0.814,0.814h11.412
	c0.447,0,0.813-0.366,0.813-0.814l0,0C49.89,36.076,49.524,35.71,49.077,35.71L49.077,35.71z M25.441,38.153
	c0.9,0,1.631-0.73,1.631-1.63s-0.73-1.63-1.631-1.63c-0.899,0-1.629,0.73-1.629,1.63S24.542,38.153,25.441,38.153L25.441,38.153z
	 M23.812,31.96c-1.793,0-3.26,1.468-3.26,3.261v2.607c0,1.792,1.467,3.26,3.26,3.26H49.89c1.793,0,3.26-1.468,3.26-3.26v-2.607
	c0-1.793-1.467-3.261-3.26-3.261H23.812z"/>
</svg>
