<?xml version="1.0" encoding="utf-8"?>
<!-- Generator: Adobe Illustrator 16.0.0, SVG Export Plug-In . SVG Version: 6.00 Build 0)  -->
<!DOCTYPE svg PUBLIC "-//W3C//DTD SVG 1.1//EN" "http://www.w3.org/Graphics/SVG/1.1/DTD/svg11.dtd">
<svg version="1.1" id="Layer_1" xmlns="http://www.w3.org/2000/svg" xmlns:xlink="http://www.w3.org/1999/xlink" x="0px" y="0px"
	 width="73.701px" height="73.701px" viewBox="0 0 73.701 73.701" enable-background="new 0 0 73.701 73.701" xml:space="preserve">
<path id="In-Store_Promotions_1_" fill-rule="evenodd" clip-rule="evenodd" fill="#404041" d="M36.851,8.504
	c15.655,0,28.347,12.691,28.347,28.347S52.506,65.197,36.851,65.197S8.504,52.506,8.504,36.851S21.195,8.504,36.851,8.504
	L36.851,8.504z M24.186,35.046v11.887c0.006,0.258,0.215,0.466,0.473,0.473h14.203c0.258-0.007,0.466-0.215,0.474-0.473V36.794
	c0-0.267,0.219-0.485,0.485-0.485h0.836c0.267,0,0.484,0.219,0.484,0.485v12.719c0.008,0.257,0.217,0.465,0.474,0.473h7.414
	c0.257-0.008,0.466-0.216,0.473-0.473V35.042c-1.343-0.394-2.324-1.632-2.334-3.101h-0.284c-0.011,1.787-1.461,3.231-3.249,3.231
	c-1.79,0-3.239-1.444-3.249-3.231H40.1c-0.011,1.787-1.46,3.231-3.249,3.231c-1.788,0-3.237-1.444-3.248-3.231h-0.285
	c-0.011,1.787-1.46,3.231-3.25,3.231c-1.788,0-3.237-1.444-3.249-3.231h-0.284C26.525,33.416,25.535,34.657,24.186,35.046
	L24.186,35.046z M53.58,32.674l0.986-4.851l-4.872-6.687H24.007l-4.873,6.687l0.986,4.839c0.27,1.143,1.13,2.055,2.26,2.383v14.94
	h-2.383c-0.267,0-0.485,0.219-0.485,0.485v1.608c0,0.267,0.219,0.485,0.485,0.485h33.708c0.267,0,0.485-0.219,0.485-0.485v-1.608
	c0-0.267-0.219-0.485-0.485-0.485h-2.398V35.049C52.433,34.729,53.309,33.818,53.58,32.674L53.58,32.674z M43.214,40.901
	c-0.152,0-0.277,0.125-0.277,0.277v3.212c0,0.152,0.126,0.277,0.277,0.277h0.528c0.151,0,0.277-0.127,0.277-0.277v-3.212
	c0-0.15-0.125-0.277-0.277-0.277H43.214L43.214,40.901z M28.654,43.635l0.373,0.373c0.108,0.107,0.285,0.107,0.393,0l5.058-5.057
	c0.107-0.108,0.107-0.285,0-0.394l-0.373-0.373c-0.109-0.107-0.285-0.107-0.394,0l-5.057,5.057
	C28.546,43.35,28.546,43.526,28.654,43.635L28.654,43.635z M32.55,44.021l0.374,0.375c0.108,0.107,0.284,0.107,0.392,0l1.549-1.549
	c0.108-0.108,0.108-0.284,0-0.393l-0.373-0.374c-0.108-0.108-0.285-0.108-0.393,0L32.55,43.63
	C32.441,43.737,32.441,43.914,32.55,44.021z"/>
</svg>
