<?xml version="1.0" encoding="utf-8"?>
<!-- Generator: Adobe Illustrator 16.0.0, SVG Export Plug-In . SVG Version: 6.00 Build 0)  -->
<!DOCTYPE svg PUBLIC "-//W3C//DTD SVG 1.1//EN" "http://www.w3.org/Graphics/SVG/1.1/DTD/svg11.dtd">
<svg version="1.1" id="Layer_1" xmlns="http://www.w3.org/2000/svg" xmlns:xlink="http://www.w3.org/1999/xlink" x="0px" y="0px"
	 width="73.701px" height="73.701px" viewBox="0 0 73.701 73.701" enable-background="new 0 0 73.701 73.701" xml:space="preserve">
<path id="Kayword_Analysis_1_" fill-rule="evenodd" clip-rule="evenodd" fill="#404041" d="M36.851,8.504
	c15.656,0,28.345,12.691,28.345,28.347S52.507,65.197,36.851,65.197c-15.655,0-28.347-12.691-28.347-28.347
	S21.196,8.504,36.851,8.504L36.851,8.504z M52.612,24.631L50.228,26.3c0.225,0.572,0.412,1.163,0.564,1.769l2.836-1.986
	c0.139,0.063,0.285,0.111,0.441,0.139c0.965,0.17,1.883-0.474,2.053-1.437c0.17-0.964-0.473-1.883-1.438-2.053
	c-0.963-0.17-1.881,0.473-2.053,1.437C52.604,24.324,52.599,24.479,52.612,24.631L52.612,24.631z M38.163,45.749v-1.848
	c6.242-0.657,11.105-5.935,11.105-12.35c0-6.858-5.561-12.418-12.418-12.418c-6.858,0-12.418,5.56-12.418,12.418
	c0,6.415,4.863,11.692,11.104,12.35v1.848c-1.177,0.511-2.003,1.686-2.003,3.043v2.458c0,1.823,1.494,3.317,3.316,3.317h0.001
	c1.822,0,3.316-1.495,3.316-3.317v-2.458C40.167,47.436,39.341,46.26,38.163,45.749L38.163,45.749z M36.85,21.769
	c-5.403,0-9.783,4.38-9.783,9.783c0,0.189,0.005,0.377,0.016,0.564l3.792-2.655c-0.044-0.241-0.048-0.496-0.002-0.753
	c0.203-1.155,1.307-1.928,2.462-1.724c1.131,0.2,1.895,1.258,1.738,2.386l4.508,2.873c0.436-0.281,0.973-0.406,1.523-0.31
	c0.258,0.046,0.494,0.135,0.707,0.26l4.498-3.149C45.2,24.855,41.386,21.769,36.85,21.769L36.85,21.769z M46.618,30.99l-3.791,2.654
	c0.045,0.241,0.047,0.496,0.002,0.753c-0.203,1.155-1.307,1.928-2.463,1.724c-1.131-0.199-1.893-1.257-1.736-2.384l-4.51-2.874
	c-0.436,0.282-0.973,0.405-1.522,0.309c-0.257-0.046-0.495-0.135-0.707-0.259l-4.498,3.148c1.108,4.188,4.922,7.274,9.458,7.274
	c5.403,0,9.784-4.38,9.784-9.784C46.634,31.363,46.628,31.176,46.618,30.99L46.618,30.99z M22.909,35.039l-2.836,1.984
	c-0.137-0.063-0.284-0.11-0.441-0.139c-0.963-0.17-1.882,0.474-2.053,1.438c-0.17,0.964,0.475,1.882,1.438,2.052
	c0.965,0.171,1.883-0.472,2.053-1.437c0.027-0.156,0.034-0.312,0.021-0.462l2.384-1.669C23.248,36.234,23.059,35.645,22.909,35.039z
	"/>
</svg>
