<?xml version="1.0" encoding="utf-8"?>
<!-- Generator: Adobe Illustrator 16.0.0, SVG Export Plug-In . SVG Version: 6.00 Build 0)  -->
<!DOCTYPE svg PUBLIC "-//W3C//DTD SVG 1.1//EN" "http://www.w3.org/Graphics/SVG/1.1/DTD/svg11.dtd">
<svg version="1.1" id="Layer_1" xmlns="http://www.w3.org/2000/svg" xmlns:xlink="http://www.w3.org/1999/xlink" x="0px" y="0px"
	 width="73.701px" height="73.701px" viewBox="0 0 73.701 73.701" enable-background="new 0 0 73.701 73.701" xml:space="preserve">
<path id="Keywords__x26__Rankings_1_" fill-rule="evenodd" clip-rule="evenodd" fill="#404041" d="M30.174,48.554h2.314V23.501
	c0-0.637,0.521-1.157,1.156-1.157h6.411c0.637,0,1.156,0.521,1.156,1.157v25.052h2.314V37.169c0-0.637,0.521-1.158,1.158-1.158h6.41
	c0.637,0,1.157,0.521,1.157,1.158v11.384h2.315v2.803c-11.811,0-23.623,0-35.434,0v-2.803h2.314V32.117
	c0-0.637,0.521-1.157,1.158-1.157h6.41c0.636,0,1.157,0.521,1.157,1.157V48.554L30.174,48.554z M36.851,8.504
	c-15.656,0-28.347,12.69-28.347,28.347c0,15.656,12.69,28.345,28.347,28.345c15.655,0,28.346-12.689,28.346-28.345
	C65.196,21.195,52.506,8.504,36.851,8.504z"/>
</svg>
