<?xml version="1.0" encoding="utf-8"?>
<!-- Generator: Adobe Illustrator 16.0.0, SVG Export Plug-In . SVG Version: 6.00 Build 0)  -->
<!DOCTYPE svg PUBLIC "-//W3C//DTD SVG 1.1//EN" "http://www.w3.org/Graphics/SVG/1.1/DTD/svg11.dtd">
<svg version="1.1" id="Layer_1" xmlns="http://www.w3.org/2000/svg" xmlns:xlink="http://www.w3.org/1999/xlink" x="0px" y="0px"
	 width="73.701px" height="73.701px" viewBox="0 0 73.701 73.701" enable-background="new 0 0 73.701 73.701" xml:space="preserve">
<path id="Keyword_Density_1_" fill-rule="evenodd" clip-rule="evenodd" fill="#404041" d="M36.851,8.504
	c15.655,0,28.347,12.69,28.347,28.347c0,15.656-12.691,28.345-28.347,28.345S8.504,52.507,8.504,36.851
	C8.504,21.195,21.195,8.504,36.851,8.504L36.851,8.504z M29.647,30.33c-0.187,0-0.34,0.152-0.34,0.34v0.68
	c0,0.188,0.163,0.341,0.34,0.341h6.123c0.178,0,0.34-0.163,0.34-0.341v-0.68c0-0.178-0.152-0.34-0.34-0.34H29.647L29.647,30.33z
	 M43.254,26.248c-0.187,0-0.34,0.152-0.34,0.34v0.681c0,0.187,0.178,0.34,0.34,0.34h2.161c0.163,0,0.341-0.178,0.341-0.34v-0.681
	c0-0.162-0.153-0.34-0.341-0.34H43.254L43.254,26.248z M24.886,26.248c-0.188,0-0.341,0.152-0.341,0.34v0.681
	c0,0.187,0.159,0.34,0.341,0.34h6.123c0.182,0,0.34-0.158,0.34-0.34v-0.681c0-0.182-0.153-0.34-0.34-0.34H24.886L24.886,26.248z
	 M24.886,30.33c-0.188,0-0.341,0.152-0.341,0.34v0.68c0,0.188,0.16,0.341,0.341,0.341h2.721c0.182,0,0.341-0.159,0.341-0.341v-0.68
	c0-0.182-0.153-0.34-0.341-0.34H24.886L24.886,30.33z M40.251,46.716h12.584c0.556,0,1.023-0.467,1.023-1.025V22.568
	c0-0.558-0.46-1.023-1.023-1.023H20.866c-0.564,0-1.023,0.459-1.023,1.023V45.69c0,0.564,0.467,1.025,1.023,1.025h12.583
	c0,2.99-2.412,5.416-5.396,5.441h17.593C42.662,52.132,40.251,49.706,40.251,46.716L40.251,46.716z M22.237,23.526
	c-0.228,0-0.413,0.186-0.413,0.413v18.283c0,0.227,0.193,0.412,0.413,0.412h29.226c0.221,0,0.414-0.193,0.414-0.412V23.939
	c0-0.221-0.187-0.413-0.414-0.413H22.237L22.237,23.526z M33.05,26.248c-0.188,0-0.341,0.152-0.341,0.34v0.681
	c0,0.187,0.155,0.34,0.341,0.34h0.34v1.021c0,0.188,0.153,0.34,0.34,0.34h0.681c0.187,0,0.34-0.153,0.34-0.34v-1.021h0.681v1.021
	c0,0.188,0.153,0.34,0.34,0.34h0.681c0.187,0,0.34-0.153,0.34-0.34v-1.021h0.797c0.279,0.792,0.916,1.36,1.925,1.36
	c1.008,0,2.041-0.913,2.041-2.041c0-1.127-1.033-2.041-2.041-2.041c-1.009,0-1.645,0.568-1.925,1.361
	C36.075,26.248,34.563,26.248,33.05,26.248L33.05,26.248z M39.513,26.248c-0.376,0-0.681,0.305-0.681,0.68
	c0,0.376,0.305,0.681,0.681,0.681c0.375,0,0.68-0.305,0.68-0.681C40.192,26.552,39.888,26.248,39.513,26.248L39.513,26.248z
	 M37.812,34.412c-0.188,0-0.34,0.152-0.34,0.34v0.68c0,0.188,0.164,0.341,0.34,0.341h4.763c0.176,0,0.34-0.164,0.34-0.341v-0.68
	c0-0.177-0.153-0.34-0.34-0.34H37.812L37.812,34.412z M35.09,34.412c-0.187,0-0.34,0.152-0.34,0.34v0.68
	c0,0.188,0.157,0.341,0.34,0.341h0.681c0.184,0,0.34-0.157,0.34-0.341v-0.68c0-0.184-0.152-0.34-0.34-0.34H35.09L35.09,34.412z
	 M24.886,34.412c-0.188,0-0.341,0.152-0.341,0.34v0.68c0,0.188,0.155,0.341,0.341,0.341h0.34v1.021c0,0.188,0.153,0.34,0.34,0.34
	h0.681c0.188,0,0.34-0.152,0.34-0.34v-1.021h0.681v1.021c0,0.188,0.153,0.34,0.34,0.34h0.681c0.188,0,0.34-0.152,0.34-0.34v-1.021
	h0.797c0.279,0.792,1.035,1.36,1.925,1.36c1.127,0,2.041-0.914,2.041-2.041c0-1.128-0.914-2.041-2.041-2.041
	c-0.89,0-1.645,0.567-1.925,1.361C27.911,34.412,26.398,34.412,24.886,34.412L24.886,34.412z M31.349,34.412
	c-0.376,0-0.681,0.304-0.681,0.68s0.305,0.681,0.681,0.681s0.681-0.305,0.681-0.681S31.725,34.412,31.349,34.412L31.349,34.412z
	 M37.812,30.33c-0.188,0-0.34,0.152-0.34,0.34v0.68c0,0.188,0.157,0.341,0.34,0.341h0.681c0.183,0,0.34-0.157,0.34-0.341v-0.68
	c0-0.184-0.153-0.34-0.34-0.34H37.812L37.812,30.33z M40.533,30.33c-0.188,0-0.341,0.152-0.341,0.34v0.68
	c0,0.188,0.166,0.341,0.341,0.341h8.282c0.174,0,0.34-0.166,0.34-0.341v-0.68c0-0.174-0.153-0.34-0.34-0.34H40.533z"/>
</svg>
