<?xml version="1.0" encoding="utf-8"?>
<!-- Generator: Adobe Illustrator 16.0.0, SVG Export Plug-In . SVG Version: 6.00 Build 0)  -->
<!DOCTYPE svg PUBLIC "-//W3C//DTD SVG 1.1//EN" "http://www.w3.org/Graphics/SVG/1.1/DTD/svg11.dtd">
<svg version="1.1" id="Layer_1" xmlns="http://www.w3.org/2000/svg" xmlns:xlink="http://www.w3.org/1999/xlink" x="0px" y="0px"
	 width="73.701px" height="73.701px" viewBox="0 0 73.701 73.701" enable-background="new 0 0 73.701 73.701" xml:space="preserve">
<path id="Landing_Page_Optimization_1_" fill-rule="evenodd" clip-rule="evenodd" fill="#404041" d="M36.851,8.504
	c15.655,0,28.347,12.69,28.347,28.347c0,15.656-12.691,28.345-28.347,28.345S8.504,52.507,8.504,36.851
	C8.504,21.195,21.195,8.504,36.851,8.504L36.851,8.504z M36.509,37.501c-0.188,0-0.341,0.154-0.341,0.34v0.682
	c0,0.188,0.155,0.34,0.341,0.34h2.721c0.186,0,0.341-0.154,0.341-0.34v-0.682c0-0.184-0.153-0.34-0.341-0.34H36.509L36.509,37.501z
	 M41.271,37.501c-0.187,0-0.34,0.154-0.34,0.34v0.682c0,0.188,0.155,0.34,0.34,0.34h3.401c0.185,0,0.341-0.156,0.341-0.34v-0.682
	c0-0.184-0.153-0.34-0.341-0.34H41.271L41.271,37.501z M36.509,33.419c-0.188,0-0.341,0.153-0.341,0.341v0.681
	c0,0.187,0.157,0.34,0.341,0.34h0.68c0.183,0,0.341-0.158,0.341-0.34V33.76c0-0.184-0.153-0.341-0.341-0.341H36.509L36.509,33.419z
	 M39.229,33.419c-0.187,0-0.34,0.153-0.34,0.341v0.681c0,0.187,0.157,0.34,0.34,0.34h0.681c0.183,0,0.34-0.158,0.34-0.34V33.76
	c0-0.184-0.153-0.341-0.34-0.341H39.229L39.229,33.419z M41.951,33.419c-0.188,0-0.341,0.153-0.341,0.341v0.681
	c0,0.187,0.162,0.34,0.341,0.34h6.805c0.179,0,0.34-0.162,0.34-0.34V33.76c0-0.18-0.152-0.341-0.34-0.341H41.951L41.951,33.419z
	 M36.509,42.263c-0.188,0-0.341,0.154-0.341,0.342v2.041c0,0.186,0.153,0.34,0.341,0.34h4.422c0.187,0,0.34-0.154,0.34-0.34v-2.041
	c0-0.188-0.153-0.342-0.34-0.342H36.509L36.509,42.263z M43.651,42.263c-0.187,0-0.34,0.154-0.34,0.342v2.041
	c0,0.186,0.153,0.34,0.34,0.34h4.422c0.188,0,0.341-0.154,0.341-0.34v-2.041c0-0.188-0.153-0.342-0.341-0.342H43.651L43.651,42.263z
	 M24.945,30.699c-0.188,0-0.34,0.152-0.34,0.34v16.328c0,0.188,0.155,0.34,0.34,0.34h8.161c0.185,0,0.341-0.156,0.341-0.34V31.039
	c0-0.184-0.153-0.34-0.341-0.34H24.945L24.945,30.699z M23.243,23.245c-0.751,0-1.36,0.609-1.36,1.36s0.609,1.36,1.36,1.36
	s1.36-0.609,1.36-1.36S23.994,23.245,23.243,23.245L23.243,23.245z M31.407,23.245c-0.751,0-1.361,0.609-1.361,1.36
	s0.61,1.36,1.361,1.36s1.36-0.609,1.36-1.36S32.158,23.245,31.407,23.245L31.407,23.245z M27.325,23.245
	c-0.752,0-1.36,0.609-1.36,1.36s0.608,1.36,1.36,1.36s1.36-0.609,1.36-1.36S28.077,23.245,27.325,23.245L27.325,23.245z
	 M53.858,22.652c0-0.797-0.651-1.448-1.447-1.448c-10.374,0-20.747,0-31.121,0c-0.796,0-1.447,0.651-1.447,1.448
	c0,10.374,0,18.025,0,28.4c0,0.793,0.651,1.445,1.447,1.445h31.121c0.796,0,1.447-0.65,1.447-1.445
	C53.858,40.679,53.858,33.025,53.858,22.652L53.858,22.652z M21.884,28.729c0,7.495,0,13.508,0,21.004
	c0,0.395,0.34,0.723,0.724,0.723h28.486c0.384,0,0.724-0.336,0.724-0.723c0-7.496,0-13.509,0-21.004
	c0-0.387-0.326-0.723-0.724-0.723c-9.289,0-19.197,0-28.486,0C22.21,28.006,21.884,28.334,21.884,28.729z"/>
</svg>
