<?xml version="1.0" encoding="utf-8"?>
<!-- Generator: Adobe Illustrator 16.0.0, SVG Export Plug-In . SVG Version: 6.00 Build 0)  -->
<!DOCTYPE svg PUBLIC "-//W3C//DTD SVG 1.1//EN" "http://www.w3.org/Graphics/SVG/1.1/DTD/svg11.dtd">
<svg version="1.1" id="Layer_1" xmlns="http://www.w3.org/2000/svg" xmlns:xlink="http://www.w3.org/1999/xlink" x="0px" y="0px"
	 width="73.701px" height="73.701px" viewBox="0 0 73.701 73.701" enable-background="new 0 0 73.701 73.701" xml:space="preserve">
<path id="Link_Building_1_" fill-rule="evenodd" clip-rule="evenodd" fill="#404041" d="M33.413,47.179
	c0.771-0.771,2.023-0.771,2.794-0.002c0.771,0.771,0.771,2.02,0,2.795l-0.735,0.734c-3.445,3.447-9.032,3.447-12.477,0.002
	c-3.455-3.455-3.424-8.943-0.049-12.422c-0.006-0.008,4.926-4.929,5.553-5.555c3.48-3.374,8.969-3.405,12.424,0.049
	c0.77,0.771,0.77,2.021,0,2.793c-0.771,0.771-2.023,0.771-2.793,0l-0.002,0.001c-1.895-1.896-4.939-1.903-6.843-0.046
	c-2.331,2.331-3.212,3.211-5.542,5.542c-1.857,1.906-1.85,4.951,0.045,6.844c1.895,1.896,4.987,1.902,6.891,0L33.413,47.179
	L33.413,47.179z M40.288,26.524l0.734-0.736c1.904-1.902,4.996-1.896,6.891,0c1.896,1.894,1.902,4.938,0.047,6.844
	c-2.332,2.33-3.213,3.213-5.543,5.543c-1.904,1.857-4.949,1.85-6.844-0.047l-0.001,0.002c-0.771-0.771-2.022-0.771-2.793,0
	s-0.771,2.021,0,2.793c3.453,3.453,8.943,3.422,12.423,0.049c0.627-0.625,5.561-5.549,5.555-5.555
	c3.373-3.48,3.404-8.969-0.051-12.423c-3.443-3.445-9.031-3.445-12.477,0.001l-0.734,0.736c-0.771,0.773-0.771,2.021,0,2.793
	C38.267,27.295,39.517,27.295,40.288,26.524L40.288,26.524z M36.851,8.504c-15.655,0-28.347,12.69-28.347,28.347
	c0,15.656,12.691,28.345,28.347,28.345c15.656,0,28.345-12.689,28.345-28.345C65.196,21.195,52.507,8.504,36.851,8.504z"/>
</svg>
