<?xml version="1.0" encoding="utf-8"?>
<!-- Generator: Adobe Illustrator 16.0.0, SVG Export Plug-In . SVG Version: 6.00 Build 0)  -->
<!DOCTYPE svg PUBLIC "-//W3C//DTD SVG 1.1//EN" "http://www.w3.org/Graphics/SVG/1.1/DTD/svg11.dtd">
<svg version="1.1" id="Layer_1" xmlns="http://www.w3.org/2000/svg" xmlns:xlink="http://www.w3.org/1999/xlink" x="0px" y="0px"
	 width="73.701px" height="73.701px" viewBox="0 0 73.701 73.701" enable-background="new 0 0 73.701 73.701" xml:space="preserve">
<path id="Maintenance_Tools" fill-rule="evenodd" clip-rule="evenodd" fill="#404041" d="M49.257,50.074l-5.842-5.841
	c-0.131-0.132-0.133-0.348,0-0.48l0.338-0.338c0.133-0.132,0.348-0.132,0.48,0l5.842,5.841c0.131,0.133,0.131,0.349,0,0.48
	l-0.338,0.338C49.604,50.207,49.39,50.206,49.257,50.074L49.257,50.074z M32.861,34.2l-5.678-5.681l-3.099-1.381l-2.378-3.926
	l1.506-1.505l3.925,2.377l1.382,3.097l5.679,5.68L32.861,34.2L32.861,34.2z M34.869,42.291l7.423-7.423
	c0.957-0.93,2.252-1.311,3.484-1.14v-0.003c2.135,0.338,4.393-0.314,6.037-1.959c1.895-1.895,2.473-4.608,1.734-7.003L49.212,29.1
	l-3.637-0.973l-0.973-3.637l4.334-4.336c-2.395-0.74-5.105-0.161-7,1.733c-1.645,1.644-2.297,3.901-1.961,6.035l-0.002,0.001
	c0.17,1.254-0.225,2.568-1.188,3.532l-7.33,7.331c-0.964,0.963-2.279,1.357-3.532,1.188l-0.002,0.001
	c-2.133-0.337-4.392,0.316-6.035,1.959c-1.895,1.896-2.473,4.607-1.733,7.003l4.337-4.336l3.635,0.975l0.974,3.636l-4.336,4.336
	c2.396,0.738,5.108,0.161,7.003-1.735c1.646-1.644,2.297-3.901,1.959-6.036h0.002C33.558,44.543,33.938,43.249,34.869,42.291
	L34.869,42.291z M47.267,52.543c0.738,0.736,1.941,0.736,2.676,0l2.602-2.6c0.736-0.736,0.736-1.939,0-2.676l-6.322-6.321
	c-0.408,0.41-1.639-0.157-2.748-1.265c-0.547-0.55-0.963-1.129-1.193-1.621l-4.221,4.22c0.494,0.231,1.072,0.647,1.621,1.195
	c1.109,1.108,1.676,2.338,1.266,2.747L47.267,52.543L47.267,52.543z M36.85,8.504c-15.655,0-28.346,12.691-28.346,28.347
	s12.69,28.347,28.346,28.347c15.657,0,28.346-12.691,28.346-28.347S52.507,8.504,36.85,8.504z"/>
</svg>
