<?xml version="1.0" encoding="utf-8"?>
<!-- Generator: Adobe Illustrator 16.0.0, SVG Export Plug-In . SVG Version: 6.00 Build 0)  -->
<!DOCTYPE svg PUBLIC "-//W3C//DTD SVG 1.1//EN" "http://www.w3.org/Graphics/SVG/1.1/DTD/svg11.dtd">
<svg version="1.1" id="Layer_1" xmlns="http://www.w3.org/2000/svg" xmlns:xlink="http://www.w3.org/1999/xlink" x="0px" y="0px"
	 width="73.701px" height="73.701px" viewBox="0 0 73.701 73.701" enable-background="new 0 0 73.701 73.701" xml:space="preserve">
<path id="Market_Research_1_" fill-rule="evenodd" clip-rule="evenodd" fill="#404041" d="M36.851,8.504
	c15.655,0,28.347,12.691,28.347,28.347S52.506,65.197,36.851,65.197S8.504,52.506,8.504,36.851S21.195,8.504,36.851,8.504
	L36.851,8.504z M48.22,54.424c1.741-0.008,3.15-1.369,3.15-3.048c0-0.552-0.154-1.087-0.445-1.557L43.28,38.681
	c-0.461-0.705-0.703-1.522-0.703-2.362v-3.73c0-0.736,0.596-1.332,1.331-1.332h0.755c0.424,0,0.772-0.352,0.772-0.773v-0.993
	c0-0.422-0.349-0.773-0.772-0.773h-0.755c-2.14-0.002-3.871,1.731-3.871,3.872l0.001,4.383c0.021,1.03,0.344,1.985,0.885,2.781
	l7.38,10.743c0.103,0.144,0.163,0.315,0.163,0.504c0,0.501-0.427,0.883-0.918,0.883H26.153c-0.507,0-0.918-0.395-0.918-0.883
	c0-0.181,0.058-0.348,0.152-0.488l7.391-10.759c0.541-0.796,0.864-1.751,0.885-2.781l0.001-4.384c0-2.14-1.731-3.877-3.871-3.873
	l-0.755,0.002c-0.424,0-0.772,0.348-0.772,0.773v0.993c0,0.424,0.349,0.772,0.772,0.772h0.755c0.734,0,1.331,0.596,1.331,1.332
	v3.772c-0.009,0.808-0.251,1.651-0.703,2.321l-7.646,11.139c-0.281,0.457-0.444,0.987-0.444,1.557c0,1.684,1.419,3.049,3.167,3.049
	L48.22,54.424L48.22,54.424z M41.791,19.275c-1.813,0-3.283,1.472-3.283,3.285s1.471,3.284,3.283,3.284
	c1.814,0,3.284-1.471,3.284-3.284S43.605,19.275,41.791,19.275L41.791,19.275z M36.852,26.431c-0.859,0-1.557,0.695-1.557,1.555
	c0,0.86,0.697,1.556,1.557,1.556c0.857,0,1.555-0.695,1.555-1.556C38.406,27.126,37.709,26.431,36.852,26.431L36.852,26.431z
	 M32.932,22.093c-1.241,0-2.247,1.006-2.247,2.247s1.006,2.247,2.247,2.247s2.246-1.006,2.246-2.247S34.173,22.093,32.932,22.093
	L32.932,22.093z M34.187,42.902c-0.894,0.077-1.711,0.389-2.396,0.868l0.807,1.154c0.488-0.343,1.072-0.566,1.71-0.622
	c1.29-0.111,2.479,0.488,3.176,1.475l0.002,0.003c0.841,1.156,2.25,1.854,3.778,1.723c0.766-0.066,1.466-0.333,2.052-0.745
	l-0.806-1.152c-0.392,0.273-0.857,0.452-1.369,0.496c-1.009,0.088-1.939-0.369-2.502-1.127l-0.003-0.003
	C37.659,43.588,35.995,42.746,34.187,42.902z"/>
</svg>
