<?xml version="1.0" encoding="utf-8"?>
<!-- Generator: Adobe Illustrator 16.0.0, SVG Export Plug-In . SVG Version: 6.00 Build 0)  -->
<!DOCTYPE svg PUBLIC "-//W3C//DTD SVG 1.1//EN" "http://www.w3.org/Graphics/SVG/1.1/DTD/svg11.dtd">
<svg version="1.1" id="Layer_1" xmlns="http://www.w3.org/2000/svg" xmlns:xlink="http://www.w3.org/1999/xlink" x="0px" y="0px"
	 width="73.701px" height="73.701px" viewBox="0 0 73.701 73.701" enable-background="new 0 0 73.701 73.701" xml:space="preserve">
<path id="Mobile_Marketing_1_" fill-rule="evenodd" clip-rule="evenodd" fill="#404041" d="M36.851,8.504
	c15.655,0,28.347,12.69,28.347,28.346c0,15.655-12.691,28.346-28.347,28.346S8.504,52.505,8.504,36.85
	C8.504,21.195,21.195,8.504,36.851,8.504L36.851,8.504z M29.096,18.423c-1.192,0-2.168,0.977-2.168,2.167v32.52
	c0,1.191,0.978,2.166,2.168,2.166h15.869c1.188,0,2.166-0.979,2.166-2.166V39.079h7.483c0.331,0,0.661-0.334,0.661-0.67V28.022
	c0-0.332-0.298-0.67-0.661-0.67h-7.483V20.59c0-1.188-0.975-2.167-2.166-2.167H29.096L29.096,18.423z M18.425,24.973l2.346,2.345
	l-2.346,2.346l0.521,0.521l2.346-2.346l2.345,2.346l0.521-0.521l-2.346-2.346l2.346-2.345l-0.521-0.521l-2.345,2.346l-2.346-2.346
	L18.425,24.973L18.425,24.973z M49.343,43.642l1.304,1.305l-1.304,1.303l0.521,0.521l1.303-1.303l1.302,1.303l0.522-0.521
	l-1.304-1.303l1.304-1.305l-0.521-0.52l-1.303,1.303l-1.303-1.303L49.343,43.642L49.343,43.642z M23.611,36.661
	c-0.204,0-0.369,0.164-0.369,0.368s0.165,0.369,0.369,0.369c0.203,0,0.368-0.165,0.368-0.369S23.814,36.661,23.611,36.661
	L23.611,36.661z M23.611,35.923c-0.611,0-1.105,0.495-1.105,1.105c0,0.613,0.494,1.107,1.105,1.107s1.105-0.494,1.105-1.107
	C24.717,36.418,24.223,35.923,23.611,35.923L23.611,35.923z M50.816,22.192c-0.814,0-1.474,0.66-1.474,1.475
	s0.659,1.475,1.474,1.475s1.475-0.66,1.475-1.475S51.631,22.192,50.816,22.192L50.816,22.192z M50.816,22.93
	c-0.407,0-0.736,0.329-0.736,0.736s0.329,0.737,0.736,0.737s0.737-0.33,0.737-0.737S51.224,22.93,50.816,22.93L50.816,22.93z
	 M45.318,27.352v-2.299c0-0.338-0.293-0.649-0.649-0.649H29.391c-0.357,0-0.65,0.292-0.65,0.649v23.592
	c0,0.357,0.312,0.65,0.65,0.65h15.278c0.339,0,0.649-0.311,0.649-0.65v-9.566h-5.857l-2.814,2.27l-0.077,0.047
	c-0.114,0.064-0.245,0.102-0.386,0.102c-0.44,0-0.798-0.363-0.798-0.809v-1.609H32.35c-0.334,0-0.66-0.303-0.66-0.67V28.022
	c0-0.368,0.297-0.67,0.66-0.67H45.318L45.318,27.352z M40.12,33.547c-0.804,0-1.455,0.659-1.455,1.474s0.651,1.474,1.455,1.474
	c0.803,0,1.453-0.659,1.453-1.474S40.923,33.547,40.12,33.547L40.12,33.547z M40.12,34.284c-0.402,0-0.728,0.33-0.728,0.737
	s0.325,0.737,0.728,0.737c0.401,0,0.727-0.33,0.727-0.737S40.521,34.284,40.12,34.284L40.12,34.284z M40.054,30.491l-5.144,5.212
	l0.516,0.521l5.141-5.211L40.054,30.491L40.054,30.491z M43.226,32.185c0,0.595,0.163,1.061,0.485,1.399
	c0.322,0.338,0.758,0.508,1.304,0.508c0.539,0,0.971-0.17,1.294-0.512c0.322-0.339,0.483-0.811,0.483-1.413
	c0-0.607-0.161-1.082-0.486-1.423c-0.326-0.341-0.759-0.512-1.302-0.512c-0.299,0-0.563,0.049-0.793,0.147
	c-0.171,0.073-0.33,0.186-0.475,0.336c-0.144,0.151-0.259,0.322-0.342,0.512C43.282,31.487,43.226,31.805,43.226,32.185
	L43.226,32.185z M43.991,32.16c0,0.423,0.097,0.742,0.288,0.96c0.193,0.219,0.438,0.328,0.733,0.328c0.297,0,0.54-0.109,0.729-0.324
	c0.19-0.217,0.285-0.541,0.285-0.975c0-0.427-0.092-0.746-0.277-0.956c-0.185-0.21-0.431-0.315-0.737-0.315
	c-0.306,0-0.553,0.107-0.74,0.319C44.085,31.41,43.991,31.73,43.991,32.16L43.991,32.16z M47.371,34.024h0.744v-1.58h1.539v-0.631
	h-1.539V30.93h1.781V30.3h-2.525V34.024L47.371,34.024z M50.506,34.024h0.743v-1.58h1.54v-0.631h-1.54V30.93h1.781V30.3h-2.524
	V34.024L50.506,34.024z M43.256,35.76v0.736h9.806V35.76H43.256L43.256,35.76z M35.357,30.218c-0.814,0-1.475,0.659-1.475,1.474
	s0.66,1.475,1.475,1.475s1.474-0.66,1.474-1.475S36.172,30.218,35.357,30.218L35.357,30.218z M35.357,30.956
	c-0.407,0-0.737,0.329-0.737,0.736s0.33,0.737,0.737,0.737s0.737-0.33,0.737-0.737S35.765,30.956,35.357,30.956L35.357,30.956z
	 M32.635,20.911c-0.276,0-0.502,0.227-0.502,0.502v0.002c0,0.276,0.228,0.502,0.502,0.502h5.842c0.274,0,0.502-0.228,0.502-0.502
	v-0.002c0-0.273-0.227-0.502-0.502-0.502H32.635L32.635,20.911z M37.029,50.511c-0.98,0-1.775,0.795-1.775,1.775
	c0,0.982,0.795,1.775,1.775,1.775c0.981,0,1.775-0.793,1.775-1.775C38.805,51.306,38.011,50.511,37.029,50.511L37.029,50.511z
	 M40.955,20.912c-0.277,0-0.503,0.226-0.503,0.503l0,0c0,0.277,0.228,0.502,0.503,0.502h0.469c0.276,0,0.503-0.225,0.503-0.502l0,0
	c0-0.277-0.226-0.503-0.503-0.503H40.955z"/>
</svg>
