<?xml version="1.0" encoding="utf-8"?>
<!-- Generator: Adobe Illustrator 16.0.0, SVG Export Plug-In . SVG Version: 6.00 Build 0)  -->
<!DOCTYPE svg PUBLIC "-//W3C//DTD SVG 1.1//EN" "http://www.w3.org/Graphics/SVG/1.1/DTD/svg11.dtd">
<svg version="1.1" id="Layer_1" xmlns="http://www.w3.org/2000/svg" xmlns:xlink="http://www.w3.org/1999/xlink" x="0px" y="0px"
	 width="73.701px" height="73.701px" viewBox="0 0 73.701 73.701" enable-background="new 0 0 73.701 73.701" xml:space="preserve">
<path id="Online_Presence_1_" fill-rule="evenodd" clip-rule="evenodd" fill="#404041" d="M36.851,8.504
	c15.656,0,28.345,12.69,28.345,28.346c0,15.655-12.689,28.346-28.345,28.346c-15.656,0-28.347-12.691-28.347-28.346
	C8.504,21.195,21.195,8.504,36.851,8.504L36.851,8.504z M34.818,26.01l-0.037,1.252c1.551,0.17,2.851,1.969,2.851,0.133
	c0-1.531,0.027-1.717-1.617-2.156L34.818,26.01L34.818,26.01z M51.103,32.513l-0.072,1.761l0.816-0.102
	c-0.082-0.466-0.188-0.924-0.311-1.373C51.491,32.777,51.376,32.714,51.103,32.513L51.103,32.513z M35.683,38.628l1.344,0.418
	l0.605,1.012c0.295-0.73-0.857-0.539,2.693-0.539c-0.865-0.752-1.084-0.418-2.025-0.701c-0.066-0.021-0.137-0.047-0.199-0.07
	l-1.464-0.707C35.833,38.081,36.016,37.935,35.683,38.628L35.683,38.628z M40.417,29.798c0.203,1.791,1.096,1.691-0.037,1.792
	c-1.193,0.105-0.623-0.116-1.332,0.98c-0.438,0.676-0.051,0.101-0.48,0.609l-0.479,0.599c-0.029,0.053-0.063,0.125-0.09,0.181
	c-0.439,0.887-0.27,1.361-1.446,1.787l-0.083,1.649l-0.407,0.061c-0.044-0.147-0.111-0.331-0.181-0.632h-3.102
	c-0.262,1.126-0.507,0.742-0.538,2.156c0.735,0.268,0.554-0.014,0.809,1.078h0.808v-1.078c1.856,0,1.113-0.217,1.088,1.381
	l1.068-0.303v1.617h1.617c0.279-0.697,0.049-0.287,0.707-0.68c0.043-0.025,0.119-0.068,0.162-0.088l0.457-0.107
	c0.734,0.01-0.141-0.027,0.475,0.125l0.408,0.115c0.395,0.084,0.633,0.064,0.967,0.15c1.535,0.398,0.133,0.783,3.02,1.021
	c-0.514,2.215,1.803,0.828,1.936,2.311l0.037,0.309c-0.119,0.77-0.305,0.391-1.334,2.061l-0.43,0.648
	c-0.49,0.582-1.02,0.605-2.26,1.781l-2.053,1.738c-0.527,0.373-0.975,0.652-1.639,0.795c-0.039,0.008-0.082,0.016-0.123,0.021
	c0.008-0.035,0.018-0.072,0.027-0.105c0.346-1.281,0.926-1.658,0.736-3.346c-0.129-1.148-0.1-0.506-1.012-1.713
	c-0.687-0.91-0.455-1.012-1.161-1.266c0.052-2.348,0.897-2.09,1.079-2.156v-0.539c-1.94,0-1.316-0.234-2.783-0.99l-1.137-0.479
	c-1.193-0.328-1.021,0.096-2.596-0.637c-1.001-0.467-1-0.33-1.03-1.666c-1.149,0.418-0.294,0.424-1.347,0.539l-0.613-1.271
	c-0.029-0.053-0.071-0.119-0.1-0.17l-0.614-1.273c-0.226-0.434-0.366-0.669-0.477-0.8c-0.099-0.117,0.786,2.747,0.697,2.727
	c-0.091-0.02-1.255-2.802-1.397-2.967c0-3.121,0.646-4.733,0.484-5.862c-0.002-0.005-0.315-0.101-0.115-1.163
	c0.195-1.035,0.249-1.254,0.249-2.691c-0.15,0.101-0.438,0.247-0.677,0.4c-0.43,0.275-1.309,1.26-1.801,1.639
	c-1.746,2.479-2.771,5.501-2.771,8.764c0,8.417,6.822,15.239,15.238,15.239c3.896,0,7.449-1.461,10.144-3.867l1.199-1.195
	c0.389-0.434,0.754-0.891,1.092-1.365c0.266-0.521,0.283-0.871,0.311-0.926l0.549-0.855c0.859-1.436-0.184-1.129-1.73-1.129
	c0-5.543-0.818-2.701,1.26-6.833c0.082-0.166,0.428-1.07,0.443-1.154c0.205-1.097,0.164-0.121-0.166-1.061
	c-0.006-0.016-0.188-0.499-0.225-0.601c-0.027-0.07-0.141-0.265-0.156-0.396c-0.012-0.102-0.039-0.135-0.078-0.194
	c0.459-1.135,0.414-0.101,0.809-1.077c-0.287-0.33-0.033,0-0.316-0.491l-0.775-1.112c-1.73-1.646-0.658-1.867-0.729-2.83
	c-0.777-0.915-1.658-1.738-2.627-2.448c0.086,0.2,0.127,0.509,0.137,0.954h-0.809c-0.213-0.797-0.109-0.437-0.539-1.078
	c0.332-0.119,0.586-0.188,0.781-0.18c-0.535-0.365-1.096-0.697-1.678-0.993c0.447,0.744-0.182,0.509-0.182,3.329
	c-1.393-0.506-1.84-1.883-2.385-2.885c-0.885-1.631-1.146-1.604-1.861-1.891c-0.373-0.061-0.752-0.107-1.133-0.142
	c0.016,0.874,0.051,0.312,0.982,1.231c0.969,0.959,1.674,1.166,1.125,2.136c-0.18,0.317-0.406,0.546-0.609,1.06
	c-0.232,0.594-0.205,0.491,0.348,0.427c2.16-0.255,0.555,0.169,1.705,1.622c0.268,0.338,0.066,0.085,0.316,0.496
	c0.168,0.275,0.664,1.09,0.695,1.172c0.32,0.818,0.24-0.009,0.01,1.084c-1.131-0.123-0.422-0.037-1.279-0.502l-0.055-0.129
	C41.44,29.422,41.604,29.745,40.417,29.798L40.417,29.798z M36.843,18.708c-10.02,0-18.142,8.123-18.142,18.143
	c0,10.02,8.122,18.141,18.142,18.141c10.019,0,18.142-8.121,18.142-18.141C54.985,26.831,46.862,18.708,36.843,18.708z"/>
</svg>
