<?xml version="1.0" encoding="utf-8"?>
<!-- Generator: Adobe Illustrator 16.0.0, SVG Export Plug-In . SVG Version: 6.00 Build 0)  -->
<!DOCTYPE svg PUBLIC "-//W3C//DTD SVG 1.1//EN" "http://www.w3.org/Graphics/SVG/1.1/DTD/svg11.dtd">
<svg version="1.1" id="Layer_1" xmlns="http://www.w3.org/2000/svg" xmlns:xlink="http://www.w3.org/1999/xlink" x="0px" y="0px"
	 width="73.701px" height="73.701px" viewBox="0 0 73.701 73.701" enable-background="new 0 0 73.701 73.701" xml:space="preserve">
<path id="Page_Quality_1_" fill-rule="evenodd" clip-rule="evenodd" fill="#404041" d="M36.85,8.504
	c15.657,0,28.346,12.691,28.346,28.347S52.507,65.197,36.85,65.197c-15.655,0-28.346-12.691-28.346-28.347S21.195,8.504,36.85,8.504
	L36.85,8.504z M36.802,31.145l-1.998,6.189l-6.506-0.012l5.271,3.813l-2.021,6.184l5.255-3.833l5.255,3.833l-2.021-6.184l5.27-3.813
	L38.8,37.334L36.802,31.145L36.802,31.145z M23.194,23.244c-0.75,0-1.359,0.61-1.359,1.36c0,0.752,0.609,1.361,1.359,1.361
	c0.752,0,1.361-0.609,1.361-1.361C24.555,23.854,23.946,23.244,23.194,23.244L23.194,23.244z M31.358,23.244
	c-0.751,0-1.36,0.61-1.36,1.36c0,0.752,0.609,1.361,1.36,1.361c0.752,0,1.361-0.609,1.361-1.361
	C32.719,23.854,32.11,23.244,31.358,23.244L31.358,23.244z M27.276,23.244c-0.751,0-1.359,0.61-1.359,1.36
	c0,0.752,0.608,1.361,1.359,1.361c0.752,0,1.361-0.609,1.361-1.361C28.637,23.854,28.028,23.244,27.276,23.244L27.276,23.244z
	 M53.81,22.652c0-0.797-0.65-1.449-1.447-1.449c-10.373,0-20.747,0-31.121,0c-0.796,0-1.447,0.652-1.447,1.449
	c-0.001,10.374,0,18.024,0,28.398c0,0.795,0.651,1.446,1.447,1.446h31.121c0.797,0,1.447-0.65,1.447-1.446
	C53.81,40.678,53.81,33.025,53.81,22.652L53.81,22.652z M21.835,28.729c0,7.495,0,13.508,0,21.003c0,0.395,0.339,0.724,0.724,0.724
	h28.487c0.383,0,0.723-0.336,0.723-0.724c0-7.495,0-13.508,0-21.003c0-0.388-0.326-0.723-0.723-0.723c-9.289,0-19.198,0-28.487,0
	C22.162,28.007,21.835,28.335,21.835,28.729z"/>
</svg>
