<?xml version="1.0" encoding="utf-8"?>
<!-- Generator: Adobe Illustrator 16.0.0, SVG Export Plug-In . SVG Version: 6.00 Build 0)  -->
<!DOCTYPE svg PUBLIC "-//W3C//DTD SVG 1.1//EN" "http://www.w3.org/Graphics/SVG/1.1/DTD/svg11.dtd">
<svg version="1.1" id="Layer_1" xmlns="http://www.w3.org/2000/svg" xmlns:xlink="http://www.w3.org/1999/xlink" x="0px" y="0px"
	 width="73.701px" height="73.701px" viewBox="0 0 73.701 73.701" enable-background="new 0 0 73.701 73.701" xml:space="preserve">
<path id="Page_Speed_1_" fill-rule="evenodd" clip-rule="evenodd" fill="#404041" d="M36.851,8.504
	c15.655,0,28.346,12.691,28.346,28.347s-12.69,28.347-28.346,28.347c-15.656,0-28.347-12.691-28.347-28.347
	S21.194,8.504,36.851,8.504L36.851,8.504z M23.017,29.102c0-0.382,0.314-0.698,0.699-0.698c8.976,0,17.293,0,26.268,0
	c0.385,0,0.7,0.324,0.7,0.698v9.615c1.02,1.161,1.896,2.451,2.6,3.844v-19.9c0-0.771-0.629-1.4-1.397-1.4
	c-10.024,0-20.047,0-30.07,0c-0.77,0-1.398,0.63-1.398,1.4v19.898c0.705-1.393,1.58-2.683,2.6-3.844V29.102L23.017,29.102z
	 M36.851,34.421c-9.075,0-16.434,7.358-16.434,16.434h0.016c0,0.718,0.582,1.3,1.299,1.3c0.719,0,1.301-0.582,1.301-1.3h0.015
	c0-2.222,0.524-4.32,1.458-6.18l1.248,0.722c0.392,0.225,0.896,0.09,1.122-0.302h0.001c0.226-0.392,0.09-0.896-0.301-1.121
	l-1.248-0.722c1.029-1.556,2.365-2.892,3.922-3.92l0.721,1.247c0.227,0.391,0.73,0.527,1.121,0.301h0.001
	c0.392-0.227,0.526-0.731,0.301-1.122l-0.722-1.249c1.629-0.816,3.441-1.32,5.357-1.434v1.44c0,0.452,0.369,0.821,0.821,0.821h0.001
	c0.451,0,0.821-0.369,0.821-0.821v-1.44c1.917,0.113,3.728,0.617,5.356,1.434l-0.721,1.249c-0.227,0.391-0.091,0.896,0.301,1.122
	l0,0c0.392,0.227,0.896,0.09,1.122-0.301l0.72-1.248c1.557,1.028,2.894,2.364,3.922,3.921l-1.248,0.722
	c-0.391,0.226-0.526,0.729-0.301,1.121h0.001c0.227,0.392,0.73,0.526,1.122,0.302l1.249-0.722c0.933,1.859,1.458,3.958,1.458,6.18
	h0.016c0,0.718,0.582,1.3,1.299,1.3c0.719,0,1.3-0.582,1.3-1.3h0.016C53.283,41.779,45.925,34.421,36.851,34.421L36.851,34.421z
	 M43.144,44.56l-5.087,3.238c-1.665-0.657-3.556,0.139-4.243,1.799c-0.695,1.677,0.102,3.6,1.779,4.294
	c1.676,0.694,3.6-0.103,4.293-1.779c0.341-0.82,0.324-1.698,0.021-2.464L43.144,44.56L43.144,44.56z M28.666,23.438
	c-0.763,0-1.38,0.618-1.38,1.38s0.617,1.381,1.38,1.381s1.38-0.619,1.38-1.381S29.429,23.438,28.666,23.438L28.666,23.438z
	 M32.938,23.438c-0.762,0-1.381,0.618-1.381,1.38s0.619,1.381,1.381,1.381s1.381-0.619,1.381-1.381S33.7,23.438,32.938,23.438
	L32.938,23.438z M24.394,23.438c-0.762,0-1.381,0.618-1.381,1.38s0.619,1.381,1.381,1.381s1.381-0.619,1.381-1.381
	S25.155,23.438,24.394,23.438z"/>
</svg>
