<?xml version="1.0" encoding="utf-8"?>
<!-- Generator: Adobe Illustrator 16.0.0, SVG Export Plug-In . SVG Version: 6.00 Build 0)  -->
<!DOCTYPE svg PUBLIC "-//W3C//DTD SVG 1.1//EN" "http://www.w3.org/Graphics/SVG/1.1/DTD/svg11.dtd">
<svg version="1.1" id="Layer_1" xmlns="http://www.w3.org/2000/svg" xmlns:xlink="http://www.w3.org/1999/xlink" x="0px" y="0px"
	 width="73.701px" height="73.701px" viewBox="0 0 73.701 73.701" enable-background="new 0 0 73.701 73.701" xml:space="preserve">
<path id="Pay_Per_Click_1_" fill-rule="evenodd" clip-rule="evenodd" fill="#404041" d="M36.85,8.504
	c15.656,0,28.347,12.69,28.347,28.347c0,15.656-12.69,28.345-28.347,28.345c-15.655,0-28.346-12.689-28.346-28.345
	C8.504,21.195,21.194,8.504,36.85,8.504L36.85,8.504z M31.552,18.708c-1.463,0-2.649,1.188-2.649,2.65v16.648
	c0-2.497-2.043-4.54-4.541-4.54H24.36c-0.416,0-0.757,0.34-0.757,0.757v7.523c0,7.314,5.931,13.246,13.246,13.246
	c7.316,0,13.247-5.932,13.247-13.246v-7.906c0-1.463-1.187-2.648-2.649-2.648c-1.464,0-2.649,1.186-2.649,2.648v-1.098
	c0-1.464-1.187-2.65-2.649-2.65s-2.649,1.187-2.649,2.65v-1.109c0-1.464-1.186-2.65-2.649-2.65c-1.463,0-2.648,1.187-2.648,2.65
	V21.359C34.201,19.896,33.015,18.708,31.552,18.708z"/>
</svg>
