<?xml version="1.0" encoding="utf-8"?>
<!-- Generator: Adobe Illustrator 16.0.0, SVG Export Plug-In . SVG Version: 6.00 Build 0)  -->
<!DOCTYPE svg PUBLIC "-//W3C//DTD SVG 1.1//EN" "http://www.w3.org/Graphics/SVG/1.1/DTD/svg11.dtd">
<svg version="1.1" id="Layer_1" xmlns="http://www.w3.org/2000/svg" xmlns:xlink="http://www.w3.org/1999/xlink" x="0px" y="0px"
	 width="73.701px" height="73.701px" viewBox="0 0 73.701 73.701" enable-background="new 0 0 73.701 73.701" xml:space="preserve">
<path id="Pictures_Optimization_1_" fill-rule="evenodd" clip-rule="evenodd" fill="#404041" d="M36.851,8.504
	c15.655,0,28.346,12.69,28.346,28.347c0,15.656-12.69,28.345-28.346,28.345c-15.656,0-28.347-12.689-28.347-28.345
	C8.504,21.195,21.194,8.504,36.851,8.504L36.851,8.504z M29.221,30.239c-1.245,0.334-1.983,1.613-1.649,2.857
	c0.333,1.245,1.612,1.984,2.857,1.65c1.245-0.333,1.984-1.613,1.65-2.858C31.745,30.644,30.466,29.905,29.221,30.239L29.221,30.239z
	 M35.423,30.963l5.356,3.092l-3.065-11.442c-0.094-0.351-0.458-0.562-0.809-0.468l-14.668,3.931
	c-0.352,0.094-0.562,0.459-0.467,0.809l3.743,13.968l2.655-4.601l3.105,1.792L35.423,30.963L35.423,30.963z M20.001,24.111
	c-0.789,0.212-1.262,1.03-1.051,1.819l5.641,21.045c0.211,0.789,1.029,1.262,1.818,1.051l17.859-4.785
	c0.788-0.213,1.26-1.029,1.048-1.818l-5.64-21.046c-0.211-0.79-1.028-1.262-1.817-1.05L20.001,24.111L20.001,24.111z M44.466,27.986
	l0.74,2.761l6.258,1.678c0.352,0.094,0.561,0.459,0.467,0.809l-3.93,14.668c-0.095,0.35-0.458,0.561-0.809,0.467l-5.896-1.582
	l-11.16,2.992l17.156,4.596c0.789,0.211,1.606-0.26,1.818-1.049l5.639-21.046c0.212-0.789-0.26-1.607-1.049-1.818L44.466,27.986z"/>
</svg>
