<?xml version="1.0" encoding="utf-8"?>
<!-- Generator: Adobe Illustrator 16.0.0, SVG Export Plug-In . SVG Version: 6.00 Build 0)  -->
<!DOCTYPE svg PUBLIC "-//W3C//DTD SVG 1.1//EN" "http://www.w3.org/Graphics/SVG/1.1/DTD/svg11.dtd">
<svg version="1.1" id="Layer_1" xmlns="http://www.w3.org/2000/svg" xmlns:xlink="http://www.w3.org/1999/xlink" x="0px" y="0px"
	 width="73.701px" height="73.701px" viewBox="0 0 73.701 73.701" enable-background="new 0 0 73.701 73.701" xml:space="preserve">
<path id="Places_Optimizations_1_" fill-rule="evenodd" clip-rule="evenodd" fill="#404041" d="M36.894,22.111
	c3.781,0,6.847,3.065,6.847,6.846c0,3.781-3.066,6.846-6.847,6.846c-3.78,0-6.845-3.064-6.845-6.846
	C30.049,25.177,33.114,22.111,36.894,22.111L36.894,22.111z M44.972,41.004c4.473,1.354,7.459,3.789,7.459,6.572
	c0,4.254-6.975,7.7-15.58,7.7c-8.604,0-15.58-3.446-15.58-7.7c0-2.797,3.019-5.247,7.532-6.595l0.811,1.334
	c-2.431,0.869-3.975,2.169-3.975,3.62c0,2.617,5.02,4.738,11.212,4.738c6.193,0,11.212-2.121,11.212-4.738
	c0-1.438-1.516-2.725-3.904-3.594L44.972,41.004L44.972,41.004z M36.894,18.426c-5.816,0-10.531,4.715-10.531,10.531
	c0,1.814,0.458,3.521,1.267,5.011l0,0l0.004,0.01c0.055,0.1,0.11,0.197,0.168,0.295l7.894,12.995c0.695,1.146,1.707,1.142,2.4,0
	l7.893-12.994c0.057-0.099,0.113-0.195,0.168-0.296l0.006-0.01l0,0c0.807-1.49,1.266-3.196,1.266-5.011
	C47.427,23.141,42.712,18.426,36.894,18.426L36.894,18.426z M36.851,8.504c-15.655,0-28.347,12.691-28.347,28.347
	s12.691,28.347,28.347,28.347c15.656,0,28.345-12.691,28.345-28.347S52.507,8.504,36.851,8.504z"/>
</svg>
