<?xml version="1.0" encoding="utf-8"?>
<!-- Generator: Adobe Illustrator 16.0.0, SVG Export Plug-In . SVG Version: 6.00 Build 0)  -->
<!DOCTYPE svg PUBLIC "-//W3C//DTD SVG 1.1//EN" "http://www.w3.org/Graphics/SVG/1.1/DTD/svg11.dtd">
<svg version="1.1" id="Layer_1" xmlns="http://www.w3.org/2000/svg" xmlns:xlink="http://www.w3.org/1999/xlink" x="0px" y="0px"
	 width="73.701px" height="73.701px" viewBox="0 0 73.701 73.701" enable-background="new 0 0 73.701 73.701" xml:space="preserve">
<path id="PR__x26__Communication_1_" fill-rule="evenodd" clip-rule="evenodd" fill="#404041" d="M36.851,8.504
	c15.655,0,28.347,12.69,28.347,28.347c0,15.656-12.691,28.345-28.347,28.345S8.504,52.507,8.504,36.851
	C8.504,21.195,21.195,8.504,36.851,8.504L36.851,8.504z M36.849,17.859c-4.596,0-8.354,3.761-8.354,8.356v0.38h4.558
	c0.418,0,0.76,0.342,0.76,0.76l0,0c0,0.418-0.342,0.76-0.76,0.76h-4.558v2.658h4.558c0.418,0,0.76,0.343,0.76,0.76l0,0
	c0,0.418-0.342,0.76-0.76,0.76h-4.558v2.659h4.558c0.418,0,0.76,0.343,0.76,0.76l0,0c0,0.417-0.342,0.759-0.76,0.759h-4.558v0.381
	c0,4.593,3.759,8.357,8.354,8.357l0,0c4.599,0,8.358-3.764,8.358-8.357V36.47h-4.559c-0.418,0-0.76-0.342-0.76-0.759l0,0
	c0-0.417,0.342-0.76,0.76-0.76h4.559v-2.659h-4.559c-0.418,0-0.76-0.342-0.76-0.76l0,0c0-0.417,0.342-0.76,0.76-0.76h4.559v-2.658
	h-4.559c-0.418,0-0.76-0.342-0.76-0.76l0,0c0-0.418,0.342-0.76,0.76-0.76h4.559v-0.38C45.207,21.62,41.447,17.859,36.849,17.859
	L36.849,17.859L36.849,17.859z M49.195,35.902c-0.733,0-1.329,0.596-1.329,1.33c0,6.056-4.956,11.013-11.018,11.013
	c-6.058,0-11.014-4.959-11.014-11.013c0-0.734-0.596-1.33-1.329-1.33c-0.734,0-1.33,0.596-1.33,1.33l0.001,0.033l0.001,0.035
	c0.036,7.042,5.462,12.867,12.342,13.539v2.346H32.48c-0.732,0-1.329,0.598-1.329,1.328l0,0c0,0.732,0.597,1.33,1.329,1.33h3.039
	h2.658h3.038c0.732,0,1.33-0.598,1.33-1.33l0,0c0-0.73-0.598-1.328-1.33-1.328h-3.038v-2.346c6.883-0.672,12.31-6.496,12.346-13.539
	l0.001-0.035v-0.033C50.524,36.498,49.93,35.902,49.195,35.902L49.195,35.902z M49.195,29.025L49.195,29.025
	c-0.731,0-1.329,0.598-1.329,1.33v2.354c0,0.731,0.598,1.329,1.329,1.329l0,0c0.731,0,1.329-0.598,1.329-1.329v-2.354
	C50.524,29.623,49.927,29.025,49.195,29.025L49.195,29.025z M24.506,29.025c-0.731,0-1.33,0.598-1.33,1.33v2.354
	c0,0.731,0.599,1.329,1.33,1.329l0,0c0.73,0,1.329-0.598,1.329-1.329v-2.354C25.835,29.623,25.236,29.025,24.506,29.025
	L24.506,29.025L24.506,29.025z M36.849,48.245"/>
</svg>
