<?xml version="1.0" encoding="utf-8"?>
<!-- Generator: Adobe Illustrator 16.0.0, SVG Export Plug-In . SVG Version: 6.00 Build 0)  -->
<!DOCTYPE svg PUBLIC "-//W3C//DTD SVG 1.1//EN" "http://www.w3.org/Graphics/SVG/1.1/DTD/svg11.dtd">
<svg version="1.1" id="Layer_1" xmlns="http://www.w3.org/2000/svg" xmlns:xlink="http://www.w3.org/1999/xlink" x="0px" y="0px"
	 width="73.701px" height="73.701px" viewBox="0 0 73.701 73.701" enable-background="new 0 0 73.701 73.701" xml:space="preserve">
<path id="Premium_Services_1_" fill-rule="evenodd" clip-rule="evenodd" fill="#404041" d="M36.851,8.504
	c15.656,0,28.345,12.691,28.345,28.347S52.507,65.197,36.851,65.197c-15.656,0-28.347-12.691-28.347-28.347
	S21.195,8.504,36.851,8.504L36.851,8.504z M49.489,52.276l0.891-3.254c-1.313-0.391-2.27-1.604-2.27-3.043
	c0-1.753,1.422-3.175,3.176-3.175c0.266,0,0.521,0.032,0.768,0.094l3.297-12.056c0.848-0.407,1.432-1.272,1.432-2.273
	c0-1.393-1.129-2.521-2.521-2.521s-2.521,1.129-2.521,2.521c0,0.738,0.318,1.403,0.824,1.865c-0.641,3.259-3.512,5.717-6.959,5.717
	c-3.92,0-7.096-3.178-7.096-7.096c0-0.624,0.08-1.229,0.232-1.805c0.84-0.576,1.391-1.542,1.391-2.636c0-1.763-1.43-3.19-3.192-3.19
	c-1.762,0-3.191,1.428-3.191,3.19c0,1.094,0.551,2.06,1.391,2.636c0.151,0.576,0.231,1.181,0.231,1.805
	c0,3.918-3.176,7.096-7.096,7.096c-3.447,0-6.318-2.458-6.96-5.717c0.508-0.462,0.825-1.127,0.825-1.865
	c0-1.393-1.129-2.521-2.521-2.521c-1.392,0-2.521,1.129-2.521,2.521c0,1.001,0.584,1.866,1.432,2.273l3.297,12.056
	c0.246-0.062,0.504-0.094,0.768-0.094c1.754,0,3.176,1.422,3.176,3.175c0,1.438-0.957,2.652-2.27,3.043l0.891,3.254H49.489
	L49.489,52.276z M33.763,39.783l3.176,3.175l3.173-3.175l-3.173-3.175L33.763,39.783z"/>
</svg>
