<?xml version="1.0" encoding="utf-8"?>
<!-- Generator: Adobe Illustrator 16.0.0, SVG Export Plug-In . SVG Version: 6.00 Build 0)  -->
<!DOCTYPE svg PUBLIC "-//W3C//DTD SVG 1.1//EN" "http://www.w3.org/Graphics/SVG/1.1/DTD/svg11.dtd">
<svg version="1.1" id="Layer_1" xmlns="http://www.w3.org/2000/svg" xmlns:xlink="http://www.w3.org/1999/xlink" x="0px" y="0px"
	 width="73.701px" height="73.701px" viewBox="0 0 73.701 73.701" enable-background="new 0 0 73.701 73.701" xml:space="preserve">
<path id="Readability_Check_1_" fill-rule="evenodd" clip-rule="evenodd" fill="#404041" d="M36.851,8.504
	c15.656,0,28.345,12.69,28.345,28.347c0,15.656-12.689,28.345-28.345,28.345c-15.655,0-28.347-12.689-28.347-28.345
	C8.504,21.195,21.196,8.504,36.851,8.504L36.851,8.504z M34.519,33.946c-0.188,0-0.341,0.153-0.341,0.34v0.681
	c0,0.188,0.164,0.34,0.341,0.34h6.123c0.176,0,0.34-0.164,0.34-0.34v-0.681c0-0.176-0.152-0.34-0.34-0.34H34.519L34.519,33.946z
	 M43.915,20.337H26.018c-1.128,0-2.041,0.914-2.041,2.041v17.697h2.041c0-5.672,0-11.344,0-17.017c0-0.373,0.307-0.68,0.68-0.68
	h16.327v4.762h4.764v12.935h2.041V26.251L43.915,20.337L43.915,20.337z M50.765,49.241c1.758-0.133,3.143-1.6,3.143-3.393
	l0.004-13.273H51.87l-0.004,13.273c0,0.666-0.477,1.219-1.107,1.338c-0.496-2.883-3.008-5.08-6.033-5.08
	c-2.783,0-5.131,1.857-5.877,4.398c-0.611-0.205-1.266-0.316-1.946-0.316c-0.567,0-1.115,0.078-1.637,0.223
	c-0.774-2.494-3.1-4.305-5.848-4.305c-3.033,0-5.551,2.207-6.037,5.104h-0.085c-0.752,0-1.36-0.609-1.36-1.361V32.576h-2.041v13.273
	c0,1.879,1.521,3.402,3.401,3.402h0.085c0.486,2.896,3.004,5.102,6.037,5.102c3.305,0,5.996-2.615,6.119-5.889l0,0
	c0.427-0.15,0.886-0.234,1.365-0.234c0.61,0,1.19,0.135,1.711,0.377c0.193,3.207,2.855,5.746,6.111,5.746
	C47.763,54.353,50.282,52.142,50.765,49.241L50.765,49.241z M44.726,44.147c-2.256,0-4.082,1.828-4.082,4.082
	c0,2.256,1.826,4.082,4.082,4.082c2.254,0,4.08-1.826,4.08-4.082C48.806,45.976,46.979,44.147,44.726,44.147L44.726,44.147z
	 M29.418,44.147c-2.254,0-4.081,1.828-4.081,4.082c0,2.256,1.827,4.082,4.081,4.082c2.255,0,4.082-1.826,4.082-4.082
	C33.5,45.976,31.673,44.147,29.418,44.147L29.418,44.147z M31.797,33.946c-0.188,0-0.34,0.153-0.34,0.34v0.681
	c0,0.188,0.158,0.34,0.34,0.34h0.681c0.181,0,0.34-0.158,0.34-0.34v-0.681c0-0.181-0.153-0.34-0.34-0.34H31.797L31.797,33.946z
	 M29.077,33.946c-0.188,0-0.34,0.153-0.34,0.34v0.681c0,0.188,0.158,0.34,0.34,0.34h0.68c0.182,0,0.34-0.158,0.34-0.34v-0.681
	c0-0.181-0.152-0.34-0.34-0.34H29.077L29.077,33.946z M36.903,25.782h-5.104c-0.171,0-0.34,0.169-0.34,0.341v0.68
	c0,0.172,0.154,0.34,0.34,0.34h5.104c0.187,0,0.34-0.152,0.34-0.34v-0.68C37.243,25.935,37.058,25.782,36.903,25.782L36.903,25.782z
	 M29.079,25.782c-0.188,0-0.34,0.153-0.34,0.341v0.68c0,0.188,0.162,0.34,0.34,0.34h0.681c0.178,0,0.34-0.162,0.34-0.34v-0.68
	c0-0.178-0.153-0.341-0.34-0.341H29.079L29.079,25.782z M39.964,29.864c-0.188,0-0.34,0.153-0.34,0.341v0.68
	c0,0.188,0.17,0.34,0.34,0.34h4.762c0.17,0,0.34-0.17,0.34-0.34v-0.68c0-0.17-0.152-0.341-0.34-0.341H39.964L39.964,29.864z
	 M29.079,29.864c-0.188,0-0.34,0.153-0.34,0.341v0.68c0,0.188,0.158,0.34,0.34,0.34h4.082c0.183,0,0.34-0.157,0.34-0.34v-0.68
	c0-0.184-0.152-0.341-0.34-0.341H29.079L29.079,29.864z M35.202,29.864c-0.188,0-0.34,0.153-0.34,0.341v0.68
	c0,0.188,0.158,0.34,0.34,0.34h2.721c0.182,0,0.34-0.157,0.34-0.34v-0.68c0-0.184-0.152-0.341-0.34-0.341H35.202z"/>
</svg>
