<?xml version="1.0" encoding="utf-8"?>
<!-- Generator: Adobe Illustrator 16.0.0, SVG Export Plug-In . SVG Version: 6.00 Build 0)  -->
<!DOCTYPE svg PUBLIC "-//W3C//DTD SVG 1.1//EN" "http://www.w3.org/Graphics/SVG/1.1/DTD/svg11.dtd">
<svg version="1.1" id="Layer_1" xmlns="http://www.w3.org/2000/svg" xmlns:xlink="http://www.w3.org/1999/xlink" x="0px" y="0px"
	 width="73.701px" height="73.701px" viewBox="0 0 73.701 73.701" enable-background="new 0 0 73.701 73.701" xml:space="preserve">
<path id="Remarketing_Services_1_" fill-rule="evenodd" clip-rule="evenodd" fill="#404041" d="M36.85,8.504
	c15.656,0,28.347,12.69,28.347,28.347c0,15.656-12.69,28.345-28.347,28.345c-15.655,0-28.346-12.689-28.346-28.345
	C8.504,21.195,21.194,8.504,36.85,8.504L36.85,8.504z M44.714,46.901c-0.733-0.268-1.349-0.523-1.861-0.787
	c-0.054-0.154,0.049-0.367,0.079-0.83c0.024-0.355-0.084-0.443-0.391-0.443c-0.385,0-0.897,0.223-1.252,0.117l-0.218-1.604
	c0.873-0.324,1.053-1.615,1.053-2.582c1.466-0.301,1.72-3.646,0.634-3.841c-0.145-0.375,0.989-3.665-0.193-5.516
	c-0.841-1.318-3.279-2.054-5.055-2.054c-1.437,0-2.899,0.218-2.381,1.452c-3.819,0.798-2.003,3.514-2.003,6.125
	c-1.286,0.439-0.282,3.765,0.814,3.863c0.161,1.473,0.673,2.566,1.248,2.66l-0.169,1.469c-0.334,0-1.666-0.389-1.59,0.273
	l0.078,0.684c-0.599,0.367-1.277,0.65-2.273,1.016c-2.01,0.73-3.567,1.473-4.426,2.121l0.212,2.207
	c-0.955-0.639-1.845-1.369-2.654-2.178l-1.373,1.371c3.513,3.512,8.364,5.684,13.724,5.684c10.72,0,19.409-8.688,19.409-19.408
	c0-4.957-1.858-9.479-4.917-12.91l3.573,0.313l0.168-1.934l-6.96-0.609l-0.609,6.961l1.935,0.17l0.327-3.74
	c2.822,3.104,4.543,7.227,4.543,11.75c0,4.8-1.938,9.146-5.071,12.304l-0.016-0.012l-0.024-0.02l-0.018-0.01l-0.025-0.02
	l-0.018-0.012l-0.026-0.018l-0.017-0.014l-0.026-0.018l-0.019-0.014l-0.026-0.018l-0.02-0.014l-0.026-0.018l-0.021-0.014
	l-0.026-0.016l-0.021-0.016l-0.026-0.018l-0.022-0.014l-0.026-0.018l-0.023-0.014l-0.026-0.018l-0.024-0.014l-0.026-0.016
	l-0.024-0.018l-0.027-0.016l-0.025-0.016l-0.027-0.016l-0.026-0.016l-0.027-0.016l-0.027-0.018l-0.026-0.014l-0.029-0.018
	l-0.026-0.016l-0.029-0.018l-0.026-0.014l-0.031-0.018l-0.026-0.016l-0.032-0.018l-0.025-0.014l-0.033-0.02l-0.025-0.014
	l-0.035-0.018l-0.025-0.014l-0.035-0.02l-0.026-0.014l-0.036-0.02l-0.025-0.014l-0.037-0.02l-0.025-0.012l-0.038-0.02l-0.024-0.014
	l-0.04-0.021l-0.024-0.012l-0.041-0.021l-0.024-0.012l-0.042-0.021l-0.023-0.012l-0.044-0.02l-0.022-0.012l-0.046-0.023
	l-0.022-0.012l-0.046-0.021l-0.022-0.01l-0.048-0.023l-0.021-0.01l-0.048-0.023l-0.022-0.01l-0.049-0.023l-0.021-0.012l-0.052-0.023
	l-0.02-0.01l-0.053-0.023l-0.021-0.01l-0.054-0.023l-0.02-0.01l-0.056-0.025l-0.019-0.008l-0.057-0.025l-0.019-0.008l-0.057-0.025
	l-0.019-0.008l-0.06-0.027l-0.018-0.008l-0.06-0.025L46.6,47.649l-0.063-0.027l-0.017-0.006l-0.063-0.027l-0.016-0.008l-0.063-0.027
	l-0.016-0.006l-0.066-0.027l-0.014-0.006l-0.068-0.027l-0.013-0.008l-0.069-0.027l-0.013-0.006l-0.07-0.029l-0.012-0.004
	l-0.072-0.029l-0.012-0.006l-0.072-0.029l-0.012-0.004l-0.074-0.031l-0.01-0.004l-0.076-0.029l-0.01-0.004l-0.078-0.031
	l-0.009-0.002l-0.079-0.033l-0.007-0.002l-0.08-0.031l-0.008-0.002l-0.082-0.031L45.35,47.14l-0.083-0.031l-0.006-0.002
	l-0.085-0.033h-0.004l-0.087-0.033l-0.004-0.002l-0.088-0.033H44.99l-0.089-0.033l-0.003-0.002l-0.092-0.033l0,0L44.714,46.901
	L44.714,46.901z M25.136,43.819l3.248-5.293l-1.655-1.016l-1.567,2.555c-0.311-1.068-0.477-2.195-0.477-3.365
	c0-6.645,5.388-12.033,12.032-12.033c1.447,0,2.832,0.256,4.116,0.725l0.665-1.825c-1.491-0.542-3.102-0.84-4.781-0.84
	c-7.717,0-13.973,6.257-13.973,13.974c0,1.271,0.17,2.503,0.487,3.673l-2.374-1.457l-1.016,1.654L25.136,43.819L25.136,43.819z
	 M24.495,41.149L24.495,41.149L24.495,41.149L24.495,41.149z"/>
</svg>
