<?xml version="1.0" encoding="utf-8"?>
<!-- Generator: Adobe Illustrator 16.0.0, SVG Export Plug-In . SVG Version: 6.00 Build 0)  -->
<!DOCTYPE svg PUBLIC "-//W3C//DTD SVG 1.1//EN" "http://www.w3.org/Graphics/SVG/1.1/DTD/svg11.dtd">
<svg version="1.1" id="Layer_1" xmlns="http://www.w3.org/2000/svg" xmlns:xlink="http://www.w3.org/1999/xlink" x="0px" y="0px"
	 width="73.701px" height="73.701px" viewBox="0 0 73.701 73.701" enable-background="new 0 0 73.701 73.701" xml:space="preserve">
<path id="Reputation_Management_1_" fill-rule="evenodd" clip-rule="evenodd" fill="#404041" d="M36.851,8.504
	c15.656,0,28.345,12.69,28.345,28.346c0,15.657-12.689,28.346-28.345,28.346c-15.655,0-28.347-12.689-28.347-28.346
	C8.504,21.195,21.196,8.504,36.851,8.504L36.851,8.504z M36.851,28.829c-1.848,0-3.397,0.404-3.811,0.95l-0.001,0.002l-0.006,0.007
	c-0.457,0.577-0.783,1.989-0.783,3.639c0,1.641,0.32,3.043,0.773,3.627c0.387,0.557,1.951,0.973,3.826,0.973
	c1.848,0,3.397-0.404,3.809-0.952l0.002-0.002l0.008-0.005c0.455-0.579,0.779-1.989,0.779-3.64c0-1.639-0.32-3.042-0.771-3.627
	C40.292,29.246,38.724,28.829,36.851,28.829L36.851,28.829z M36.851,45.653c-1.64,0-2.97,1.328-2.97,2.967
	c0,1.641,1.33,2.971,2.97,2.971c1.638,0,2.968-1.33,2.968-2.971C39.819,46.981,38.489,45.653,36.851,45.653L36.851,45.653z
	 M42.663,27.859c0.566,1.359,0.932,2.821,1.061,4.353l5.225,1.217l-5.225,1.216c-0.129,1.531-0.494,2.994-1.061,4.355
	c2.857,2.162,6.281,4.016,9.965,4.047c1.285,0,2.326-4.705,2.326-9.618c0-4.912-1.041-9.617-2.326-9.617
	C48.944,23.84,45.521,25.696,42.663,27.859L42.663,27.859z M31.038,27.859c-2.856-2.163-6.281-4.019-9.965-4.048
	c-1.285,0-2.326,4.705-2.326,9.617c0,4.913,1.041,9.618,2.326,9.618c3.684-0.031,7.107-1.885,9.965-4.047
	c-0.565-1.361-0.932-2.824-1.06-4.355l-5.225-1.216l5.225-1.217C30.106,30.68,30.471,29.218,31.038,27.859z"/>
</svg>
