<?xml version="1.0" encoding="utf-8"?>
<!-- Generator: Adobe Illustrator 16.0.0, SVG Export Plug-In . SVG Version: 6.00 Build 0)  -->
<!DOCTYPE svg PUBLIC "-//W3C//DTD SVG 1.1//EN" "http://www.w3.org/Graphics/SVG/1.1/DTD/svg11.dtd">
<svg version="1.1" id="Layer_1" xmlns="http://www.w3.org/2000/svg" xmlns:xlink="http://www.w3.org/1999/xlink" x="0px" y="0px"
	 width="73.701px" height="73.701px" viewBox="0 0 73.701 73.701" enable-background="new 0 0 73.701 73.701" xml:space="preserve">
<path id="Responsive_Design_1_" fill-rule="evenodd" clip-rule="evenodd" fill="#404041" d="M21.995,23.303h29.711
	c0.232,0,0.422,0.195,0.422,0.42v2.997h2.014v-4.392c0-0.566-0.467-1.04-1.039-1.04H20.6c-0.573,0-1.041,0.466-1.041,1.04v23.508
	c0,0.574,0.476,1.043,1.041,1.043h12.793c0,3.039-2.452,5.506-5.485,5.533h17.886c-3.035-0.027-5.486-2.492-5.486-5.533h0.729v-4.15
	H21.995c-0.225,0-0.421-0.189-0.421-0.42V23.723C21.574,23.492,21.763,23.303,21.995,23.303L21.995,23.303z M45.136,32.721h7.674
	c0.193,0,0.352,0.171,0.352,0.352v11.372c0,0.18-0.172,0.352-0.352,0.352h-7.674c-0.182,0-0.352-0.156-0.352-0.352V33.073
	C44.784,32.878,44.942,32.721,45.136,32.721L45.136,32.721z M44.976,29.487h7.994c0.645,0,1.172,0.533,1.172,1.173v16.199
	c0,0.639-0.533,1.172-1.172,1.172h-7.994c-0.641,0-1.172-0.527-1.172-1.172V30.66C43.804,30.015,44.331,29.487,44.976,29.487
	L44.976,29.487z M48.972,45.454c0.531,0,0.961,0.43,0.961,0.959s-0.43,0.961-0.961,0.961c-0.529,0-0.959-0.432-0.959-0.961
	S48.442,45.454,48.972,45.454L48.972,45.454z M46.356,30.833h3.158c0.148,0,0.271,0.121,0.271,0.271v0.001
	c0,0.149-0.123,0.271-0.271,0.271h-3.158c-0.148,0-0.271-0.123-0.271-0.271v-0.001C46.085,30.956,46.206,30.833,46.356,30.833
	L46.356,30.833z M51.095,30.833h0.494c0.15,0,0.271,0.123,0.271,0.272l0,0c0,0.15-0.121,0.272-0.271,0.272h-0.494
	c-0.15,0-0.271-0.122-0.271-0.272l0,0C50.823,30.956,50.944,30.833,51.095,30.833L51.095,30.833z M36.85,8.504
	c15.657,0,28.346,12.69,28.346,28.346c0,15.657-12.689,28.346-28.346,28.346c-15.655,0-28.346-12.689-28.346-28.346
	C8.504,21.195,21.195,8.504,36.85,8.504z"/>
</svg>
