<?xml version="1.0" encoding="utf-8"?>
<!-- Generator: Adobe Illustrator 16.0.0, SVG Export Plug-In . SVG Version: 6.00 Build 0)  -->
<!DOCTYPE svg PUBLIC "-//W3C//DTD SVG 1.1//EN" "http://www.w3.org/Graphics/SVG/1.1/DTD/svg11.dtd">
<svg version="1.1" id="Layer_1" xmlns="http://www.w3.org/2000/svg" xmlns:xlink="http://www.w3.org/1999/xlink" x="0px" y="0px"
	 width="73.701px" height="73.701px" viewBox="0 0 73.701 73.701" enable-background="new 0 0 73.701 73.701" xml:space="preserve">
<path id="Retina_Ready_Web_Design_1_" fill-rule="evenodd" clip-rule="evenodd" fill="#404041" d="M57.886,36.551
	c-0.014-0.057-0.008-0.119-0.027-0.175c-0.008-0.022-0.027-0.034-0.035-0.057c-0.014-0.033-0.012-0.069-0.027-0.101
	c-3.828-7.558-12.158-12.975-20.946-12.975c-8.787,0-17.116,5.406-20.944,12.966c-0.018,0.03-0.014,0.066-0.027,0.1
	c-0.01,0.021-0.028,0.035-0.036,0.058c-0.021,0.056-0.013,0.117-0.025,0.174c-0.023,0.103-0.046,0.201-0.046,0.306
	c0,0.103,0.022,0.202,0.046,0.305c0.013,0.057,0.005,0.117,0.025,0.174c0.008,0.021,0.026,0.035,0.036,0.056
	c0.014,0.033,0.01,0.07,0.027,0.102c3.828,7.559,12.157,12.975,20.944,12.975c8.788,0,17.118-5.406,20.946-12.965
	c0.016-0.032,0.014-0.067,0.027-0.101c0.008-0.021,0.027-0.035,0.035-0.059c0.02-0.056,0.014-0.115,0.027-0.173
	c0.021-0.104,0.045-0.2,0.045-0.306C57.931,36.752,57.907,36.652,57.886,36.551L57.886,36.551z M39.653,28.901
	c1.191,0.42,2.229,1.079,3.078,1.907c-0.443,0.324-0.799,0.781-0.996,1.337c-0.518,1.47,0.252,3.076,1.719,3.594
	c0.59,0.209,1.203,0.206,1.76,0.038c0.164,1.268,0.041,2.591-0.414,3.878c-1.549,4.39-6.363,6.693-10.754,5.145
	c-4.39-1.549-6.693-6.363-5.145-10.754S35.264,27.353,39.653,28.901L39.653,28.901z M36.882,33.575c1.806,0,3.271,1.465,3.271,3.271
	s-1.465,3.27-3.271,3.27c-1.805,0-3.27-1.464-3.27-3.27S35.078,33.575,36.882,33.575L36.882,33.575z M36.85,47.475L36.85,47.475
	c-7.236,0-14.322-4.243-17.853-10.627c3.549-6.395,10.626-10.621,17.853-10.621c7.237,0,14.323,4.243,17.854,10.627
	C51.155,43.248,44.077,47.475,36.85,47.475L36.85,47.475z M36.85,8.504c15.657,0,28.346,12.691,28.346,28.347
	S52.507,65.197,36.85,65.197c-15.655,0-28.346-12.691-28.346-28.347S21.195,8.504,36.85,8.504z"/>
</svg>
