<?xml version="1.0" encoding="utf-8"?>
<!-- Generator: Adobe Illustrator 16.0.0, SVG Export Plug-In . SVG Version: 6.00 Build 0)  -->
<!DOCTYPE svg PUBLIC "-//W3C//DTD SVG 1.1//EN" "http://www.w3.org/Graphics/SVG/1.1/DTD/svg11.dtd">
<svg version="1.1" id="Layer_1" xmlns="http://www.w3.org/2000/svg" xmlns:xlink="http://www.w3.org/1999/xlink" x="0px" y="0px"
	 width="73.701px" height="73.701px" viewBox="0 0 73.701 73.701" enable-background="new 0 0 73.701 73.701" xml:space="preserve">
<path id="Return_On_Investment_1_" fill-rule="evenodd" clip-rule="evenodd" fill="#404041" d="M37.227,18.992
	c2.441,0,4.424,1.98,4.424,4.424c0,0.684-0.155,1.331-0.432,1.908c-1.238-0.231-2.479-0.354-3.848-0.354
	c-1.37,0-2.794,0.141-4.113,0.403c-0.292-0.59-0.456-1.255-0.456-1.958C32.802,20.973,34.783,18.992,37.227,18.992L37.227,18.992z
	 M20.677,36.999c-0.399,0.119-0.709,0.43-0.658,0.843l0.94,7.661c0.051,0.412,0.429,0.639,0.842,0.657l2.214,0.101
	c0.863,1.108,1.929,2.101,3.154,2.942l1.147,4.935c0.071,0.306,0.257,0.571,0.571,0.571h4.221c0.314,0,0.466-0.279,0.571-0.571
	l0.77-2.147c0.897,0.131,1.822,0.2,2.767,0.2c0.945,0,1.872-0.069,2.771-0.2l0.77,2.147c0.106,0.292,0.258,0.571,0.572,0.571h4.22
	c0.314,0,0.5-0.266,0.572-0.571l1.147-4.94c3.409-2.343,5.575-5.852,5.575-9.776c0-1.256-0.194-2.397-0.551-3.449
	c0.815-0.303,1.396-1.088,1.396-2.009c0-1.185-0.96-2.144-2.143-2.144c-0.524,0-1.003,0.188-1.376,0.501
	c-0.706-0.833-1.531-1.611-2.448-2.354h-0.001c-2.772-2.06-6.455-3.314-10.497-3.314c-2.01,0-3.933,0.311-5.696,0.878
	c-2.398-2.012-4.584-2.215-7.076-2.02c-2.926,0.228-2.842,1.161-1.341,2.427c0.916,0.773,1.732,1.912,2.327,3.108
	c-1.668,1.565-2.875,3.467-3.451,5.563L20.677,36.999L20.677,36.999z M37.225,28.453c1.907,0,4.035,0.313,5.748,1.043
	c0.163,0.068,0.27,0.203,0.27,0.384c0,0.228-0.184,0.411-0.41,0.411c-0.008,0-0.081-0.008-0.081-0.008
	c-1.657-0.33-3.536-0.516-5.526-0.516c-1.989,0-3.867,0.186-5.524,0.516c0,0-0.073,0.008-0.082,0.008
	c-0.226,0-0.409-0.184-0.409-0.411c0-0.179,0.114-0.331,0.274-0.387C33.195,28.765,35.321,28.453,37.225,28.453L37.225,28.453z
	 M26.277,34.096c0.64,0.153,1.013,0.882,0.835,1.627c-0.179,0.745-0.842,1.224-1.48,1.071c-0.641-0.152-1.014-0.88-0.836-1.627
	C24.976,34.422,25.638,33.943,26.277,34.096L26.277,34.096z M36.852,8.504c-15.655,0-28.347,12.691-28.347,28.347
	s12.691,28.347,28.347,28.347s28.346-12.691,28.346-28.347S52.507,8.504,36.852,8.504z"/>
</svg>
