<?xml version="1.0" encoding="utf-8"?>
<!-- Generator: Adobe Illustrator 16.0.0, SVG Export Plug-In . SVG Version: 6.00 Build 0)  -->
<!DOCTYPE svg PUBLIC "-//W3C//DTD SVG 1.1//EN" "http://www.w3.org/Graphics/SVG/1.1/DTD/svg11.dtd">
<svg version="1.1" id="Layer_1" xmlns="http://www.w3.org/2000/svg" xmlns:xlink="http://www.w3.org/1999/xlink" x="0px" y="0px"
	 width="73.701px" height="73.701px" viewBox="0 0 73.701 73.701" enable-background="new 0 0 73.701 73.701" xml:space="preserve">
<path id="Search_Engine_Optimization_1_" fill-rule="evenodd" clip-rule="evenodd" fill="#404041" d="M45.192,43.196
	c1.282-0.506,2.807-0.238,3.834,0.789l2.945,2.945c1.381,1.381,1.382,3.656-0.001,5.039H51.97c-1.383,1.383-3.653,1.387-5.039,0
	l-2.943-2.943c-1.031-1.031-1.295-2.551-0.791-3.834l-2.48-2.48c-5.239,4.244-12.943,3.928-17.816-0.945
	c-5.209-5.21-5.209-13.657,0-18.867c5.211-5.21,13.656-5.21,18.867,0c4.873,4.873,5.188,12.577,0.945,17.816L45.192,43.196
	L45.192,43.196z M26.304,26.303c-3.318,3.317-3.328,8.689-0.034,12.022l0.033,0.035c0.388,0.389,1.016,0.389,1.403,0
	c0.387-0.387,0.387-1.014,0-1.403l-0.018-0.018l-0.004-0.004c-2.533-2.557-2.527-6.683,0.021-9.23
	c1.265-1.266,2.92-1.904,4.578-1.917l0.023,0.001c0.262,0.008,0.526-0.09,0.726-0.29c0.388-0.388,0.388-1.015,0-1.402
	c-0.199-0.2-0.464-0.297-0.726-0.29h-0.023C30.118,23.819,27.956,24.651,26.304,26.303L26.304,26.303z M24.901,24.901
	c-4.105,4.104-4.105,10.76,0,14.866c4.104,4.105,10.76,4.104,14.865,0c4.104-4.106,4.104-10.76,0-14.866
	C35.661,20.795,29.005,20.795,24.901,24.901L24.901,24.901z M36.851,8.504c-15.656,0-28.347,12.69-28.347,28.346
	c0,15.657,12.69,28.346,28.347,28.346c15.655,0,28.346-12.689,28.346-28.346C65.196,21.195,52.506,8.504,36.851,8.504z"/>
</svg>
