<?xml version="1.0" encoding="utf-8"?>
<!-- Generator: Adobe Illustrator 16.0.0, SVG Export Plug-In . SVG Version: 6.00 Build 0)  -->
<!DOCTYPE svg PUBLIC "-//W3C//DTD SVG 1.1//EN" "http://www.w3.org/Graphics/SVG/1.1/DTD/svg11.dtd">
<svg version="1.1" id="Layer_1" xmlns="http://www.w3.org/2000/svg" xmlns:xlink="http://www.w3.org/1999/xlink" x="0px" y="0px"
	 width="73.701px" height="73.701px" viewBox="0 0 73.701 73.701" enable-background="new 0 0 73.701 73.701" xml:space="preserve">
<path id="SEO_White_Hat_1_" fill-rule="evenodd" clip-rule="evenodd" fill="#404041" d="M52.515,45.681
	c0.742,0,1.344,0.602,1.344,1.344c0,0.48-0.252,0.901-0.631,1.14l-0.016,0.011c-4.717,3.039-10.332,4.805-16.362,4.805
	c-6.035,0-11.658-1.769-16.379-4.815l0.002-0.001c-0.379-0.238-0.631-0.658-0.631-1.139c0-0.742,0.602-1.344,1.344-1.344
	c0.264,0,0.508,0.075,0.715,0.206l0.01,0.006l0.027,0.018l0.004,0.002c4.297,2.771,9.414,4.379,14.908,4.379
	c5.495,0,10.616-1.608,14.913-4.381l0.027-0.018l0.01-0.006C52.007,45.757,52.251,45.681,52.515,45.681L52.515,45.681z
	 M22.959,22.065c-0.004,0,0.017,0.065,0.021,0.074c2.172,7.3,3.346,15.032,3.346,23.039c0,0.263-0.007,0.524-0.01,0.787l0.006,0.046
	c3.21,1.454,6.773,2.264,10.527,2.264c3.754,0,7.317-0.811,10.528-2.265l0.006-0.042c-0.004-0.264-0.012-0.525-0.012-0.79
	c0-8.006,1.176-15.736,3.348-23.037c0.014-0.025,0.021-0.051,0.021-0.076c0-0.742-6.219-1.344-13.89-1.344
	C29.179,20.722,22.959,21.323,22.959,22.065L22.959,22.065z M36.851,8.504c-15.655,0-28.347,12.691-28.347,28.347
	s12.691,28.347,28.347,28.347c15.656,0,28.345-12.691,28.345-28.347S52.507,8.504,36.851,8.504z"/>
</svg>
