<?xml version="1.0" encoding="utf-8"?>
<!-- Generator: Adobe Illustrator 16.0.0, SVG Export Plug-In . SVG Version: 6.00 Build 0)  -->
<!DOCTYPE svg PUBLIC "-//W3C//DTD SVG 1.1//EN" "http://www.w3.org/Graphics/SVG/1.1/DTD/svg11.dtd">
<svg version="1.1" id="Layer_1" xmlns="http://www.w3.org/2000/svg" xmlns:xlink="http://www.w3.org/1999/xlink" x="0px" y="0px"
	 width="73.701px" height="73.701px" viewBox="0 0 73.701 73.701" enable-background="new 0 0 73.701 73.701" xml:space="preserve">
<path id="SEO_Monitoring_1_" fill-rule="evenodd" clip-rule="evenodd" fill="#404041" d="M36.85,8.504
	c15.657,0,28.346,12.69,28.346,28.346c0,15.657-12.689,28.346-28.346,28.346c-15.655,0-28.346-12.689-28.346-28.346
	C8.504,21.195,21.195,8.504,36.85,8.504L36.85,8.504z M45.456,27.101c-0.863,0-1.564,0.7-1.564,1.565l0.002,0.037l-2.65,1.047
	c-0.287-0.344-0.719-0.564-1.201-0.564c-0.863,0-1.564,0.701-1.564,1.564c0,0.205,0.039,0.4,0.111,0.581l-3.88,3.314
	c-0.238-0.148-0.52-0.233-0.82-0.233c-0.414,0-0.79,0.162-1.071,0.426l-2.442-1.354c0.015-0.086,0.022-0.176,0.022-0.268
	c0-0.861-0.701-1.564-1.564-1.564c-0.627,0-1.169,0.371-1.418,0.905l-3.236-0.341c-0.024-0.004-0.051-0.004-0.076-0.006
	c-0.283,0-0.511,0.229-0.511,0.511c0,0.264,0.199,0.479,0.456,0.507l3.261,0.344c0.161,0.693,0.783,1.21,1.524,1.21
	c0.404,0,0.772-0.153,1.051-0.405l2.459,1.363c-0.012,0.077-0.019,0.156-0.019,0.236c0,0.864,0.701,1.565,1.564,1.565
	s1.565-0.701,1.565-1.565c0-0.191-0.035-0.373-0.098-0.543l3.901-3.33c0.23,0.135,0.498,0.212,0.785,0.212
	c0.863,0,1.564-0.702,1.564-1.565v-0.047l2.645-1.042c0.287,0.347,0.721,0.569,1.205,0.569c0.586,0,1.096-0.322,1.363-0.799
	l2.68,0.535c0.033,0.006,0.066,0.01,0.102,0.01c0.281,0,0.51-0.228,0.51-0.51c0-0.248-0.176-0.455-0.41-0.501l-2.697-0.538
	C46.888,27.677,46.239,27.101,45.456,27.101L45.456,27.101z M22.238,23.526c-0.228,0-0.413,0.185-0.413,0.412v18.284
	c0,0.225,0.193,0.412,0.413,0.412h29.226c0.221,0,0.412-0.193,0.412-0.412V23.938c0-0.221-0.186-0.412-0.412-0.412H22.238
	L22.238,23.526z M40.251,46.716h12.584c0.557,0,1.023-0.467,1.023-1.025V22.568c0-0.558-0.459-1.024-1.023-1.024H20.867
	c-0.564,0-1.024,0.459-1.024,1.024V45.69c0,0.564,0.467,1.025,1.024,1.025H33.45c0,2.988-2.412,5.416-5.396,5.441h17.594
	C42.663,52.132,40.251,49.706,40.251,46.716z"/>
</svg>
