<?xml version="1.0" encoding="utf-8"?>
<!-- Generator: Adobe Illustrator 16.0.0, SVG Export Plug-In . SVG Version: 6.00 Build 0)  -->
<!DOCTYPE svg PUBLIC "-//W3C//DTD SVG 1.1//EN" "http://www.w3.org/Graphics/SVG/1.1/DTD/svg11.dtd">
<svg version="1.1" id="Layer_1" xmlns="http://www.w3.org/2000/svg" xmlns:xlink="http://www.w3.org/1999/xlink" x="0px" y="0px"
	 width="73.701px" height="73.701px" viewBox="0 0 73.701 73.701" enable-background="new 0 0 73.701 73.701" xml:space="preserve">
<path id="SEO_Report_1_" fill-rule="evenodd" clip-rule="evenodd" fill="#404041" d="M36.851,8.504
	c15.655,0,28.347,12.691,28.347,28.347S52.506,65.197,36.851,65.197S8.504,52.506,8.504,36.851S21.195,8.504,36.851,8.504
	L36.851,8.504z M23.063,21.249c-0.799,0-1.451,0.652-1.451,1.45v30.843c0,0.798,0.652,1.45,1.451,1.45h27.576
	c0.798,0,1.451-0.652,1.451-1.45V22.699c0-0.797-0.653-1.45-1.451-1.45H44.47v2.539h4.354c0.398,0,0.726,0.327,0.726,0.727v27.212
	c0,0.399-0.327,0.726-0.726,0.726H24.877c-0.399,0-0.726-0.326-0.726-0.726V24.515c0-0.399,0.327-0.727,0.726-0.727h4.354v-2.539
	H23.063L23.063,21.249z M43.555,41.627c-0.199,0-0.362,0.163-0.362,0.362v7.561c0,0.199,0.163,0.362,0.362,0.362h1.089
	c0.199,0,0.362-0.163,0.362-0.362v-7.561c0-0.199-0.163-0.362-0.362-0.362H43.555L43.555,41.627z M39.927,43.06
	c-0.2,0-0.363,0.164-0.363,0.363v6.127c0,0.199,0.163,0.362,0.363,0.362h1.089c0.199,0,0.362-0.163,0.362-0.362v-6.127
	c0-0.199-0.163-0.363-0.362-0.363H39.927L39.927,43.06z M29.042,46.72c-0.2,0-0.363,0.163-0.363,0.362v2.468
	c0,0.199,0.163,0.362,0.363,0.362h1.088c0.199,0,0.363-0.163,0.363-0.362v-2.468c0-0.199-0.164-0.362-0.363-0.362H29.042
	L29.042,46.72z M32.67,40.366c-0.2,0-0.363,0.162-0.363,0.363v8.82c0,0.2,0.163,0.362,0.363,0.362h1.088
	c0.2,0,0.363-0.162,0.363-0.362v-8.82c0-0.201-0.163-0.363-0.363-0.363H32.67L32.67,40.366z M36.298,45.269
	c-0.199,0-0.362,0.162-0.362,0.362v3.919c0,0.199,0.163,0.362,0.362,0.362h1.089c0.199,0,0.362-0.163,0.362-0.362v-3.919
	c0-0.2-0.163-0.362-0.362-0.362H36.298L36.298,45.269z M36.851,18.709c-1.396,0-2.54,1.144-2.54,2.54h-2.54v2.539h5.08h5.079v-2.539
	h-2.539C39.391,19.853,38.248,18.709,36.851,18.709L36.851,18.709L36.851,18.709z M35.228,26.328c-3.106,0-5.624,2.518-5.624,5.624
	s2.518,5.624,5.624,5.624c1.553,0,2.958-0.629,3.977-1.646l-3.977-3.978l3.977-3.978C38.186,26.958,36.78,26.328,35.228,26.328
	L35.228,26.328z M42.45,27.975l-3.978,3.978l3.978,3.978c1.018-1.019,1.646-2.425,1.646-3.978S43.468,28.993,42.45,27.975z"/>
</svg>
