<?xml version="1.0" encoding="utf-8"?>
<!-- Generator: Adobe Illustrator 16.0.0, SVG Export Plug-In . SVG Version: 6.00 Build 0)  -->
<!DOCTYPE svg PUBLIC "-//W3C//DTD SVG 1.1//EN" "http://www.w3.org/Graphics/SVG/1.1/DTD/svg11.dtd">
<svg version="1.1" id="Layer_1" xmlns="http://www.w3.org/2000/svg" xmlns:xlink="http://www.w3.org/1999/xlink" x="0px" y="0px"
	 width="73.701px" height="73.701px" viewBox="0 0 73.701 73.701" enable-background="new 0 0 73.701 73.701" xml:space="preserve">
<path id="SEO_Avards_1_" fill-rule="evenodd" clip-rule="evenodd" fill="#404041" d="M47.446,19.134v2.694l-1.57,0.95l0.129,2.498
	h6.793c-0.213,2.463-0.428,4.926-0.645,7.389c-0.238,2.72-2.637,4.734-5.355,4.495l-0.479-0.041
	c-0.598,2.359-2.469,4.263-4.807,5.056l-0.26,1.528c-0.029,0.179-0.15,0.335-0.336,0.335h-1.121
	c0.248,1.578,0.846,3.041,1.711,4.308h5.551c0.496,0,0.818,0.423,0.9,0.901l0.752,4.419c0.082,0.482-0.412,0.901-0.9,0.901H25.897
	c-0.486,0-0.983-0.412-0.9-0.901l0.752-4.419c0.084-0.488,0.406-0.901,0.901-0.901h5.551c0.864-1.267,1.462-2.729,1.713-4.308H32.79
	c-0.185,0-0.305-0.153-0.336-0.335l-0.26-1.529c-2.34-0.793-4.208-2.695-4.807-5.056l-0.482,0.042
	c-2.721,0.239-5.119-1.775-5.357-4.495c-0.216-2.463-0.432-4.926-0.646-7.389h6.794l0.135-2.498l-1.571-0.95v-2.694
	C33.322,19.134,40.384,19.134,47.446,19.134L47.446,19.134z M36.854,25.368l-1.5,4.002l-4.27,0.19l3.343,2.663l-1.139,4.118
	l3.565-2.355l3.565,2.355l-1.139-4.118l3.342-2.663l-4.27-0.19L36.854,25.368L36.854,25.368z M24.049,28.16l0.371,4.254
	c0.099,1.134,1.099,1.973,2.232,1.872l0.589-0.052l0.313-6.074H24.049L24.049,28.16z M46.153,28.16l0.313,6.075l0.582,0.051
	c1.135,0.101,2.135-0.738,2.232-1.872l0.371-4.254H46.153L46.153,28.16z M36.85,8.504c-15.655,0-28.346,12.691-28.346,28.347
	s12.69,28.347,28.346,28.347c15.657,0,28.346-12.691,28.346-28.347S52.507,8.504,36.85,8.504z"/>
</svg>
