<?xml version="1.0" encoding="utf-8"?>
<!-- Generator: Adobe Illustrator 16.0.0, SVG Export Plug-In . SVG Version: 6.00 Build 0)  -->
<!DOCTYPE svg PUBLIC "-//W3C//DTD SVG 1.1//EN" "http://www.w3.org/Graphics/SVG/1.1/DTD/svg11.dtd">
<svg version="1.1" id="Layer_1" xmlns="http://www.w3.org/2000/svg" xmlns:xlink="http://www.w3.org/1999/xlink" x="0px" y="0px"
	 width="73.701px" height="73.701px" viewBox="0 0 73.701 73.701" enable-background="new 0 0 73.701 73.701" xml:space="preserve">
<path id="SEO_Training_1_" fill-rule="evenodd" clip-rule="evenodd" fill="#404041" d="M36.852,8.504
	c15.655,0,28.346,12.69,28.346,28.347c0,15.656-12.69,28.345-28.346,28.345S8.505,52.507,8.505,36.851
	C8.505,21.195,21.196,8.504,36.852,8.504L36.852,8.504z M20.79,23.238c-0.521,0-0.947,0.424-0.947,0.946v20.17
	c0,0.521,0.434,0.947,0.947,0.947h2.823l-2.752,2.529c-0.021,0.018-0.038,0.035-0.058,0.055c-0.408,0.408-0.408,1.068,0,1.475
	c0.406,0.408,1.066,0.408,1.474,0c0.021-0.02,0.037-0.037,0.055-0.059l3.679-4h7.825l-3.61,6.252h2.558l2.96-5.127v6.252h2.215
	v-6.252l2.961,5.127h2.558l-3.61-6.252h13.047c0.514,0,0.946-0.434,0.946-0.947v-20.17c0-0.515-0.426-0.946-0.946-0.946H37.958
	v-2.215h-2.215v2.215H20.79L20.79,23.238z M30.897,38.603c0.182-0.182,0.48-0.182,0.664,0c0.182,0.184,0.182,0.482,0,0.664
	l-3.514,3.82h23.215c0.205,0,0.382-0.18,0.382-0.381V25.832c0-0.198-0.173-0.381-0.382-0.381c-9.008,0-19.814,0-28.822,0
	c-0.211,0-0.383,0.171-0.383,0.381v16.875c0,0.209,0.182,0.381,0.383,0.381h3.582L30.897,38.603z"/>
</svg>
