<?xml version="1.0" encoding="utf-8"?>
<!-- Generator: Adobe Illustrator 16.0.0, SVG Export Plug-In . SVG Version: 6.00 Build 0)  -->
<!DOCTYPE svg PUBLIC "-//W3C//DTD SVG 1.1//EN" "http://www.w3.org/Graphics/SVG/1.1/DTD/svg11.dtd">
<svg version="1.1" id="Layer_1" xmlns="http://www.w3.org/2000/svg" xmlns:xlink="http://www.w3.org/1999/xlink" x="0px" y="0px"
	 width="73.701px" height="73.701px" viewBox="0 0 73.701 73.701" enable-background="new 0 0 73.701 73.701" xml:space="preserve">
<path id="SEO_Tags_1_" fill-rule="evenodd" clip-rule="evenodd" fill="#404041" d="M17.922,40.121c-0.762,0.762-0.762,1.998,0,2.76
	l11.683,11.682c0.761,0.762,1.998,0.762,2.759,0l16.928-16.929c0.709,1.355,1.111,2.898,1.111,4.535
	c0,3.558-1.898,6.671-4.736,8.383c-0.473,0.191-0.805,0.653-0.805,1.194c0,0.71,0.576,1.285,1.287,1.285
	c0.311,0,0.596-0.109,0.818-0.293c3.584-2.156,5.98-6.083,5.98-10.569c0-5.078-3.07-9.438-7.453-11.326
	c-0.545,1.207-1.758,1.871-3.088,1.703c-0.619-0.083-1.207-0.384-1.646-0.824c-1.141-1.141-1.141-2.989,0-4.13
	c1.141-1.14,2.99-1.14,4.131,0c0.213,0.216,0.389,0.456,0.521,0.712c1.91,0.66,3.641,1.703,5.1,3.037v-7.382
	c0-1.095-0.895-1.99-1.99-1.99c-3.863,0-7.729,0.002-11.59,0.002c-0.509-0.012-1.021,0.173-1.411,0.552L17.922,40.121L17.922,40.121
	z M36.851,8.504c15.656,0,28.345,12.691,28.345,28.347S52.507,65.197,36.851,65.197c-15.656,0-28.347-12.691-28.347-28.347
	S21.195,8.504,36.851,8.504z"/>
</svg>
