<?xml version="1.0" encoding="utf-8"?>
<!-- Generator: Adobe Illustrator 16.0.0, SVG Export Plug-In . SVG Version: 6.00 Build 0)  -->
<!DOCTYPE svg PUBLIC "-//W3C//DTD SVG 1.1//EN" "http://www.w3.org/Graphics/SVG/1.1/DTD/svg11.dtd">
<svg version="1.1" id="Layer_1" xmlns="http://www.w3.org/2000/svg" xmlns:xlink="http://www.w3.org/1999/xlink" x="0px" y="0px"
	 width="73.701px" height="73.701px" viewBox="0 0 73.701 73.701" enable-background="new 0 0 73.701 73.701" xml:space="preserve">
<path id="SEO_Benchmark_1_" fill-rule="evenodd" clip-rule="evenodd" fill="#404041" d="M36.85,8.504
	c15.657,0,28.346,12.691,28.346,28.347S52.507,65.197,36.85,65.197c-15.655,0-28.346-12.691-28.346-28.347S21.195,8.504,36.85,8.504
	L36.85,8.504z M21.647,45.12v8.029h1.799V45.12H21.647L21.647,45.12z M47.849,25.569l-4.633,4.633
	c-0.898-0.443-1.977-0.513-2.975-0.1c-0.529,0.22-0.98,0.551-1.332,0.955l-3.237-1.34c0.006-0.079,0.01-0.159,0.01-0.24
	c0-1.987-1.612-3.599-3.6-3.599c-1.986,0-3.598,1.611-3.598,3.599c0,0.505,0.104,0.985,0.291,1.42l-4.633,4.633
	c-0.48-0.238-1.023-0.373-1.598-0.373c-1.986,0-3.598,1.611-3.598,3.599c0,1.986,1.611,3.598,3.598,3.598
	c1.988,0,3.6-1.611,3.6-3.598c0-0.574-0.134-1.115-0.373-1.597l4.545-4.546c0.522,0.295,1.125,0.463,1.766,0.463
	c1.081,0,2.051-0.477,2.709-1.229l3.235,1.34c-0.035,0.535,0.047,1.088,0.268,1.618c0.76,1.835,2.865,2.708,4.701,1.947
	c1.385-0.573,2.221-1.913,2.223-3.324v-0.063c-0.004-0.217-0.027-0.434-0.07-0.65c-0.047-0.224-0.113-0.446-0.205-0.665
	c-0.029-0.074-0.064-0.147-0.1-0.218l4.547-4.547c0.521,0.295,1.125,0.463,1.766,0.463c1.988,0,3.598-1.611,3.598-3.599
	c0-1.986-1.609-3.599-3.598-3.599c-1.986,0-3.598,1.612-3.598,3.599C47.558,24.654,47.661,25.134,47.849,25.569L47.849,25.569z
	 M50.255,30.627v22.522h1.799V30.627H50.255L50.255,30.627z M40.72,39.904v13.245h1.799V39.904H40.72L40.72,39.904z M31.182,35.955
	v17.194h1.8V35.955H31.182L31.182,35.955z M22.545,36.956c-0.993,0-1.799,0.805-1.799,1.8c0,0.993,0.806,1.799,1.799,1.799
	c0.994,0,1.801-0.806,1.801-1.799C24.346,37.761,23.54,36.956,22.545,36.956L22.545,36.956z M32.083,27.679
	c-0.994,0-1.799,0.805-1.799,1.799s0.805,1.8,1.799,1.8s1.799-0.806,1.799-1.8S33.077,27.679,32.083,27.679L32.083,27.679z
	 M41.618,31.628c-0.994,0-1.799,0.806-1.799,1.8c0,0.993,0.805,1.799,1.799,1.799s1.799-0.806,1.799-1.799
	C43.417,32.434,42.612,31.628,41.618,31.628L41.618,31.628z M51.155,22.351c-0.994,0-1.799,0.806-1.799,1.799
	c0,0.994,0.805,1.8,1.799,1.8s1.799-0.806,1.799-1.8C52.954,23.156,52.149,22.351,51.155,22.351z"/>
</svg>
