<?xml version="1.0" encoding="utf-8"?>
<!-- Generator: Adobe Illustrator 16.0.0, SVG Export Plug-In . SVG Version: 6.00 Build 0)  -->
<!DOCTYPE svg PUBLIC "-//W3C//DTD SVG 1.1//EN" "http://www.w3.org/Graphics/SVG/1.1/DTD/svg11.dtd">
<svg version="1.1" id="Layer_1" xmlns="http://www.w3.org/2000/svg" xmlns:xlink="http://www.w3.org/1999/xlink" x="0px" y="0px"
	 width="73.701px" height="73.701px" viewBox="0 0 73.701 73.701" enable-background="new 0 0 73.701 73.701" xml:space="preserve">
<path id="SEO_Performance_1_" fill-rule="evenodd" clip-rule="evenodd" fill="#404041" d="M36.851,8.504
	c15.655,0,28.347,12.69,28.347,28.346c0,15.657-12.691,28.346-28.347,28.346S8.504,52.507,8.504,36.85
	C8.504,21.195,21.195,8.504,36.851,8.504L36.851,8.504z M37.959,20.654v-2.247h1.842c0.203,0,0.369-0.167,0.369-0.369v-1.474
	c0-0.202-0.166-0.369-0.369-0.369h-1.842h-2.211h-1.843c-0.202,0-0.368,0.167-0.368,0.369v1.474c0,0.202,0.166,0.369,0.368,0.369
	h1.843v2.248c-8.44,0.566-15.112,7.593-15.112,16.176c0,8.956,7.261,16.215,16.215,16.215s16.214-7.26,16.214-16.215
	c0-5.097-2.353-9.645-6.032-12.617l2.347-3.352c0.116-0.166,0.075-0.397-0.091-0.514l-1.207-0.845
	c-0.166-0.116-0.397-0.076-0.514,0.09l-2.345,3.35C43.076,21.646,40.604,20.832,37.959,20.654L37.959,20.654z M32.933,43.929
	l-0.006-0.002l-0.016-0.01c-1.314-0.732-2.402-1.818-3.139-3.131l-0.002-0.004l-0.009-0.018l-0.009-0.016h-0.001
	c-0.127-0.221-0.365-0.369-0.638-0.369c-0.407,0-0.737,0.33-0.737,0.736c0,0.125,0.031,0.242,0.086,0.346h-0.001l0.004,0.006
	c0.871,1.572,2.172,2.873,3.743,3.746l0.011,0.006c0.105,0.059,0.227,0.092,0.356,0.092c0.406,0,0.736-0.33,0.736-0.736
	C33.313,44.298,33.16,44.056,32.933,43.929L32.933,43.929z M28.743,36.831l0.001-0.018v-0.019v-0.02v-0.003
	c0.021-2.961,1.63-5.546,4.019-6.944l0.017-0.009l0.016-0.009l0.001-0.001c0.221-0.128,0.369-0.365,0.369-0.638
	c0-0.407-0.331-0.737-0.737-0.737c-0.135,0-0.261,0.036-0.368,0.099l-0.014,0.008l-0.016,0.01c-2.832,1.652-4.74,4.714-4.76,8.225
	v0.02v0.019l-0.001,0.018h0.001c0.021,0.391,0.343,0.702,0.736,0.702C28.401,37.532,28.724,37.22,28.743,36.831L28.743,36.831z
	 M36.79,22.829c-7.705,0.032-13.943,6.289-13.943,14.002c0,7.733,6.271,14.004,14.004,14.004c7.732,0,14.003-6.271,14.003-14.004
	c0-4.693-2.31-8.848-5.855-11.389l-0.238-0.167c-2.215-1.519-4.89-2.419-7.772-2.446H36.79L36.79,22.829z M37.958,33.315v-7.17
	c0-0.203-0.166-0.369-0.368-0.369h-1.475c-0.201,0-0.368,0.166-0.368,0.369v7.169c-1.496,0.469-2.582,1.866-2.582,3.517
	c0,1.651,1.086,3.049,2.582,3.518v2.008c0,0.205,0.167,0.371,0.368,0.371h1.475c0.202,0,0.368-0.166,0.368-0.371v-2.01
	c1.494-0.471,2.578-1.867,2.578-3.516C40.536,35.182,39.452,33.786,37.958,33.315z"/>
</svg>
