<?xml version="1.0" encoding="utf-8"?>
<!-- Generator: Adobe Illustrator 16.0.0, SVG Export Plug-In . SVG Version: 6.00 Build 0)  -->
<!DOCTYPE svg PUBLIC "-//W3C//DTD SVG 1.1//EN" "http://www.w3.org/Graphics/SVG/1.1/DTD/svg11.dtd">
<svg version="1.1" id="Layer_1" xmlns="http://www.w3.org/2000/svg" xmlns:xlink="http://www.w3.org/1999/xlink" x="0px" y="0px"
	 width="73.701px" height="73.701px" viewBox="0 0 73.701 73.701" enable-background="new 0 0 73.701 73.701" xml:space="preserve">
<path id="SEO_Copywriting_1_" fill-rule="evenodd" clip-rule="evenodd" fill="#404041" d="M36.851,8.504
	c15.655,0,28.347,12.69,28.347,28.346c0,15.657-12.691,28.346-28.347,28.346S8.504,52.507,8.504,36.85
	C8.504,21.195,21.195,8.504,36.851,8.504L36.851,8.504z M46.17,17.909c-0.515-0.514-1.354-0.512-1.865,0l-1.949,1.95l12.281,12.282
	l1.95-1.95c0.506-0.507,0.515-1.351,0-1.864L46.17,17.909L46.17,17.909z M40.759,21.455L24.03,38.183l3.871,0.693l5.361-3.784
	l-3.782,5.362l0.691,3.871l3.871,0.691l5.361-3.783l-3.783,5.361l0.691,3.869l16.729-16.727L40.759,21.455L40.759,21.455z
	 M23.508,44.462l-0.554,7.08l7.08-0.555L23.508,44.462z"/>
</svg>
