<?xml version="1.0" encoding="utf-8"?>
<!-- Generator: Adobe Illustrator 16.0.0, SVG Export Plug-In . SVG Version: 6.00 Build 0)  -->
<!DOCTYPE svg PUBLIC "-//W3C//DTD SVG 1.1//EN" "http://www.w3.org/Graphics/SVG/1.1/DTD/svg11.dtd">
<svg version="1.1" id="Layer_1" xmlns="http://www.w3.org/2000/svg" xmlns:xlink="http://www.w3.org/1999/xlink" x="0px" y="0px"
	 width="73.701px" height="73.701px" viewBox="0 0 73.701 73.701" enable-background="new 0 0 73.701 73.701" xml:space="preserve">
<path id="Services_Portfolio_1_" fill-rule="evenodd" clip-rule="evenodd" fill="#404041" d="M36.851,8.504
	c15.656,0,28.345,12.691,28.345,28.347S52.507,65.197,36.851,65.197c-15.655,0-28.347-12.691-28.347-28.347
	S21.196,8.504,36.851,8.504L36.851,8.504z M32.768,27.231v-1.598c0-0.316,0.261-0.578,0.578-0.578h7.008
	c0.318,0,0.578,0.264,0.578,0.578v1.598h2.041v-2.584c0-0.897-0.738-1.632-1.633-1.632H32.36c-0.894,0-1.633,0.738-1.633,1.632
	v2.584H32.768L32.768,27.231z M20.864,28.916c-0.561,0-1.021,0.459-1.021,1.021v19.729c0,0.562,0.461,1.021,1.021,1.021h31.973
	c0.561,0,1.021-0.46,1.021-1.021V29.937c0-0.561-0.459-1.021-1.021-1.021H20.864L20.864,28.916z M24.264,47.556
	c0,0.226,0.184,0.409,0.408,0.409h1.225c0.225,0,0.408-0.184,0.408-0.409v-15.51c0-0.225-0.184-0.408-0.408-0.408h-1.225
	c-0.225,0-0.408,0.184-0.408,0.408V47.556L24.264,47.556z M47.396,47.556c0,0.226,0.184,0.409,0.408,0.409h1.225
	c0.225,0,0.408-0.184,0.408-0.409v-15.51c0-0.225-0.184-0.408-0.408-0.408h-1.225c-0.225,0-0.408,0.184-0.408,0.408V47.556z"/>
</svg>
