<?xml version="1.0" encoding="utf-8"?>
<!-- Generator: Adobe Illustrator 16.0.0, SVG Export Plug-In . SVG Version: 6.00 Build 0)  -->
<!DOCTYPE svg PUBLIC "-//W3C//DTD SVG 1.1//EN" "http://www.w3.org/Graphics/SVG/1.1/DTD/svg11.dtd">
<svg version="1.1" id="Layer_1" xmlns="http://www.w3.org/2000/svg" xmlns:xlink="http://www.w3.org/1999/xlink" x="0px" y="0px"
	 width="73.701px" height="73.701px" viewBox="0 0 73.701 73.701" enable-background="new 0 0 73.701 73.701" xml:space="preserve">
<path id="Services_Packages_1_" fill-rule="evenodd" clip-rule="evenodd" fill="#404041" d="M36.85,8.504
	c15.657,0,28.346,12.69,28.346,28.347c0,15.656-12.689,28.345-28.346,28.345c-15.655,0-28.346-12.689-28.346-28.345
	C8.504,21.195,21.195,8.504,36.85,8.504L36.85,8.504z M36.8,39.388l-5.917,2.869l-8.009-3.883v10.34L36.8,55.468l13.925-6.754
	v-10.34l-8.008,3.883L36.8,39.388L36.8,39.388z M43.763,47.329l-3.787,1.838v1.588l3.787-1.838V47.329L43.763,47.329z
	 M36.404,42.665v9.525h0.793v-9.525H36.404L36.404,42.665z M22.875,31.046l-5.917,2.87l13.926,6.754L36.8,37.8L22.875,31.046
	L22.875,31.046z M50.726,31.046L36.8,37.8l5.917,2.871l13.926-6.754L50.726,31.046L50.726,31.046z M22.875,31.046L36.8,24.292
	l-5.917-2.87l-13.926,6.754L22.875,31.046L22.875,31.046z M50.726,31.046l5.918-2.87l-13.926-6.754l-5.917,2.87L50.726,31.046
	L50.726,31.046z M36.404,27.078v4.763h0.793v-4.763H36.404L36.404,27.078z M36.404,33.427v1.588h0.793v-1.588H36.404z"/>
</svg>
