<?xml version="1.0" encoding="utf-8"?>
<!-- Generator: Adobe Illustrator 16.0.0, SVG Export Plug-In . SVG Version: 6.00 Build 0)  -->
<!DOCTYPE svg PUBLIC "-//W3C//DTD SVG 1.1//EN" "http://www.w3.org/Graphics/SVG/1.1/DTD/svg11.dtd">
<svg version="1.1" id="Layer_1" xmlns="http://www.w3.org/2000/svg" xmlns:xlink="http://www.w3.org/1999/xlink" x="0px" y="0px"
	 width="73.701px" height="73.701px" viewBox="0 0 73.701 73.701" enable-background="new 0 0 73.701 73.701" xml:space="preserve">
<path id="Smart_Alerts_1_" fill-rule="evenodd" clip-rule="evenodd" fill="#404041" d="M36.85,8.504
	c15.657,0,28.346,12.69,28.346,28.347c0,15.656-12.689,28.345-28.346,28.345c-15.655,0-28.346-12.689-28.346-28.345
	C8.504,21.195,21.195,8.504,36.85,8.504L36.85,8.504z M40.442,23.179c0.027-0.188,0.045-0.379,0.045-0.574
	c0-2.035-1.65-3.685-3.686-3.685c-2.035,0-3.685,1.649-3.685,3.685c0,0.195,0.017,0.387,0.045,0.574
	c-4.731,1.533-8.152,5.977-8.152,11.219v7.437c-0.034,1.572-1.301,2.84-2.872,2.881h-3.393c-0.203,0-0.368,0.166-0.368,0.367v2.213
	c0,0.201,0.165,0.367,0.368,0.367c12.037,0,24.077,0,36.114,0c0.203,0,0.369-0.166,0.369-0.367v-2.213
	c0-0.201-0.166-0.367-0.369-0.367h-3.393c-1.57-0.041-2.838-1.309-2.871-2.881v-7.437C48.595,29.156,45.173,24.712,40.442,23.179
	L40.442,23.179z M36.801,25.553h-0.02l-0.018,0.001c-3.245,0.014-6.078,1.774-7.604,4.392l-0.01,0.016l-0.008,0.013
	c-0.063,0.109-0.099,0.235-0.099,0.369c0,0.406,0.33,0.736,0.736,0.736c0.272,0,0.512-0.147,0.639-0.368V30.71l0.01-0.016
	c1.277-2.192,3.652-3.668,6.373-3.668c0.407,0,0.737-0.329,0.737-0.736S37.208,25.553,36.801,25.553L36.801,25.553z M29.431,35.872
	v-0.02v-1.435v-0.02c0-0.407-0.329-0.737-0.737-0.737c-0.406,0-0.736,0.33-0.736,0.737v0.02v1.435v0.02
	c0,0.407,0.33,0.737,0.736,0.737C29.102,36.609,29.431,36.279,29.431,35.872L29.431,35.872z M41.28,50.241
	c-0.891,1.543-2.559,2.582-4.469,2.582c-1.909,0-3.578-1.039-4.469-2.582h-3.219c1.077,3.215,4.111,5.529,7.688,5.529
	c3.577,0,6.61-2.314,7.688-5.529H41.28z"/>
</svg>
