<?xml version="1.0" encoding="utf-8"?>
<!-- Generator: Adobe Illustrator 16.0.0, SVG Export Plug-In . SVG Version: 6.00 Build 0)  -->
<!DOCTYPE svg PUBLIC "-//W3C//DTD SVG 1.1//EN" "http://www.w3.org/Graphics/SVG/1.1/DTD/svg11.dtd">
<svg version="1.1" id="Layer_1" xmlns="http://www.w3.org/2000/svg" xmlns:xlink="http://www.w3.org/1999/xlink" x="0px" y="0px"
	 width="73.701px" height="73.701px" viewBox="0 0 73.701 73.701" enable-background="new 0 0 73.701 73.701" xml:space="preserve">
<path id="Social_Media_Marketing_1_" fill-rule="evenodd" clip-rule="evenodd" fill="#404041" d="M36.851,8.504
	c15.656,0,28.345,12.69,28.345,28.346c0,15.657-12.689,28.346-28.345,28.346c-15.655,0-28.347-12.689-28.347-28.346
	C8.504,21.195,21.196,8.504,36.851,8.504L36.851,8.504z M22.027,33.743c0.018,1.373,0.724,1.735,1.034,2.455
	c0.073,0.17-0.025,0.605-0.068,0.816c-0.27,1.081-1.9,1.713-2.816,2.047c-1.44,0.525-2.553,1.057-3.168,1.52l0.624,5.229h7.899
	l-0.685-7.178c0.649-0.479,1.41-0.928,2.269-1.351c-0.131-0.263-0.204-0.555-0.229-0.89c0.053-0.656,1.176-1.01,1.328-2.645
	c1.2-0.803,0.743-2.681,0.221-2.521c0.01-1.04,0.141-1.7,0.049-2.324c-0.279-1.891-3.213-1.5-3.162-2.807
	c-0.87,0.407-0.922,0.798-0.888,1.069c-0.255,0.016-0.676-0.119-0.774-0.238c-0.648,0.277-1.703,0.77-1.977,2.047
	c-0.056,0.077-0.114,0.166-0.18,0.266c-0.125,0.194-0.615,0.889-0.627,1.143c0.21-0.193,0.366-0.202,0.588-0.216
	c-0.151,0.509-0.006,0.771,0.057,1.072C20.873,31.403,21.118,33.495,22.027,33.743L22.027,33.743z M50.655,36.833v-0.233
	c0.947-0.096,1.715-0.386,2.26-0.775c-0.221-0.181-0.33-0.508-0.301-0.846c0.27,0.3,0.672,0.479,1.219,0.537
	c-1.695-1.388-1.357-3.458-1.74-5.374c-0.162-0.828-0.336-1.696-0.967-2.318c-0.586-0.578-1.486-0.92-2.422-0.922
	c-0.938,0.002-1.836,0.344-2.424,0.922c-0.629,0.622-0.803,1.49-0.967,2.318c-0.381,1.916-0.043,3.986-1.74,5.374
	c0.547-0.059,0.951-0.237,1.221-0.537c0.027,0.338-0.082,0.665-0.303,0.846c0.547,0.39,1.313,0.68,2.26,0.775v0.212
	c-0.037,0.168-0.094,0.323-0.166,0.47c0.857,0.423,1.617,0.873,2.268,1.351l-0.686,7.178h7.9l0.625-5.229
	c-0.615-0.463-1.729-0.994-3.168-1.52C51.704,38.397,50.894,37.819,50.655,36.833L50.655,36.833z M42.911,37.735
	c-0.658-0.242-1.213-0.473-1.674-0.71c-0.049-0.139,0.045-0.33,0.072-0.745c0.02-0.321-0.076-0.398-0.352-0.398
	c-0.348,0-0.807,0.199-1.125,0.105l-0.197-1.443c0.785-0.291,0.947-1.451,0.947-2.321c1.318-0.271,1.545-3.28,0.57-3.455
	c-0.131-0.338,0.889-3.295-0.174-4.96c-0.758-1.186-2.949-1.848-4.547-1.848c-1.291,0-2.606,0.197-2.14,1.307
	c-3.436,0.717-1.802,3.16-1.802,5.508c-1.157,0.395-0.254,3.386,0.732,3.473c0.145,1.326,0.604,2.309,1.121,2.394l-0.15,1.322
	c-0.301,0-1.499-0.351-1.432,0.245l0.072,0.615c-0.539,0.33-1.15,0.586-2.045,0.913c-1.807,0.658-3.209,1.324-3.98,1.906
	l0.593,6.168l9.447,5.932l9.449-5.932l0.594-6.168C46.12,39.06,44.718,38.394,42.911,37.735z"/>
</svg>
