<?xml version="1.0" encoding="utf-8"?>
<!-- Generator: Adobe Illustrator 16.0.0, SVG Export Plug-In . SVG Version: 6.00 Build 0)  -->
<!DOCTYPE svg PUBLIC "-//W3C//DTD SVG 1.1//EN" "http://www.w3.org/Graphics/SVG/1.1/DTD/svg11.dtd">
<svg version="1.1" id="Layer_1" xmlns="http://www.w3.org/2000/svg" xmlns:xlink="http://www.w3.org/1999/xlink" x="0px" y="0px"
	 width="73.701px" height="73.701px" viewBox="0 0 73.701 73.701" enable-background="new 0 0 73.701 73.701" xml:space="preserve">
<path id="Social_Media_Collaboration_1_" fill-rule="evenodd" clip-rule="evenodd" fill="#404041" d="M36.851,41.675
	c1.232,0,2.38,0.357,3.347,0.975c-0.051-1.146,0.215-2.32,0.83-3.387c0.617-1.066,1.5-1.885,2.518-2.413
	c-1.018-0.528-1.9-1.346-2.518-2.412c-0.615-1.067-0.881-2.24-0.83-3.387c-0.967,0.617-2.115,0.975-3.347,0.975
	c-1.232,0-2.382-0.357-3.348-0.975c0.051,1.146-0.215,2.319-0.831,3.387c-0.616,1.066-1.499,1.884-2.517,2.412
	c1.018,0.528,1.9,1.346,2.517,2.413s0.881,2.24,0.831,3.387C34.47,42.032,35.619,41.675,36.851,41.675L36.851,41.675z
	 M21.109,43.327c-0.938-0.084-1.818-0.609-2.324-1.486c-0.828-1.434-0.337-3.268,1.096-4.094c1.01-0.583,2.217-0.513,3.131,0.08
	c0.342-0.318,0.723-0.604,1.145-0.846l0.238-0.131l-0.238-0.13c-2.983-1.722-4.005-5.535-2.283-8.518
	c0.399-0.69,0.91-1.276,1.498-1.747c-0.395-0.854-0.381-1.879,0.125-2.756c0.828-1.434,2.661-1.926,4.094-1.098
	c1.01,0.582,1.551,1.662,1.496,2.751c0.445,0.136,0.883,0.325,1.305,0.567l0.232,0.141l-0.007-0.271
	c0-3.444,2.791-6.235,6.235-6.235c0.796,0,1.558,0.149,2.261,0.423c0.543-0.768,1.438-1.269,2.449-1.269
	c1.656,0,2.998,1.342,2.998,2.997c0,1.165-0.664,2.174-1.635,2.671c0.105,0.453,0.16,0.927,0.16,1.413l-0.006,0.271l0.232-0.141
	c2.982-1.722,6.795-0.699,8.516,2.282c0.4,0.69,0.652,1.427,0.766,2.17c0.938,0.086,1.818,0.61,2.324,1.487
	c0.828,1.434,0.336,3.268-1.096,4.094c-1.01,0.584-2.217,0.513-3.131-0.079c-0.342,0.317-0.723,0.603-1.145,0.846l-0.238,0.13
	l0.238,0.131c2.982,1.721,4.004,5.534,2.281,8.516c-0.398,0.691-0.91,1.277-1.496,1.748c0.395,0.855,0.381,1.879-0.125,2.756
	c-0.828,1.434-2.662,1.926-4.096,1.098c-1.008-0.582-1.551-1.662-1.494-2.75c-0.447-0.137-0.883-0.326-1.305-0.568l-0.232-0.141
	l0.006,0.271c0,3.443-2.791,6.234-6.234,6.234c-0.798,0-1.561-0.148-2.262-0.424c-0.543,0.768-1.438,1.27-2.45,1.27
	c-1.655,0-2.997-1.342-2.997-2.996c0-1.166,0.664-2.176,1.635-2.672c-0.105-0.453-0.161-0.926-0.161-1.412l0.007-0.271L30.39,47.78
	c-2.982,1.723-6.795,0.699-8.518-2.283C21.474,44.808,21.222,44.071,21.109,43.327L21.109,43.327z M36.851,8.504
	c15.656,0,28.345,12.69,28.345,28.346c0,15.657-12.689,28.346-28.345,28.346c-15.656,0-28.347-12.689-28.347-28.346
	C8.504,21.195,21.195,8.504,36.851,8.504z"/>
</svg>
