<?xml version="1.0" encoding="utf-8"?>
<!-- Generator: Adobe Illustrator 16.0.0, SVG Export Plug-In . SVG Version: 6.00 Build 0)  -->
<!DOCTYPE svg PUBLIC "-//W3C//DTD SVG 1.1//EN" "http://www.w3.org/Graphics/SVG/1.1/DTD/svg11.dtd">
<svg version="1.1" id="Layer_1" xmlns="http://www.w3.org/2000/svg" xmlns:xlink="http://www.w3.org/1999/xlink" x="0px" y="0px"
	 width="73.701px" height="73.701px" viewBox="0 0 73.701 73.701" enable-background="new 0 0 73.701 73.701" xml:space="preserve">
<path id="Social_Media_Press_Release_1_" fill-rule="evenodd" clip-rule="evenodd" fill="#404041" d="M36.851,31.965l17.005-8.111
	c0.002,7.472,0.002,14.946,0.002,22.418l-17.006,8.111l-17.009-8.111c0-7.473-0.001-14.947,0-22.418L36.851,31.965L36.851,31.965z
	 M35.789,33.81l-13.822-6.592c0,5.904,0,11.806,0,17.71l13.822,6.596C35.789,45.62,35.789,39.714,35.789,33.81L35.789,33.81z
	 M37.911,33.812c0,5.904,0,11.808,0,17.714l13.824-6.598c0-5.904,0-11.806,0-17.71L37.911,33.812L37.911,33.812z M39.769,36.679
	v1.019l10.109-4.822v-1.021L39.769,36.679L39.769,36.679z M39.769,45.862v1.02l3.518-1.678v-1.021L39.769,45.862L39.769,45.862z
	 M39.769,42.802v1.02l3.518-1.678v-1.021L39.769,42.802L39.769,42.802z M45.249,40.187v4.08l4.629-2.207v-4.082L45.249,40.187
	L45.249,40.187z M39.769,39.739v1.021l10.109-4.824v-1.021L39.769,39.739L39.769,39.739z M23.823,31.856v7.143l4.628,2.207v-7.142
	L23.823,31.856L23.823,31.856z M23.823,41.038v1.021l10.108,4.822V45.86L23.823,41.038L23.823,41.038z M30.416,41.122v1.021
	l3.516,1.678v-1.02L30.416,41.122L30.416,41.122z M30.416,38.062v1.021l3.516,1.676v-1.02L30.416,38.062L30.416,38.062z
	 M30.416,35.001v1.02l3.516,1.677v-1.019L30.416,35.001L30.416,35.001z M36.851,8.504c-15.656,0-28.347,12.69-28.347,28.347
	c0,15.656,12.69,28.345,28.347,28.345c15.656,0,28.345-12.689,28.345-28.345C65.196,21.195,52.507,8.504,36.851,8.504z"/>
</svg>
