<?xml version="1.0" encoding="utf-8"?>
<!-- Generator: Adobe Illustrator 16.0.0, SVG Export Plug-In . SVG Version: 6.00 Build 0)  -->
<!DOCTYPE svg PUBLIC "-//W3C//DTD SVG 1.1//EN" "http://www.w3.org/Graphics/SVG/1.1/DTD/svg11.dtd">
<svg version="1.1" id="Layer_1" xmlns="http://www.w3.org/2000/svg" xmlns:xlink="http://www.w3.org/1999/xlink" x="0px" y="0px"
	 width="73.701px" height="73.701px" viewBox="0 0 73.701 73.701" enable-background="new 0 0 73.701 73.701" xml:space="preserve">
<path id="Social_Integration_1_" fill-rule="evenodd" clip-rule="evenodd" fill="#404041" d="M36.85,8.504
	c15.657,0,28.346,12.691,28.346,28.347S52.507,65.197,36.85,65.197c-15.655,0-28.346-12.691-28.346-28.347S21.195,8.504,36.85,8.504
	L36.85,8.504z M30.525,34.688v13.559c0.015,0.308,0.255,0.556,0.559,0.585c2.354,0.124,4.598,0.668,6.656,1.557
	c3.719,0.922,12.113,1.358,14.436-2.555c0.408-0.687-0.18-1.699,0.4-2.324c0.604-0.65,1.678-1.474,1.678-2.335
	c0-0.484-0.355-1.155-0.537-1.697c-0.33-0.969-0.135-1.125,0.781-2.127c0.744-0.813,0.572-1.168-0.004-2.09
	c-0.15-0.239-0.533-0.867-0.582-1.139c-0.26-1.461,1.732-1.5-0.053-4.157c-0.877-1.314-1.529-1.736-3.131-1.794h-7.174
	c-1.127,0,0.643-3.607,1.459-4.824c3.111-4.642-1.281-8.382-3.758-6.85c-0.365,3.649-2.242,6.854-4.995,8.979
	c-2.785,2.577-1.973,5.496-5.327,6.654h0.004C30.704,34.213,30.535,34.431,30.525,34.688L30.525,34.688z M21.507,32.897
	c-0.292,0-0.53,0.238-0.53,0.53v16.213c0,0.292,0.238,0.53,0.53,0.53h6.771c0.291,0,0.529-0.238,0.529-0.53V33.428
	c0-0.292-0.238-0.53-0.529-0.53H21.507z"/>
</svg>
