<?xml version="1.0" encoding="utf-8"?>
<!-- Generator: Adobe Illustrator 16.0.0, SVG Export Plug-In . SVG Version: 6.00 Build 0)  -->
<!DOCTYPE svg PUBLIC "-//W3C//DTD SVG 1.1//EN" "http://www.w3.org/Graphics/SVG/1.1/DTD/svg11.dtd">
<svg version="1.1" id="Layer_1" xmlns="http://www.w3.org/2000/svg" xmlns:xlink="http://www.w3.org/1999/xlink" x="0px" y="0px"
	 width="73.701px" height="73.701px" viewBox="0 0 73.701 73.701" enable-background="new 0 0 73.701 73.701" xml:space="preserve">
<path id="Social_Engagement_1_" fill-rule="evenodd" clip-rule="evenodd" fill="#404041" d="M32.485,35.03h5.612
	c0.172,0,0.313,0.148,0.313,0.312v0.623c0,0.163-0.15,0.312-0.313,0.312h-5.612c-0.164,0-0.313-0.14-0.313-0.312v-0.623
	C32.172,35.169,32.313,35.03,32.485,35.03L32.485,35.03z M33.11,31.288h2.494c0.172,0,0.313,0.143,0.313,0.312v0.624
	c0,0.168-0.144,0.312-0.313,0.312H33.11c-0.168,0-0.312-0.14-0.312-0.312v-0.624C32.798,31.428,32.938,31.288,33.11,31.288
	L33.11,31.288z M27.498,31.288h3.741c0.172,0,0.313,0.143,0.313,0.312v0.624c0,0.168-0.144,0.312-0.313,0.312h-3.741
	c-0.169,0-0.312-0.14-0.312-0.312v-0.624C27.186,31.428,27.327,31.288,27.498,31.288L27.498,31.288z M37.476,31.288h8.73
	c0.172,0,0.313,0.149,0.313,0.312v0.624c0,0.162-0.15,0.312-0.313,0.312h-8.73c-0.162,0-0.312-0.14-0.312-0.312v-0.624
	C37.164,31.428,37.304,31.288,37.476,31.288L37.476,31.288z M34.668,27.545h-7.172c-0.162,0-0.311,0.149-0.311,0.313v0.623
	c0,0.164,0.141,0.313,0.311,0.313h7.172c0.172,0,0.313-0.141,0.313-0.313v-0.623C34.981,27.686,34.825,27.545,34.668,27.545
	L34.668,27.545z M36.54,27.545h0.624c0.172,0,0.312,0.148,0.312,0.313v0.623c0,0.164-0.148,0.313-0.312,0.313H36.54
	c-0.163,0-0.312-0.141-0.312-0.313v-0.623C36.228,27.686,36.369,27.545,36.54,27.545L36.54,27.545z M43.712,27.545h-4.678
	c-0.158,0-0.313,0.154-0.313,0.313v0.623c0,0.158,0.141,0.313,0.313,0.313h4.678c0.172,0,0.311-0.141,0.311-0.313v-0.623
	C44.022,27.686,43.856,27.545,43.712,27.545L43.712,27.545z M27.495,35.03h0.624c0.171,0,0.312,0.144,0.312,0.312v0.623
	c0,0.168-0.144,0.312-0.312,0.312h-0.624c-0.168,0-0.312-0.14-0.312-0.312v-0.623C27.183,35.169,27.324,35.03,27.495,35.03
	L27.495,35.03z M29.99,35.03h0.624c0.171,0,0.312,0.144,0.312,0.312v0.623c0,0.168-0.144,0.312-0.312,0.312H29.99
	c-0.168,0-0.312-0.14-0.312-0.312v-0.623C29.678,35.169,29.819,35.03,29.99,35.03L29.99,35.03z M24.377,21.269
	c-1.717,0-3.117,1.401-3.117,3.117v15.05c0,1.713,1.41,3.115,3.115,3.115l-0.006,5.357l7.219-5.357h17.735
	c1.703,0,3.117-1.416,3.117-3.115v-15.05c0-1.702-1.4-3.117-3.117-3.117H24.377L24.377,21.269z M52.438,52.433l-7.434-5.537
	l-7.229-0.01c-0.508,0-0.92-0.41-0.92-0.918s0.412-0.92,0.92-0.92h7.775l5.039,3.729v-2.805c0-0.512,0.414-0.926,0.924-0.926
	s0.924,0.414,0.924,0.926V52.433L52.438,52.433z M36.851,8.504c-15.655,0-28.347,12.69-28.347,28.346
	c0,15.655,12.691,28.346,28.347,28.346c15.656,0,28.345-12.691,28.345-28.346C65.196,21.195,52.507,8.504,36.851,8.504z"/>
</svg>
