<?xml version="1.0" encoding="utf-8"?>
<!-- Generator: Adobe Illustrator 16.0.0, SVG Export Plug-In . SVG Version: 6.00 Build 0)  -->
<!DOCTYPE svg PUBLIC "-//W3C//DTD SVG 1.1//EN" "http://www.w3.org/Graphics/SVG/1.1/DTD/svg11.dtd">
<svg version="1.1" id="Layer_1" xmlns="http://www.w3.org/2000/svg" xmlns:xlink="http://www.w3.org/1999/xlink" x="0px" y="0px"
	 width="73.701px" height="73.701px" viewBox="0 0 73.701 73.701" enable-background="new 0 0 73.701 73.701" xml:space="preserve">
<path id="Social_Media_Cloud_1_" fill-rule="evenodd" clip-rule="evenodd" fill="#404041" d="M36.85,8.504
	c15.657,0,28.346,12.691,28.346,28.347S52.507,65.197,36.85,65.197c-15.655,0-28.346-12.691-28.346-28.347S21.195,8.504,36.85,8.504
	L36.85,8.504z M24.905,47.503h13.18v1.232c0,0.681-0.553,1.233-1.234,1.233h-3.7v2.466h3.7c2.042,0,3.699-1.656,3.699-3.699v-1.232
	h9.865c3.857,0,6.986-3.128,6.986-6.987c0-2.942-1.818-5.46-4.395-6.49c0.199-0.795,0.303-1.626,0.303-2.482
	c0-5.676-4.6-10.276-10.275-10.276c-3.828,0-7.168,2.095-8.936,5.199c-0.98-0.413-2.059-0.642-3.189-0.642
	c-3.531,0-6.542,2.227-7.706,5.353c-3.914,0.63-6.903,4.022-6.903,8.115c0,4.54,3.68,8.22,8.221,8.22
	C24.649,47.512,24.777,47.509,24.905,47.503L24.905,47.503z M38.083,39.053l-2.836,2.836l-1.744-1.744l5.815-5.813l5.813,5.813
	l-1.744,1.744l-2.836-2.836v5.995c5.305-0.001,9.865-0.004,9.865-0.011c2.496,0,4.521-2.024,4.521-4.521
	c0-2.496-2.025-4.521-4.521-4.521c-0.361,0-0.715,0.044-1.051,0.124c0.557-0.769,0.975-1.644,1.225-2.587
	c0.166-0.635,0.254-1.301,0.254-1.988c0-4.313-3.496-7.81-7.809-7.81c-3.906,0-7.141,2.866-7.719,6.61
	c-0.582-0.692-1.324-1.246-2.17-1.604c-0.688-0.29-1.443-0.45-2.236-0.45c-3.021,0-5.496,2.326-5.735,5.284
	c-0.215-0.024-0.433-0.037-0.653-0.037c-0.641,0-1.255,0.105-1.83,0.298c-2.281,0.765-3.925,2.918-3.925,5.457
	c0,3.178,2.577,5.754,5.755,5.754l13.565,0.002L38.083,39.053L38.083,39.053z M43.017,49.969v2.466h2.467v-2.466H43.017
	L43.017,49.969z M28.217,49.969v2.466h2.467v-2.466H28.217z"/>
</svg>
