<?xml version="1.0" encoding="utf-8"?>
<!-- Generator: Adobe Illustrator 16.0.0, SVG Export Plug-In . SVG Version: 6.00 Build 0)  -->
<!DOCTYPE svg PUBLIC "-//W3C//DTD SVG 1.1//EN" "http://www.w3.org/Graphics/SVG/1.1/DTD/svg11.dtd">
<svg version="1.1" id="Layer_1" xmlns="http://www.w3.org/2000/svg" xmlns:xlink="http://www.w3.org/1999/xlink" x="0px" y="0px"
	 width="73.701px" height="73.701px" viewBox="0 0 73.701 73.701" enable-background="new 0 0 73.701 73.701" xml:space="preserve">
<path id="Strategy__x26__Consultancy_1_" fill-rule="evenodd" clip-rule="evenodd" fill="#404041" d="M36.85,8.504
	c15.657,0,28.346,12.69,28.346,28.347c0,15.656-12.689,28.345-28.346,28.345c-15.655,0-28.346-12.689-28.346-28.345
	C8.504,21.195,21.195,8.504,36.85,8.504L36.85,8.504z M22.11,22.159c-2.028,0-3.685,1.657-3.685,3.685v18.519
	c0,2.025,1.667,3.682,3.683,3.684l-0.007,6.332l8.529-6.332h20.96c2.016,0,3.686-1.67,3.686-3.684V25.843
	c0-2.018-1.658-3.685-3.686-3.685H22.11L22.11,22.159z M28.742,38.788c-0.202,0-0.368,0.166-0.368,0.369v0.736
	c0,0.203,0.17,0.369,0.368,0.369h0.737c0.198,0,0.368-0.17,0.368-0.369v-0.736c0-0.199-0.165-0.369-0.368-0.369H28.742
	L28.742,38.788z M25.794,38.788c-0.203,0-0.369,0.166-0.369,0.369v0.736c0,0.203,0.171,0.369,0.369,0.369h0.736
	c0.198,0,0.369-0.17,0.369-0.369v-0.736c0-0.199-0.166-0.369-0.369-0.369H25.794L25.794,38.788z M44.96,29.945h-5.529
	c-0.186,0-0.367,0.181-0.367,0.367v0.737c0,0.188,0.166,0.368,0.367,0.368h5.529c0.201,0,0.367-0.165,0.367-0.368v-0.737
	C45.327,30.11,45.13,29.945,44.96,29.945L44.96,29.945z M36.483,29.945c-0.202,0-0.368,0.165-0.368,0.367v0.737
	c0,0.203,0.175,0.368,0.368,0.368h0.737c0.195,0,0.369-0.174,0.369-0.368v-0.737c0-0.193-0.166-0.367-0.369-0.367H36.483
	L36.483,29.945z M34.272,29.945h-8.477c-0.191,0-0.367,0.175-0.367,0.367v0.737c0,0.193,0.166,0.368,0.367,0.368h8.477
	c0.203,0,0.369-0.165,0.369-0.368v-0.737C34.641,30.11,34.456,29.945,34.272,29.945L34.272,29.945z M37.589,34.367
	c-0.203,0-0.369,0.165-0.369,0.367v0.738c0,0.202,0.177,0.368,0.369,0.368h10.318c0.191,0,0.369-0.177,0.369-0.368v-0.738
	c0-0.191-0.166-0.367-0.369-0.367H37.589L37.589,34.367z M25.796,34.367c-0.202,0-0.368,0.165-0.368,0.367v0.738
	c0,0.202,0.17,0.368,0.368,0.368h4.423c0.198,0,0.368-0.17,0.368-0.368v-0.738c0-0.198-0.166-0.367-0.368-0.367H25.796
	L25.796,34.367z M32.43,34.367c-0.203,0-0.369,0.165-0.369,0.367v0.738c0,0.202,0.17,0.368,0.369,0.368h2.947
	c0.199,0,0.369-0.17,0.369-0.368v-0.738c0-0.198-0.166-0.367-0.369-0.367H32.43L32.43,34.367z M31.69,38.788
	c-0.203,0-0.368,0.166-0.368,0.369v0.736c0,0.203,0.176,0.369,0.368,0.369h6.633c0.191,0,0.369-0.178,0.369-0.369v-0.736
	c0-0.193-0.166-0.369-0.369-0.369H31.69z"/>
</svg>
