<?xml version="1.0" encoding="utf-8"?>
<!-- Generator: Adobe Illustrator 16.0.0, SVG Export Plug-In . SVG Version: 6.00 Build 0)  -->
<!DOCTYPE svg PUBLIC "-//W3C//DTD SVG 1.1//EN" "http://www.w3.org/Graphics/SVG/1.1/DTD/svg11.dtd">
<svg version="1.1" id="Layer_1" xmlns="http://www.w3.org/2000/svg" xmlns:xlink="http://www.w3.org/1999/xlink" x="0px" y="0px"
	 width="73.701px" height="73.701px" viewBox="0 0 73.701 73.701" enable-background="new 0 0 73.701 73.701" xml:space="preserve">
<path id="Support_Services_1_" fill-rule="evenodd" clip-rule="evenodd" fill="#404041" d="M26.289,22.097
	c6.294-4.517,14.83-4.517,21.125,0l-6.324,6.323c-2.66-1.338-5.819-1.338-8.478,0L26.289,22.097L26.289,22.097z M51.604,26.289
	l-6.324,6.322c1.338,2.659,1.338,5.818,0,8.478l6.324,6.323C56.122,41.118,56.122,32.584,51.604,26.289L51.604,26.289z
	 M47.413,51.604c-6.295,4.518-14.831,4.517-21.125,0l6.322-6.323c2.659,1.338,5.818,1.338,8.478,0L47.413,51.604L47.413,51.604z
	 M22.096,47.412l6.323-6.323c-1.338-2.658-1.338-5.818,0-8.478l-6.323-6.322C17.58,32.584,17.58,41.118,22.096,47.412L22.096,47.412
	z M36.85,8.504c-15.655,0-28.346,12.691-28.346,28.347s12.69,28.347,28.346,28.347c15.657,0,28.346-12.691,28.346-28.347
	S52.507,8.504,36.85,8.504z"/>
</svg>
