<?xml version="1.0" encoding="utf-8"?>
<!-- Generator: Adobe Illustrator 16.0.0, SVG Export Plug-In . SVG Version: 6.00 Build 0)  -->
<!DOCTYPE svg PUBLIC "-//W3C//DTD SVG 1.1//EN" "http://www.w3.org/Graphics/SVG/1.1/DTD/svg11.dtd">
<svg version="1.1" id="Layer_1" xmlns="http://www.w3.org/2000/svg" xmlns:xlink="http://www.w3.org/1999/xlink" x="0px" y="0px"
	 width="73.701px" height="73.701px" viewBox="0 0 73.701 73.701" enable-background="new 0 0 73.701 73.701" xml:space="preserve">
<path id="Target_Keywords_1_" fill-rule="evenodd" clip-rule="evenodd" fill="#404041" d="M36.851,8.504
	c15.656,0,28.347,12.69,28.347,28.347c0,15.656-12.69,28.345-28.347,28.345c-15.655,0-28.346-12.689-28.346-28.345
	C8.505,21.195,21.195,8.504,36.851,8.504L36.851,8.504z M35.286,25.899v-2.258c-6.095,0.715-10.929,5.55-11.645,11.645h2.256
	c0.432,0,0.783,0.353,0.783,0.782v1.564c0,0.432-0.352,0.783-0.783,0.783h-2.256c0.716,6.094,5.55,10.93,11.645,11.645v-2.256
	c0-0.432,0.352-0.783,0.782-0.783h1.565c0.43,0,0.781,0.352,0.781,0.783v2.256c6.096-0.715,10.93-5.551,11.645-11.645h-2.257
	c-0.43,0-0.782-0.352-0.782-0.783v-1.564c0-0.43,0.353-0.782,0.782-0.782h2.257c-0.715-6.095-5.549-10.93-11.645-11.645v2.258
	c0,0.429-0.352,0.781-0.781,0.781h-1.565C35.638,26.68,35.286,26.328,35.286,25.899L35.286,25.899z M36.851,30.591
	c-3.456,0-6.259,2.803-6.259,6.26c0,3.457,2.803,6.259,6.259,6.259c3.457,0,6.26-2.803,6.26-6.259
	C43.11,33.394,40.308,30.591,36.851,30.591L36.851,30.591z M38.415,20.494v-2.419c0-0.431-0.352-0.782-0.781-0.782h-1.565
	c-0.431,0-0.782,0.352-0.782,0.782v2.419c-7.824,0.739-14.053,6.967-14.791,14.792h-2.422c-0.43,0-0.781,0.353-0.781,0.782v1.564
	c0,0.432,0.352,0.783,0.781,0.783h2.422c0.738,7.826,6.967,14.053,14.791,14.793v2.42c0,0.43,0.352,0.781,0.782,0.781h1.565
	c0.43,0,0.781-0.352,0.781-0.781v-2.42c7.826-0.74,14.053-6.967,14.791-14.793h2.42c0.432,0,0.784-0.352,0.784-0.783v-1.564
	c0-0.43-0.353-0.782-0.784-0.782h-2.42C52.468,27.46,46.241,21.233,38.415,20.494z"/>
</svg>
