<?xml version="1.0" encoding="utf-8"?>
<!-- Generator: Adobe Illustrator 16.0.0, SVG Export Plug-In . SVG Version: 6.00 Build 0)  -->
<!DOCTYPE svg PUBLIC "-//W3C//DTD SVG 1.1//EN" "http://www.w3.org/Graphics/SVG/1.1/DTD/svg11.dtd">
<svg version="1.1" id="Layer_1" xmlns="http://www.w3.org/2000/svg" xmlns:xlink="http://www.w3.org/1999/xlink" x="0px" y="0px"
	 width="73.701px" height="73.701px" viewBox="0 0 73.701 73.701" enable-background="new 0 0 73.701 73.701" xml:space="preserve">
<path id="Users_Flow_1_" fill-rule="evenodd" clip-rule="evenodd" fill="#404041" d="M36.851,8.504
	c15.655,0,28.347,12.691,28.347,28.347S52.506,65.197,36.851,65.197S8.504,52.506,8.504,36.851S21.195,8.504,36.851,8.504
	L36.851,8.504z M51.565,39.902c-6.957,1.094-12.583,5.206-14.715,10.584c-2.133-5.378-7.758-9.49-14.715-10.584l1.458-1.181
	l-1.16-1.432l-4.009,3.246l3.247,4.01l1.431-1.159l-1.36-1.68c8.08,1.224,14.188,6.833,14.188,13.569h1.842
	c0-6.736,6.107-12.346,14.187-13.569l-1.36,1.68l1.433,1.159l3.246-4.01l-4.009-3.246l-1.16,1.432L51.565,39.902L51.565,39.902z
	 M44.072,36.375c-0.784-0.286-1.444-0.563-1.994-0.846c-0.058-0.166,0.053-0.393,0.085-0.889c0.026-0.381-0.09-0.474-0.417-0.474
	c-0.414,0-0.963,0.237-1.343,0.127l-0.233-1.721c0.936-0.348,1.128-1.729,1.128-2.766c1.57-0.322,1.843-3.908,0.68-4.116
	c-0.155-0.402,1.061-3.081-0.207-5.066c-0.902-1.412-3.515-2.199-5.417-2.199c-1.538,0-3.106,0.233-2.551,1.556
	c-4.093,0.855-2.146,2.92-2.146,5.718c-1.38,0.47-0.303,4.034,0.873,4.138c0.172,1.579,0.72,2.75,1.336,2.853l-0.181,1.573
	c-0.357,0-1.785-0.417-1.704,0.293l0.084,0.732c-0.641,0.394-1.368,0.698-2.435,1.087c-1.47,0.535-2.715,1.075-3.649,1.586
	l0.127,1.325c4.559,1.437,8.349,4.113,10.744,7.517c2.394-3.404,6.186-6.081,10.744-7.518l0.126-1.324
	C46.787,37.451,45.542,36.911,44.072,36.375z"/>
</svg>
