<?xml version="1.0" encoding="utf-8"?>
<!-- Generator: Adobe Illustrator 16.0.0, SVG Export Plug-In . SVG Version: 6.00 Build 0)  -->
<!DOCTYPE svg PUBLIC "-//W3C//DTD SVG 1.1//EN" "http://www.w3.org/Graphics/SVG/1.1/DTD/svg11.dtd">
<svg version="1.1" id="Layer_1" xmlns="http://www.w3.org/2000/svg" xmlns:xlink="http://www.w3.org/1999/xlink" x="0px" y="0px"
	 width="73.701px" height="73.701px" viewBox="0 0 73.701 73.701" enable-background="new 0 0 73.701 73.701" xml:space="preserve">
<path id="Video_Marketing_1_" fill-rule="evenodd" clip-rule="evenodd" fill="#404041" d="M40.608,30.795l-0.018-0.011l-0.018-0.011
	l-8.123-4.707h-0.002c-0.191-0.113-0.442-0.119-0.646-0.002c-0.203,0.116-0.313,0.322-0.317,0.538v0.022v9.414v0.021
	c0.004,0.216,0.114,0.422,0.317,0.54c0.203,0.116,0.454,0.111,0.646-0.004h0.002l8.158-4.727l0.018-0.014h0.002l0.016-0.012l0,0
	l0.016-0.011v-0.001l0.014-0.011l0.002-0.003l0.012-0.011l0.004-0.003l0.01-0.008l0.004-0.008l0.01-0.007l0.008-0.007l0.004-0.007
	l0.008-0.007l0.006-0.006l0.01-0.012l0.002-0.004l0.01-0.012l0.002-0.001l0.012-0.015l0.01-0.017l0,0l0.01-0.015l0.004-0.004
	l0.008-0.014l0.002-0.004l0.006-0.012l0.006-0.008l0.006-0.011l0.004-0.007l0.004-0.009l0.004-0.009l0.004-0.008l0.004-0.012
	l0.006-0.004l0.004-0.017l0.002-0.004l0.006-0.015l0.002-0.002l0.004-0.019v-0.002l0.006-0.017v-0.002l0.004-0.019l0.002-0.003
	l0.002-0.014l0.004-0.007v-0.013l0.002-0.01l0.002-0.01l0.004-0.012l0.002-0.009v-0.013v-0.008l0.002-0.014v-0.005v-0.017v-0.003
	v-0.021v-0.021v-0.002v-0.018v-0.004l-0.002-0.018v-0.004l-0.002-0.017v-0.005l-0.004-0.016l-0.002-0.007l-0.002-0.013v-0.008
	l-0.004-0.012l-0.002-0.01l-0.004-0.01l-0.002-0.011l-0.002-0.009l-0.004-0.012l-0.002-0.009l-0.004-0.013l-0.002-0.004
	l-0.006-0.015v-0.005l-0.01-0.015v-0.005l-0.008-0.015l-0.002-0.003l-0.006-0.016l-0.002-0.002l-0.008-0.016l-0.01-0.02h-0.002
	L40.806,31l-0.014-0.024l-0.004-0.003l-0.004-0.004l-0.008-0.012l-0.002-0.006l-0.01-0.012l-0.004-0.004l-0.01-0.011l-0.002-0.005
	l-0.01-0.01l-0.006-0.008l-0.006-0.006l-0.006-0.008l-0.008-0.008l-0.01-0.007l-0.002-0.003L40.7,30.868l-0.01-0.008l-0.006-0.004
	l-0.01-0.01l-0.004-0.002l-0.012-0.012l-0.004-0.004l-0.012-0.008l-0.002-0.002l-0.016-0.01h-0.002L40.608,30.795L40.608,30.795z
	 M22.434,43.827h28.833c2.145,0,3.883,1.738,3.883,3.883c0,2.143-1.738,3.881-3.883,3.881H22.434c-2.144,0-3.882-1.738-3.882-3.881
	C18.552,45.565,20.291,43.827,22.434,43.827L22.434,43.827z M22.434,46.749c-0.531,0-0.962,0.43-0.962,0.961
	c0,0.529,0.431,0.961,0.962,0.961h0.024h2.99c0.358,0.742,1.119,1.256,1.999,1.256c0.881,0,1.641-0.514,1.999-1.256h21.796h0.023
	c0.531,0,0.963-0.432,0.963-0.961c0-0.531-0.432-0.961-0.963-0.961h-0.023H29.447c-0.358-0.744-1.119-1.256-1.999-1.256
	c-0.879,0-1.641,0.512-1.999,1.256h-2.99H22.434L22.434,46.749z M44.069,29.539c0.609,0.364,1.014,1.03,1.014,1.794
	c0,0.789-0.406,1.432-1.074,1.828l-12.266,7.112c-0.623,0.365-1.42,0.387-2.086,0.002c-0.666-0.387-1.038-1.076-1.038-1.846
	l0.002-14.193c-0.015-0.733,0.364-1.452,1.04-1.845c0.683-0.396,1.436-0.356,2.113,0.02L44.069,29.539L44.069,29.539z M36.85,8.504
	c15.657,0,28.346,12.69,28.346,28.346c0,15.657-12.689,28.346-28.346,28.346c-15.655,0-28.346-12.689-28.346-28.346
	C8.504,21.195,21.195,8.504,36.85,8.504z"/>
</svg>
