<?xml version="1.0" encoding="utf-8"?>
<!-- Generator: Adobe Illustrator 16.0.0, SVG Export Plug-In . SVG Version: 6.00 Build 0)  -->
<!DOCTYPE svg PUBLIC "-//W3C//DTD SVG 1.1//EN" "http://www.w3.org/Graphics/SVG/1.1/DTD/svg11.dtd">
<svg version="1.1" id="Layer_1" xmlns="http://www.w3.org/2000/svg" xmlns:xlink="http://www.w3.org/1999/xlink" x="0px" y="0px"
	 width="73.701px" height="73.701px" viewBox="0 0 73.701 73.701" enable-background="new 0 0 73.701 73.701" xml:space="preserve">
<path id="Viral_Marketing_1_" fill-rule="evenodd" clip-rule="evenodd" fill="#404041" d="M51.979,28.553
	c2,0.983,3.377,3.04,3.377,5.418s-1.377,4.434-3.377,5.417c0.189-1.779,0.287-3.586,0.287-5.417S52.169,30.333,51.979,28.553
	L51.979,28.553z M48.731,21.303c1.041,4.049,1.594,8.294,1.594,12.668c0,4.374-0.553,8.618-1.594,12.668
	c-0.141,0.547-0.637,0.951-1.229,0.951c-0.701,0-1.27-0.568-1.27-1.27c0-0.109,0.016-0.215,0.041-0.316
	c0.082-0.314,0.158-0.631,0.234-0.947L32.28,40.009h-0.775v3.049l2.77,6.639c0.417-0.172,0.898,0.029,1.07,0.445l0.553,1.344
	c0.172,0.416-0.029,0.898-0.447,1.07l-5.577,2.316c-0.417,0.174-0.901-0.025-1.076-0.443l-4.169-9.994v-4.426h-0.244
	c-3.334,0-6.038-2.704-6.038-6.038c0-3.336,2.704-6.039,6.038-6.039h7.896l14.229-5.048c-0.076-0.317-0.152-0.634-0.234-0.947
	c0-0.073-0.041-0.207-0.041-0.316c0-0.7,0.568-1.269,1.27-1.269C48.081,20.352,48.587,20.743,48.731,21.303L48.731,21.303z
	 M46.935,24.877l-14.189,4.994l-7.872,0.003c-0.408,0.03-0.73,0.372-0.73,0.789c0,0.465,0.375,0.799,0.833,0.791h8.038l12.87-4.53
	c0.186,0.447,0.367,0.895,0.539,1.346c0.527,1.387,0.98,2.757,1.387,4.169C47.733,30.258,47.44,27.329,46.935,24.877L46.935,24.877z
	 M36.85,8.504c-15.655,0-28.346,12.69-28.346,28.346c0,15.657,12.69,28.346,28.346,28.346c15.657,0,28.346-12.689,28.346-28.346
	C65.196,21.195,52.507,8.504,36.85,8.504z"/>
</svg>
