<?xml version="1.0" encoding="utf-8"?>
<!-- Generator: Adobe Illustrator 16.0.0, SVG Export Plug-In . SVG Version: 6.00 Build 0)  -->
<!DOCTYPE svg PUBLIC "-//W3C//DTD SVG 1.1//EN" "http://www.w3.org/Graphics/SVG/1.1/DTD/svg11.dtd">
<svg version="1.1" id="Layer_1" xmlns="http://www.w3.org/2000/svg" xmlns:xlink="http://www.w3.org/1999/xlink" x="0px" y="0px"
	 width="73.701px" height="73.701px" viewBox="0 0 73.701 73.701" enable-background="new 0 0 73.701 73.701" xml:space="preserve">
<path id="Web_Analytics_1_" fill-rule="evenodd" clip-rule="evenodd" fill="#404041" d="M38.333,18.708
	c8.875,0.705,15.956,7.783,16.659,16.66h-8.775c-0.625-4.055-3.83-7.26-7.884-7.885V18.708L38.333,18.708z M54.992,38.276
	c-0.312,3.924-1.869,7.498-4.278,10.324l-6.205-6.205c0.872-1.191,1.473-2.596,1.708-4.119H54.992L54.992,38.276z M48.658,50.655
	l-6.205-6.205c-1.562,1.145-3.488,1.82-5.574,1.82c-5.219,0-9.448-4.23-9.448-9.449c0-4.725,3.467-8.639,7.995-9.338v-8.775
	c-9.354,0.742-16.717,8.566-16.717,18.113c0,10.035,8.135,18.172,18.17,18.172C41.374,54.993,45.486,53.358,48.658,50.655
	L48.658,50.655z M36.851,8.505c-15.655,0-28.347,12.689-28.347,28.346s12.691,28.346,28.347,28.346s28.347-12.689,28.347-28.346
	S52.506,8.505,36.851,8.505z"/>
</svg>
