<?xml version="1.0" encoding="utf-8"?>
<!-- Generator: Adobe Illustrator 16.0.0, SVG Export Plug-In . SVG Version: 6.00 Build 0)  -->
<!DOCTYPE svg PUBLIC "-//W3C//DTD SVG 1.1//EN" "http://www.w3.org/Graphics/SVG/1.1/DTD/svg11.dtd">
<svg version="1.1" id="Layer_1" xmlns="http://www.w3.org/2000/svg" xmlns:xlink="http://www.w3.org/1999/xlink" x="0px" y="0px"
	 width="73.701px" height="73.701px" viewBox="0 0 73.701 73.701" enable-background="new 0 0 73.701 73.701" xml:space="preserve">
<path id="Web_Development_1_" fill-rule="evenodd" clip-rule="evenodd" fill="#404041" d="M36.85,8.504
	c15.657,0,28.346,12.69,28.346,28.346c0,15.655-12.689,28.346-28.346,28.346c-15.655,0-28.346-12.691-28.346-28.346
	C8.504,21.195,21.195,8.504,36.85,8.504L36.85,8.504z M39.872,31.907l0.885,1.755c-0.197,0.376-0.359,0.767-0.48,1.167l-1.865,0.613
	c-0.143,0.865-0.146,1.759,0,2.684l1.865,0.615c0.123,0.4,0.285,0.791,0.484,1.166l-0.883,1.752
	c0.512,0.711,1.139,1.346,1.896,1.896l1.754-0.885c0.377,0.199,0.768,0.361,1.168,0.482l0.611,1.865c0.867,0.141,1.76,0.145,2.684,0
	l0.617-1.867c0.4-0.121,0.789-0.283,1.166-0.484l1.752,0.885c0.711-0.512,1.346-1.141,1.896-1.896l-0.885-1.756
	c0.199-0.375,0.361-0.766,0.482-1.166l1.863-0.613c0.143-0.866,0.146-1.758,0-2.682l-1.865-0.617
	c-0.123-0.4-0.285-0.791-0.484-1.167l0.885-1.751c-0.512-0.712-1.141-1.346-1.896-1.897l-1.756,0.885
	c-0.375-0.198-0.766-0.358-1.166-0.481l-0.613-1.864c-0.865-0.143-1.76-0.146-2.684,0l-0.617,1.866
	c-0.398,0.122-0.789,0.284-1.164,0.483l-1.752-0.884C41.058,30.522,40.425,31.15,39.872,31.907L39.872,31.907z M44.597,34.729
	c-1.135,1.133-1.135,2.971,0,4.104c1.133,1.133,2.969,1.133,4.104,0c1.133-1.133,1.133-2.971,0-4.104
	C47.565,33.596,45.729,33.596,44.597,34.729L44.597,34.729z M37.995,24.937c0.094-0.55,0.498-0.229,0.797-1.051
	c-1.41,0.551,0.02-1.565-1.092-0.149c-0.456,0.58-0.193,1.205-0.063,1.771h1.078C38.599,24.806,39.474,24.967,37.995,24.937
	L37.995,24.937z M34.825,26.011l-0.037,1.251c1.551,0.17,2.85,1.969,2.85,0.133c0-1.531,0.029-1.717-1.616-2.156L34.825,26.011
	L34.825,26.011z M37.489,43.312c-0.305,0.035-0.886,0.199-0.929,2.135c0.706,0.254,0.474,0.355,1.162,1.266
	c0.91,1.207,0.881,0.564,1.01,1.713c0.191,1.688-0.389,2.064-0.736,3.346c-0.008,0.033-0.018,0.07-0.027,0.105
	c0.043-0.006,0.086-0.014,0.125-0.021c0.662-0.143,1.109-0.422,1.639-0.795l2.053-1.738c1.123-1.066,1.664-1.184,2.119-1.631
	c-1.908-0.479-3.717-1.463-5.209-2.957C38.247,44.286,37.845,43.81,37.489,43.312L37.489,43.312z M36.85,18.708
	c-10.02,0-18.141,8.122-18.141,18.142c0,10.02,8.121,18.141,18.141,18.141c6.436,0,12.088-3.35,15.309-8.402
	c-1.541,0.867-3.242,1.344-4.959,1.428l-0.207,0.205c-2.693,2.406-6.246,3.867-10.143,3.867c-8.416,0-15.238-6.822-15.238-15.239
	c0-3.263,1.025-6.284,2.771-8.764c0.493-0.379,1.372-1.363,1.801-1.639c0.238-0.153,0.526-0.3,0.677-0.4
	c0,1.438-0.054,1.656-0.249,2.692c-0.2,1.062,0.114,1.158,0.115,1.162c0.162,1.129-0.484,2.741-0.484,5.862
	c0.143,0.165,1.308,2.948,1.397,2.967c0.089,0.02-0.795-2.844-0.697-2.727c0.11,0.132,0.251,0.367,0.477,0.8l0.614,1.273
	c0.029,0.051,0.07,0.117,0.1,0.17l0.613,1.271c1.053-0.115,0.197-0.121,1.348-0.539c0.029,1.336,0.028,1.199,1.03,1.666
	c1.573,0.732,1.401,0.309,2.595,0.637l1.137,0.479c1.313,0.676,0.95,0.936,2.252,0.984c-0.218-0.35-0.416-0.705-0.591-1.07h-0.495
	v-1.199c-0.045-0.127-0.086-0.254-0.125-0.383l-0.943,0.268c0.025-1.598,0.769-1.381-1.088-1.381v1.078h-0.808
	c-0.255-1.092-0.073-0.811-0.808-1.078c0.03-1.414,0.275-1.029,0.537-2.155H35.4c-0.012-2.894,1.087-5.79,3.294-7.997
	c0.678-0.679,1.422-1.252,2.211-1.721c-0.051-0.19-0.033-0.443-0.033-1.06c-1,0.267-0.35,0.271-1.348,0.539
	c0.387-1.45,0.955-1.221,1.078-2.694c-1.225-0.135-0.447-0.013-1.436-0.99c-0.932-0.921-0.965-0.358-0.98-1.231
	c0.381,0.033,0.76,0.08,1.133,0.141c0.715,0.287,0.975,0.26,1.861,1.892c0.436,0.802,0.811,1.849,1.662,2.491
	c0.242-0.087,0.488-0.165,0.734-0.235c0.084-2.159,0.58-2.017,0.17-2.7c0.582,0.295,1.143,0.628,1.678,0.992
	c-0.195-0.008-0.451,0.061-0.781,0.18c0.43,0.642,0.326,0.281,0.539,1.078h0.809c-0.01-0.445-0.051-0.754-0.139-0.954
	c0.42,0.308,0.824,0.638,1.211,0.987c1.711,0.062,3.408,0.514,4.953,1.354C48.774,21.963,43.192,18.708,36.85,18.708z"/>
</svg>
