<?xml version="1.0" encoding="utf-8"?>
<!-- Generator: Adobe Illustrator 16.0.0, SVG Export Plug-In . SVG Version: 6.00 Build 0)  -->
<!DOCTYPE svg PUBLIC "-//W3C//DTD SVG 1.1//EN" "http://www.w3.org/Graphics/SVG/1.1/DTD/svg11.dtd">
<svg version="1.1" id="Layer_1" xmlns="http://www.w3.org/2000/svg" xmlns:xlink="http://www.w3.org/1999/xlink" x="0px" y="0px"
	 width="73.701px" height="73.701px" viewBox="0 0 73.701 73.701" enable-background="new 0 0 73.701 73.701" xml:space="preserve">
<path id="Website_Optimization_1_" fill-rule="evenodd" clip-rule="evenodd" fill="#404041" d="M36.852,8.504
	c15.655,0,28.346,12.69,28.346,28.347c0,15.656-12.69,28.345-28.346,28.345S8.505,52.507,8.505,36.851
	C8.505,21.195,21.196,8.504,36.852,8.504L36.852,8.504z M23.244,23.245c-0.751,0-1.36,0.61-1.36,1.36
	c0,0.751,0.609,1.361,1.36,1.361s1.36-0.61,1.36-1.361C24.604,23.855,23.995,23.245,23.244,23.245L23.244,23.245z M36.852,45.937
	c3.622,0,6.56,2.938,6.56,6.561c3,0,6.001,0,9.001,0c0.796,0,1.447-0.65,1.447-1.445c0-10.373,0-18.027,0-28.4
	c0-0.797-0.651-1.448-1.447-1.448c-10.374,0-20.747,0-31.122,0c-0.795,0-1.446,0.651-1.446,1.448c-0.001,10.374,0,18.025,0,28.4
	c0,0.793,0.651,1.445,1.446,1.445c3.001,0,6.001,0,9.001,0C30.291,48.874,33.229,45.937,36.852,45.937L36.852,45.937z M51.775,49.97
	c0.027-0.074,0.043-0.154,0.043-0.236c0-7.496,0-13.509,0-21.004c0-0.388-0.326-0.723-0.725-0.723c-9.288,0-19.196,0-28.485,0
	c-0.398,0-0.725,0.328-0.725,0.723c0,7.495,0,13.508,0,21.004c0,0.086,0.018,0.168,0.047,0.246l3.229-1.063
	c0.229-0.746,0.527-1.463,0.887-2.141l-1.622-3.219c1.01-1.387,2.173-2.541,3.48-3.48l3.214,1.623
	c0.678-0.361,1.393-0.66,2.139-0.889l1.129-3.424c1.696-0.266,3.333-0.259,4.921,0l1.125,3.418c0.746,0.229,1.463,0.527,2.141,0.887
	l3.219-1.623c1.388,1.01,2.542,2.174,3.48,3.48l-1.622,3.215c0.359,0.678,0.659,1.393,0.888,2.139L51.775,49.97L51.775,49.97z
	 M31.407,23.245c-0.75,0-1.36,0.61-1.36,1.36c0,0.751,0.61,1.361,1.36,1.361c0.751,0,1.361-0.61,1.361-1.361
	C32.769,23.855,32.158,23.245,31.407,23.245L31.407,23.245z M27.325,23.245c-0.752,0-1.36,0.61-1.36,1.36
	c0,0.751,0.608,1.361,1.36,1.361s1.361-0.61,1.361-1.361C28.687,23.855,28.077,23.245,27.325,23.245z"/>
</svg>
